<?xml version="1.0" encoding="UTF-8"?>
<svg width="660px" height="660px" viewBox="0 0 660 660" version="1.1" xmlns="http://www.w3.org/2000/svg" xmlns:xlink="http://www.w3.org/1999/xlink">
    <!-- Generator: Sketch 41.1 (35376) - http://www.bohemiancoding.com/sketch -->
    <title>article_list_empty_image</title>
    <desc>Created with Sketch.</desc>
    <defs>
        <rect id="path-1" x="0" y="0" width="32" height="27"></rect>
    </defs>
    <g id="Symbols" stroke="none" stroke-width="1" fill="none" fill-rule="evenodd">
        <g id="article_list_empty_image">
            <rect id="area" x="0" y="0" width="660" height="660"></rect>
            <g id="oval" transform="translate(90.000000, 60.000000)">
                <circle id="shadow" fill-opacity="0.05" fill="#0091FF" cx="248" cy="248" r="240"></circle>
                <circle id="background" fill="#FFFFFF" cx="240" cy="240" r="240"></circle>
                <circle id="area" fill="#FFFFFF" cx="240" cy="240" r="238.5"></circle>
                <path d="M21.9654379,336.806932 L387.070149,427.769959 C388.061452,426.992436 389.046443,426.207233 390.025034,425.414439 L20.4565111,333.339288 C20.950581,334.499916 21.4535853,335.655826 21.9654379,336.806932 Z M1.73872988,250.767603 L445.393026,361.300654 C445.923384,360.404551 446.448048,359.504677 446.966965,358.601083 L2.01936239,247.745815 L1.67192299,249.140357 C1.69237938,249.683238 1.71465031,250.225656 1.73872988,250.767603 Z M11.290418,172.147333 L473.794534,287.376671 C473.992179,286.396007 474.183808,285.413165 474.369382,284.428184 L12.1618249,169.272731 C11.865495,170.228374 11.5750121,171.186588 11.290418,172.147333 Z M46.8821224,100.014732 L476.233313,206.984274 C476.084921,205.912674 475.929409,204.843348 475.766828,203.776347 L48.8061852,97.4023911 C48.1590786,98.2686451 47.5177046,99.1394443 46.8821359,100.014732 Z M115.99283,36.2331325 L445.115397,118.231485 C444.388792,117.010176 443.65159,115.795907 442.903917,114.588806 L119.643668,34.0510045 C118.41972,34.7678236 117.202732,35.4952416 115.99283,36.2331325 Z" id="Combined-Shape" fill-opacity="0.4" fill="#66FFF9"></path>
                <path d="M230.559112,253.25898 L230.559112,391.333043 L233.559112,391.333043 C240.43614,372.668797 281.559112,269.833043 305.559112,236.833043 C305.559112,236.833043 268.059112,181.333043 265.059112,109.333043 L229.059112,109.333043 L193.059112,109.333043 C190.059112,181.333043 152.559112,236.833043 152.559112,236.833043 C176.559112,269.833043 217.682084,372.668797 224.559112,391.333043 L227.559112,391.333043 L227.559112,253.25898 C219.979128,252.506393 214.059112,246.111065 214.059112,238.333043 C214.059112,230.048772 220.774841,223.333043 229.059112,223.333043 C237.343383,223.333043 244.059112,230.048772 244.059112,238.333043 C244.059112,246.111065 238.139096,252.506393 230.559112,253.25898 Z" id="Combined-Shape" fill="#CBE8FF" transform="translate(229.059112, 250.333043) rotate(30.000000) translate(-229.059112, -250.333043) "></path>
                <path d="M268.113448,110.498166 C229.515448,171.352166 169.289448,200.666166 169.289448,200.666166 C173.574448,241.245166 157.769448,350.865166 154.393448,370.467166 L156.991448,371.967166 L226.028448,252.391166 C219.840448,247.950166 217.911448,239.451166 221.800448,232.715166 C224.578448,227.903166 229.620448,225.213166 234.804448,225.213166 C237.349448,225.213166 239.928448,225.861166 242.290448,227.225166 C249.464448,231.367166 251.922448,240.541166 247.780448,247.715166 C245.002448,252.527166 239.960448,255.218166 234.776448,255.218166 C232.703448,255.218166 230.609448,254.788166 228.626448,253.891166 L159.589448,373.467166 L162.187448,374.967166 C177.475448,362.242166 264.506448,293.745166 301.791448,277.166166 C301.791448,277.166166 297.065448,210.352166 330.467448,146.498166 L299.290448,128.498166 L268.113448,110.498166 Z M269.565448,116.532166 L297.040448,132.395166 L324.515448,148.258166 C308.383448,180.602166 301.807448,213.214166 299.136448,235.235166 C296.843448,254.139166 296.950448,268.342166 297.153448,274.354166 C263.822448,290.319166 199.707448,339.374166 171.647448,361.582166 L230.706448,259.289166 C232.035448,259.574166 233.395448,259.718166 234.776448,259.718166 C241.728448,259.718166 248.204448,255.981166 251.677448,249.965166 C254.282448,245.455166 254.974448,240.200166 253.626448,235.168166 C252.277448,230.137166 249.051448,225.932166 244.540448,223.328166 C241.577448,221.617166 238.210448,220.713166 234.804448,220.713166 C227.852448,220.713166 221.375448,224.450166 217.902448,230.465166 C213.575448,237.961166 214.715448,247.140166 220.311448,253.294166 L161.254448,355.582166 C166.457448,320.178166 176.883448,240.124166 174.044448,203.276166 C179.351448,200.447166 191.705448,193.437166 206.930448,182.000166 C224.665448,168.677166 249.620448,146.675166 269.565448,116.532166 Z" id="Fill-1" fill="#008CFF"></path>
                <path d="M417.635817,80.9512497 L360.533288,179.85573 C353.905829,191.334827 339.220609,195.263839 327.756818,188.645216 L234.209642,134.635729 C222.735157,128.010932 218.802928,113.339915 225.433325,101.85573 L281.404381,4.91101788 C335.181056,14.3922667 382.744041,41.8915167 417.635819,80.9512522 Z" id="Combined-Shape" fill="#FFFFFF"></path>
                <path d="M417.635817,80.9512497 L360.533288,179.85573 C353.905829,191.334827 339.220609,195.263839 327.756818,188.645216 L234.209642,134.635729 C222.735157,128.010932 218.802928,113.339915 225.433325,101.85573 L281.404381,4.91101788 C282.973253,5.18762232 284.536837,5.47956211 286.094971,5.78667692 L229.330439,104.10573 C223.943581,113.436044 227.13592,125.355561 236.459642,130.738615 L330.006818,184.748102 C339.321945,190.126193 351.253465,186.928856 356.636174,177.60573 L414.455119,77.4603797 C415.526687,78.6134401 416.586978,79.7771231 417.635819,80.9512522 Z" id="Combined-Shape" fill="#008CFF"></path>
                <polygon id="Rectangle" fill="#008CFF" transform="translate(302.839832, 123.783728) rotate(30.000000) translate(-302.839832, -123.783728) " points="228.718511 122.283728 376.961152 122.283728 376.961152 125.283728 228.718511 125.283728"></polygon>
                <path d="M71.9047011,411.300911 C116.482336,455.049457 176.274579,480 240,480 C372.54834,480 480,372.54834 480,240 C480,107.45166 372.54834,0 240,0 C107.45166,0 0,107.45166 0,240 L0,501.75 C0,502.992641 1.00735931,504 2.25,504 C3.49264069,504 4.5,502.992641 4.5,501.75 L4.5,240 C4.5,109.936941 109.936941,4.5 240,4.5 C370.063059,4.5 475.5,109.936941 475.5,240 C475.5,370.063059 370.063059,475.5 240,475.5 C177.46545,475.5 118.801233,451.020168 75.0566746,408.089204 C74.1697861,407.218811 72.7452277,407.232183 71.8748342,408.119071 C71.0044408,409.00596 71.0178127,410.430518 71.9047011,411.300911 Z" id="Oval-2" fill="#008CFF"></path>
            </g>
            <g id="arrowHead" transform="translate(76.000000, 543.000000)">
                <mask id="mask-2" fill="white">
                    <use xlink:href="#path-1"></use>
                </mask>
                <g id="area"></g>
                <polygon id="Line" fill="#0091FF" mask="url(#mask-2)" points="-1.99801979 1.31801948 -5.18000031 4.5 16.0019802 25.6819805 37.1839607 4.5 34.0019802 1.31801948 16.0019802 19.3180195"></polygon>
            </g>
        </g>
    </g>
</svg>