<?xml version="1.0" encoding="UTF-8" standalone="no"?>
<svg width="780px" height="684px" viewBox="0 0 780 684" version="1.1" xmlns="http://www.w3.org/2000/svg" xmlns:xlink="http://www.w3.org/1999/xlink">
    <!-- Generator: Sketch 39.1 (31720) - http://www.bohemiancoding.com/sketch -->
    <title>discover_recommend_bg</title>
    <desc>Created with Sketch.</desc>
    <defs></defs>
    <g id="引导关注微信好友" stroke="none" stroke-width="1" fill="none" fill-rule="evenodd">
        <g id="Artboard" transform="translate(-70.000000, -59.000000)">
            <g id="discover_recommend_bg.pdf" transform="translate(70.000000, 59.000000)">
                <circle id="Oval" fill-opacity="0.1" fill="#0089F6" cx="405" cy="351" r="45"></circle>
                <path d="M348,342 C348,318.804041 366.804041,300 390,300 C413.195959,300 432,318.804041 432,342 C432,365.195959 413.195959,384 390,384 C366.804041,384 348,365.195959 348,342 Z M428,342 C428,321.01318 410.98682,304 390,304 C369.01318,304 352,321.01318 352,342 C352,362.98682 369.01318,380 390,380 C410.98682,380 428,362.98682 428,342 Z" id="Oval" fill-opacity="0.28" fill="#007DE1"></path>
                <path d="M466.644893,261.709267 C487.81281,281.921837 501,310.420902 501,342 C501,363.211543 495.050269,383.033452 484.728637,399.887897 C483.726003,398.718319 482.612756,397.646352 481.405112,396.688213 C490.989819,380.702883 496.5,361.994927 496.5,342 C496.5,311.627829 483.786127,284.225142 463.390117,264.823674 C464.57,263.889085 465.659957,262.845918 466.644893,261.709267 Z M426.226067,237.045801 C414.872632,233.127746 402.684797,231 390,231 C328.696393,231 279,280.696393 279,342 C279,403.303607 328.696393,453 390,453 C412.800648,453 433.995648,446.125404 451.62532,434.335891 C450.416248,433.379788 449.301413,432.30975 448.297024,431.141987 C431.548596,442.117406 411.519665,448.5 390,448.5 C331.181674,448.5 283.5,400.818326 283.5,342 C283.5,283.181674 331.181674,235.5 390,235.5 C402.241153,235.5 413.999943,237.565241 424.946945,241.366299 C425.239272,239.871824 425.670296,238.427007 426.226067,237.045801 Z M462.053217,421.446783 L454.897851,419.117742 C453.849697,418.776573 453.851705,418.222774 454.897851,417.882258 L462.053217,415.553217 L464.382258,408.397851 C464.723427,407.349697 465.277226,407.351705 465.617742,408.397851 L467.946783,415.553217 L475.102149,417.882258 C476.150303,418.223427 476.148295,418.777226 475.102149,419.117742 L467.946783,421.446783 L465.617742,428.602149 C465.276573,429.650303 464.722774,429.648295 464.382258,428.602149 L462.053217,421.446783 Z" id="Oval" fill-opacity="0.26" fill="#007DE1"></path>
                <path d="M549.987581,235.811881 C570.21429,266.225412 582,302.736356 582,342 C582,436.62362 513.549965,515.259878 423.464966,531.093702 C423.268712,529.588551 422.973289,528.114567 422.585467,526.678519 C510.606052,511.254473 577.5,434.439196 577.5,342 C577.5,303.878555 566.123381,268.414261 546.580068,238.817045 C547.794659,237.906385 548.934149,236.901009 549.98758,235.811878 Z M511.855329,193.617353 C478.706451,166.363008 436.264118,150 390,150 C389.468815,150 388.938133,150.002157 388.407964,150.006463 C388.468711,150.495781 388.5,150.994236 388.5,151.5 C388.5,152.539225 388.367897,153.547595 388.119567,154.509234 C388.745648,154.503083 389.372464,154.5 390,154.5 C434.959028,154.5 476.222231,170.323711 508.524131,196.705657 C509.550402,195.590521 510.664456,194.557434 511.855332,193.617356 Z M203.997231,389.799034 C200.26915,375.248823 198.203377,360.032655 198.014265,344.364885 C199.183153,344.776246 200.440446,345 201.75,345 C202.009854,345 202.26765,344.99119 202.523106,344.973852 C202.756589,359.989695 204.755216,374.577144 208.320626,388.537839 C206.769027,388.664719 205.30656,389.106452 203.997231,389.799034 Z M210.734123,410.902975 C234.559397,472.849948 289.569691,519.323513 356.535034,531.093702 C356.731288,529.588551 357.026711,528.114567 357.414533,526.678519 C292.026023,515.220342 238.296606,469.882375 214.989484,409.42782 C213.712376,410.186849 212.272217,410.700273 210.734123,410.902975 Z M198.942742,322.853076 C207.717084,234.229315 276.752158,163.322175 364.501298,151.678324 C364.524077,153.242078 364.845968,154.733413 365.412316,156.097671 C279.791647,167.312254 212.347557,236.293503 203.488027,322.633437 C202.921548,322.545587 202.341098,322.5 201.75,322.5 C200.780733,322.5 199.840095,322.622577 198.942742,322.853076 Z M529.061105,220.307462 L520.407542,220.756727 C519.300351,220.814209 519.095411,220.299304 519.962247,219.596562 L526.693681,214.139398 L526.244935,205.485413 C526.18752,204.378168 526.70241,204.173188 527.405067,205.040029 L532.861562,211.771497 L541.515125,211.322232 C542.622316,211.26475 542.827256,211.779655 541.96042,212.482398 L535.228986,217.939561 L535.677732,226.593546 C535.735147,227.700791 535.220257,227.905771 534.517601,227.03893 L529.061105,220.307462 Z" id="Oval" fill-opacity="0.140000001" fill="#007DE1"></path>
                <path d="M119.352572,305.999639 C117.800749,317.779617 117,329.796296 117,342 C117,492.773737 239.226263,615 390,615 C471.068263,615 543.883409,579.664204 593.88358,523.554471 C592.509214,522.765526 591.180447,521.906127 589.902211,520.981195 C540.741294,575.922678 469.29297,610.5 389.769304,610.5 C241.492299,610.5 121.290037,490.288455 121.290037,342 C121.290037,330.252801 122.044376,318.681801 123.507254,307.332804 C122.095466,306.950168 120.709511,306.504718 119.352572,305.999639 Z M148.480343,214.613912 C169.851629,174.178469 201.080061,139.757122 238.966233,114.549278 C239.657403,115.847532 240.496752,117.054903 241.461711,118.148822 C204.344535,142.79312 173.709712,176.423863 152.66133,215.936722 C151.295738,215.434398 149.900999,214.992385 148.480343,214.613912 Z M641.869302,447.496999 C655.479882,415.040854 663,379.398636 663,342 C663,258.801047 625.782358,184.294741 567.087546,134.221553 C566.569776,135.763825 565.85697,137.216569 564.978432,138.550463 C622.092445,187.788666 658.248571,260.671649 658.248571,342 C658.248571,378.483473 650.972611,413.267424 637.792696,444.97974 C639.198747,445.747668 640.559306,446.588447 641.869301,447.497001 Z M512.704552,98.0636939 C521.604107,102.549137 530.224622,107.507274 538.533117,112.905125 C537.221654,113.82801 536.033832,114.914789 534.999421,116.13569 C527.108624,111.05065 518.934156,106.367898 510.505003,102.116422 C511.378384,100.858279 512.118389,99.5005468 512.704552,98.0636939 Z M473.653086,82.0551625 C447.29071,73.5780801 419.179989,69 390,69 C347.549788,69 307.362531,78.6888643 271.528988,95.9758348 C272.291343,97.2215337 272.912353,98.5631374 273.369705,99.9783323 C308.582201,83.0094132 348.065317,73.5 389.769304,73.5 C418.592644,73.5 446.355128,78.0424189 472.380047,86.4504971 C472.64634,84.9226315 473.076982,83.4512243 473.653086,82.0551625 Z M616.931468,490.818713 L604.9079,494.48825 C603.854196,494.809836 603.534786,494.360032 604.199662,493.476698 L611.759918,483.432367 L608.090964,471.408023 C607.76943,470.354251 608.219209,470.034806 609.102462,470.699707 L619.145865,478.260246 L631.169433,474.590709 C632.223137,474.269123 632.542547,474.718927 631.877671,475.602261 L624.317415,485.646592 L627.986368,497.670936 C628.307903,498.724708 627.858124,499.044154 626.974871,498.379253 L616.931468,490.818713 Z M134.5,267 C140.29899,267 145,262.29899 145,256.5 C145,250.70101 140.29899,246 134.5,246 C128.70101,246 124,250.70101 124,256.5 C124,262.29899 128.70101,267 134.5,267 Z" id="Combined-Shape" fill-opacity="0.1" fill="#0089F6"></path>
                <path d="M52.3076787,287.569193 C50.7060863,297.583545 49.539243,307.743027 48.8271121,318.027675 C49.4147012,318.009271 50.0045929,318 50.5966498,318 C51.444415,318 52.2877405,318.019008 53.1262237,318.056621 C53.8376609,307.906297 54.997936,297.87976 56.5873294,287.996728 C55.1277083,287.97357 53.697874,287.827774 52.3076787,287.569193 Z M64.099459,238.001331 C94.1923902,143.618419 164.150239,67.0304814 254.179089,28.0314355 C254.522439,29.4863563 254.959946,30.9049125 255.484826,32.2803162 C166.71521,70.8268786 97.7570973,146.419233 68.1213493,239.546518 C66.8372073,238.923177 65.4928861,238.404424 64.099459,238.001331 Z M416.907818,682.957031 C408.029374,683.648033 399.05579,684 390,684 C317.418298,684 250.117486,661.389822 194.756713,622.828616 C195.801836,621.787938 196.805721,620.705879 197.765701,619.585101 C252.274476,657.363793 318.447162,679.5 389.790037,679.5 C398.47125,679.5 407.07591,679.172235 415.592316,678.528404 C415.898324,680.058495 416.341265,681.539145 416.907818,682.957031 Z M466.017707,675.521357 C490.806093,669.895181 514.57169,661.576396 536.990731,650.888766 C536.299017,649.52783 535.65964,648.135814 535.075253,646.715369 C513.232471,657.148498 490.092279,665.3022 465.962532,670.868619 C466.051211,671.733668 466.09665,672.611528 466.09665,673.5 C466.09665,674.180337 466.070007,674.854452 466.017707,675.521357 Z M58.9991441,428.368072 C70.1642069,471.277534 89.4524884,510.909459 115.123699,545.523557 C116.121995,544.460063 117.161727,543.435924 118.240322,542.453721 C93.1162819,508.475276 74.2175994,469.614452 63.2290247,427.556 C61.8384077,427.879696 60.4277195,428.151114 58.9991441,428.368072 Z M630.521114,585.132916 C693.179973,523.142978 732,437.104941 732,342 C732,327.040157 731.039486,312.304654 729.176764,297.851798 C727.635318,298.08422 726.073902,298.255698 724.495049,298.3637 C726.339102,312.648485 727.290037,327.213191 727.290037,342 C727.290037,435.82691 689.002552,520.711298 627.199069,581.881681 C628.349388,582.920728 629.457688,584.005425 630.521114,585.132916 Z M695.733086,188.565367 C690.699533,178.555149 685.188821,168.826157 679.230807,159.408251 C677.90555,160.231371 676.508033,160.949146 675.049957,161.549875 C681.025881,170.977004 686.547374,180.720659 691.583628,190.750034 C692.93314,189.967778 694.317245,189.238604 695.733086,188.565367 Z M644.889669,113.970426 C627.454422,94.494753 607.819852,77.0291463 586.376395,61.9640418 C585.763161,63.4038604 585.052756,64.7923485 584.253412,66.121268 C605.308147,80.9896561 624.58535,98.2075133 641.703475,117.393292 C642.671253,116.167233 643.737277,115.022319 644.889669,113.970426 Z M527.963366,28.9682749 C485.764788,10.3428462 439.090244,0 390,0 C365.406653,0 341.419606,2.59588215 318.297914,7.5285925 C318.858336,8.90476364 319.330553,10.3262444 319.707542,11.7860137 C342.316376,7.01138697 365.759924,4.5 389.790037,4.5 C438.067754,4.5 483.977924,14.6366736 525.508297,32.89777 C526.237845,31.5290365 527.058926,30.2164817 527.963368,28.9682752 Z M45.7492471,190.5 C51.1336076,190.5 55.4984943,186.134776 55.4984943,180.75 C55.4984943,175.365224 51.1336076,171 45.7492471,171 C40.3648866,171 36,175.365224 36,180.75 C36,186.134776 40.3648866,190.5 45.7492471,190.5 Z" id="Combined-Shape" fill-opacity="0.04" fill="#0089F6"></path>
                <path d="M558.046755,52.6100378 L549.746668,53.6250352 C548.651704,53.7589356 548.422846,53.2524765 549.224163,52.504408 L555.336812,46.7979589 L554.322286,38.4974308 C554.188448,37.4024091 554.694889,37.1735117 555.442873,37.9748399 L561.148681,44.0875664 L569.448769,43.072569 C570.543732,42.9386685 570.772591,43.4451277 569.971273,44.1931962 L563.858625,49.8996453 L564.87315,58.2001734 C565.006988,59.2951951 564.500548,59.5240925 563.752563,58.7227643 L558.046755,52.6100378 Z" id="Star" fill-opacity="0.119999997" fill="#0089F6" transform="translate(559.597718, 48.348802) rotate(-10.000000) translate(-559.597718, -48.348802) "></path>
                <circle id="Oval-3" fill-opacity="0.160000011" fill="#0089F6" cx="18" cy="466" r="18"></circle>
                <circle id="Oval-3-Copy" fill="#E7F3FC" cx="417.5" cy="69.5" r="14.5"></circle>
                <circle id="Oval-3-Copy-2" fill-opacity="0.100000001" fill="#0089F6" cx="590.5" cy="622.5" r="16.5"></circle>
            </g>
        </g>
    </g>
</svg>