<?xml version="1.0" encoding="UTF-8" standalone="no"?>
<svg width="48px" height="48px" viewBox="0 0 48 48" version="1.1" xmlns="http://www.w3.org/2000/svg" xmlns:xlink="http://www.w3.org/1999/xlink">
    <!-- Generator: Sketch 3.8.3 (29802) - http://www.bohemiancoding.com/sketch -->
    <title>icon_bookdetail_more</title>
    <desc>Created with Sketch.</desc>
    <defs></defs>
    <g id="Symbols" stroke="none" stroke-width="1" fill="none" fill-rule="evenodd">
        <g id="icon_bookdetail_more">
            <rect id="icon" x="0" y="0" width="48" height="48"></rect>
            <path d="M6,17.9943041 C6,14.6837413 8.67643992,12 12.0053227,12 L35.9946773,12 C39.3113255,12 42,14.6832456 42,17.9943041 L42,30.0056959 C42,33.3162587 39.3235601,36 35.9946773,36 L12.0053227,36 C8.68867454,36 6,33.3167544 6,30.0056959 L6,17.9943041 Z M33,27 C34.6568542,27 36,25.6568542 36,24 C36,22.3431458 34.6568542,21 33,21 C31.3431458,21 30,22.3431458 30,24 C30,25.6568542 31.3431458,27 33,27 Z M24,27 C25.6568542,27 27,25.6568542 27,24 C27,22.3431458 25.6568542,21 24,21 C22.3431458,21 21,22.3431458 21,24 C21,25.6568542 22.3431458,27 24,27 Z M15,27 C16.6568542,27 18,25.6568542 18,24 C18,22.3431458 16.6568542,21 15,21 C13.3431458,21 12,22.3431458 12,24 C12,25.6568542 13.3431458,27 15,27 Z" id="Combined-Shape" fill="#ADB4BE"></path>
        </g>
    </g>
</svg>