<?xml version="1.0" encoding="UTF-8" standalone="no"?>
<svg width="72px" height="72px" viewBox="0 0 72 72" version="1.1" xmlns="http://www.w3.org/2000/svg" xmlns:xlink="http://www.w3.org/1999/xlink">
    <!-- Generator: Sketch 3.7.2 (28276) - http://www.bohemiancoding.com/sketch -->
    <title>icon_home_tab_bookshelf_normal</title>
    <desc>Created with Sketch.</desc>
    <defs></defs>
    <g id="slice" stroke="none" stroke-width="1" fill="none" fill-rule="evenodd">
        <g id="icon_bar" transform="translate(-324.000000, -192.000000)" fill="#858C96">
            <g id="icon_home_tab_bookshelf_normal" transform="translate(324.000000, 192.000000)">
                <path d="M72,39 L72,40.2733236 C68.3820428,42.6951076 66,46.8193758 66,51.5 C66,56.1806242 68.3820428,60.3048924 72,62.7266764 L72,64 L12.5003198,64 C5.5965838,64 0,58.4050773 0,51.5 C0,44.5964406 5.58980741,39 12.5003198,39 L72,39 Z M12.5003198,60 C7.80510049,60 4,56.195316 4,51.5 C4,46.802926 7.80159929,43 12.5003198,43 L65.0113429,43 C63.1283305,45.3206985 62,48.2785814 62,51.5 C62,54.7214186 63.1283305,57.6793015 65.0113429,60 L12.5003198,60 Z" id="Path" transform="translate(36.000000, 51.500000) scale(-1, 1) translate(-36.000000, -51.500000) "></path>
                <path d="M72,8 L72,9.27332355 C68.3820428,11.6951076 66,15.8193758 66,20.5 C66,25.1806242 68.3820428,29.3048924 72,31.7266764 L72,33 L12.5003198,33 C5.5965838,33 0,27.4050773 0,20.5 C0,13.5964406 5.58980741,8 12.5003198,8 L72,8 Z M12.5003198,29 C7.80510049,29 4,25.195316 4,20.5 C4,15.802926 7.80159929,12 12.5003198,12 L65.0113429,12 C63.1283305,14.3206985 62,17.2785814 62,20.5 C62,23.7214186 63.1283305,26.6793015 65.0113429,29 L12.5003198,29 Z" id="Path"></path>
            </g>
        </g>
    </g>
</svg>