<?xml version="1.0" encoding="UTF-8" standalone="no"?>
<svg width="72px" height="72px" viewBox="0 0 72 72" version="1.1" xmlns="http://www.w3.org/2000/svg" xmlns:xlink="http://www.w3.org/1999/xlink">
    <!-- Generator: Sketch 3.7.1 (28215) - http://www.bohemiancoding.com/sketch -->
    <title>icon_reader_top_friend</title>
    <desc>Created with Sketch.</desc>
    <defs></defs>
    <g id="slice" stroke="none" stroke-width="1" fill="none" fill-rule="evenodd">
        <g id="icon_reading" transform="translate(-138.000000, -190.000000)">
            <g id="icon_reader_top_friend" transform="translate(138.000000, 190.000000)">
                <rect id="icon" x="0" y="0" width="72" height="72"></rect>
                <path d="M20.6521739,23.1014493 L20.6521739,23.1014493 C20.6521739,27.3588646 22.2833792,31.7649416 24.9608785,34.940312 C26.3834883,36.6284108 27.173913,38.7544257 27.173913,40.9606243 C27.173913,44.395491 25.288479,47.5542675 22.2639978,49.1696934 L4.96608099,58.4056078 C4.99032229,58.3926616 5,58.3764487 5,58.3646377 L5,60.5930881 C5,60.255081 4.77769121,60.0253069 4.52272028,60.0085799 L4.26086957,64 L4.26086957,60 L57.7391304,60 L57.7391304,64 L57.4772797,60.0085799 C57.2223088,60.0253069 57,60.255081 57,60.5930881 L57,58.3646377 C57,58.3764487 57.0096777,58.3926616 57.034263,58.4057915 L39.7354956,49.1694229 C36.711521,47.5542675 34.826087,44.395491 34.826087,40.9606243 C34.826087,38.7544257 35.6165117,36.6284108 37.0398443,34.9394545 C39.7166208,31.7649416 41.3478261,27.3588646 41.3478261,23.1014493 C41.3478261,15.7253246 36.5442597,10 31,10 C25.4557403,10 20.6521739,15.7253246 20.6521739,23.1014493 L20.6521739,23.1014493 Z M16.6521739,23.1014493 L16.6521739,23.1014493 C16.6521739,13.6561873 23.076087,6 31,6 C38.923913,6 45.3478261,13.6561873 45.3478261,23.1014493 C45.3478261,28.4265775 43.3013043,33.7188183 40.0978261,37.517971 C39.2852174,38.4822297 38.826087,39.6951171 38.826087,40.9606243 C38.826087,42.922029 39.9008696,44.7229431 41.62,45.6411594 L58.9182609,54.8772575 C60.1991304,55.5613155 61,56.9031215 61,58.3646377 L61,60.5930881 C61,62.4097882 59.5404348,63.8818283 57.7391304,64 L4.26086957,64 C2.45956522,63.8818283 1,62.4097882 1,60.5930881 L1,58.3646377 C1,56.9031215 1.80086957,55.5613155 3.08173913,54.8772575 L20.38,45.6411594 C22.0991304,44.7229431 23.173913,42.922029 23.173913,40.9606243 C23.173913,39.6951171 22.7147826,38.4822297 21.9021739,37.517971 C18.6986957,33.7188183 16.6521739,28.4265775 16.6521739,23.1014493 L16.6521739,23.1014493 Z" id="Imported-Layers" fill="#1B88EE"></path>
                <path d="M46.6244458,12.0197296 C52.6732111,12.402916 57.4782609,18.3197266 57.4782609,25.5632184 C57.4782609,29.7865959 55.8410435,33.9838904 53.2782609,36.9970115 C52.6281739,37.7617683 52.2608696,38.7237135 52.2608696,39.7273917 C52.2608696,41.2829885 53.1206957,42.7112997 54.496,43.4395402 L68.3346087,50.7647215 C69.3593043,51.3072502 70,52.3714412 70,53.5305747 L70,55.2979664 C70,56.7387975 68.8323478,57.9062776 67.3913043,58 L64.9916952,58 C64.9257323,56.553367 64.4690054,55.175822 63.6995098,54 L67.3913043,54 L67.3913043,58 L67.1317014,54.0084331 C66.5185167,54.0483133 66,54.5796223 66,55.2979664 L66,53.5305747 C66,53.853036 66.1782498,54.1490805 66.4632855,54.2999937 L59.5907133,50.6621397 L50.8536271,45.7109067 C49.2223874,44.1820144 48.2608696,42.0259714 48.2608696,39.7273917 C48.2608696,37.7738359 48.9657442,35.8942702 50.231317,34.4054612 C52.2456082,32.0372137 53.4782609,28.736377 53.4782609,25.5632184 C53.4782609,21.3005826 51.304068,17.8238156 48.4433173,16.5363869 C47.9908784,14.9414417 47.3777296,13.4268052 46.6244458,12.0197296 Z" id="Imported-Layers" fill="#1B88EE"></path>
            </g>
        </g>
    </g>
</svg>