<?xml version="1.0" encoding="UTF-8"?>
<svg width="48px" height="48px" viewBox="0 0 48 48" version="1.1" xmlns="http://www.w3.org/2000/svg" xmlns:xlink="http://www.w3.org/1999/xlink">
    <!-- Generator: Sketch 41.2 (35397) - http://www.bohemiancoding.com/sketch -->
    <title>icon_recording_bubble_close</title>
    <desc>Created with Sketch.</desc>
    <defs></defs>
    <g id="Symbols" stroke="none" stroke-width="1" fill="none" fill-rule="evenodd">
        <g id="icon_recording_bubble_close">
            <rect id="icon" x="0" y="0" width="48" height="48"></rect>
            <path d="M24.2255958,22.1102691 L13.6197308,11.5044042 C13.0329467,10.91762 12.0834601,10.917881 11.4976737,11.5036674 C10.9078033,12.0935378 10.9122171,13.0395312 11.4984105,13.6257245 L22.1042754,24.2315895 L11.4984105,34.8374544 C10.9122171,35.4236478 10.9078033,36.3696411 11.4976737,36.9595115 C12.0834601,37.545298 13.0329467,37.5455589 13.6197308,36.9587748 L24.2255958,26.3529098 L34.8314607,36.9587748 C35.4182449,37.5455589 36.3677314,37.545298 36.9535178,36.9595115 C37.5433883,36.3696411 37.5389744,35.4236478 36.9527811,34.8374544 L26.3469161,24.2315895 L36.9527811,13.6257245 C37.5389744,13.0395312 37.5433883,12.0935378 36.9535178,11.5036674 C36.3677314,10.917881 35.4182449,10.91762 34.8314607,11.5044042 L24.2255958,22.1102691 Z" id="Combined-Shape" fill="#FFFFFF"></path>
        </g>
    </g>
</svg>