<?xml version="1.0" encoding="UTF-8"?>
<svg width="60px" height="60px" viewBox="0 0 60 60" version="1.1" xmlns="http://www.w3.org/2000/svg" xmlns:xlink="http://www.w3.org/1999/xlink">
    <!-- Generator: Sketch 40.1 (33804) - http://www.bohemiancoding.com/sketch -->
    <title>icon_quote</title>
    <desc>Created with Sketch.</desc>
    <defs></defs>
    <g id="Symbols" stroke="none" stroke-width="1" fill="none" fill-rule="evenodd">
        <g id="icon_quote">
            <g>
                <rect id="icon" x="0" y="0" width="60" height="60"></rect>
                <path d="M30,35.0466102 C30,30.3368644 31.2,26.1101695 33.6,22.4872881 C36,18.9851695 39.6,16.4491525 44.04,15 L45,15.7245763 C40.44,19.3474576 38.04,23.6949153 37.68,28.404661 C39.6,28.404661 30,37.7033898 30,35.0466102 Z" id="Path" fill="#99A0AA"></path>
                <circle id="Oval" fill="#99A0AA" cx="36.75" cy="35.25" r="6.75"></circle>
                <path d="M10.5,35.0466102 C10.5,30.3368644 11.7,26.1101695 14.1,22.4872881 C16.5,18.9851695 20.1,16.4491525 24.54,15 L25.5,15.7245763 C20.94,19.3474576 18.54,23.6949153 18.18,28.404661 C20.1,28.404661 10.5,37.7033898 10.5,35.0466102 Z" id="Path" fill="#99A0AA"></path>
                <circle id="Oval" fill="#99A0AA" cx="17.25" cy="35.25" r="6.75"></circle>
            </g>
        </g>
    </g>
</svg>