<?xml version="1.0" encoding="UTF-8" standalone="no"?>
<svg width="72px" height="72px" viewBox="0 0 72 72" version="1.1" xmlns="http://www.w3.org/2000/svg" xmlns:xlink="http://www.w3.org/1999/xlink">
    <!-- Generator: Sketch 3.8.3 (29802) - http://www.bohemiancoding.com/sketch -->
    <title>icon_write_review_close</title>
    <desc>Created with Sketch.</desc>
    <defs></defs>
    <g id="Symbols" stroke="none" stroke-width="1" fill="none" fill-rule="evenodd">
        <g id="icon_write_review_close">
            <rect id="icon" x="0" y="0" width="72" height="72"></rect>
            <path d="M36,33.1715729 L16.9029057,14.0744786 C16.1305477,13.3021205 14.8607384,13.2986412 14.0796898,14.0796898 C13.2931959,14.8661837 13.2963081,16.1247352 14.0744786,16.9029057 L33.1715729,36 L14.0744786,55.0970943 C13.2963081,55.8752648 13.2931959,57.1338163 14.0796898,57.9203102 C14.8607384,58.7013588 16.1305477,58.6978795 16.9029057,57.9255214 L36,38.8284271 L55.0970943,57.9255214 C55.8694523,58.6978795 57.1392616,58.7013588 57.9203102,57.9203102 C58.7068041,57.1338163 58.7036919,55.8752648 57.9255214,55.0970943 L38.8284271,36 L57.9255214,16.9029057 C58.7036919,16.1247352 58.7068041,14.8661837 57.9203102,14.0796898 C57.1392616,13.2986412 55.8694523,13.3021205 55.0970943,14.0744786 L36,33.1715729 Z" id="Combined-Shape" fill="#858C96"></path>
        </g>
    </g>
</svg>