<?xml version="1.0" encoding="UTF-8"?>
<svg width="72px" height="72px" viewBox="0 0 72 72" version="1.1" xmlns="http://www.w3.org/2000/svg" xmlns:xlink="http://www.w3.org/1999/xlink">
    <!-- Generator: Sketch 40.2 (33826) - http://www.bohemiancoding.com/sketch -->
    <title>icon_feedback_image</title>
    <desc>Created with Sketch.</desc>
    <defs></defs>
    <g id="Symbols" stroke="none" stroke-width="1" fill="none" fill-rule="evenodd">
        <g id="icon_feedback_image">
            <rect id="icon" x="0" y="0" width="72" height="72"></rect>
            <path d="M7.41421356,50.9142136 L21.7909059,36.5375212 C22.181784,36.1466431 22.8177441,36.1461712 23.2035226,36.5319497 L30.9680503,44.2964774 C32.8697283,46.1981554 36.0188334,46.337722 38.0864053,44.6147455 L42.4743323,40.9581397 C42.9743466,40.5414611 43.8543702,40.5665167 44.3337251,41.0139147 L64.6353635,59.9621105 L67.3646365,57.0378895 L47.0629981,38.0896937 C45.1102144,36.2670955 41.9629159,36.1774869 39.9135947,37.8852545 L35.5256677,41.5418603 C35.0460184,41.9415681 34.2340073,41.9055802 33.7964774,41.4680503 L26.0319497,33.7035226 C24.0831336,31.7547065 20.9145152,31.7570577 18.9624788,33.7090941 L4.58578644,48.0857864 L7.41421356,50.9142136 L7.41421356,50.9142136 Z" id="Stroke-2" fill="#858C96"></path>
            <path d="M52,32 C48.6862915,32 46,29.3137085 46,26 C46,22.6862915 48.6862915,20 52,20 C55.3137085,20 58,22.6862915 58,26 C58,29.3137085 55.3137085,32 52,32 Z M52,28 C53.1045695,28 54,27.1045695 54,26 C54,24.8954305 53.1045695,24 52,24 C50.8954305,24 50,24.8954305 50,26 C50,27.1045695 50.8954305,28 52,28 Z" id="Oval-79" fill="#858C96"></path>
            <path d="M3,14.9982596 C3,11.6855123 5.68963685,9 9.00271499,9 L62.997285,9 C66.312493,9 69,11.6778684 69,14.9982596 L69,57.0017404 C69,60.3144877 66.3103631,63 62.997285,63 L9.00271499,63 C5.68750704,63 3,60.3221316 3,57.0017404 L3,14.9982596 Z M7,14.9982596 L7,57.0017404 C7,58.1088979 7.89254966,59 9.00271499,59 L62.997285,59 C64.1028435,59 65,58.1037291 65,57.0017404 L65,14.9982596 C65,13.8911021 64.1074503,13 62.997285,13 L9.00271499,13 C7.89715647,13 7,13.8962709 7,14.9982596 Z" id="Rectangle" fill="#858C96"></path>
        </g>
    </g>
</svg>