<?xml version="1.0" encoding="UTF-8" standalone="no"?>
<svg width="72px" height="72px" viewBox="0 0 72 72" version="1.1" xmlns="http://www.w3.org/2000/svg" xmlns:xlink="http://www.w3.org/1999/xlink">
    <!-- Generator: Sketch 3.8.2 (29753) - http://www.bohemiancoding.com/sketch -->
    <title>icon_topbar_profile</title>
    <desc>Created with Sketch.</desc>
    <defs></defs>
    <g id="Symbols" stroke="none" stroke-width="1" fill="none" fill-rule="evenodd">
        <g id="icon_topbar_profile">
            <rect id="icon" x="0" y="0" width="72" height="72"></rect>
            <path d="M36,6 C43.923913,6 50.3478261,13.6561873 50.3478261,23.1014493 C50.3478261,28.4265775 48.3013043,33.7188183 45.0978261,37.517971 C44.2852174,38.4822297 43.826087,39.6951171 43.826087,40.9606243 C43.826087,42.922029 44.9008696,44.7229431 46.62,45.6411594 L63.9182609,54.8772575 C65.1991304,55.5613155 66,56.9031215 66,58.3646377 L66,60.5930881 C66,62.4097882 64.5404348,63.8818283 62.7391304,64 L9.26086957,64 C7.45956522,63.8818283 6,62.4097882 6,60.5930881 L6,58.3646377 C6,56.9031215 6.80086957,55.5613155 8.08173913,54.8772575 L25.38,45.6411594 C27.0991304,44.7229431 28.173913,42.922029 28.173913,40.9606243 C28.173913,39.6951171 27.7147826,38.4822297 26.9021739,37.517971 C23.6986957,33.7188183 21.6521739,28.4265775 21.6521739,23.1014493 C21.6521739,13.6561873 28.076087,6 36,6 Z M29.9608785,34.940312 C31.3834883,36.6284108 32.173913,38.7544257 32.173913,40.9606243 C32.173913,44.395491 30.288479,47.5542675 27.2639978,49.1696934 L9.96608099,58.4056078 C9.99032229,58.3926616 10,60.5930881 10,60.5930881 C10,60.255081 9.77769121,60.0253069 9.52272028,60.0085799 L9.26086957,60 L62.7391304,60 L62.4772797,60.0085799 C62.2223088,60.0253069 62,60.255081 62,60.5930881 L62,58.3646377 C62,58.3764487 44.7354956,49.1694229 44.7354956,49.1694229 C41.711521,47.5542675 39.826087,44.395491 39.826087,40.9606243 C39.826087,38.7544257 40.6165117,36.6284108 42.0398443,34.9394545 C44.7166208,31.7649416 46.3478261,27.3588646 46.3478261,23.1014493 C46.3478261,15.7253246 41.5442597,10 36,10 C30.4557403,10 25.6521739,15.7253246 25.6521739,23.1014493 C25.6521739,27.3588646 27.2833792,31.7649416 29.9608785,34.940312 Z" id="Imported-Layers" fill="#1B88EE"></path>
        </g>
    </g>
</svg>