<?xml version="1.0" encoding="UTF-8" standalone="no"?>
<svg width="72px" height="72px" viewBox="0 0 72 72" version="1.1" xmlns="http://www.w3.org/2000/svg" xmlns:xlink="http://www.w3.org/1999/xlink">
    <!-- Generator: Sketch 3.7.1 (28215) - http://www.bohemiancoding.com/sketch -->
    <title>icon_review_detail_praise_normal</title>
    <desc>Created with Sketch.</desc>
    <defs></defs>
    <g id="slice" stroke="none" stroke-width="1" fill="none" fill-rule="evenodd">
        <g id="icon_general" transform="translate(-60.000000, -60.000000)" fill="#99A0AA">
            <g id="icon_review_detail_praise_normal" transform="translate(60.000000, 60.000000)">
                <path d="M32.987759,18.6318062 L32.987759,18.6318062 C31.0141446,16.3729006 28.1046163,15 25,15 C19.5125412,15 15,19.5162744 15,25 C15,26.4435486 15.2542278,27.8561149 15.8422978,29.8879086 L12,31 L15.7073643,29.4981844 C17.7669857,34.5825416 22.3571846,40.8989653 28.0898583,46.9765112 C30.4125497,49.4389335 32.7694665,51.6883075 34.7244585,53.3397621 C35.5861646,54.0676774 36.3229325,54.6384478 36.8560206,54.998507 C37.052833,55.1314384 37.1939066,55.216458 37.2487265,55.2437768 C36.9726285,55.1061867 36.6509209,55 36,55 C35.3490791,55 35.0273715,55.1061867 34.7512735,55.2437768 C34.8060934,55.216458 34.947167,55.1314384 35.1439794,54.998507 C35.6770675,54.6384478 36.4138354,54.0676774 37.2755415,53.3397621 C39.2305335,51.6883075 41.5874503,49.4389335 43.9101417,46.9765112 C49.6428154,40.8989653 54.2330143,34.5825416 56.2926357,29.4981844 L60,31 L56.1577022,29.8879086 C56.7457722,27.8561149 57,26.4435486 57,25 C57,19.5162744 52.4874588,15 47,15 C43.8953837,15 40.9858554,16.3729006 39.012241,18.6318062 L36,22.0794749 L32.987759,18.6318062 Z M33.0666562,13.4371265 L36,16 L38.9333438,13.4371265 C41.209334,11.9291744 43.98139,11 47,11 C54.703125,11 61,17.3136667 61,25 C61,27.1022 60.578125,29.0025667 60,31 C54.9,43.5898 37.953125,59 36,59 C34.046875,59 17.1,43.5898 12,31 C11.421875,29.0025667 11,27.1022 11,25 C11,17.3136667 17.296875,11 25,11 C28.01861,11 30.790666,11.9291744 33.0666562,13.4371265 L33.0666562,13.4371265 Z" id="Shape"></path>
            </g>
        </g>
    </g>
</svg>