<?xml version="1.0" encoding="UTF-8" standalone="no"?>
<svg width="48px" height="48px" viewBox="0 0 48 48" version="1.1" xmlns="http://www.w3.org/2000/svg" xmlns:xlink="http://www.w3.org/1999/xlink">
    <!-- Generator: Sketch 3.8.3 (29802) - http://www.bohemiancoding.com/sketch -->
    <title>icon_search_suggest_book</title>
    <desc>Created with Sketch.</desc>
    <defs></defs>
    <g id="Symbols" stroke="none" stroke-width="1" fill="none" fill-rule="evenodd">
        <g id="icon_search_suggest_book">
            <rect id="icon" x="0" y="0" width="48" height="48"></rect>
            <path d="M42,8.99184218 L42,34.5081578 C42,36.1666041 40.6827896,37.7822594 39.0579282,38.130444 L23.9420718,41.369556 C22.3136441,41.7185048 21,40.6605066 21,39.0081578 L21,13.4918422 C21,11.8333959 22.3172104,10.2177406 23.9420718,9.86955603 L39.0579282,6.63044397 C40.6863559,6.28149515 42,7.33949337 42,8.99184218 Z M39,8.99184218 C39,9.25253853 39.4504196,9.61444316 39.6865154,9.56385121 L24.5706591,12.8029633 C24.3234506,12.8559365 24,13.2537067 24,13.4918422 L24,39.0081578 C24,38.7474615 23.5495804,38.3855568 23.3134846,38.4361488 L38.4293409,35.1970367 C38.6765494,35.1440635 39,34.7462933 39,34.5081578 L39,8.99184218 Z" id="Rectangle-387" fill="#99A0AA"></path>
            <path d="M3,8.99184218 C3,7.33949337 4.31364405,6.28149515 5.94207185,6.63044397 L21.0579282,9.86955603 C22.6827896,10.2177406 24,11.8333959 24,13.4918422 L24,39.0081578 C24,40.6605066 22.6863559,41.7185048 21.0579282,41.369556 L5.94207185,38.130444 C4.31721043,37.7822594 3,36.1666041 3,34.5081578 L3,8.99184218 Z M6,8.99184218 L6,34.5081578 C6,34.7462933 6.32345063,35.1440635 6.57065911,35.1970367 L21.6865154,38.4361488 C21.4504196,38.3855568 21,38.7474615 21,39.0081578 L21,13.4918422 C21,13.2537067 20.6765494,12.8559365 20.4293409,12.8029633 L5.31348458,9.56385121 C5.54958037,9.61444316 6,9.25253853 6,8.99184218 Z" id="Rectangle-387" fill="#99A0AA"></path>
        </g>
    </g>
</svg>