<?xml version="1.0" encoding="UTF-8" standalone="no"?>
<svg width="48px" height="60px" viewBox="0 0 48 60" version="1.1" xmlns="http://www.w3.org/2000/svg" xmlns:xlink="http://www.w3.org/1999/xlink" xmlns:sketch="http://www.bohemiancoding.com/sketch/ns">
    <!-- Generator: Sketch 3.5.1 (25234) - http://www.bohemiancoding.com/sketch -->
    <title>icon_read_finished</title>
    <desc>Created with Sketch.</desc>
    <defs>
        <path id="path-1" d="M10.5,3 L13.5,0 L31.5,0 L34.5,3 L34.5,7.5 L24.75,13.5 L20.25,13.5 L10.5,7.5 L10.5,3 Z"></path>
    </defs>
    <g id="slice" stroke="none" stroke-width="1" fill="none" fill-rule="evenodd" sketch:type="MSPage">
        <g id="icon_general" sketch:type="MSArtboardGroup" transform="translate(-58.000000, -614.000000)">
            <g id="icon_read_finished" sketch:type="MSLayerGroup" transform="translate(60.000000, 614.000000)">
                <circle id="body" fill="#FFD57F" sketch:type="MSShapeGroup" cx="22.5" cy="37.5" r="22.5"></circle>
                <path d="M22.5,54 L22.5,54 C31.6126984,54 39,46.6126984 39,37.5 C39,28.3873016 31.6126984,21 22.5,21 C13.3873016,21 6,28.3873016 6,37.5 C6,46.6126984 13.3873016,54 22.5,54 L22.5,54 Z M22.5,60 L22.5,60 C10.0735931,60 0,49.9264069 0,37.5 C0,25.0735931 10.0735931,15 22.5,15 C34.9264069,15 45,25.0735931 45,37.5 C45,49.9264069 34.9264069,60 22.5,60 L22.5,60 Z" id="Shape" fill-opacity="0.3" fill="#F5B032" sketch:type="MSShapeGroup"></path>
                <path d="M13.8269028,39.435987 C13.2416392,38.8507235 13.2438528,37.8996102 13.8231732,37.3202897 L14.0116973,37.1317656 C14.5949011,36.5485619 15.5432766,36.5513772 16.1280619,37.1361625 L19.8456257,40.8537263 L28.8720007,31.8273513 C29.4576417,31.2417103 30.4090609,31.2436179 30.9883813,31.8229384 L31.1769054,32.0114625 C31.7601092,32.5946663 31.76242,33.5379156 31.1767582,34.1235775 L19.8456257,45.4547099 L13.8269028,39.435987 Z" id="checkmark" fill="#F5B031" sketch:type="MSShapeGroup"></path>
                <mask id="mask-2" sketch:name="head" fill="white">
                    <use xlink:href="#path-1"></use>
                </mask>
                <use id="head" fill="#FF7171" sketch:type="MSShapeGroup" xlink:href="#path-1"></use>
            </g>
        </g>
    </g>
</svg>