<?xml version="1.0" encoding="UTF-8"?>
<svg width="72px" height="72px" viewBox="0 0 72 72" version="1.1" xmlns="http://www.w3.org/2000/svg" xmlns:xlink="http://www.w3.org/1999/xlink">
    <!-- Generator: Sketch 41.2 (35397) - http://www.bohemiancoding.com/sketch -->
    <title>icon_topbar_record_refresh</title>
    <desc>Created with Sketch.</desc>
    <defs></defs>
    <g id="Symbols" stroke="none" stroke-width="1" fill="none" fill-rule="evenodd">
        <g id="icon_topbar_record_refresh">
            <g>
                <rect id="icon" transform="translate(36.000000, 36.000000) rotate(90.000000) translate(-36.000000, -36.000000) " x="0" y="0" width="72" height="72"></rect>
                <g id="Group-2" transform="translate(12.000000, 8.000000)" stroke="#1B88EE" stroke-width="4" stroke-linecap="round">
                    <path d="M11.25,-4.25 L27.7549713,-4.25 C31.8943613,-4.25 35.25,-0.887128876 35.25,3.24685303 L35.25,42.25" id="Line" transform="translate(23.250000, 19.000000) rotate(-90.000000) translate(-23.250000, -19.000000) "></path>
                    <path d="M47.25,7.75 L41.25,13.75" id="Line" transform="translate(44.250000, 10.750000) scale(-1, 1) rotate(90.000000) translate(-44.250000, -10.750000) "></path>
                    <path d="M47.25,0.25 L41.25,6.25" id="Line" transform="translate(44.250000, 3.250000) rotate(90.000000) translate(-44.250000, -3.250000) "></path>
                    <path d="M6.75,49.75 L0.75,55.75" id="Line" transform="translate(3.750000, 52.750000) scale(-1, -1) rotate(-90.000000) translate(-3.750000, -52.750000) "></path>
                    <path d="M6.75,42.25 L0.75,48.25" id="Line" transform="translate(3.750000, 45.250000) scale(1, -1) rotate(-90.000000) translate(-3.750000, -45.250000) "></path>
                    <path d="M12.75,13.75 L29.2549713,13.75 C33.3943613,13.75 36.75,17.1128711 36.75,21.246853 L36.75,60.25" id="Line" transform="translate(24.750000, 37.000000) rotate(90.000000) translate(-24.750000, -37.000000) "></path>
                </g>
                <path d="M14,39 L14,22.4950287 C14,19.4627958 16.4648515,17 19.496853,17 L58.5,17 C59.6045695,17 60.5,16.1045695 60.5,15 C60.5,13.8954305 59.6045695,13 58.5,13 L19.496853,13 C14.2564592,13 10,17.2529094 10,22.4950287 L10,39 C10,40.1045695 10.8954305,41 12,41 C13.1045695,41 14,40.1045695 14,39 Z" id="Line" fill="#1B88EE"></path>
                <path d="M54.6642136,23.1642136 L60.6642136,17.1642136 C61.4452621,16.383165 61.4452621,15.116835 60.6642136,14.3357864 C59.883165,13.5547379 58.616835,13.5547379 57.8357864,14.3357864 L51.8357864,20.3357864 C51.0547379,21.116835 51.0547379,22.383165 51.8357864,23.1642136 C52.616835,23.9452621 53.883165,23.9452621 54.6642136,23.1642136 Z" id="Line" fill="#1B88EE"></path>
                <path d="M60.6642136,12.8357864 L54.6642136,6.83578644 C53.883165,6.05473785 52.616835,6.05473785 51.8357864,6.83578644 C51.0547379,7.61683502 51.0547379,8.88316498 51.8357864,9.66421356 L57.8357864,15.6642136 C58.616835,16.4452621 59.883165,16.4452621 60.6642136,15.6642136 C61.4452621,14.883165 61.4452621,13.616835 60.6642136,12.8357864 Z" id="Line" fill="#1B88EE"></path>
                <path d="M20.1642136,62.3357864 L14.1642136,56.3357864 C13.383165,55.5547379 12.116835,55.5547379 11.3357864,56.3357864 C10.5547379,57.116835 10.5547379,58.383165 11.3357864,59.1642136 L17.3357864,65.1642136 C18.116835,65.9452621 19.383165,65.9452621 20.1642136,65.1642136 C20.9452621,64.383165 20.9452621,63.116835 20.1642136,62.3357864 Z" id="Line" fill="#1B88EE"></path>
                <path d="M14.1642136,57.6642136 L20.1642136,51.6642136 C20.9452621,50.883165 20.9452621,49.616835 20.1642136,48.8357864 C19.383165,48.0547379 18.116835,48.0547379 17.3357864,48.8357864 L11.3357864,54.8357864 C10.5547379,55.616835 10.5547379,56.883165 11.3357864,57.6642136 C12.116835,58.4452621 13.383165,58.4452621 14.1642136,57.6642136 Z" id="Line" fill="#1B88EE"></path>
                <path d="M58,33 L58,49.5049713 C58,52.5372042 55.5351485,55 52.503147,55 L13.5,55 C12.3954305,55 11.5,55.8954305 11.5,57 C11.5,58.1045695 12.3954305,59 13.5,59 L52.503147,59 C57.7435408,59 62,54.7470906 62,49.5049713 L62,33 C62,31.8954305 61.1045695,31 60,31 C58.8954305,31 58,31.8954305 58,33 Z" id="Line" fill="#1B88EE"></path>
            </g>
        </g>
    </g>
</svg>