<?xml version="1.0" encoding="UTF-8" standalone="no"?>
<svg width="96px" height="96px" viewBox="0 0 96 96" version="1.1" xmlns="http://www.w3.org/2000/svg" xmlns:xlink="http://www.w3.org/1999/xlink" xmlns:sketch="http://www.bohemiancoding.com/sketch/ns">
    <!-- Generator: Sketch 3.4.2 (15855) - http://www.bohemiancoding.com/sketch -->
    <title>icon_weixin</title>
    <desc>Created with Sketch.</desc>
    <defs></defs>
    <g id="slice" stroke="none" stroke-width="1" fill="none" fill-rule="evenodd" sketch:type="MSPage">
        <g id="icon_general" sketch:type="MSArtboardGroup" transform="translate(-1532.000000, -192.000000)" fill="#38C738">
            <g id="icon_weixin" sketch:type="MSLayerGroup" transform="translate(1532.000000, 192.000000)">
                <path d="M75.4927527,80.0177345 C71.9594185,81.5389871 67.9710582,82.3951407 63.75,82.3951407 C49.2525253,82.3951407 37.5,72.2957839 37.5,59.8375959 C37.5,47.3794079 49.2525253,37.2800512 63.75,37.2800512 C78.2474747,37.2800512 90,47.3794079 90,59.8375959 C90,66.7390116 86.3934014,72.9165525 80.7114956,77.0543261 L83.6774194,84.5434783 L75.4927556,80.0177333 Z M54.7741935,56.4498328 C56.7695449,56.4498328 58.3870968,54.7727723 58.3870968,52.7040134 C58.3870968,50.6352544 56.7695449,48.958194 54.7741935,48.958194 C52.7788422,48.958194 51.1612903,50.6352544 51.1612903,52.7040134 C51.1612903,54.7727723 52.7788422,56.4498328 54.7741935,56.4498328 Z M72.8387097,56.4498328 C74.834061,56.4498328 76.4516129,54.7727723 76.4516129,52.7040134 C76.4516129,50.6352544 74.834061,48.958194 72.8387097,48.958194 C70.8433583,48.958194 69.2258065,50.6352544 69.2258065,52.7040134 C69.2258065,54.7727723 70.8433583,56.4498328 72.8387097,56.4498328 Z" id="Oval-1644" sketch:type="MSShapeGroup"></path>
                <path d="M36.2351953,65.8143737 C32.3384017,65.8117868 28.6139744,65.1480629 25.1936344,63.941424 L15.0322581,69.5602007 L18.5491298,60.6798689 C10.9467209,55.746772 6,47.720464 6,38.6571906 C6,23.6586884 19.5469969,11.5 36.2580645,11.5 C51.6751754,11.5 64.3992403,21.8486651 66.277283,35.2285434 C65.4446718,35.1644451 64.6017221,35.1317136 63.75,35.1317136 C48.0927273,35.1317136 35.4,46.1929139 35.4,59.8375959 C35.4,61.8985327 35.6895726,63.9005297 36.2351953,65.8143737 Z M25.8709677,33.9749164 C27.8663191,33.9749164 29.483871,32.2978559 29.483871,30.229097 C29.483871,28.1603381 27.8663191,26.4832776 25.8709677,26.4832776 C23.8756164,26.4832776 22.2580645,28.1603381 22.2580645,30.229097 C22.2580645,32.2978559 23.8756164,33.9749164 25.8709677,33.9749164 Z M47.5483871,33.9749164 C49.5437385,33.9749164 51.1612903,32.2978559 51.1612903,30.229097 C51.1612903,28.1603381 49.5437385,26.4832776 47.5483871,26.4832776 C45.5530357,26.4832776 43.9354839,28.1603381 43.9354839,30.229097 C43.9354839,32.2978559 45.5530357,33.9749164 47.5483871,33.9749164 Z" id="Oval-1644" sketch:type="MSShapeGroup"></path>
            </g>
        </g>
    </g>
</svg>