<?xml version="1.0" encoding="UTF-8" standalone="no"?>
<svg width="72px" height="72px" viewBox="0 0 72 72" version="1.1" xmlns="http://www.w3.org/2000/svg" xmlns:xlink="http://www.w3.org/1999/xlink">
    <!-- Generator: Sketch 3.8.1 (29687) - http://www.bohemiancoding.com/sketch -->
    <title>icon_chat_image_error</title>
    <desc>Created with Sketch.</desc>
    <defs></defs>
    <g id="Profile_个人资料" stroke="none" stroke-width="1" fill="none" fill-rule="evenodd">
        <g id="3.0_me_preference_helpf&amp;Feedback_feedback" transform="translate(-834.000000, -1364.000000)" fill="#FFFFFF">
            <g id="bubble" transform="translate(708.000000, 1334.000000)">
                <g id="icon_alarm" transform="translate(126.000000, 30.000000)">
                    <path d="M36,72 C55.882251,72 72,55.882251 72,36 C72,16.117749 55.882251,0 36,0 C16.117749,0 0,16.117749 0,36 C0,55.882251 16.117749,72 36,72 Z M33,51 C33,49.3431458 34.3465171,48 36,48 C37.6568542,48 39,49.3465171 39,51 C39,52.6568542 37.6534829,54 36,54 C34.3431458,54 33,52.6534829 33,51 Z M33,21.0001593 C33,19.3432171 34.3465171,18 36,18 C37.6568542,18 39,19.3350876 39,21.0001593 L39,40.4998407 C39,42.1567829 37.6534829,43.5 36,43.5 C34.3431458,43.5 33,42.1649124 33,40.4998407 L33,21.0001593 Z" id="icon_chat_image_error"></path>
                </g>
            </g>
        </g>
    </g>
</svg>