<?xml version="1.0" encoding="UTF-8" standalone="no"?>
<svg width="48px" height="48px" viewBox="0 0 48 48" version="1.1" xmlns="http://www.w3.org/2000/svg" xmlns:xlink="http://www.w3.org/1999/xlink">
    <!-- Generator: Sketch 3.7.1 (28215) - http://www.bohemiancoding.com/sketch -->
    <title>icon_review_detail_repost_medium</title>
    <desc>Created with Sketch.</desc>
    <defs></defs>
    <g id="slice" stroke="none" stroke-width="1" fill="none" fill-rule="evenodd">
        <g id="icon_general" transform="translate(-1194.000000, -60.000000)" fill="#99A0AA">
            <g id="icon_review_detail_repost_medium" transform="translate(1194.000000, 60.000000)">
                <path d="M26.495,2 C25.59,2 25,2.899 25,4.583 L25,13.588 C25,13.588 1,14.99 1,46.588 C1,46.588 7.06,32.541 25,31.588 L25,41.593 C25,43.293 25.617,44.209 26.56,44.209 C27.141,44.209 27.846,43.86 28.606,43.132 L45.394,27.044 C47.388,25.133 47.415,22.002 45.459,20.047 L28.541,3.129 C27.779,2.366 27.073,2 26.495,2 Z M29,9.245 L42.63,22.875 C42.863,23.108 42.91,23.358 42.908,23.527 C42.906,23.693 42.856,23.936 42.626,24.156 L29,37.214 L29,31.588 L29,27.37 L24.788,27.593 C16.92,28.012 11.056,30.648 6.814,33.749 C11.659,18.755 24.582,17.628 25.233,17.581 L29,17.361 L29,13.588 L29,9.245 Z" id="Fill-1"></path>
            </g>
        </g>
    </g>
</svg>