<?xml version="1.0" encoding="UTF-8"?>
<svg width="72px" height="72px" viewBox="0 0 72 72" version="1.1" xmlns="http://www.w3.org/2000/svg" xmlns:xlink="http://www.w3.org/1999/xlink">
    <!-- Generator: Sketch 40.2 (33826) - http://www.bohemiancoding.com/sketch -->
    <title>icon_topbar_scancode</title>
    <desc>Created with Sketch.</desc>
    <defs></defs>
    <g id="Symbols" stroke="none" stroke-width="1" fill="none" fill-rule="evenodd">
        <g id="icon_topbar_scancode">
            <rect id="icon" x="0" y="0" width="72" height="72"></rect>
            <path d="M60.5074602,65 C62.9851209,65 65,62.9790192 65,60.5074602 L65,45.5 C65,44.6715729 64.3284271,44 63.5,44 C62.6715729,44 62,44.6715729 62,45.5 L62,60.5074602 C62,61.3241922 61.3262326,62 60.5074602,62 L45.5,62 C44.6715729,62 44,62.6715729 44,63.5 C44,64.3284271 44.6715729,65 45.5,65 L60.5074602,65 Z" id="Line" fill="#1B88EE"></path>
            <path d="M12.4925398,62 C11.6737674,62 11,61.3241922 11,60.5074602 L11,45.5 C11,44.6715729 10.3284271,44 9.5,44 C8.67157288,44 8,44.6715729 8,45.5 L8,60.5074602 C8,62.9790192 10.0148791,65 12.4925398,65 L27.5,65 C28.3284271,65 29,64.3284271 29,63.5 C29,62.6715729 28.3284271,62 27.5,62 L12.4925398,62 Z" id="Line" fill="#1B88EE"></path>
            <rect id="Rectangle-2" fill="#1B88EE" x="8" y="35" width="57" height="3"></rect>
            <path d="M60.5074602,11 C61.3262326,11 62,11.6758078 62,12.4925398 L62,27.5 C62,28.3284271 62.6715729,29 63.5,29 C64.3284271,29 65,28.3284271 65,27.5 L65,12.4925398 C65,10.0209808 62.9851209,8 60.5074602,8 L45.5,8 C44.6715729,8 44,8.67157288 44,9.5 C44,10.3284271 44.6715729,11 45.5,11 L60.5074602,11 Z" id="Line" fill="#1B88EE"></path>
            <path d="M12.4925398,8 C10.0148791,8 8,10.0209808 8,12.4925398 L8,27.5 C8,28.3284271 8.67157288,29 9.5,29 C10.3284271,29 11,28.3284271 11,27.5 L11,12.4925398 C11,11.6758078 11.6737674,11 12.4925398,11 L27.5,11 C28.3284271,11 29,10.3284271 29,9.5 C29,8.67157288 28.3284271,8 27.5,8 L12.4925398,8 Z" id="Line" fill="#1B88EE"></path>
        </g>
    </g>
</svg>