<?xml version="1.0" encoding="UTF-8" standalone="no"?>
<svg width="90px" height="90px" viewBox="0 0 90 90" version="1.1" xmlns="http://www.w3.org/2000/svg" xmlns:xlink="http://www.w3.org/1999/xlink">
    <!-- Generator: Sketch 3.6.1 (26313) - http://www.bohemiancoding.com/sketch -->
    <title>icon_reader_top_send_free</title>
    <desc>Created with Sketch.</desc>
    <defs></defs>
    <g id="slice" stroke="none" stroke-width="1" fill="none" fill-rule="evenodd">
        <g id="other" transform="translate(-1656.000000, -195.000000)">
            <g id="icon_reader_top_send_free" transform="translate(1656.000000, 195.000000)">
                <path d="M90,40.3738318 C89.9508053,37.6747186 89.9364069,36.73882 90,34.9906542 C89.8536159,32.4204878 89.6448385,29.150842 88.6542056,25.5700935 C88.4977627,23.0471032 87.6866506,20.1542166 85.9626168,17.4953271 C84.7313708,14.3228484 82.6903919,11.7851233 80.5794393,9.42056075 C78.2160766,7.30960813 75.6771516,5.2698291 72.5046729,4.03738318 C69.8457834,2.31454926 66.9540966,1.50343713 64.4299065,1.34579439 C60.849158,0.355161524 57.5807121,0.146384142 55.0093458,0 C53.2623799,0.0635931107 52.3264813,0.0503945406 49.6261682,0 C47.8461667,0.0083990901 46.0559606,0 44.2429907,0 L7.10542736e-15,0 L90,90 L90,45.7570093 C90,43.9440394 89.9928008,42.1538333 90,40.3738318 Z" id="iconcontainer" fill-opacity="0.85" fill="#FFFFFF"></path>
                <path d="M57.4465062,25.9433108 L54.1245185,29.2652984 L48.8551588,23.9959387 C50.1152231,23.1558958 51.3561955,22.1822098 52.6162597,21.1130643 L57.4465062,25.9433108 L57.4465062,25.9433108 Z M43.2994208,18.4402007 L46.6214085,15.118213 L51.1461848,19.6429893 C49.8670286,20.7312267 48.6642399,21.7049127 47.3659919,22.5067718 L43.2994208,18.4402007 L43.2994208,18.4402007 Z M56.6828308,18.382925 C55.518226,18.6693033 54.1245185,18.879314 52.9790055,18.9174978 L47.9196565,13.8581488 C49.2942721,13.8581488 50.6307039,13.7817812 51.9098601,13.6099543 L56.6828308,18.382925 L56.6828308,18.382925 Z M45.4568036,33.3509614 C44.5976689,32.4918267 44.5403932,32.2436322 45.1131497,31.6708757 L49.5424666,27.2415588 L54.3154373,32.0145296 L60.1957373,26.1342296 L54.6209075,20.5593997 C56.16735,20.4257565 57.9238032,20.1584702 59.3175107,19.7575406 L59.0120406,18.1538224 L58.6874786,17.9819955 L53.9717834,13.2663004 C54.6781831,13.1326572 55.3273071,13.0181059 55.9573393,12.846279 L54.6781831,10.9943663 C51.7762169,11.8725929 47.518727,12.3117062 43.2230533,11.4525715 C43.3185127,12.0062361 43.3185127,12.9226465 43.1848695,13.4763111 C43.8721773,13.5908624 44.5022094,13.6863218 45.1704253,13.7435975 L40.6074653,18.3065575 L45.7049981,23.4040903 C42.4021023,24.9505328 38.6219094,24.9887166 33.2952741,21.7621884 C33.3143659,22.3922205 33.1234471,23.2704471 32.8943445,23.7668361 C38.9846552,27.2606507 43.3185127,26.9742724 47.2323487,24.9314409 L48.0914835,25.7905757 L43.6430747,30.2389844 C42.1348159,31.7472432 42.1920916,32.6445617 44.0249124,34.4773825 L47.2132568,37.665727 C48.8360669,39.288537 49.9243042,39.0403426 52.8262705,36.520214 C52.4826166,36.023825 52.1389627,35.2219659 52.0625951,34.6492094 C49.6952016,36.8638679 49.1988127,37.0929705 48.3778617,36.2720195 L45.4568036,33.3509614 L45.4568036,33.3509614 Z M65.1023513,33.5991559 C65.636924,33.2173182 66.2096805,32.8354805 66.782437,32.4154591 L69.5316682,35.1646903 C68.9970954,35.6228955 68.4052471,35.9856413 67.7370312,36.2338357 L65.1023513,33.5991559 L65.1023513,33.5991559 Z M73.2545854,34.1146367 L76.2711029,37.1311542 L74.9155792,38.4866779 L71.8990617,35.4701604 L73.2545854,34.1146367 L73.2545854,34.1146367 Z M80.4522253,41.3122766 L79.0967016,42.6678003 L76.2711029,39.8422016 L77.6266266,38.4866779 L80.4522253,41.3122766 L80.4522253,41.3122766 Z M72.4527263,40.9495309 L69.1689224,37.665727 C69.7607708,37.341165 70.3144354,36.9402354 70.8490081,36.4820302 L73.8846175,39.5176396 L72.4527263,40.9495309 L72.4527263,40.9495309 Z M56.1864419,42.1714114 L57.5419656,43.5269351 L61.6276286,39.4412721 L70.8681,48.6817435 L66.9160802,52.6337633 L68.3288795,54.0465627 L73.483688,48.8917542 L62.1431094,37.5511757 C64.4723191,38.5439536 66.2478643,38.639413 67.7179393,38.2384835 L71.4408565,41.9614007 L69.4362088,43.9660484 L70.7917325,45.3215721 L72.7963802,43.3169244 L76.6338487,47.1543929 C76.0229084,47.6125981 75.6792545,47.8035169 75.4692438,47.8226088 C75.2592331,47.8035169 75.106498,47.6889656 74.8964873,47.4789549 C74.6864766,47.2689442 74.1709958,46.7534633 73.636423,46.1043393 C73.5027799,46.5052688 73.2164016,47.0589335 72.9491152,47.3262198 C73.5791474,48.0708033 74.2282714,48.7199273 74.5910172,49.0063055 C74.9919467,49.4072351 75.3737844,49.5981539 75.8701734,49.5981539 C76.423838,49.579062 77.2066052,49.1017649 78.5621289,48.0135276 C78.7339558,47.8417007 79.0585178,47.5553224 79.0585178,47.5553224 L73.80825,42.3050546 L75.2401412,40.8731633 L79.363988,44.9970101 L82.7623432,41.5986549 L78.6384964,37.4748081 L79.8603769,36.2529276 L78.5048532,34.8974039 L77.2829727,36.1192844 L74.2664552,33.1027669 L75.4883357,31.8808864 L74.1900876,30.5826383 L72.9682071,31.8045189 L68.2716039,27.1079156 L67.2597341,28.1197854 L71.9563373,32.8163887 L70.6008136,34.1719124 L67.1833665,30.7544653 L67.1642747,30.7735572 L66.6297019,30.2389844 C65.3696377,31.2317624 63.7468276,32.3963672 62.6204065,33.1409507 L66.0569454,36.5774896 C64.4150435,36.6156734 62.2958445,35.9474575 59.3747864,34.1337286 C59.3556945,34.6110257 59.1647756,35.4892523 58.9929487,35.9283656 C59.7757159,36.4056627 60.5202993,36.844776 61.2076071,37.1502461 L56.1864419,42.1714114 L56.1864419,42.1714114 Z M64.9305243,44.3097023 C61.4748935,46.5434526 58.5920192,46.2570744 52.0435033,40.8922552 C51.9671357,41.4268279 51.6807575,42.2477789 51.432563,42.6868922 C58.5347435,48.2617221 62.1431094,48.5099166 66.3433237,45.7225016 L64.9305243,44.3097023 L64.9305243,44.3097023 Z M62.4867633,48.5481003 C64.2432166,51.6409854 66.3051399,55.9939347 67.1260909,58.3804201 L69.0352792,58.0367662 C68.1188688,55.5548214 65.9423941,51.2782396 64.2050328,48.3189977 L62.4867633,48.5481003 L62.4867633,48.5481003 Z" id="免费" fill="#FA3A3A"></path>
            </g>
        </g>
    </g>
</svg>