<?xml version="1.0" encoding="UTF-8" standalone="no"?>
<svg width="72px" height="72px" viewBox="0 0 72 72" version="1.1" xmlns="http://www.w3.org/2000/svg" xmlns:xlink="http://www.w3.org/1999/xlink">
    <!-- Generator: Sketch 3.8.3 (29802) - http://www.bohemiancoding.com/sketch -->
    <title>icon_face_delete</title>
    <desc>Created with Sketch.</desc>
    <defs></defs>
    <g id="Symbols" stroke="none" stroke-width="1" fill="none" fill-rule="evenodd">
        <g id="icon_face_delete">
            <rect id="icon" x="0" y="0" width="72" height="72"></rect>
            <path d="M3.61900005,38.3306173 C2.47402988,37.1396698 2.47215939,35.1966174 3.60886915,33.996971 L22.3887996,14.177245 C23.5281747,12.9747858 25.7850591,12 27.4439257,12 L62.9920343,12 C66.3101421,12 69,14.6835413 69,18.0063866 L69,53.9936134 C69,57.3108491 66.3136343,60 62.9920343,60 L27.4439257,60 C25.7914317,60 23.5255094,59.0364919 22.3786687,57.8435987 L3.61900005,38.3306173 Z M6.50254002,35.5583985 L6.50254002,35.5583985 L25.2622087,55.0713799 C25.6540525,55.4789585 26.8783985,56 27.4439257,56 L62.9920343,56 C64.103165,56 65,55.1030406 65,53.9936134 L65,18.0063866 C65,16.8954313 64.1037551,16 62.9920343,16 L27.4439257,16 C26.8867246,16 25.6787114,16.5207453 25.2923655,16.9284821 L6.51243499,36.748208 C6.84235675,36.4000194 6.84142151,35.9108881 6.50254002,35.5583985 Z" fill="#858C96"></path>
            <rect id="Rectangle-184" fill="#858C96" transform="translate(44.000000, 36.000000) rotate(-315.000000) translate(-44.000000, -36.000000) " x="29" y="34" width="30" height="4" rx="2"></rect>
            <rect id="Rectangle-184" fill="#858C96" transform="translate(44.000000, 36.000000) rotate(-45.000000) translate(-44.000000, -36.000000) " x="29" y="34" width="30" height="4" rx="2"></rect>
        </g>
    </g>
</svg>