<?xml version="1.0" encoding="UTF-8"?>
<svg width="72px" height="72px" viewBox="0 0 72 72" version="1.1" xmlns="http://www.w3.org/2000/svg" xmlns:xlink="http://www.w3.org/1999/xlink">
    <!-- Generator: Sketch 40.2 (33826) - http://www.bohemiancoding.com/sketch -->
    <title>icon_write_review_book_selected</title>
    <desc>Created with Sketch.</desc>
    <defs></defs>
    <g id="Symbols" stroke="none" stroke-width="1" fill="none" fill-rule="evenodd">
        <g id="icon_write_review_book_selected">
            <rect id="icon" x="0" y="0" width="72" height="72"></rect>
            <path d="M60,34 L54.9950893,34 C53.8926228,34 53,34.8954305 53,36 C53,37.1122704 53.8932319,38 54.9950893,38 L60,38 L60,43.0049107 C60,44.1073772 60.8954305,45 62,45 C63.1122704,45 64,44.1067681 64,43.0049107 L64,38 L69.0049107,38 C70.1073772,38 71,37.1045695 71,36 C71,34.8877296 70.1067681,34 69.0049107,34 L64,34 L64,28.9950893 C64,27.8926228 63.1045695,27 62,27 C60.8877296,27 60,27.8932319 60,28.9950893 L60,34 Z" id="Combined-Shape" fill="#858C96"></path>
            <path d="M64,24 L60,24 L60,14.9930652 C60,13.8923693 59.1066169,13 58.001155,13 L39.998845,13 C38.8964405,13 38,13.896051 38,14.9982596 L38,57.0017404 C38,58.1094762 38.8913953,59 39.998845,59 L58.001155,59 C59.1043345,59 60,58.105499 60,57.0069348 L60,48 L64,48 L64,57.0069348 C64,60.3168133 61.3112985,63 58.001155,63 L39.998845,63 C36.6857744,63 34,60.3221316 34,57.0017404 L34,14.9982596 C34,11.6855123 36.6887015,9 39.998845,9 L58.001155,9 C61.3142256,9 64,11.6816994 64,14.9930652 L64,24 L64,24 Z" id="Rectangle-326" fill="#858C96"></path>
            <path d="M8,14.9982596 C8,11.6855123 10.6887015,9 13.998845,9 L32.001155,9 C35.3142256,9 38,11.6778684 38,14.9982596 L38,57.0017404 C38,60.3144877 35.3112985,63 32.001155,63 L13.998845,63 C10.6857744,63 8,60.3221316 8,57.0017404 L8,14.9982596 Z M12,14.9982596 L12,57.0017404 C12,58.1094762 12.8913953,59 13.998845,59 L32.001155,59 C33.1035595,59 34,58.103949 34,57.0017404 L34,14.9982596 C34,13.8905238 33.1086047,13 32.001155,13 L13.998845,13 C12.8964405,13 12,13.896051 12,14.9982596 Z" id="Rectangle-334" fill="#858C96"></path>
        </g>
    </g>
</svg>