<?xml version="1.0" encoding="UTF-8" standalone="no"?>
<svg width="48px" height="48px" viewBox="0 0 48 48" version="1.1" xmlns="http://www.w3.org/2000/svg" xmlns:xlink="http://www.w3.org/1999/xlink">
    <!-- Generator: Sketch 3.7.1 (28215) - http://www.bohemiancoding.com/sketch -->
    <title>icon_review_detail_comment_medium</title>
    <desc>Created with Sketch.</desc>
    <defs></defs>
    <g id="slice" stroke="none" stroke-width="1" fill="none" fill-rule="evenodd">
        <g id="icon_general" transform="translate(-1410.000000, -60.000000)" fill="#99A0AA">
            <g id="icon_review_detail_comment_medium" transform="translate(1410.000000, 60.000000)">
                <path d="M40,4 L9,4 C6.448,4 4,6.448 4,9 L4,30 C4,32.986 6.448,35.433 9,36 L12,36 L12,45 L25,36 L40,36 C42.552,35.433 45,32.986 45,30 L45,9 C45,6.448 42.552,4 40,4 M40,8 L40,8 C40.344,8.002 40.998,8.656 41,9 L41,30 C41,30.838 40.214,31.684 39.434,32 L25,32 L23.75,32 L22.723,32.711 L16,37.366 L16,36 L16,32 L12,32 L9.566,32 C8.786,31.684 8,30.838 8,30 L8,9 C8.002,8.656 8.656,8.002 9,8 L40,8" id="Page-1"></path>
            </g>
        </g>
    </g>
</svg>