<?xml version="1.0" encoding="UTF-8" standalone="no"?>
<svg width="48px" height="48px" viewBox="0 0 48 48" version="1.1" xmlns="http://www.w3.org/2000/svg" xmlns:xlink="http://www.w3.org/1999/xlink">
    <!-- Generator: Sketch 3.8.3 (29802) - http://www.bohemiancoding.com/sketch -->
    <title>icon_chapter_lock</title>
    <desc>Created with Sketch.</desc>
    <defs></defs>
    <g id="Symbols" stroke="none" stroke-width="1" fill="none" fill-rule="evenodd">
        <g id="icon_chapter_lock">
            <rect id="icon" x="0" y="0" width="48" height="48"></rect>
            <path d="M6,20.998845 C6,17.6857744 8.67643992,15 12.0053227,15 L35.9946773,15 C39.3113255,15 42,17.6887015 42,20.998845 L42,39.001155 C42,42.3142256 39.3235601,45 35.9946773,45 L12.0053227,45 C8.68867454,45 6,42.3112985 6,39.001155 L6,20.998845 Z M9,20.998845 L9,39.001155 C9,40.6549565 10.3460422,42 12.0053227,42 L35.9946773,42 C37.6622594,42 39,40.6618192 39,39.001155 L39,20.998845 C39,19.3450435 37.6539578,18 35.9946773,18 L12.0053227,18 C10.3377406,18 9,19.3381808 9,20.998845 Z" id="Rectangle-45" fill="#99A0AA"></path>
            <path d="M25.4967,3 L22.5037,3 C18.3647,3 14.9997,6.358 14.9997,10.5 L14.9997,18 L32.9997,18 L32.9997,10.5 C32.9997,6.366 29.6407,3 25.4967,3 Z M25.4967,6 C27.9797,6 29.9997,8.019 29.9997,10.5 L29.9997,15 L17.9997,15 L17.9997,10.5 C17.9997,8.019 20.0197,6 22.5037,6 L25.4967,6 Z" id="Fill-1" fill="#99A0AA"></path>
            <rect id="Rectangle-49" fill="#99A0AA" x="22.5" y="24" width="3" height="12"></rect>
        </g>
    </g>
</svg>