<?xml version="1.0" encoding="UTF-8" standalone="no"?>
<svg width="168px" height="168px" viewBox="0 0 168 168" version="1.1" xmlns="http://www.w3.org/2000/svg" xmlns:xlink="http://www.w3.org/1999/xlink">
    <!-- Generator: Sketch 3.8.3 (29802) - http://www.bohemiancoding.com/sketch -->
    <title>icon_more_operation_book_detail</title>
    <desc>Created with Sketch.</desc>
    <defs></defs>
    <g id="Symbols" stroke="none" stroke-width="1" fill="none" fill-rule="evenodd">
        <g id="icon_more_operation_book_detail">
            <rect id="icon" x="0" y="0" width="168" height="168"></rect>
            <path d="M4,36.0015487 L4,36.0015487 L4,131.998451 C4,149.678727 18.3239929,164 36.0015487,164 L131.998451,164 C149.678727,164 164,149.676007 164,131.998451 L164,36.0015487 C164,18.3212732 149.676007,4 131.998451,4 L36.0015487,4 C18.3212732,4 4,18.3239929 4,36.0015487 L4,36.0015487 Z M0,36.0015487 C0,16.1184424 16.1085463,0 36.0015487,0 L131.998451,0 C151.881558,0 168,16.1085463 168,36.0015487 L168,131.998451 C168,151.881558 151.891454,168 131.998451,168 L36.0015487,168 C16.1184424,168 0,151.891454 0,131.998451 L0,36.0015487 L0,36.0015487 Z" id="background" fill="#C1C8D2"></path>
            <path d="M84,125 L84,125 C106.643675,125 125,106.643675 125,84 C125,61.3563253 106.643675,43 84,43 C61.3563253,43 43,61.3563253 43,84 C43,106.643675 61.3563253,125 84,125 L84,125 Z M84,129 L84,129 C59.1471863,129 39,108.852814 39,84 C39,59.1471863 59.1471863,39 84,39 C108.852814,39 129,59.1471863 129,84 C129,108.852814 108.852814,129 84,129 L84,129 Z" id="Oval-2119-Copy" fill="#858C96"></path>
            <path d="M85.125,72 C87.6105,72 89.625,69.9855 89.625,67.5 C89.625,65.0145 87.6105,63 85.125,63 C82.6395,63 80.625,65.0145 80.625,67.5 C80.625,69.9855 82.6395,72 85.125,72 L85.125,72 Z M77.733,99.24 C78.339,102.24 81.417,105.504 85.125,105.504 C89.2665,105.504 92.625,102.12 92.625,97.872 C92.625,97.8075 92.625,97.74 92.622,97.74 L89.625,97.74 C89.625,99.24 88.2825,100.62 86.625,100.62 C85.269,100.62 84.123,99.78 83.7525,98.5455 L88.125,76.74 L75,76.74 L75,82.74 L80.925,82.74 L78.6705,93.8925 C78.006,95.04 77.625,96.321 77.625,97.752 C77.625,98.0895 77.646,98.5125 77.688,98.838 L77.625,99.24 L77.733,99.24 L77.733,99.24 Z" id="Fill-2" fill="#858C96"></path>
        </g>
    </g>
</svg>