<?xml version="1.0" encoding="UTF-8"?>
<svg width="512px" height="131px" viewBox="0 0 512 131" version="1.1" xmlns="http://www.w3.org/2000/svg" xmlns:xlink="http://www.w3.org/1999/xlink">
    <!-- Generator: Sketch 41 (35326) - http://www.bohemiancoding.com/sketch -->
    <title>icon_rank_card_title</title>
    <desc>Created with Sketch.</desc>
    <defs></defs>
    <g id="Symbols" stroke="none" stroke-width="1" fill="none" fill-rule="evenodd">
        <g id="icon_rank_card_title">
            <path d="M22,48 L0.683245555,5.36649111 C-0.798670045,2.40265991 0.693064697,0 4.00522995,0 L87.9947701,0 C91.311367,0 94,2.6930647 94,6.00522995 L94,89.9947701 C94,93.311367 91.3069353,96 87.9947701,96 L4.00522995,96 C0.68863303,96 -0.801625026,93.6032501 0.683245555,90.6335089 L22,48 Z M87.9947701,92 C89.0997831,92 90,91.1002417 90,89.9947701 L90,6.00522995 C90,4.90021693 89.1002417,4 87.9947701,4 L4.47213595,4 L26.472136,48 L4.47213595,92 L87.9947701,92 Z" id="Rectangle" fill="#53AAFC"></path>
            <path d="M490,48 L511.316754,90.6335089 C512.801625,93.6032501 511.311367,96 507.99477,96 L424.00523,96 C420.693065,96 418,93.311367 418,89.9947701 L418,6.00522995 C418,2.6930647 420.688633,0 424.00523,0 L507.99477,0 C511.306935,0 512.79867,2.40265991 511.316754,5.36649111 L490,48 Z M424.00523,4 C422.899758,4 422,4.90021693 422,6.00522995 L422,89.9947701 C422,91.1002417 422.900217,92 424.00523,92 L507.527864,92 L485.527864,48 L507.527864,4 L424.00523,4 Z" id="Rectangle" fill="#53AAFC"></path>
            <path d="M58,4.99912183 C58,1.68589833 60.4039334,0.201966679 63.3701141,1.68505707 L94,17 L94,119.000878 C94,122.314102 91.5960666,123.798033 88.6298859,122.314943 L63.3701141,109.685057 C60.404282,108.202141 58,104.316865 58,101.000878 L58,4.99912183 Z" id="Rectangle-2" fill="#53AAFB" transform="translate(76.000000, 62.000000) scale(1, -1) translate(-76.000000, -62.000000) "></path>
            <path d="M418,4.99912183 C418,1.68589833 420.403933,0.201966679 423.370114,1.68505707 L454,17 L454,119.000878 C454,122.314102 451.596067,123.798033 448.629886,122.314943 L423.370114,109.685057 C420.404282,108.202141 418,104.316865 418,101.000878 L418,4.99912183 Z" id="Rectangle-2" fill="#53AAFB" transform="translate(436.000000, 62.000000) scale(-1, -1) translate(-436.000000, -62.000000) "></path>
            <path d="M58,23.0085777 C58,19.6901319 60.6865852,17 64.0028249,17 L447.997175,17 C451.312444,17 454,19.6777746 454,23.0085777 L454,124.991422 C454,128.309868 451.313415,131 447.997175,131 L64.0028249,131 C60.6875562,131 58,128.322225 58,124.991422 L58,23.0085777 Z M62,23.0085777 L62,124.991422 C62,126.108403 62.8920103,127 64.0028249,127 L447.997175,127 C449.102982,127 450,126.102022 450,124.991422 L450,23.0085777 C450,21.8915968 449.10799,21 447.997175,21 L64.0028249,21 C62.8970179,21 62,21.8979779 62,23.0085777 Z" id="Rectangle" fill="#53AAFC"></path>
            <path d="M62,23.0085777 L62,124.991422 C62,126.108403 62.8920103,127 64.0028249,127 L447.997175,127 C449.102982,127 450,126.102022 450,124.991422 L450,23.0085777 C450,21.8915968 449.10799,21 447.997175,21 L64.0028249,21 C62.8970179,21 62,21.8979779 62,23.0085777 Z" id="Path" fill="#FFFFFF"></path>
        </g>
    </g>
</svg>