<?xml version="1.0" encoding="UTF-8"?>
<svg width="60px" height="60px" viewBox="0 0 60 60" version="1.1" xmlns="http://www.w3.org/2000/svg" xmlns:xlink="http://www.w3.org/1999/xlink">
    <!-- Generator: Sketch 42 (36781) - http://www.bohemiancoding.com/sketch -->
    <title>icon_record_speaker_small</title>
    <desc>Created with Sketch.</desc>
    <defs></defs>
    <g id="Symbols" stroke="none" stroke-width="1" fill="none" fill-rule="evenodd">
        <g id="icon_record_speaker_small" fill-rule="nonzero" fill="#1B88EE">
            <g id="Group-4" transform="translate(3.000000, 3.000000)">
                <path d="M25.5063976,25 C23.7990994,25 22.5076799,26.414067 22.6405361,28.1098937 C22.6706799,28.341832 22.7034075,28.6399169 22.7372792,29.0932684 C23.157391,34.7162095 22.4185917,42.5512077 19.5632606,52.0689782 L22.4367394,52.9310218 C25.4020633,43.0466091 26.1754003,34.8453373 25.7289408,28.8697497 C25.7013906,28.5010073 25.6732694,28.2102989 25.6488889,28 L31.4936024,28 C33.2659983,28 34.527371,26.4848128 34.1751487,24.7454649 C34.1456609,24.5172824 34.0351535,23.9422967 33.8330144,23.1170596 C33.5039587,21.7736828 33.0317832,20.1965549 32.3907959,18.3940148 C30.5744323,13.2861631 27.7745699,7.37547389 23.7862394,0.728256367 L21.2137606,2.27174363 C25.1004301,8.74952611 27.8149387,14.4800279 29.5641935,19.399161 C30.1711726,21.1060657 30.6142291,22.5859321 30.9191553,23.8307997 C31.0241065,24.2592653 31.1041796,24.6259622 31.162593,24.9298956 C31.1673389,24.954589 25.5063976,25 25.5063976,25 Z" id="Combined-Shape"></path>
                <path d="M12.5397234,34.1523319 C12.6993866,34.2853846 12.9778186,34.5083122 13.3501903,34.7916384 C13.9676952,35.2614791 14.6280744,35.7312611 15.3080635,36.1719948 C16.0012598,36.6212886 16.6779664,37.0160342 17.3291796,37.3416408 C18.0806752,37.7173886 18.9581779,37.9681036 19.9406126,38.1224862 C21.1926963,38.3192422 22.4913425,38.3465247 23.6790623,38.2774713 C23.8941809,38.2649644 24.0542905,38.2520523 24.1492556,38.2425558 C24.9735714,38.1601242 25.5749874,37.4250602 25.4925558,36.6007444 C25.4101242,35.7764286 24.6750602,35.1750126 23.8507444,35.2574442 C23.7957095,35.2629477 23.6768191,35.2725356 23.5049377,35.2825287 C22.5128208,35.34021 21.4134261,35.3171134 20.4063261,35.1588549 C19.7050874,35.0486602 19.1132024,34.8795502 18.6708204,34.6583592 C18.128156,34.387027 17.5453875,34.0470787 16.9397499,33.6545358 C16.328285,33.258216 15.727959,32.8311548 15.1667558,32.4041524 C14.8319026,32.1493728 14.5876032,31.9537736 14.4602766,31.8476681 C13.8238613,31.317322 12.8780142,31.4033081 12.3476681,32.0397234 C11.817322,32.6761387 11.9033081,33.6219858 12.5397234,34.1523319 Z" id="Line"></path>
                <path d="M27,54 C12.0883118,54 0,41.9116882 0,27 C0,12.0883118 12.0883118,0 27,0 C41.9116882,0 54,12.0883118 54,27 C54,41.9116882 41.9116882,54 27,54 Z M27,51 C40.254834,51 51,40.254834 51,27 C51,13.745166 40.254834,3 27,3 C13.745166,3 3,13.745166 3,27 C3,40.254834 13.745166,51 27,51 Z" id="Oval"></path>
            </g>
        </g>
    </g>
</svg>