<?xml version="1.0" encoding="UTF-8" standalone="no"?>
<svg width="168px" height="168px" viewBox="0 0 168 168" version="1.1" xmlns="http://www.w3.org/2000/svg" xmlns:xlink="http://www.w3.org/1999/xlink">
    <!-- Generator: Sketch 3.8.3 (29802) - http://www.bohemiancoding.com/sketch -->
    <title>icon_more_operation_link</title>
    <desc>Created with Sketch.</desc>
    <defs></defs>
    <g id="Symbols" stroke="none" stroke-width="1" fill="none" fill-rule="evenodd">
        <g id="icon_more_operation_link">
            <rect id="icon" x="0" y="0" width="168" height="168"></rect>
            <path d="M4,36.0015487 L4,36.0015487 L4,131.998451 C4,149.678727 18.3239929,164 36.0015487,164 L131.998451,164 C149.678727,164 164,149.676007 164,131.998451 L164,36.0015487 C164,18.3212732 149.676007,4 131.998451,4 L36.0015487,4 C18.3212732,4 4,18.3239929 4,36.0015487 L4,36.0015487 Z M0,36.0015487 C0,16.1184424 16.1085463,0 36.0015487,0 L131.998451,0 C151.881558,0 168,16.1085463 168,36.0015487 L168,131.998451 C168,151.881558 151.891454,168 131.998451,168 L36.0015487,168 C16.1184424,168 0,151.891454 0,131.998451 L0,36.0015487 L0,36.0015487 Z" id="background" fill="#C1C8D2"></path>
            <g id="Group-2" transform="translate(83.500000, 84.500000) rotate(-45.000000) translate(-83.500000, -84.500000) translate(30.000000, 56.000000)" fill="#858C96">
                <path d="M107,33 C107,19.7422516 96.2548456,9 83.0000259,9 L58.9999741,9 C45.7402283,9 35,19.745166 35,33 L39,33 C39,21.9524755 47.9511966,13 58.9999741,13 L83.0000259,13 C94.0467873,13 103,21.9524713 103,33 L107,33 L107,33 Z" id="Rectangle-471"></path>
                <path d="M72,24 C72,37.254834 61.2597717,48 48.0000259,48 L23.9999741,48 C10.7451544,48 -5.68434189e-14,37.2577484 -5.68434189e-14,24 L4,24 C4,35.0475287 12.9532127,44 23.9999741,44 L48.0000259,44 C59.0488034,44 68,35.0475245 68,24 L72,24 L72,24 Z" id="Rectangle-471"></path>
                <path d="M44.3340673,52 C48.3897978,55.1349528 53.4770245,57 58.9999741,57 L83.0000259,57 C96.2597717,57 107,46.254834 107,33 L103,33 C103,44.0475245 94.0488034,53 83.0000259,53 L58.9999741,53 C56.5193447,53 54.1442844,52.5485634 51.9524687,51.7233402 C50.661244,51.9056909 49.3416751,52 48.0000259,52 L44.3340673,52 L44.3340673,52 Z M36.0365469,40 C35.3625279,37.7855247 35,35.4351972 35,33 L39,33 C39,35.4627715 39.4449353,37.8214279 40.2588118,40 L36.0365469,40 L36.0365469,40 Z" id="Combined-Shape"></path>
                <path d="M72,24 C72,37.254834 61.2597717,48 48.0000259,48 L23.9999741,48 C10.7451544,48 -2.84217094e-14,37.2577484 -2.84217094e-14,24 L4,24 C4,35.0475287 12.9532127,44 23.9999741,44 L48.0000259,44 C59.0488034,44 68,35.0475245 68,24 L72,24 L72,24 L72,24 Z" id="Path"></path>
                <path d="M70.9634531,17 C71.6374721,19.2144753 72,21.5648028 72,24 L68,24 C68,21.5372285 67.5550647,19.1785721 66.7411882,17 L70.9634531,17 L70.9634531,17 L70.9634531,17 Z M62.6659327,5 C58.6102022,1.8650472 53.5229755,2.84217094e-14 48.0000259,2.84217094e-14 L23.9999741,2.84217094e-14 C10.7402283,2.84217094e-14 -3.55271368e-14,10.745166 -3.55271368e-14,24 L4,24 C4,12.9524755 12.9511966,4 23.9999741,4 L48.0000259,4 C50.4806553,4 52.8557156,4.45143659 55.0475313,5.27665985 C56.338756,5.09430912 57.6583249,5 58.9999741,5 L62.6659327,5 L62.6659327,5 L62.6659327,5 Z" id="Combined-Shape"></path>
                <path d="M78,9 L83.0000259,9 C96.2548456,9 107,19.7422516 107,33 C107,46.254834 96.2597717,57 83.0000259,57 L68.4999871,57 L78,57 L78,53 L83.0000259,53 C94.0488034,53 103,44.0475245 103,33 C103,21.9524713 94.0467873,13 83.0000259,13 L78,13 L78,9 L78,9 Z" id="Rectangle-471"></path>
            </g>
        </g>
    </g>
</svg>