<?xml version="1.0" encoding="UTF-8" standalone="no"?>
<svg width="72px" height="72px" viewBox="0 0 72 72" version="1.1" xmlns="http://www.w3.org/2000/svg" xmlns:xlink="http://www.w3.org/1999/xlink">
    <!-- Generator: Sketch 3.7.1 (28215) - http://www.bohemiancoding.com/sketch -->
    <title>icon_review_detail_comment</title>
    <desc>Created with Sketch.</desc>
    <defs></defs>
    <g id="slice" stroke="none" stroke-width="1" fill="none" fill-rule="evenodd">
        <g id="icon_general" transform="translate(-324.000000, -60.000000)" fill="#99A0AA">
            <g id="icon_review_detail_comment" transform="translate(324.000000, 60.000000)">
                <path d="M54.9937,13 L17.0067,13 C13.6887,13 10.9997,15.681 10.9997,19.008 L10.9997,45.992 C10.9997,49.31 13.6877,52 17.0027,52 L19.9997,52 L19.9997,63 L33.9997,52 L55.0077,52 C58.3177,52 60.9997,49.319 60.9997,45.992 L60.9997,19.008 C60.9997,15.69 58.3117,13 54.9937,13 M54.9937,17 C56.0997,17 56.9997,17.901 56.9997,19.008 L56.9997,45.992 C56.9997,47.099 56.1067,48 55.0077,48 L33.9997,48 L32.6167,48 L31.5287,48.855 L23.9997,54.77 L23.9997,52 L23.9997,48 L19.9997,48 L17.0027,48 C15.8987,48 14.9997,47.099 14.9997,45.992 L14.9997,19.008 C14.9997,17.901 15.8997,17 17.0067,17 L54.9937,17" id="Fill-1"></path>
            </g>
        </g>
    </g>
</svg>