<?xml version="1.0" encoding="UTF-8"?>
<svg width="42px" height="42px" viewBox="0 0 42 42" version="1.1" xmlns="http://www.w3.org/2000/svg" xmlns:xlink="http://www.w3.org/1999/xlink">
    <!-- Generator: Sketch 42 (36781) - http://www.bohemiancoding.com/sketch -->
    <title>icon_article_read_count_small</title>
    <desc>Created with Sketch.</desc>
    <defs></defs>
    <g id="Symbols" stroke="none" stroke-width="1" fill="none" fill-rule="evenodd">
        <g id="icon_article_read_count_small">
            <g>
                <rect id="icon" x="0" y="0" width="42" height="42"></rect>
                <path d="M21,34 C9.40202025,34 1.90798893,23.3241395 1.90798893,23.3241395 C0.832400895,22.0638446 0.848284069,19.966154 1.8946955,18.6908404 C1.8946955,18.6908404 9.40202025,8 21,8 C32.5979797,8 40.0920111,18.6758605 40.0920111,18.6758605 C41.1675991,19.9361554 41.1517159,22.033846 40.1053045,23.3091596 C40.1053045,23.3091596 32.5979797,34 21,34 Z M21,31 C25.3082489,31 29.3550755,29.2627905 33.0229065,26.3159042 C34.3369281,25.2601652 35.5034326,24.1250753 36.5023073,22.9938839 C36.8479566,22.602448 37.1459811,22.242252 37.3942319,21.9238633 C37.5336386,21.7450701 37.6196167,21.628629 37.6501724,21.5851161 L37.7147764,21.4931163 L37.7860846,21.4062095 C37.9264178,21.2351785 37.9266006,20.7598996 37.8100731,20.6233612 L37.7180357,20.5155186 L37.6365789,20.3994767 C37.6061653,20.3561501 37.5204242,20.2399969 37.3813363,20.0615781 C37.1335904,19.7437753 36.8361275,19.3842215 36.4910841,18.993469 C35.493898,17.864182 34.3291086,16.730978 33.0167196,15.6769752 C29.3530539,12.7346205 25.3087486,11 21,11 C16.6917511,11 12.6449245,12.7372095 8.97709349,15.6840958 C7.66307188,16.7398348 6.49656735,17.8749247 5.49769267,19.0061161 C5.15204345,19.397552 4.85401887,19.757748 4.60576812,20.0761367 C4.46636136,20.2549299 4.38038334,20.371371 4.34982765,20.4148839 L4.28522355,20.5068837 L4.2139154,20.5937905 C4.07358224,20.7648215 4.07339938,21.2401004 4.18992694,21.3766388 L4.28196434,21.4844814 L4.36342113,21.6005233 C4.39383466,21.6438499 4.47957585,21.7600031 4.61866373,21.9384219 C4.86640964,22.2562247 5.16387252,22.6157785 5.50891588,23.006531 C6.50610203,24.135818 7.67089142,25.269022 8.98328043,26.3230248 C12.6469461,29.2653795 16.6912514,31 21,31 Z" id="Oval-3" fill="#858C96" fill-rule="nonzero"></path>
                <path d="M21,27 C17.6862915,27 15,24.3137085 15,21 C15,17.6862915 17.6862915,15 21,15 C24.3137085,15 27,17.6862915 27,21 C27,24.3137085 24.3137085,27 21,27 Z M21,24 C22.6568542,24 24,22.6568542 24,21 C24,19.3431458 22.6568542,18 21,18 C19.3431458,18 18,19.3431458 18,21 C18,22.6568542 19.3431458,24 21,24 Z" id="Oval-4" fill="#858C96" fill-rule="nonzero"></path>
            </g>
        </g>
    </g>
</svg>