<?xml version="1.0" encoding="UTF-8"?>
<svg width="84px" height="84px" viewBox="0 0 84 84" version="1.1" xmlns="http://www.w3.org/2000/svg" xmlns:xlink="http://www.w3.org/1999/xlink">
    <!-- Generator: Sketch 42 (36781) - http://www.bohemiancoding.com/sketch -->
    <title>icon_reading_encourage_percent_50</title>
    <desc>Created with Sketch.</desc>
    <defs></defs>
    <g id="Symbols" stroke="none" stroke-width="1" fill="none" fill-rule="evenodd">
        <g id="icon_reading_encourage_percent_50">
            <g id="50%">
                <rect id="icon" x="0" y="0" width="84" height="84"></rect>
                <path d="M6,4.02205272 C6,2.35301909 7.34240766,1 9.0020839,1 L74.9979161,1 C76.6559213,1 78,2.34675624 78,4.02205272 L78,79.4881818 C78,81.1572154 76.7299237,82.0586755 75.1830815,81.508716 L44.5333549,70.6116066 C42.9776137,70.0584832 40.4452695,70.0692111 38.8839734,70.6331237 L8.83246293,81.4871989 C7.26813685,82.0522059 6,81.1634783 6,79.4881818 L6,4.02205272 Z M9,78.235851 L37.8705115,67.8736055 C40.0817891,67.0799306 43.3251068,67.0672283 45.5327462,67.8472124 L75,78.2583274 L75,4 L9.0020839,4 L9,78.235851 Z" id="Rectangle-2" fill="#C4C8D0" fill-rule="nonzero"></path>
                <g id="50" transform="translate(18.000000, 18.000000)" fill="#99A0AA">
                    <path d="M30,44 C21.7157288,44 15,37.2842712 15,29 C15,20.7157288 21.7157288,14 30,14 C38.2842712,14 45,20.7157288 45,29 C45,37.2842712 38.2842712,44 30,44 Z M30,41 C36.627417,41 42,35.627417 42,29 C42,22.372583 36.627417,17 30,17 C23.372583,17 18,22.372583 18,29 C18,35.627417 23.372583,41 30,41 Z" id="Combined-Shape"></path>
                    <g id="5">
                        <path d="M0.625599405,28.4157688 C2.26874238,33.4013493 6.96411624,37 12.5,37 C19.4035594,37 25,31.4035594 25,24.5 C25,17.5964406 19.4035594,12 12.5,12 C7.75477371,12 3.62711256,14.6441107 1.50998162,18.5393669 L4.11587001,20.0287661 C5.71514178,17.0361861 8.86978252,15 12.5,15 C17.7467051,15 22,19.2532949 22,24.5 C22,29.7467051 17.7467051,34 12.5,34 C8.29168934,34 4.72248176,31.2636745 3.4745308,27.4731769 L0.625599405,28.4157688 Z" id="Combined-Shape"></path>
                        <polygon id="Rectangle-8" points="9 0 27 0 25.5 3 9 3"></polygon>
                        <polygon id="Rectangle-7" points="9.16289593 0 12.8280543 0 5.49773756 17.578125 1.83257919 17.578125"></polygon>
                    </g>
                </g>
                <path d="M52,18 L55,18 L55,21 L52,21 L52,18 Z M60,24 L63,24 L63,27 L60,27 L60,24 Z M60.25,18 L63.35,18 L55.0134394,27.012368 L51.9134394,27.012368 L60.25,18 Z" id="Combined-Shape" fill="#99A0AA"></path>
            </g>
        </g>
    </g>
</svg>