<?xml version="1.0" encoding="UTF-8" standalone="no"?>
<svg width="168px" height="168px" viewBox="0 0 168 168" version="1.1" xmlns="http://www.w3.org/2000/svg" xmlns:xlink="http://www.w3.org/1999/xlink">
    <!-- Generator: Sketch 3.8.3 (29802) - http://www.bohemiancoding.com/sketch -->
    <title>icon_more_operation_browser</title>
    <desc>Created with Sketch.</desc>
    <defs></defs>
    <g id="Symbols" stroke="none" stroke-width="1" fill="none" fill-rule="evenodd">
        <g id="icon_more_operation_browser">
            <rect id="icon" x="0" y="0" width="168" height="168"></rect>
            <path d="M4,36.0015487 L4,36.0015487 L4,131.998451 C4,149.678727 18.3239929,164 36.0015487,164 L131.998451,164 C149.678727,164 164,149.676007 164,131.998451 L164,36.0015487 C164,18.3212732 149.676007,4 131.998451,4 L36.0015487,4 C18.3212732,4 4,18.3239929 4,36.0015487 L4,36.0015487 Z M0,36.0015487 C0,16.1184424 16.1085463,0 36.0015487,0 L131.998451,0 C151.881558,0 168,16.1085463 168,36.0015487 L168,131.998451 C168,151.881558 151.891454,168 131.998451,168 L36.0015487,168 C16.1184424,168 0,151.891454 0,131.998451 L0,36.0015487 L0,36.0015487 Z" id="background" fill="#C1C8D2"></path>
            <path d="M82,114.998101 C82,113.89458 82.8877296,113 84,113 C85.1045695,113 86,113.886706 86,114.998101 L86,119.001899 C86,120.10542 85.1122704,121 84,121 C82.8954305,121 82,120.113294 82,119.001899 L82,114.998101 Z M82,48.9981014 C82,47.8945804 82.8877296,47 84,47 C85.1045695,47 86,47.8867064 86,48.9981014 L86,53.0018986 C86,54.1054196 85.1122704,55 84,55 C82.8954305,55 82,54.1132936 82,53.0018986 L82,48.9981014 Z" id="Rectangle-244" fill="#858C96" transform="translate(84.000000, 84.000000) rotate(135.000000) translate(-84.000000, -84.000000) "></path>
            <path d="M82,114.998101 C82,113.89458 82.8877296,113 84,113 C85.1045695,113 86,113.886706 86,114.998101 L86,119.001899 C86,120.10542 85.1122704,121 84,121 C82.8954305,121 82,120.113294 82,119.001899 L82,114.998101 Z M82,48.9981014 C82,47.8945804 82.8877296,47 84,47 C85.1045695,47 86,47.8867064 86,48.9981014 L86,53.0018986 C86,54.1054196 85.1122704,55 84,55 C82.8954305,55 82,54.1132936 82,53.0018986 L82,48.9981014 Z" id="Rectangle-244" fill="#858C96" transform="translate(84.000000, 84.000000) rotate(90.000000) translate(-84.000000, -84.000000) "></path>
            <path d="M82,114.998101 C82,113.89458 82.8877296,113 84,113 C85.1045695,113 86,113.886706 86,114.998101 L86,119.001899 C86,120.10542 85.1122704,121 84,121 C82.8954305,121 82,120.113294 82,119.001899 L82,114.998101 Z M82,48.9981014 C82,47.8945804 82.8877296,47 84,47 C85.1045695,47 86,47.8867064 86,48.9981014 L86,53.0018986 C86,54.1054196 85.1122704,55 84,55 C82.8954305,55 82,54.1132936 82,53.0018986 L82,48.9981014 Z" id="Rectangle-244" fill="#858C96" transform="translate(84.000000, 84.000000) rotate(45.000000) translate(-84.000000, -84.000000) "></path>
            <path d="M82,114.998101 C82,113.89458 82.8877296,113 84,113 C85.1045695,113 86,113.886706 86,114.998101 L86,119.001899 C86,120.10542 85.1122704,121 84,121 C82.8954305,121 82,120.113294 82,119.001899 L82,114.998101 Z M82,48.9981014 C82,47.8945804 82.8877296,47 84,47 C85.1045695,47 86,47.8867064 86,48.9981014 L86,53.0018986 C86,54.1054196 85.1122704,55 84,55 C82.8954305,55 82,54.1132936 82,53.0018986 L82,48.9981014 Z" id="Rectangle-244" fill="#858C96"></path>
            <path d="M65.9334126,100.870097 C65.1417607,102.322552 65.6836178,102.854876 67.1299026,102.066587 L87.1120974,91.1754126 C88.5645525,90.3837607 90.3871238,88.5583822 91.1754126,87.1120974 L102.066587,67.1299026 C102.858239,65.6774475 102.316382,65.1451238 100.870097,65.9334126 L80.8879026,76.8245874 C79.4354475,77.6162393 77.6128762,79.4416178 76.8245874,80.8879026 L65.9334126,100.870097 Z M80.0084314,82.2918741 C80.4252554,81.5783917 81.2421965,81.4744016 81.8353093,82.0617731 L85.9278486,86.1146974 C86.5199815,86.7010986 86.4211733,87.5169569 85.7081259,87.9363965 L73.2918741,95.2400741 C72.5783917,95.6597696 72.3435262,95.4119822 72.7547264,94.7081259 L80.0084314,82.2918741 Z" id="Fill-2" fill="#858C96"></path>
            <path d="M84,125 L84,125 C106.643675,125 125,106.643675 125,84 C125,61.3563253 106.643675,43 84,43 C61.3563253,43 43,61.3563253 43,84 C43,106.643675 61.3563253,125 84,125 L84,125 Z M84,129 L84,129 C59.1471863,129 39,108.852814 39,84 C39,59.1471863 59.1471863,39 84,39 C108.852814,39 129,59.1471863 129,84 C129,108.852814 108.852814,129 84,129 L84,129 Z" id="Oval-48" fill="#858C96"></path>
        </g>
    </g>
</svg>