<?xml version="1.0" encoding="UTF-8"?>
<svg width="72px" height="72px" viewBox="0 0 72 72" version="1.1" xmlns="http://www.w3.org/2000/svg" xmlns:xlink="http://www.w3.org/1999/xlink">
    <!-- Generator: Sketch 41 (35326) - http://www.bohemiancoding.com/sketch -->
    <title>icon_account_review_round</title>
    <desc>Created with Sketch.</desc>
    <defs></defs>
    <g id="Symbols" stroke="none" stroke-width="1" fill="none" fill-rule="evenodd">
        <g id="icon_account_review_round">
            <rect id="icon" x="0" y="0" width="72" height="72"></rect>
            <ellipse id="Oval-39" fill="#3FD0AD" cx="36" cy="36" rx="36" ry="36"></ellipse>
            <path d="M50.0984,18 C45.8364,18 38.5664,17.999 31.5954,24.761 C23.3644,32.746 19.5244,45.599 18.0454,54.104 C17.7464,55.822 19.0184,56 19.0184,56 C19.0184,56 23.0894,52.445 25.2004,50.121 C26.5734,48.61 27.4834,48.72 30.5764,47.585 C43.1684,46.761 49.0534,32.209 49.0534,32.209 C49.0894,32.124 49.0694,32.082 49.0064,32.082 C48.9834,32.082 48.9544,32.088 48.9204,32.099 C48.9204,32.099 48.8704,32.207 48.2894,32.207 C47.9034,32.207 47.2824,32.159 46.2834,32 C48.7824,30 50.7364,29.269 51.0854,28.554 C54.2864,21.999 54.0004,18.176 54.0004,18.176 C54.0004,18.176 51.8854,18 50.0984,18 Z M50.0984,21 C50.2814,21 50.4694,21.002 50.6574,21.006 C50.3414,22.429 49.7384,24.392 48.5934,26.814 C48.3934,26.947 48.1034,27.126 47.8554,27.279 C46.9764,27.823 45.7724,28.567 44.4094,29.658 L39.1174,33.894 L44.3354,34.727 C41.9354,38.571 37.2964,44.139 30.3804,44.591 L29.9484,44.62 L29.5424,44.769 C28.7634,45.055 28.1324,45.256 27.5754,45.433 C25.8694,45.977 24.5224,46.407 22.9804,48.104 C22.7584,48.348 22.5124,48.608 22.2494,48.877 C23.9694,42.259 27.3524,33.057 33.6834,26.914 C39.7814,21 45.9884,21 50.0964,21 L50.0984,21 Z" id="Fill-1" fill="#FFFFFF"></path>
        </g>
    </g>
</svg>