<?xml version="1.0" encoding="UTF-8"?>
<svg width="84px" height="48px" viewBox="0 0 84 48" version="1.1" xmlns="http://www.w3.org/2000/svg" xmlns:xlink="http://www.w3.org/1999/xlink">
    <!-- Generator: Sketch 39.1 (31720) - http://www.bohemiancoding.com/sketch -->
    <title>icon_remind_cup</title>
    <desc>Created with Sketch.</desc>
    <defs></defs>
    <g id="Symbols" stroke="none" stroke-width="1" fill="none" fill-rule="evenodd">
        <g id="icon_remind_cup">
            <rect id="icon" x="0" y="0" width="84" height="48"></rect>
            <g id="cup" transform="translate(6.000000, 3.000000)" fill="#C4C8D0">
                <path d="M52.4900913,9.00274549 C55.706525,7.28090936 59.7973403,7.77652498 62.5104076,10.4895924 C65.8298641,13.8090488 65.8298641,19.1909512 62.5104076,22.5104076 C59.5530992,25.4677161 51.1938176,28.2167529 47.0578137,26.4341541 C47.5595931,25.5792295 48.0219312,24.6962563 48.4475648,23.7922318 C50.8775461,24.6849959 57.8567005,22.9214741 60.3890873,20.3890873 C62.5369709,18.2412037 62.5369709,14.7587963 60.3890873,12.6109127 C58.2412037,10.4630291 54.7587963,10.4630291 52.6109127,12.6109127 C52.3254812,12.8963442 52.0314127,13.2234227 51.7356701,13.5825058 C52.0524623,12.0359735 52.3001815,10.4997871 52.4900913,9.00274549 Z" id="Combined-Shape"></path>
                <g id="Oval-1031-Copy">
                    <path d="M54.0027649,0.00472917757 C53.9012401,13.8840024 49.5683863,39 27.0023098,39 C4.43069926,39 0.10125547,14.0257667 0.00178069677,-3.72892828e-11 C0.00178069677,-3.72892828e-11 53.6228027,-1.29825621e-14 54.0027649,0.00472917757 Z M3,3 C3.3759972,10.4286922 4.96214953,17.7082397 7.76925475,23.4402078 C11.7512773,31.5712981 17.9460818,36 27.0023098,36 C36.0468204,36 42.2428411,31.5508667 46.2314257,23.3898002 C49.0348408,17.653716 50.5530453,10.377292 51,3 C50.0002441,3 4,3 3,3 Z"></path>
                </g>
            </g>
        </g>
    </g>
</svg>