<?xml version="1.0" encoding="UTF-8"?>
<svg width="72px" height="72px" viewBox="0 0 72 72" version="1.1" xmlns="http://www.w3.org/2000/svg" xmlns:xlink="http://www.w3.org/1999/xlink">
    <!-- Generator: Sketch 41 (35326) - http://www.bohemiancoding.com/sketch -->
    <title>icon_topbar_article</title>
    <desc>Created with Sketch.</desc>
    <defs></defs>
    <g id="Symbols" stroke="none" stroke-width="1" fill="none" fill-rule="evenodd">
        <g id="icon_topbar_article">
            <rect id="icon" x="0" y="0" width="72" height="72"></rect>
            <path d="M9,9.99619829 C9,8.34144367 10.3348389,7 11.9995609,7 L60.0004391,7 C61.6570508,7 63,8.34831184 63,9.99619829 L63,62.0038017 C63,63.6585563 61.6651611,65 60.0004391,65 L11.9995609,65 C10.3429492,65 9,63.6516882 9,62.0038017 L9,9.99619829 Z M13,61 L59,61 L59,11 L13,11 L13,61 Z" id="Rectangle" fill="#1B88EE"></path>
            <rect id="Rectangle-2" fill="#1B88EE" x="20" y="50" width="24" height="3"></rect>
            <rect id="Rectangle-2" fill="#1B88EE" x="20" y="41" width="33" height="3"></rect>
            <path d="M20,26.5 C20,22.3578644 23.3662928,19 27.5,19 C31.6421356,19 35,22.3662928 35,26.5 C35,30.6421356 31.6337072,34 27.5,34 C23.3578644,34 20,30.6337072 20,26.5 Z M23,26.5 C23,28.9802848 25.0181486,31 27.5,31 C29.9802848,31 32,28.9818514 32,26.5 C32,24.0197152 29.9818514,22 27.5,22 C25.0197152,22 23,24.0181486 23,26.5 Z" id="Rectangle-3" fill="#1B88EE"></path>
        </g>
    </g>
</svg>