<?xml version="1.0" encoding="UTF-8"?>
<svg width="168px" height="168px" viewBox="0 0 168 168" version="1.1" xmlns="http://www.w3.org/2000/svg" xmlns:xlink="http://www.w3.org/1999/xlink">
    <!-- Generator: Sketch 42 (36781) - http://www.bohemiancoding.com/sketch -->
    <title>icon_more_operation_secret</title>
    <desc>Created with Sketch.</desc>
    <defs></defs>
    <g id="Symbols" stroke="none" stroke-width="1" fill="none" fill-rule="evenodd">
        <g id="icon_more_operation_secret">
            <rect id="icon" x="0" y="0" width="168" height="168"></rect>
            <path d="M4,36.0015487 L4,36.0015487 L4,131.998451 C4,149.678727 18.3239929,164 36.0015487,164 L131.998451,164 C149.678727,164 164,149.676007 164,131.998451 L164,36.0015487 C164,18.3212732 149.676007,4 131.998451,4 L36.0015487,4 C18.3212732,4 4,18.3239929 4,36.0015487 L4,36.0015487 Z M0,36.0015487 C0,16.1184424 16.1085463,0 36.0015487,0 L131.998451,0 C151.881558,0 168,16.1085463 168,36.0015487 L168,131.998451 C168,151.881558 151.891454,168 131.998451,168 L36.0015487,168 C16.1184424,168 0,151.891454 0,131.998451 L0,36.0015487 L0,36.0015487 Z" id="background" fill="#C1C8D2" fill-rule="nonzero"></path>
            <path d="M49.5096345,45 L118.490365,45 C120.166404,45 121.451161,46.3416854 121.390915,47.9967383 L120,86.2075472 C117.513944,112.736842 98.1320902,122.326558 84,123 C69.5972919,122.326558 50.48608,112.736842 48,86.2075472 L46.6090846,47.9967383 C46.5490549,46.3476208 47.8474593,45 49.5096345,45 Z M51.9931277,85.9459763 C53.067968,97.1694482 57.3600677,105.561106 64.1069212,111.239328 C69.7287508,115.970718 76.9286357,118.623907 83.9980314,118.994996 C90.9519026,118.622421 98.1565812,115.958632 103.798997,111.233123 C110.603382,105.534467 114.934321,97.1418221 116.006873,85.9459472 L117.351746,49 L50.6482536,49 L51.9931277,85.9459763 Z" id="Fill-1" fill="#858C96" fill-rule="nonzero"></path>
            <path d="M109.281313,69.0953193 L109.281313,69.6934899 L108.952884,70.1934321 C108.798583,70.4283131 108.529105,70.8111703 108.158961,71.2941205 C107.547116,72.0924321 106.865408,72.8906703 106.124971,73.6420757 C103.846724,75.9540736 101.502775,77.3812771 99.0223849,77.3812771 C96.9680703,77.3812771 94.8287902,76.9470827 92.7035024,76.2281588 C91.442529,75.8016076 90.4540902,75.3717155 89.8584761,75.0694967 L88.7634563,74.5138759 L88.7634563,73.2859578 C88.7634563,69.8204541 94.8008156,65 99.0223849,65 C102.650055,65 103.94986,65.0423917 105.343335,65.2936565 C107.727098,65.7234852 109.281313,66.8927734 109.281313,69.0953193 Z M104.633521,69.2301733 C103.577832,69.0398164 102.356992,69 99.0223849,69 C97.3638545,69 94.6176295,70.8734834 93.3900459,72.2284558 C93.583284,72.2998914 93.7818875,72.3702876 93.9852406,72.4390761 C95.7313256,73.0297267 97.4634182,73.3812771 99.0223849,73.3812771 C100.155276,73.3812771 101.6827,72.4512464 103.275825,70.8345207 C103.775185,70.327763 104.249418,69.7870773 104.687189,69.2400716 C104.669582,69.2367502 104.651692,69.2334498 104.633521,69.2301733 Z" id="Stroke-2" fill="#858C96" fill-rule="nonzero"></path>
            <path d="M59.8572063,69.0953193 C59.8572063,66.8927734 61.4114219,65.7234852 63.7951844,65.2936565 C65.1886597,65.0423917 66.4884649,65 70.1161349,65 C74.3377042,65 80.3750635,69.8204541 80.3750635,73.2859578 L80.3750635,74.5138759 L79.2800436,75.0694967 C78.6844295,75.3717155 77.6959908,75.8016076 76.4350174,76.2281588 C74.3097296,76.9470827 72.1704494,77.3812771 70.1161349,77.3812771 C67.6357451,77.3812771 65.291796,75.9540736 63.0135483,73.6420757 C62.2731118,72.8906703 61.5914042,72.0924321 60.9795592,71.2941205 C60.6094146,70.8111703 60.3399372,70.4283131 60.1856357,70.1934321 L59.8572063,69.6934899 L59.8572063,69.0953193 Z M65.8626947,70.8345207 C67.4558197,72.4512464 68.9832434,73.3812771 70.1161349,73.3812771 C71.6751016,73.3812771 73.4071942,73.0297267 75.1532792,72.4390761 C75.3566323,72.3702876 75.5552358,72.2998914 75.7484739,72.2284558 C74.5208903,70.8734834 71.7746652,69 70.1161349,69 C66.781528,69 65.5606881,69.0398164 64.5049983,69.2301733 C64.4868275,69.2334498 64.4689381,69.2367502 64.4513304,69.2400716 C64.8891014,69.7870773 65.3633346,70.327763 65.8626947,70.8345207 Z" id="Stroke-2" fill="#858C96" fill-rule="nonzero"></path>
        </g>
    </g>
</svg>