<?xml version="1.0" encoding="UTF-8"?>
<svg width="72px" height="72px" viewBox="0 0 72 72" version="1.1" xmlns="http://www.w3.org/2000/svg" xmlns:xlink="http://www.w3.org/1999/xlink">
    <!-- Generator: Sketch 40.2 (33826) - http://www.bohemiancoding.com/sketch -->
    <title>icon_style_bold</title>
    <desc>Created with Sketch.</desc>
    <defs></defs>
    <g id="Symbols" stroke="none" stroke-width="1" fill="none" fill-rule="evenodd">
        <g id="icon_style_bold">
            <rect id="icon" x="0" y="0" width="72" height="72"></rect>
            <path d="M37.871673,63 C49.2528517,63 56,57.4539155 56,48.1247401 C56,41.1094941 51.3659696,36.1510742 44.0627376,35.2328482 L44.0627376,34.6451836 C49.2157795,33.7269577 53.2937262,28.7318087 53.2937262,23.2224532 C53.2937262,15.1053361 47.2880228,10 37.4638783,10 L17,10 L17,63 L37.871673,63 Z M21.5,58.4571429 L21.5,37.2571429 L35.601389,37.2571429 C44.126333,38.7714286 51.5,40.8113835 51.5,47.794421 C51.5,54.7774584 44.2745929,58.4571429 37.7314935,58.4571429 L21.5,58.4571429 Z M21.5,14.5428571 L36.674784,14.5428571 C43.2055743,14.5428571 48.5,17.8788645 48.5,23.648195 C48.5,29.6530083 41.4501803,32.7142857 34.9964803,32.7142857 L21.5,32.7142857 L21.5,14.5428571 Z" id="B" fill="#858C96"></path>
        </g>
    </g>
</svg>