<?xml version="1.0" encoding="UTF-8" standalone="no"?>
<svg width="48px" height="48px" viewBox="0 0 48 48" version="1.1" xmlns="http://www.w3.org/2000/svg" xmlns:xlink="http://www.w3.org/1999/xlink">
    <!-- Generator: Sketch 3.8.3 (29802) - http://www.bohemiancoding.com/sketch -->
    <title>icon_share_picture_qrcode_normal</title>
    <desc>Created with Sketch.</desc>
    <defs></defs>
    <g id="Symbols" stroke="none" stroke-width="1" fill="none" fill-rule="evenodd">
        <g id="icon_share_picture_qrcode_normal">
            <rect id="icon" x="0" y="0" width="48" height="48"></rect>
            <path d="M4,25 L22,25 L22,43 L4,43 L4,25 Z M7,28 L19,28 L19,40 L7,40 L7,28 Z M10,31 L16,31 L16,37 L10,37 L10,31 Z M4,4 L22,4 L22,22 L4,22 L4,4 Z M7,7 L19,7 L19,19 L7,19 L7,7 Z M10,10 L16,10 L16,16 L10,16 L10,10 Z M25,4 L43,4 L43,22 L25,22 L25,4 Z M28,7 L40,7 L40,19 L28,19 L28,7 Z M31,10 L37,10 L37,16 L31,16 L31,10 Z M25,25 L31,25 L31,31 L25,31 L25,25 Z M37,25 L43,25 L43,31 L37,31 L37,25 Z M31,31 L43,31 L43,37 L31,37 L31,31 Z M25,37 L31,37 L31,43 L25,43 L25,37 Z M37,37 L43,37 L43,43 L37,43 L37,37 Z" id="Combined-Shape" fill="#717882"></path>
        </g>
    </g>
</svg>