<?xml version="1.0" encoding="UTF-8"?>
<svg width="204px" height="204px" viewBox="0 0 204 204" version="1.1" xmlns="http://www.w3.org/2000/svg" xmlns:xlink="http://www.w3.org/1999/xlink">
    <!-- Generator: Sketch 42 (36781) - http://www.bohemiancoding.com/sketch -->
    <title>icon_record_speaker_green</title>
    <desc>Created with Sketch.</desc>
    <defs></defs>
    <g id="Symbols" stroke="none" stroke-width="1" fill="none" fill-rule="evenodd">
        <g id="icon_record_speaker_green">
            <circle id="background" cx="102" cy="102" r="102"></circle>
            <path d="M80.0941095,201.642037 C34.2887325,191.617979 0,150.813271 0,102 C0,52.7752642 34.8692336,11.6946742 81.2548819,2.11104896 C103.467352,34.9894226 114.46196,99.0615078 114.46196,99.0615078 C114.759111,100.684392 113.664912,102 111.999841,102 L92.5001593,102 C90.8432171,102 89.5643113,103.340435 89.6334551,104.996946 C89.6334551,104.996946 93.1996922,170.227134 80.0941095,201.642037 Z" id="Combined-Shape" fill="#CCF0CF"></path>
            <path d="M78.6111404,201.305827 C79.5987308,201.537531 80.5918501,201.754885 81.590266,201.957654 C85.6843828,192.037234 88.4079591,178.33833 89.9860724,161.72448 C91.6009801,144.723272 91.8665918,126.721417 91.3541829,110.484172 C91.3055366,108.942665 91.2533942,107.569796 91.2012196,106.382473 C91.1829292,105.966243 91.1659298,105.60275 91.1312184,104.915061 C91.098482,104.127786 91.6985115,103.5 92.5001593,103.5 L111.999841,103.5 C114.59768,103.5 116.403964,101.339307 115.880651,98.4672126 C115.831561,98.1901955 115.77273,97.8636281 115.704151,97.4892772 C115.508582,96.4217243 115.273971,95.1842664 115.000276,93.7910353 C114.218922,89.813592 113.280779,85.3829037 112.185473,80.6119469 C109.055438,66.9780745 105.292627,53.3428273 100.89193,40.6070591 C95.4635569,24.8971649 89.4592967,11.7132732 82.8513471,1.79453587 C81.7861236,1.99686326 80.7267665,2.21575553 79.673554,2.45093454 C86.3786675,12.2176284 92.5153114,25.5506408 98.0564324,41.5868324 C102.418416,54.2105602 106.153739,67.7462014 109.261538,81.2832175 C110.349474,86.0220716 111.281088,90.4219221 112.056539,94.3693212 C112.327726,95.749785 112.559957,96.9746889 112.753258,98.0298617 C112.820784,98.3984647 112.878588,98.7193286 112.983568,99.3151961 C113.115268,100.034988 112.726529,100.5 111.999841,100.5 L92.5001593,100.5 C89.9901861,100.5 88.0300459,102.550814 88.1543218,105.442407 C88.169326,105.745565 88.1860668,106.103527 88.2041119,106.514176 C88.2557533,107.689364 88.307427,109.049892 88.3556756,110.578798 C88.8644399,126.700552 88.6005512,144.585624 86.9995155,161.440794 C85.4195634,178.074002 82.6752176,191.700154 78.6111404,201.305827 Z" id="Combined-Shape" fill="#27A806"></path>
            <path d="M143.19474,170.05561 C167.32285,156.142722 182.5,130.480147 182.5,102.183099 C182.5,88.2312153 178.835252,74.8086186 171.975963,62.9939853 C171.560018,62.277549 170.642041,62.0339531 169.925605,62.4498985 C169.209169,62.865844 168.965573,63.7838207 169.381518,64.5002569 C175.976974,75.8604578 179.5,88.7639785 179.5,102.183099 C179.5,129.395882 164.905195,154.073789 141.696153,167.456719 C140.978489,167.870542 140.732177,168.787794 141.146001,169.505458 C141.559824,170.223122 142.477076,170.469434 143.19474,170.05561 Z" id="Combined-Shape" fill="#27A806" fill-rule="nonzero"></path>
            <path d="M131.851388,150.475297 C149.018152,140.576499 159.817073,122.316936 159.817073,102.183099 C159.817073,92.2563628 157.20935,82.705254 152.328701,74.2986845 C151.912756,73.5822483 150.994779,73.3386524 150.278343,73.7545978 C149.561906,74.1705432 149.31831,75.0885199 149.734256,75.8049562 C154.351073,83.7570932 156.817073,92.7891261 156.817073,102.183099 C156.817073,121.232672 146.600497,138.507566 130.3528,147.876405 C129.635136,148.290229 129.388825,149.207481 129.802648,149.925145 C130.216472,150.642809 131.133724,150.88912 131.851388,150.475297 Z" id="Combined-Shape" fill="#27A806" fill-rule="nonzero"></path>
            <path d="M120.508036,130.894983 C130.713454,125.010277 137.134146,114.153726 137.134146,102.183099 C137.134146,96.2815104 135.583449,90.6018894 132.681439,85.6033838 C132.265493,84.8869476 131.347517,84.6433516 130.63108,85.059297 C129.914644,85.4752425 129.671048,86.3932192 130.086993,87.1096555 C132.725172,91.6537286 134.134146,96.8142736 134.134146,102.183099 C134.134146,113.069461 128.295798,122.941344 119.009448,128.296092 C118.291784,128.709915 118.045473,129.627167 118.459296,130.344831 C118.87312,131.062495 119.790372,131.308807 120.508036,130.894983 Z" id="Combined-Shape" fill="#27A806" fill-rule="nonzero"></path>
            <path d="M46.4947564,121.113322 C46.619804,121.22623 46.8505602,121.427272 47.1807997,121.70389 C47.7237036,122.158641 48.3534841,122.663688 49.0639651,123.206472 C51.0884341,124.7531 53.360177,126.298386 55.830787,127.741633 C60.3289577,130.369311 64.9760358,132.361823 69.6573188,133.460332 C77.6775582,135.031809 83.4952933,135.397773 87.3219311,135.083431 C87.7680087,135.046787 88.0760426,135.008344 88.249337,134.979132 C89.066239,134.841427 89.6168369,134.067565 89.4791319,133.250663 C89.3414268,132.433761 88.5675649,131.883163 87.750663,132.020868 C87.6615548,132.035889 87.4379504,132.063795 87.076321,132.093502 C83.5320326,132.38465 77.9900879,132.036035 70.2882377,130.527954 C65.9809639,129.516148 61.6019093,127.638556 57.3440092,125.151235 C54.9866852,123.774167 52.8160965,122.297687 50.8852038,120.822549 C50.2113083,120.307715 49.6164675,119.830688 49.1071762,119.404091 C48.8060987,119.1519 48.6033059,118.975221 48.5052436,118.886678 C47.890373,118.331498 46.941859,118.379886 46.3866783,118.994756 C45.8314975,119.609627 45.8798858,120.558141 46.4947564,121.113322 Z" id="Line" fill="#27A806" fill-rule="nonzero"></path>
        </g>
    </g>
</svg>