<?xml version="1.0" encoding="UTF-8"?>
<svg width="72px" height="72px" viewBox="0 0 72 72" version="1.1" xmlns="http://www.w3.org/2000/svg" xmlns:xlink="http://www.w3.org/1999/xlink">
    <!-- Generator: Sketch 42 (36781) - http://www.bohemiancoding.com/sketch -->
    <title>icon_reader_tts_prev</title>
    <desc>Created with Sketch.</desc>
    <defs></defs>
    <g id="Symbols" stroke="none" stroke-width="1" fill="none" fill-rule="evenodd">
        <g id="icon_reader_tts_prev">
            <g>
                <rect id="icon" x="0" y="0" width="72" height="72"></rect>
                <path d="M0,15.002615 C0,13.3443165 1.11688471,12.7445898 2.50286814,13.6685788 L33.4971319,34.3314212 C34.8794278,35.2529518 34.8831153,36.7445898 33.4971319,37.6685788 L2.50286814,58.3314212 C1.12057223,59.2529518 0,58.6661074 0,56.997385 L0,15.002615 Z" id="Rectangle-2" fill="#1B88EE" transform="translate(18.000000, 36.000000) scale(-1, 1) translate(-18.000000, -36.000000) "></path>
                <path d="M35,15.002615 C35,13.3443165 36.1168847,12.7445898 37.5028681,13.6685788 L68.4971319,34.3314212 C69.8794278,35.2529518 69.8831153,36.7445898 68.4971319,37.6685788 L37.5028681,58.3314212 C36.1205722,59.2529518 35,58.6661074 35,56.997385 L35,15.002615 Z" id="Rectangle-2" fill="#1B88EE" transform="translate(53.000000, 36.000000) scale(-1, 1) translate(-53.000000, -36.000000) "></path>
            </g>
        </g>
    </g>
</svg>