<?xml version="1.0" encoding="UTF-8" standalone="no"?>
<svg width="72px" height="72px" viewBox="0 0 72 72" version="1.1" xmlns="http://www.w3.org/2000/svg" xmlns:xlink="http://www.w3.org/1999/xlink">
    <!-- Generator: Sketch 3.8.3 (29802) - http://www.bohemiancoding.com/sketch -->
    <title>icon_reader_top_buy_dark</title>
    <desc>Created with Sketch.</desc>
    <defs></defs>
    <g id="Symbols" stroke="none" stroke-width="1" fill="none" fill-rule="evenodd">
        <g id="icon_reader_top_buy_dark">
            <rect id="icon" x="0" y="0" width="72" height="72"></rect>
            <path d="M63,46 L21.0049167,46 C20.3218834,46 19.5912118,45.3817459 19.4792331,44.7098737 L13.9727878,11.671202 L13.9372458,11.4579497 L13.8569534,11.2572186 L11.8569534,6.25721865 L11.5124522,5.39596562 L10.6324555,5.1026334 L7.63245553,4.1026334 C6.5845689,3.75333786 5.45192895,4.31965783 5.1026334,5.36754447 C4.75333786,6.4154311 5.31965783,7.54807105 6.36754447,7.8973666 L9.36754447,8.8973666 L8.14304662,7.74278135 L10.1430466,12.7427814 L10.0272122,12.328798 L15.5336574,45.3674696 C15.967254,47.9690491 18.3674938,50 21.0049167,50 L63,50 C64.1045695,50 65,49.1045695 65,48 C65,46.8954305 64.1045695,46 63,46 L63,46 Z" id="Line" fill="#1B88EE"></path>
            <path d="M14,16 L62.0059907,16 C62.9583372,16 63.4661998,16.6136716 63.2876458,17.5510804 L60.7829999,30.7004712 C60.5277858,32.0403456 59.0873849,33.4382188 57.7423411,33.6522031 L17.6857699,40.0248394 L15.7106093,40.3390695 L16.3390695,44.2893907 L18.3142301,43.9751606 L58.3708013,37.6025243 C61.3813928,37.1235665 64.1417227,34.4447351 64.7123542,31.4489196 L67.2170001,18.2995288 C67.865078,14.8971196 65.4674783,12 62.0059907,12 L14,12 L12,12 L12,16 L14,16 L14,16 Z" id="Line" fill="#1B88EE"></path>
            <path d="M54,65 C50.6862915,65 48,62.3137085 48,59 C48,55.6862915 50.6862915,53 54,53 C57.3137085,53 60,55.6862915 60,59 C60,62.3137085 57.3137085,65 54,65 Z M54,61 C55.1045695,61 56,60.1045695 56,59 C56,57.8954305 55.1045695,57 54,57 C52.8954305,57 52,57.8954305 52,59 C52,60.1045695 52.8954305,61 54,61 Z" id="Oval-2" fill="#1B88EE"></path>
            <path d="M24,65 C20.6862915,65 18,62.3137085 18,59 C18,55.6862915 20.6862915,53 24,53 C27.3137085,53 30,55.6862915 30,59 C30,62.3137085 27.3137085,65 24,65 Z M24,61 C25.1045695,61 26,60.1045695 26,59 C26,57.8954305 25.1045695,57 24,57 C22.8954305,57 22,57.8954305 22,59 C22,60.1045695 22.8954305,61 24,61 Z" id="Oval-2" fill="#1B88EE"></path>
        </g>
    </g>
</svg>