<?xml version="1.0" encoding="UTF-8" standalone="no"?>
<svg width="72px" height="72px" viewBox="0 0 72 72" version="1.1" xmlns="http://www.w3.org/2000/svg" xmlns:xlink="http://www.w3.org/1999/xlink">
    <!-- Generator: Sketch 3.8.3 (29802) - http://www.bohemiancoding.com/sketch -->
    <title>icon_write_review_at</title>
    <desc>Created with Sketch.</desc>
    <defs></defs>
    <g id="Symbols" stroke="none" stroke-width="1" fill="none" fill-rule="evenodd">
        <g id="icon_write_review_at">
            <rect id="icon" x="0" y="0" width="72" height="72"></rect>
            <path d="M49.125,62.25 L49.125,62.25 C44.8901069,64.9807975 40.5640772,66 36,66 C19.4314575,66 6,52.5685425 6,36 C6,19.4314575 19.4314575,6 36,6 C52.5685425,6 66,19.4314575 66,36 C66,41.4490523 64.5472313,46.5587923 62.25,51 L58.6971473,49.1622737 C60.8399491,45.0196226 62,40.5357942 62,36 C62,21.6405965 50.3594035,10 36,10 C21.6405965,10 10,21.6405965 10,36 C10,50.3594035 21.6405965,62 36,62 C40.1187663,62 43.6123212,61.0452442 46.9572726,58.8883103 L49.125,62.25 Z" id="Oval-32" fill="#858C96"></path>
            <path d="M35.1176471,51 C26.8333758,51 20.1176471,44.2842712 20.1176471,36 C20.1176471,27.7157288 26.8333758,21 35.1176471,21 C43.4019183,21 50.1176471,27.7157288 50.1176471,36 C50.1176471,44.2842712 43.4019183,51 35.1176471,51 Z M35.1176471,47 C41.1927793,47 46.1176471,42.0751322 46.1176471,36 C46.1176471,29.9248678 41.1927793,25 35.1176471,25 C29.0425148,25 24.1176471,29.9248678 24.1176471,36 C24.1176471,42.0751322 29.0425148,47 35.1176471,47 Z" id="Oval-31" fill="#858C96"></path>
            <path d="M58.9710085,49.2850141 L55.9420899,51.1023653 L56.9710814,52.8173512 L58.0000729,54.532337 L58.0647929,54.493505 L56.0068099,51.0635333 C54.4484563,51.9985455 52.4286486,51.4937798 51.493505,49.9352071 L48.0635333,51.9931901 L48.1023653,52.0579101 L49.8173512,51.0289186 L51.532337,49.9999271 C50.714098,48.6361954 50,46.0595931 50,44.4677302 L50,22.5 C50,21.3954305 49.1045695,20.5 48,20.5 C46.8954305,20.5 46,21.3954305 46,22.5 L46,44.4677302 C46,46.7847786 46.9112371,50.0726964 48.1023653,52.0579101 L51.532337,49.9999271 L51.493505,49.9352071 L49.7785192,50.9641986 L48.0635333,51.9931901 C50.1353495,55.4462171 54.6122515,56.5650299 58.0647929,54.493505 L57.0358014,52.7785192 L56.0068099,51.0635333 L55.9420899,51.1023653 L58.0000729,54.532337 L61.0289915,52.7149859 C61.976152,52.1466895 62.2832822,50.918169 61.7149859,49.9710085 C61.1466895,49.023848 59.918169,48.7167178 58.9710085,49.2850141 L58.9710085,49.2850141 Z" id="Line" fill="#858C96"></path>
        </g>
    </g>
</svg>