<?xml version="1.0" encoding="UTF-8" standalone="no"?>
<svg width="72px" height="72px" viewBox="0 0 72 72" version="1.1" xmlns="http://www.w3.org/2000/svg" xmlns:xlink="http://www.w3.org/1999/xlink">
    <!-- Generator: Sketch 3.7.2 (28276) - http://www.bohemiancoding.com/sketch -->
    <title>icon_review_bubble_praise</title>
    <desc>Created with Sketch.</desc>
    <defs></defs>
    <g id="slice" stroke="none" stroke-width="1" fill="none" fill-rule="evenodd">
        <g id="icon_general" transform="translate(-720.000000, -60.000000)">
            <g id="icon_review_bubble_praise" transform="translate(720.000000, 60.000000)">
                <rect id="icon72*72" x="0" y="0" width="72" height="72"></rect>
                <path d="M46.5,13 C42.2565,13 38.475,14.962 36,18.022 C33.525,14.962 29.7435,13 25.5,13 C18.045,13 12,19.045 12,26.5 C12,28.417 12.405,30.2365 13.1235,31.8865 C17.856,44.203 34.125,58 36,58 C37.875,58 54.144,44.203 58.875,31.8865 C59.595,30.2365 60,28.417 60,26.5 C60,19.045 53.955,13 46.5,13" id="icon_notifier_praise" fill="#FFFFFF"></path>
            </g>
        </g>
    </g>
</svg>