<?xml version="1.0" encoding="UTF-8"?>
<svg width="54px" height="54px" viewBox="0 0 54 54" version="1.1" xmlns="http://www.w3.org/2000/svg" xmlns:xlink="http://www.w3.org/1999/xlink">
    <!-- Generator: Sketch 41 (35326) - http://www.bohemiancoding.com/sketch -->
    <title>icon_booklist_collection_cover</title>
    <desc>Created with Sketch.</desc>
    <defs></defs>
    <g id="Symbols" stroke="none" stroke-width="1" fill="none" fill-rule="evenodd">
        <g id="icon_booklist_collection_cover">
            <rect id="icon" x="0" y="0" width="54" height="54"></rect>
            <circle id="Oval-39" fill="#F0F1F3" cx="27" cy="27" r="27"></circle>
            <g id="Group-2" transform="translate(14.000000, 12.000000)" fill="#858C96">
                <path d="M13.4998,1 C12.5518,1 11.6038,1.201 10.8808,1.602 L2.6188,6.192 C1.1748,6.995 -0.000199999999,8.99 -0.000199999999,10.647 L-0.000199999999,19.648 C-0.000199999999,21.303 1.1728,23.299 2.6188,24.102 L10.8808,28.692 C11.6038,29.094 12.5518,29.295 13.4998,29.295 C14.4478,29.295 15.3958,29.094 16.1188,28.692 L24.3808,24.102 C25.8258,23.3 26.9998,21.304 26.9998,19.648 L26.9998,10.647 C26.9998,8.992 25.8278,6.996 24.3808,6.192 L16.1188,1.602 C15.3968,1.201 14.4478,1 13.4998,1 M13.4998,4 L13.4998,4 C14.0228,4 14.4608,4.113 14.6618,4.225 L22.9238,8.815 C23.4168,9.089 23.9998,10.082 23.9998,10.647 L23.9998,19.648 C23.9998,20.213 23.4168,21.206 22.9238,21.48 L14.6618,26.07 C14.4608,26.182 14.0238,26.295 13.4998,26.295 C12.9768,26.295 12.5398,26.182 12.3378,26.07 L4.0758,21.48 C3.5828,21.206 2.9998,20.213 2.9998,19.648 L2.9998,10.647 C2.9998,10.082 3.5828,9.089 4.0758,8.815 L12.3378,4.225 C12.5398,4.113 12.9768,4 13.4998,4" id="Fill-1"></path>
                <polygon id="Line" points="12 15.34375 12 29.28125 15 29.28125 15 15.34375"></polygon>
                <polygon id="Rectangle-552" points="6.17737808 9 0 9 13.5 16.5 27 9 20.8226219 9 13.5 13.0681233"></polygon>
            </g>
        </g>
    </g>
</svg>