<?xml version="1.0" encoding="UTF-8"?>
<svg width="72px" height="72px" viewBox="0 0 72 72" version="1.1" xmlns="http://www.w3.org/2000/svg" xmlns:xlink="http://www.w3.org/1999/xlink">
    <!-- Generator: Sketch 42 (36781) - http://www.bohemiancoding.com/sketch -->
    <title>icon_topbar_music</title>
    <desc>Created with Sketch.</desc>
    <defs></defs>
    <g id="Symbols" stroke="none" stroke-width="1" fill="none" fill-rule="evenodd">
        <g id="icon_topbar_music">
            <rect id="icon" x="0" y="0" width="72" height="72"></rect>
            <path d="M23,60 L23,18.6245862 C23,17.9532087 23.6037782,17.2480206 24.2700924,17.1446032 L57.3433945,12.0113604 C57.7697333,11.9451892 58,12.142099 58,12.5714721 L58,53.946886 L62,53.946886 L62,12.5714721 C62,9.68662506 59.5791463,7.61646139 56.7299076,8.05868618 L23.6566055,13.191929 C21.0408057,13.5979222 19,15.9814992 19,18.6245862 L19,60 L23,60 Z" id="Line" fill="#1B88EE" fill-rule="nonzero"></path>
            <polygon id="Line" fill="#1B88EE" fill-rule="nonzero" points="21.3041144 27.9767434 60.3041144 21.9767434 59.6958856 18.0232566 20.6958856 24.0232566"></polygon>
            <path d="M15.5,65 C11.3578644,65 8,62.3137085 8,59 C8,55.6862915 11.3578644,53 15.5,53 C19.6421356,53 23,55.6862915 23,59 C23,62.3137085 19.6421356,65 15.5,65 Z M15.5,61 C17.6046366,61 19,59.8837093 19,59 C19,58.1162907 17.6046366,57 15.5,57 C13.3953634,57 12,58.1162907 12,59 C12,59.8837093 13.3953634,61 15.5,61 Z" id="Oval" fill="#1B88EE" fill-rule="nonzero"></path>
            <path d="M54.5,59 C50.3578644,59 47,56.3137085 47,53 C47,49.6862915 50.3578644,47 54.5,47 C58.6421356,47 62,49.6862915 62,53 C62,56.3137085 58.6421356,59 54.5,59 Z M54.5,55 C56.6046366,55 58,53.8837093 58,53 C58,52.1162907 56.6046366,51 54.5,51 C52.3953634,51 51,52.1162907 51,53 C51,53.8837093 52.3953634,55 54.5,55 Z" id="Oval" fill="#1B88EE" fill-rule="nonzero"></path>
        </g>
    </g>
</svg>