<?xml version="1.0" encoding="UTF-8" standalone="no"?>
<svg width="168px" height="168px" viewBox="0 0 168 168" version="1.1" xmlns="http://www.w3.org/2000/svg" xmlns:xlink="http://www.w3.org/1999/xlink">
    <!-- Generator: Sketch 3.8.3 (29802) - http://www.bohemiancoding.com/sketch -->
    <title>icon_more_operation_collection_add</title>
    <desc>Created with Sketch.</desc>
    <defs></defs>
    <g id="Symbols" stroke="none" stroke-width="1" fill="none" fill-rule="evenodd">
        <g id="icon_more_operation_collection_add">
            <rect id="icon" x="0" y="0" width="168" height="168"></rect>
            <path d="M4,36.0015487 L4,36.0015487 L4,131.998451 C4,149.678727 18.3239929,164 36.0015487,164 L131.998451,164 C149.678727,164 164,149.676007 164,131.998451 L164,36.0015487 C164,18.3212732 149.676007,4 131.998451,4 L36.0015487,4 C18.3212732,4 4,18.3239929 4,36.0015487 L4,36.0015487 Z M0,36.0015487 C0,16.1184424 16.1085463,0 36.0015487,0 L131.998451,0 C151.881558,0 168,16.1085463 168,36.0015487 L168,131.998451 C168,151.881558 151.891454,168 131.998451,168 L36.0015487,168 C16.1184424,168 0,151.891454 0,131.998451 L0,36.0015487 L0,36.0015487 Z" id="background" fill="#C1C8D2"></path>
            <path d="M116.357,107.342 L88.399,123.472 C87.783,123.827 86.93,124.075 86,124.206 L86,87.582 L120,68.718 L120,101.044 C120,103.201 118.229,106.262 116.357,107.342 L116.357,107.342 Z M51.652,107.226 C49.775,106.183 48,103.179 48,101.044 L48,68.717 L82,87.582 L82,123.932 C81.629,123.817 81.28,123.686 80.987,123.524 L51.652,107.226 Z M51.652,61.083 L80.987,44.785 C81.873,44.294 83.234,44 84.63,44 C86.081,44 87.49,44.313 88.399,44.838 L116.357,60.967 C117.507,61.63 118.614,63.042 119.3,64.53 L84,84.117 L48.716,64.54 C49.405,63.087 50.507,61.719 51.652,61.083 L51.652,61.083 Z M118.356,57.502 L90.398,41.373 C88.814,40.459 86.72,40 84.629,40 C82.61,40 80.594,40.428 79.045,41.289 L49.709,57.586 C46.549,59.342 44,63.671 44,67.265 L44,101.044 C44,104.624 46.556,108.971 49.709,110.723 L79.045,127.02 C80.597,127.883 82.611,128.311 84.629,128.311 C86.719,128.311 88.812,127.851 90.398,126.936 L118.356,110.807 C121.47,109.01 124,104.638 124,101.044 L124,67.265 C124,63.685 121.473,59.301 118.356,57.502 L118.356,57.502 Z" id="Fill-1" fill="#858C96"></path>
        </g>
    </g>
</svg>