<?xml version="1.0" encoding="UTF-8"?>
<svg width="72px" height="72px" viewBox="0 0 72 72" version="1.1" xmlns="http://www.w3.org/2000/svg" xmlns:xlink="http://www.w3.org/1999/xlink">
    <!-- Generator: Sketch 41 (35326) - http://www.bohemiancoding.com/sketch -->
    <title>icon_review_praise_large</title>
    <desc>Created with Sketch.</desc>
    <defs></defs>
    <g id="Symbols" stroke="none" stroke-width="1" fill="none" fill-rule="evenodd">
        <g id="icon_review_praise_large">
            <rect id="icon" x="0" y="0" width="72" height="72"></rect>
            <path d="M49.125,8 C45.27,8 41.72,9.29 38.88,11.456 C38.956,11.546 38.534,11.727 38.534,11.727 C37.603,12.477 36.753,13.323 36,14.25 C35.247,13.323 32.895,11.727 32.895,11.727 C32.969,11.636 33.044,11.546 33.12,11.456 C30.28,9.29 26.73,8 22.875,8 C13.556,8 6,15.523 6,24.8 C6,27.186 6.506,29.45 7.404,31.503 C13.32,46.83 33.656,64 36,64 C38.344,64 58.68,46.83 64.596,31.503 C65.494,29.45 66,27.186 66,24.8 C66,15.523 58.444,8 49.125,8 Z M49.125,12 C56.224,12 62,17.742 62,24.8 C62,26.562 61.64,28.278 60.931,29.9 L60.896,29.981 L60.864,30.063 C56.101,42.403 40.817,56.302 36,59.559 C31.183,56.302 15.899,42.403 11.136,30.063 L11.104,29.981 L11.069,29.9 C10.36,28.278 10,26.562 10,24.8 C10,17.742 15.776,12 22.875,12 C24.42,12 25.92,12.267 27.33,12.785 L30.65,15.037 C31.454,15.583 32.622,16.474 32.895,16.772 L36,20.593 L39.105,16.772 C39.604,16.157 40.161,15.587 40.765,15.073 C41.147,14.847 41.461,14.596 41.719,14.334 C43.893,12.805 46.442,12 49.125,12 Z" id="Page-1" fill="#717882"></path>
        </g>
    </g>
</svg>