<?xml version="1.0" encoding="UTF-8"?>
<svg width="72px" height="72px" viewBox="0 0 72 72" version="1.1" xmlns="http://www.w3.org/2000/svg" xmlns:xlink="http://www.w3.org/1999/xlink">
    <!-- Generator: Sketch 41 (35326) - http://www.bohemiancoding.com/sketch -->
    <title>icon_review_repost_large</title>
    <desc>Created with Sketch.</desc>
    <defs></defs>
    <g id="Symbols" stroke="none" stroke-width="1" fill="none" fill-rule="evenodd">
        <g id="icon_review_repost_large">
            <rect id="icon" x="0" y="0" width="72" height="72"></rect>
            <path d="M38.4304,7 C37.5664,7 37.0004,7.83 37.0004,9.373 L37.0004,23.87 C37.0004,23.87 5.0004,29.687 5.0004,67.87 C5.0004,67.87 18.7484,49.453 37.0004,47.87 L37.0004,63.37 C37.0004,64.905 37.5474,65.725 38.3854,65.725 C38.9064,65.725 39.5404,65.407 40.2244,64.744 L66.7754,38.997 C68.5504,37.276 68.5294,34.489 66.7154,32.785 L40.2844,7.956 C39.5974,7.31 38.9584,7 38.4304,7 Z M41.0004,14.116 L63.9764,35.7 C64.0534,35.772 64.0904,35.844 64.0914,35.921 C64.0914,35.994 64.0604,36.059 63.9914,36.125 L41.0004,58.42 L41.0004,47.87 L41.0004,43.509 L36.6544,43.885 C25.6814,44.837 16.3554,51.109 10.1154,56.655 C15.2834,32.353 36.6964,27.999 37.7154,27.806 L41.0004,27.209 L41.0004,23.87 L41.0004,14.116 Z" id="Fill-1" fill="#717882"></path>
        </g>
    </g>
</svg>