<?xml version="1.0" encoding="UTF-8" standalone="no"?>
<svg width="48px" height="48px" viewBox="0 0 48 48" version="1.1" xmlns="http://www.w3.org/2000/svg" xmlns:xlink="http://www.w3.org/1999/xlink" xmlns:sketch="http://www.bohemiancoding.com/sketch/ns">
    <!-- Generator: Sketch 3.4.2 (15855) - http://www.bohemiancoding.com/sketch -->
    <title>icon_my_review_comment</title>
    <desc>Created with Sketch.</desc>
    <defs></defs>
    <g id="slice" stroke="none" stroke-width="1" fill="none" fill-rule="evenodd" sketch:type="MSPage">
        <g id="icon_general" sketch:type="MSArtboardGroup" transform="translate(-1908.000000, -60.000000)" fill="#99999B">
            <g id="icon_my_review_comment" sketch:type="MSLayerGroup" transform="translate(1908.000000, 60.000000)">
                <path d="M37.45,11 C38.443,11 39,11.307 39,12.3 L39,30.3 C39,31.292 38.443,32 37.45,32 L23.221,32 L22.183,32.682 L16,37.366 L16,32 L11.05,32 C10.057,32 9,31.292 9,30.3 L9,12.3 C9,11.307 10.057,11 11.05,11 L37,11 M37.45,8 L11.05,8 C8.399,8 6,9.649 6,12.3 L6,30.3 C6,32.951 8.399,35 11.05,35 L13,35 L13,43.5 L24.25,35 L37.45,35 C40.101,35 42,32.951 42,30.3 L42,12.3 C42,9.649 40.101,8 37.45,8" id="Imported-Layers" sketch:type="MSShapeGroup"></path>
            </g>
        </g>
    </g>
</svg>