<?xml version="1.0" encoding="UTF-8" standalone="no"?>
<svg width="168px" height="168px" viewBox="0 0 168 168" version="1.1" xmlns="http://www.w3.org/2000/svg" xmlns:xlink="http://www.w3.org/1999/xlink">
    <!-- Generator: Sketch 3.8.3 (29802) - http://www.bohemiancoding.com/sketch -->
    <title>icon_more_operation_share_friend</title>
    <desc>Created with Sketch.</desc>
    <defs></defs>
    <g id="Symbols" stroke="none" stroke-width="1" fill="none" fill-rule="evenodd">
        <g id="icon_more_operation_share_friend">
            <rect id="icon" x="0" y="0" width="168" height="168"></rect>
            <rect id="background" fill="#20DF5C" x="0" y="0" width="168" height="168" rx="36"></rect>
            <path d="M56.0356545,57.6498294 C58.6909937,57.6498294 60.8434937,59.7943131 60.8434937,62.4395964 C60.8434937,65.0851424 58.6909937,67.2296261 56.0356545,67.2296261 C53.3800515,67.2296261 51.2275515,65.0851424 51.2275515,62.4395964 C51.2275515,59.7943131 53.3800515,57.6498294 56.0356545,57.6498294 M85.4124384,57.6498294 C88.0690967,57.6498294 90.222652,59.7943131 90.222652,62.4395964 C90.222652,65.0851424 88.0690967,67.2296261 85.4124384,67.2296261 C82.7555163,67.2296261 80.6022249,65.0851424 80.6022249,62.4395964 C80.6022249,59.7943131 82.7555163,57.6498294 85.4124384,57.6498294 M105.417577,68.2375282 C106.133845,68.2375282 106.84431,68.2587997 107.549499,68.2963531 C104.91421,52.5753917 89.3190716,40.5 70.4720992,40.5 C49.7765465,40.5 33.0000264,55.0591691 33.0000264,73.0175786 C33.0000264,83.2512774 38.4492098,92.3791202 46.9652902,98.3398709 L43.6308807,109.572806 L43.6662324,109.608258 C43.6453907,109.677325 43.6308807,109.74928 43.6308807,109.825175 C43.6308807,110.242727 43.9709435,110.581233 44.3906796,110.581233 C44.4666595,110.581233 44.538946,110.566789 44.6083304,110.546043 L44.6436822,110.581233 L56.8144485,103.307163 C61.0463706,104.745223 65.652652,105.53542 70.4720992,105.53542 C70.9860188,105.53542 71.4970364,105.523865 72.0059435,105.506007 C71.3390088,103.175858 70.982853,100.738562 70.982853,98.2287864 C70.982853,81.6651053 86.3999133,68.2375282 105.417577,68.2375282" id="Fill-1" fill="#FFFFFF"></path>
            <path d="M117.325447,83.35753 C119.702193,83.35753 121.628864,85.2751175 121.628864,87.6401947 C121.628864,90.0052718 119.702193,91.923122 117.325447,91.923122 C114.948965,91.923122 113.022294,90.0052718 113.022294,87.6401947 C113.022294,85.2751175 114.948965,83.35753 117.325447,83.35753 M94.0236256,91.923122 C91.6500452,91.923122 89.7260126,90.0052718 89.7260126,87.6401947 C89.7260126,85.2751175 91.6500452,83.35753 94.0236256,83.35753 C96.3969422,83.35753 98.3209749,85.2751175 98.3209749,87.6401947 C98.3209749,90.0052718 96.3969422,91.923122 94.0236256,91.923122 M137.838965,98.2271056 C137.838965,83.0521131 123.44051,70.7503504 105.678626,70.7503504 C87.917005,70.7503504 73.5182864,83.0521131 73.5182864,98.2271056 C73.5182864,113.402623 87.917005,125.704386 105.678626,125.704386 C110.518123,125.704386 115.106992,124.789448 119.223889,123.153643 C123.659744,125.728284 128.087683,128.309753 128.653312,128.682661 C128.654103,128.677146 128.658324,128.670055 128.660698,128.663753 C128.755146,128.70577 128.85909,128.730193 128.969103,128.730193 C129.388839,128.730193 129.728902,128.391687 129.728902,127.974135 C129.728902,127.895352 129.713601,127.821033 129.691176,127.749865 C129.714392,127.732796 129.728902,127.722028 129.728902,127.722028 L126.748802,118.986264 C133.542671,113.94833 137.838965,106.516693 137.838965,98.2271056" id="Fill-6" fill="#FFFFFF"></path>
        </g>
    </g>
</svg>