<?xml version="1.0" encoding="UTF-8"?>
<svg width="72px" height="72px" viewBox="0 0 72 72" version="1.1" xmlns="http://www.w3.org/2000/svg" xmlns:xlink="http://www.w3.org/1999/xlink">
    <!-- Generator: Sketch 42 (36781) - http://www.bohemiancoding.com/sketch -->
    <title>icon_reader_top_tts</title>
    <desc>Created with Sketch.</desc>
    <defs></defs>
    <g id="Symbols" stroke="none" stroke-width="1" fill="none" fill-rule="evenodd">
        <g id="icon_reader_top_tts">
            <rect id="icon" x="0" y="0" width="72" height="72"></rect>
            <g id="Group-15" transform="translate(6.000000, 5.000000)" fill-rule="nonzero" fill="#1B88EE">
                <path d="M15.3905897,40.8876814 C15.5169308,40.9865507 15.6367414,41.0784434 15.7546207,41.1670151 C15.8956462,41.2729783 16.0339074,41.3741884 16.1772791,41.476905 C16.2791625,41.5498978 16.3836266,41.6236514 16.4934974,41.7004122 C16.664879,41.8198676 16.7050385,41.84799 16.7322683,41.8679572 C16.5543634,41.7146379 16.5543634,41.7146379 16.3517813,41.4600649 C16.2083177,41.2472224 16.2083177,41.2472224 16.0448171,40.7473524 C15.9623107,39.9411354 15.9623107,39.9411354 16.5275342,38.9798769 L15.0153719,40.6250035 L16.8174206,41.9462518 C18.1670026,42.935755 19.7604661,44.6018057 21.2554221,46.520602 C22.456046,48.0616192 23.4574431,49.6224881 23.6094834,50.0629024 C24.5084382,52.9114848 25.5345392,55.2288717 27.0741879,57.2798589 C29.314968,60.2648327 32.2810785,62 36,62 C39.8064554,62 40.6365383,61.9519062 41.8724613,61.5018482 C43.0946438,61.0567938 43.1141982,61.0412038 46.0233481,58.4739412 C49.5463702,54.9271058 50,53.9104863 50,49.4102564 C50,47.4893875 49.6022248,45.7394718 48.9371901,44.1936756 C48.527847,43.242205 48.1027499,42.5481237 47.7792734,42.1318265 C47.1015383,41.2596172 45.8450602,41.1019648 44.972851,41.7796998 C44.1006417,42.4574349 43.9429893,43.713913 44.6207243,44.5861223 C44.7472481,44.7489516 44.9971514,45.1569837 45.2628087,45.7744734 C45.7227747,46.8436111 46,48.0631966 46,49.4102564 C46,52.7911138 45.9904858,52.8320504 43.3266858,55.5188677 C41.0740379,57.5066846 41.0035454,57.5613082 40.5037932,57.7432916 C39.9148572,57.9577511 39.1856547,58 36,58 C31.7706626,58 29.2497006,54.641792 27.4071387,48.8079095 C26.6315168,46.5590524 22.4796394,41.2106082 19.3307491,38.8307394 C19.2480347,38.7558365 19.1815473,38.7038042 19.0976177,38.64226 C19.0293342,38.5921889 18.9480998,38.5353029 18.7843639,38.4213984 C18.444922,38.1842491 18.1749996,37.987436 17.8557252,37.7375851 C16.874038,36.9693571 15.9252464,36.0751699 15.0347384,35.0101844 C12.5030498,31.9824613 11,28.259919 11,23.6923077 C11,13.0325561 19.3969663,4.51282051 30,4.51282051 C37.1008686,4.51282051 40.2433139,6.17348914 44.7689156,12.6046601 C46.009897,15.1996962 46.204211,16.5886713 46.0561094,19.1827929 C46.0268838,19.6947023 46.0171863,19.8838281 46.0084431,20.1604091 C46.0028913,20.336033 46,20.5029872 46,20.6666667 C46,21.4463955 45.9047459,21.9797902 45.7713087,22.3092032 C45.7444874,22.3754163 45.7796445,22.3253175 45.9094799,22.2080551 C45.0897498,22.9484039 45.0253986,24.2130978 45.7657474,25.0328278 C46.5060962,25.8525579 47.7707901,25.9169091 48.5905201,25.1765603 C48.9078555,24.8899551 49.2242626,24.4390751 49.4786913,23.8109735 C49.8140041,22.9831951 50,21.9416739 50,20.6666667 C50,20.5473208 50.0021684,20.4221075 50.0064459,20.2867928 C50.0137239,20.0565639 50.0224146,19.8870736 50.0496064,19.4107866 C50.2361957,16.1425212 49.9355129,14.092745 48.2997841,10.7175182 L48.138774,10.4432621 C42.8251925,2.84805923 38.4735664,0.512820513 30,0.512820513 C17.174727,0.512820513 7,10.8363088 7,23.6923077 C7,29.2528183 8.86150364,33.8631287 11.9661373,37.576054 C12.9413285,38.7423148 13.9706976,39.7371417 15.0349074,40.6037503 C15.1530476,40.6999544 15.2716172,40.7945784 15.3905897,40.8876814 Z" id="Combined-Shape"></path>
                <path d="M35.6863293,39.1125904 C35.0410884,38.0044922 34.2014086,37.0736994 32.6357215,35.563746 C32.5179708,35.4501868 32.0921305,35.0412402 32.0006229,34.9530507 C31.8059246,34.7654123 31.6479681,34.6117978 31.5041341,34.4697645 C30.4354884,33.0844594 29.3818521,31.9874593 28.2396772,31.0133997 C27.5654331,30.4383967 25.6478996,28.9936626 25.7666673,29.0876589 C24.9952216,28.477114 24.6155838,28.0426314 24.3162644,27.3934022 L24.2612536,27.2740827 L24.1911056,27.1629856 C22.0723104,23.8073371 23.1380263,19.5818779 26.4103722,17.9089978 L26.5178623,17.854047 L26.6179623,17.7865659 C29.7397133,15.6820781 33.8515522,16.7472187 35.7568544,20.1343784 C36.2983874,21.0970911 37.5178195,21.4385247 38.4805322,20.8969917 C39.443245,20.3554588 39.7846786,19.1360267 39.2431456,18.1733139 C36.2306826,12.8178943 29.5616637,11.0603975 24.4822025,14.4031258 C19.202502,17.180695 17.5000334,23.9266447 20.7404445,29.1887839 C21.3303295,30.4197039 22.0984699,31.2856931 23.2843127,32.2242041 C23.2491877,32.1964051 25.0795717,33.5754778 25.6441196,34.0569306 C26.6050257,34.8764023 27.4880913,35.8006287 28.4103671,37.0085716 L28.4928985,37.1166665 L28.5893035,37.2125937 C28.7762164,37.3985803 28.9731813,37.5906265 29.2248957,37.8332136 C29.3199858,37.9248558 29.7451623,38.3331648 29.8590042,38.4429543 C31.1608662,39.6984741 31.831903,40.4423246 32.2296539,41.1253981 C32.4217018,41.4552097 32.499821,41.6963347 32.5000014,41.8485251 L32.5009322,42.6336238 L33.0356956,43.208436 C33.257492,43.4468428 33.4589183,43.8101671 33.6209403,44.2730367 C33.7803543,44.7284557 33.8887464,45.2402265 33.9504336,45.7558405 C33.9872831,46.0638477 33.9995701,46.2921881 34.0000197,46.3934923 C34.0049223,47.4980509 34.9043183,48.3894983 36.0088769,48.3845957 C37.1134355,48.3796931 38.0048829,47.4802971 37.9999803,46.3757385 C37.9960047,45.4800243 37.8478058,44.2413008 37.3963289,42.9515071 C37.1516906,42.2526165 36.8350627,41.6140509 36.4297461,41.0521075 C36.3140893,40.3952031 36.0586926,39.7520647 35.6863293,39.1125904 Z" id="Combined-Shape"></path>
            </g>
        </g>
    </g>
</svg>