<?xml version="1.0" encoding="UTF-8" standalone="no"?>
<svg width="36px" height="36px" viewBox="0 0 36 36" version="1.1" xmlns="http://www.w3.org/2000/svg" xmlns:xlink="http://www.w3.org/1999/xlink" xmlns:sketch="http://www.bohemiancoding.com/sketch/ns">
    <!-- Generator: Sketch 3.4.2 (15855) - http://www.bohemiancoding.com/sketch -->
    <title>icon_user_verify_medium</title>
    <desc>Created with Sketch.</desc>
    <defs></defs>
    <g id="slice" stroke="none" stroke-width="1" fill="none" fill-rule="evenodd" sketch:type="MSPage">
        <g id="icon_general" sketch:type="MSArtboardGroup" transform="translate(-1071.000000, -336.000000)">
            <g id="icon_user_verify_medium" sketch:type="MSLayerGroup" transform="translate(1071.000000, 336.000000)">
                <rect id="icon32*32" sketch:type="MSShapeGroup" x="0" y="0" width="36" height="36"></rect>
                <circle id="dot" fill="#FFBA19" sketch:type="MSShapeGroup" cx="18" cy="18" r="18"></circle>
                <path d="M13.4336111,24.6836111 C12.8489563,24.0989563 12.8450035,23.1549965 13.4300855,22.5699145 L23.6949145,12.3050855 C24.2776221,11.7223779 25.2192793,11.7192793 25.8086111,12.3086111 L27.0663889,13.5663889 C27.6510437,14.1510437 27.6549965,15.0950035 27.0699145,15.6800855 L16.8050855,25.9449145 C16.2223779,26.5276221 15.2807207,26.5307207 14.6913889,25.9413889 L13.4336111,24.6836111 Z" id="Rectangle-689" fill-opacity="0.75" fill="#FFFFFF" sketch:type="MSShapeGroup"></path>
                <path d="M8.93705754,20.1870575 C8.35049936,19.6004994 8.34427929,18.6557207 8.93361109,18.0663889 L10.1913889,16.8086111 C10.7760437,16.2239563 11.7190336,16.2190336 12.3120575,16.8120575 L18.0629425,22.5629425 C18.6495006,23.1495006 18.6557207,24.0942793 18.0663889,24.6836111 L16.8086111,25.9413889 C16.2239563,26.5260437 15.2809664,26.5309664 14.6879425,25.9379425 L8.93705754,20.1870575 Z" id="Rectangle-689" fill-opacity="0.75" fill="#FFFFFF" sketch:type="MSShapeGroup"></path>
            </g>
        </g>
    </g>
</svg>