<?xml version="1.0" encoding="UTF-8" standalone="no"?>
<svg width="48px" height="60px" viewBox="0 0 48 60" version="1.1" xmlns="http://www.w3.org/2000/svg" xmlns:xlink="http://www.w3.org/1999/xlink" xmlns:sketch="http://www.bohemiancoding.com/sketch/ns">
    <!-- Generator: Sketch 3.4.4 (17249) - http://www.bohemiancoding.com/sketch -->
    <title>icon_read_finished_half</title>
    <desc>Created with Sketch.</desc>
    <defs></defs>
    <g id="slice" stroke="none" stroke-width="1" fill="none" fill-rule="evenodd" sketch:type="MSPage">
        <g id="icon_general" sketch:type="MSArtboardGroup" transform="translate(-168.000000, -613.000000)">
            <g id="icon_read_finished_half" sketch:type="MSLayerGroup" transform="translate(168.000000, 613.000000)">
                <rect id="icon" sketch:type="MSShapeGroup" x="0" y="0" width="48" height="60"></rect>
                <circle id="body" fill="#DDDDDF" sketch:type="MSShapeGroup" cx="24.5" cy="38.5" r="22.5"></circle>
                <path d="M24.5,53.5 C16.2157288,53.5 9.5,46.7842712 9.5,38.5 C9.5,30.2157288 16.2157288,23.5 24.5,23.5 C32.7842712,23.5 39.5,30.2157288 39.5,38.5 C39.5,46.7842712 32.7842712,53.5 24.5,53.5 Z M24.5,52 C31.9558441,52 38,45.9558441 38,38.5 C38,31.0441559 31.9558441,25 24.5,25 C17.0441559,25 11,31.0441559 11,38.5 C11,45.9558441 17.0441559,52 24.5,52 Z" id="Shape" fill="#BBBBBD" sketch:type="MSShapeGroup"></path>
                <path d="M17,39.8553341 L18.7059426,38.1823815 L22.6864754,42.0859375 L30.9318648,34 L32.6378074,35.6729526 L22.6864754,45.4318427 L17,39.8553341 Z" id="checkmark" fill="#BBBBBD" sketch:type="MSShapeGroup"></path>
                <path d="M12,4.11111111 L15,1 L33,1 L36,4.11111111 L36,8.77777778 L26.25,15 L21.75,15 L12,8.77777778 L12,4.11111111 Z" id="head" fill="#4B9EED" sketch:type="MSShapeGroup"></path>
            </g>
        </g>
    </g>
</svg>