<?xml version="1.0" encoding="UTF-8" standalone="no"?>
<svg width="72px" height="72px" viewBox="0 0 72 72" version="1.1" xmlns="http://www.w3.org/2000/svg" xmlns:xlink="http://www.w3.org/1999/xlink">
    <!-- Generator: Sketch 39.1 (31720) - http://www.bohemiancoding.com/sketch -->
    <title>icon_follow_wechat</title>
    <desc>Created with Sketch.</desc>
    <defs></defs>
    <g id="Symbols" stroke="none" stroke-width="1" fill="none" fill-rule="evenodd">
        <g id="icon_follow_wechat">
            <g>
                <circle id="background" fill="#20DF5C" cx="36" cy="36" r="36"></circle>
                <path d="M23.0000549,24 C24.1046119,24 25,24.8954193 25,25.9999452 C25,27.1045807 24.1046119,28 23.0000549,28 C21.8953881,28 21,27.1045807 21,25.9999452 C21,24.8954193 21.8953881,24 23.0000549,24 M36,24 C37.1045906,24 38,24.8954193 38,25.9999452 C38,27.1045807 37.1045906,28 36,28 C34.8952997,28 34,27.1045807 34,25.9999452 C34,24.8954193 34.8952997,24 36,24 M46.9510309,28.0862677 C45.2388178,21.2168898 38.1541006,16.0672695 29.6733128,16.0672695 C19.9124709,16.0672695 12,22.8881724 12,31.3016035 C12,36.0960438 14.5700506,40.3723956 18.5865712,43.1649795 L17.0139317,48.4275571 L17.030605,48.4441664 C17.0207752,48.4765239 17.0139317,48.5102347 17.0139317,48.545791 C17.0139317,48.7414121 17.1743188,48.9000006 17.372283,48.9000006 C17.4081181,48.9000006 17.4422112,48.8932338 17.4749357,48.8835143 L17.491609,48.9000006 L23.2318241,45.4921328 C24.9227781,46.0629091 26.7404582,46.4158365 28.6386362,46.5103668 C28.2225801,45.2524379 28,43.925413 28,42.5540913 C28,34.5160886 35.6472263,28 45.080558,28 C45.7126563,28 46.336735,28.0292567 46.9510309,28.0862677 Z" id="Combined-Shape" fill="#FFFFFF"></path>
                <path d="M50.9999387,37 C52.1045581,37 53,37.895484 53,38.9999387 C53,40.1043934 52.1045581,41 50.9999387,41 C49.8954419,41 49,40.1043934 49,38.9999387 C49,37.895484 49.8954419,37 50.9999387,37 M39.0000614,41 C37.8954234,41 37,40.1043934 37,38.9999387 C37,37.895484 37.8954234,37 39.0000614,37 C40.1045766,37 41,37.895484 41,38.9999387 C41,40.1043934 40.1045766,41 39.0000614,41 M45,30 C36.7157494,30 30,35.7923253 30,42.9375204 C30,50.0829627 36.7157494,55.875288 45,55.875288 C47.2572045,55.875288 49.3975128,55.4444866 51.317687,54.6742622 C53.3866271,55.8865403 55.4518757,57.1020334 55.715692,57.2776183 C55.7631888,57.2884997 55.8116699,57.2999992 55.8629812,57.2999992 C56.0587516,57.2999992 56.2173613,57.1406126 56.2173613,56.9440069 C56.2173613,56.9069115 56.2102245,56.8719182 56.1997654,56.8384086 C56.2105937,56.8303713 54.8274038,52.7120384 54.8274038,52.7120384 C57.9961527,50.3399103 60,46.8406999 60,42.9375204 C60,35.7923253 53.2843736,30 45,30 Z" id="Fill-6" fill="#FFFFFF"></path>
            </g>
        </g>
    </g>
</svg>