<?xml version="1.0" encoding="UTF-8"?>
<svg width="72px" height="72px" viewBox="0 0 72 72" version="1.1" xmlns="http://www.w3.org/2000/svg" xmlns:xlink="http://www.w3.org/1999/xlink">
    <!-- Generator: Sketch 40.2 (33826) - http://www.bohemiancoding.com/sketch -->
    <title>icon_account_rank_round</title>
    <desc>Created with Sketch.</desc>
    <defs></defs>
    <g id="Symbols" stroke="none" stroke-width="1" fill="none" fill-rule="evenodd">
        <g id="icon_account_rank_round">
            <rect id="icon" x="0" y="0" width="72" height="72"></rect>
            <ellipse id="Oval-39" fill="#FE6D4B" cx="36" cy="36" rx="36" ry="36"></ellipse>
            <path d="M45,36.9925398 C45,35.3398057 46.3488159,34 48.0057983,34 L52.9942017,34 C54.6542582,34 56,35.3529255 56,36.9925398 L56,49.0074602 C56,50.6601943 54.6511841,52 52.9942017,52 L48.0057983,52 C46.3457418,52 45,50.6470745 45,49.0074602 L45,36.9925398 Z M48,36.9925398 L48,49.0074602 C48,48.9938125 48.0061961,49 48.0057983,49 L52.9942017,49 C52.9988249,49 53,48.9988309 53,49.0074602 L53,36.9925398 C53,37.0061875 52.9938039,37 52.9942017,37 L48.0057983,37 C48.0011751,37 48,37.0011691 48,36.9925398 Z" id="Rectangle-867" fill="#FFFFFF"></path>
            <path d="M31,22.0013575 C31,20.3437535 32.3488159,19 34.0057983,19 L38.9942017,19 C40.6542582,19 42,20.3345109 42,22.0013575 L42,48.9986425 C42,50.6562465 40.6511841,52 38.9942017,52 L34.0057983,52 C32.3457418,52 31,50.6654891 31,48.9986425 L31,22.0013575 Z M34,22.0013575 L34,48.9986425 C34,49.0030149 33.9969742,49 34.0057983,49 L38.9942017,49 C38.996857,49 39,48.9968638 39,48.9986425 L39,22.0013575 C39,21.9969851 39.0030258,22 38.9942017,22 L34.0057983,22 C34.003143,22 34,22.0031362 34,22.0013575 Z" id="Rectangle-867" fill="#FFFFFF"></path>
            <path d="M17,34.008788 C17,32.3470803 18.3488159,31 20.0057983,31 L24.9942017,31 C26.6542582,31 28,32.3455902 28,34.008788 L28,48.991212 C28,50.6529197 26.6511841,52 24.9942017,52 L20.0057983,52 C18.3457418,52 17,50.6544098 17,48.991212 L17,34.008788 Z M20,34.008788 L20,48.991212 C20,48.9974786 20.0025197,49 20.0057983,49 L24.9942017,49 C24.9951982,49 25,48.9951968 25,48.991212 L25,34.008788 C25,34.0025214 24.9974803,34 24.9942017,34 L20.0057983,34 C20.0048018,34 20,34.0048032 20,34.008788 Z" id="Rectangle-867" fill="#FFFFFF"></path>
        </g>
    </g>
</svg>