<?xml version="1.0" encoding="UTF-8" standalone="no"?>
<svg width="72px" height="72px" viewBox="0 0 72 72" version="1.1" xmlns="http://www.w3.org/2000/svg" xmlns:xlink="http://www.w3.org/1999/xlink">
    <!-- Generator: Sketch 3.7.2 (28276) - http://www.bohemiancoding.com/sketch -->
    <title>icon_home_tab_personal_normal</title>
    <desc>Created with Sketch.</desc>
    <defs></defs>
    <g id="slice" stroke="none" stroke-width="1" fill="none" fill-rule="evenodd">
        <g id="icon_bar" transform="translate(-852.000000, -192.000000)" fill="#858C96">
            <g id="icon_home_tab_personal_normal" transform="translate(852.000000, 192.000000)">
                <path d="M37,69 L37,70 L68,70 C70.071,69.5 72,67.321 72,65.25 L72,62.709 C72,61.042 70.954,59.512 69.48,58.732 L49.464,48.201 C47.486,47.155 46.25,45.101 46.25,42.864 C46.25,41.421 46.778,40.038 47.713,38.938 C51.397,34.607 53.75,28.573 53.75,22.5 C53.75,11.731 46.363,3 37,3 L37,5 L37,7 C43.9637382,7 49.75,13.7676992 49.75,22.5 C49.75,27.4821406 47.828589,32.6284991 44.6661629,36.3463242 C43.1130613,38.1735022 42.25,40.4748544 42.25,42.864 C42.25,46.5835159 44.3059099,49.9981744 47.594092,51.737021 L67.6175318,62.2719452 C67.8570984,62.3987301 68,62.6194141 68,62.709 L68,65.25 C68,65.3647415 67.4388323,66.0205571 67.0612543,66.1117155 L68,66 L37,66 L37,67 L37,66 L6,66 L6.93874566,66.1117155 C6.56116765,66.0205571 6,65.3647415 6,65.25 L6,62.709 C6,62.6194141 6.14290161,62.3987301 6.39088962,62.2675017 L26.3984682,51.7409452 C29.6940901,49.9981744 31.75,46.5835159 31.75,42.864 C31.75,40.4748544 30.8869387,38.1735022 29.3347573,36.3474063 C26.171411,32.6284991 24.25,27.4821406 24.25,22.5 C24.25,13.7676992 30.0362618,7 37,7 L37,5 L37,3 C27.637,3 20.25,11.731 20.25,22.5 C20.25,28.573 22.603,34.607 26.287,38.938 C27.222,40.038 27.75,41.421 27.75,42.864 C27.75,45.101 26.514,47.155 24.536,48.201 L4.52,58.732 C3.046,59.512 2,61.042 2,62.709 L2,65.25 C2,67.321 3.929,69.5 6,70 L37,70 L37,69 Z" id="Shape"></path>
            </g>
        </g>
    </g>
</svg>