<?xml version="1.0" encoding="UTF-8"?>
<svg width="84px" height="45px" viewBox="0 0 84 45" version="1.1" xmlns="http://www.w3.org/2000/svg" xmlns:xlink="http://www.w3.org/1999/xlink">
    <!-- Generator: Sketch 41.2 (35397) - http://www.bohemiancoding.com/sketch -->
    <title>icon_bookshelf_new</title>
    <desc>Created with Sketch.</desc>
    <defs></defs>
    <g id="Symbols" stroke="none" stroke-width="1" fill="none" fill-rule="evenodd">
        <g id="icon_bookshelf_new">
            <g id="icon_bookcover_updated">
                <rect id="icon" x="0" y="0" width="84" height="45"></rect>
                <polygon id="corner" fill="#D0512A" transform="translate(81.500000, 42.000000) scale(-1, 1) translate(-81.500000, -42.000000) " points="79 39 84 39 84 45"></polygon>
                <rect id="Rectangle" fill="#FA764D" x="0" y="0" width="84" height="39" rx="1.5"></rect>
                <path d="M18.207,25.639 C15.939,25.639 15.519,25.366 15.519,24.064 L15.519,19.003 L25.809,19.003 L25.809,20.011 L27.825,20.011 L27.825,10.141 L12.537,10.141 L12.537,12.052 L25.809,12.052 L25.809,17.092 L15.519,17.092 L15.519,13.921 L13.503,13.921 L13.503,24.043 C13.503,26.899 14.637,27.571 18.27,27.571 L25.704,27.571 C29.316,27.571 30.093,26.437 30.513,22.552 C29.946,22.447 29.064,22.111 28.518,21.775 C28.245,25.009 27.909,25.639 25.683,25.639 L18.207,25.639 Z M36.624,19.885 L36.624,18.1 L41.139,18.1 L41.139,18.856 C41.139,19.213 41.139,19.549 41.097,19.885 L36.624,19.885 Z M36.624,14.803 L41.139,14.803 L41.139,16.588 L36.624,16.588 L36.624,14.803 Z M47.838,14.803 L47.838,16.588 L43.176,16.588 L43.176,14.803 L47.838,14.803 Z M47.838,19.885 L43.134,19.885 C43.176,19.549 43.176,19.234 43.176,18.877 L43.176,18.1 L47.838,18.1 L47.838,19.885 Z M49.77,21.481 L49.77,13.207 L43.176,13.207 L43.176,11.695 L51.093,11.695 L51.093,9.931 L32.928,9.931 L32.928,11.695 L41.139,11.695 L41.139,13.207 L34.776,13.207 L34.776,21.481 L40.824,21.481 C40.572,22.342 40.131,23.14 39.333,23.854 C38.409,23.245 37.632,22.489 36.981,21.544 L35.28,22.216 C35.973,23.308 36.771,24.211 37.716,24.925 C36.456,25.534 34.797,26.059 32.508,26.458 C32.949,26.899 33.474,27.739 33.705,28.18 C36.267,27.634 38.178,26.92 39.543,26.059 C42.483,27.508 46.305,27.865 51.009,28.033 C51.114,27.382 51.471,26.563 51.828,26.101 C47.376,26.059 43.848,25.828 41.16,24.778 C42.126,23.791 42.651,22.678 42.903,21.481 L49.77,21.481 Z M63.063,11.023 L59.661,11.023 C59.409,10.351 58.989,9.469 58.632,8.797 L56.91,9.238 C57.162,9.763 57.435,10.435 57.666,11.023 L53.823,11.023 L53.823,12.64 L63.063,12.64 L63.063,11.023 Z M55.209,21.586 C54.831,22.846 54.138,24.085 53.34,24.946 C53.718,25.177 54.348,25.618 54.642,25.891 C55.461,24.925 56.28,23.434 56.784,22.006 L55.209,21.586 Z M63.105,20.914 L63.105,19.255 L59.388,19.255 L59.388,17.344 L63.399,17.344 L63.399,15.706 L60.942,15.706 C61.278,14.929 61.656,13.963 62.013,13.039 L60.207,12.661 C59.976,13.543 59.556,14.824 59.178,15.706 L56.28,15.706 L57.456,15.391 C57.351,14.656 57.015,13.501 56.616,12.682 L55.041,13.081 C55.419,13.9 55.692,14.971 55.797,15.706 L53.487,15.706 L53.487,17.344 L57.624,17.344 L57.624,19.255 L53.613,19.255 L53.613,20.914 L57.624,20.914 L57.624,25.87 C57.624,26.08 57.582,26.143 57.351,26.143 C57.12,26.143 56.49,26.143 55.818,26.122 C56.049,26.584 56.28,27.298 56.343,27.76 C57.414,27.76 58.149,27.718 58.716,27.445 C59.241,27.193 59.388,26.731 59.388,25.891 L59.388,20.914 L63.105,20.914 Z M60.018,22.174 C60.648,23.182 61.362,24.568 61.698,25.45 L63.063,24.631 C62.727,23.77 62.013,22.468 61.32,21.481 L60.018,22.174 Z M72.597,15.853 L65.877,15.853 L65.877,12.178 C68.019,11.8 70.287,11.296 72.03,10.624 L70.476,9.196 C68.985,9.847 66.381,10.498 64.05,10.897 L64.05,18.1 C64.05,20.809 63.903,24.316 62.244,26.773 C62.643,26.983 63.441,27.571 63.735,27.928 C65.604,25.282 65.877,21.103 65.877,18.1 L65.877,17.659 L68.565,17.659 L68.565,28.075 L70.476,28.075 L70.476,17.659 L72.597,17.659 L72.597,15.853 Z" id="已更新" fill="#FFFFFF"></path>
            </g>
        </g>
    </g>
</svg>