<?xml version="1.0" encoding="UTF-8" standalone="no"?>
<svg width="72px" height="72px" viewBox="0 0 72 72" version="1.1" xmlns="http://www.w3.org/2000/svg" xmlns:xlink="http://www.w3.org/1999/xlink" xmlns:sketch="http://www.bohemiancoding.com/sketch/ns">
    <!-- Generator: Sketch 3.5.1 (25234) - http://www.bohemiancoding.com/sketch -->
    <title>icon_reader_selection_menu_delete_line</title>
    <desc>Created with Sketch.</desc>
    <defs></defs>
    <g id="slice" stroke="none" stroke-width="1" fill="none" fill-rule="evenodd" sketch:type="MSPage">
        <g id="icon_reading" sketch:type="MSArtboardGroup" transform="translate(-830.000000, -192.000000)" fill="#FFFFFF">
            <g id="icon_reader_selection_menu_delete_line" sketch:type="MSLayerGroup" transform="translate(830.000000, 192.000000)">
                <path d="M34.4544645,34 L30.7199128,37 L27,37 L25.1791625,41.4509362 L19.6468614,45.895085 L34.5,10 L37.5,10 L44.19703,26.1737067 L41.3993369,28.4211195 L36.1575,14.5 L28.5,34 L34.4544645,34 Z M19.9969931,58 L58.5,58 L58.5,61 L16.3095836,61 L19.9969931,58 Z M47.9564022,35.2528034 L55.512,53.5 L51.75,53.5 L45.2019847,37.4937404 L47.9564022,35.2528034 Z" id="Fill-74" sketch:type="MSShapeGroup"></path>
                <path d="M11.8562017,60.7589826 L9.816937,58.7197179 L56.9621765,20.6862745 L59,22.724098 L11.8562017,60.7589826 Z" id="Fill-85-Copy" sketch:type="MSShapeGroup"></path>
            </g>
        </g>
    </g>
</svg>