<?xml version="1.0" encoding="UTF-8" standalone="no"?>
<svg width="72px" height="72px" viewBox="0 0 72 72" version="1.1" xmlns="http://www.w3.org/2000/svg" xmlns:xlink="http://www.w3.org/1999/xlink">
    <!-- Generator: Sketch 3.6.1 (26313) - http://www.bohemiancoding.com/sketch -->
    <title>icon_reader_selection_menu_share</title>
    <desc>Created with Sketch.</desc>
    <defs></defs>
    <g id="slice" stroke="none" stroke-width="1" fill="none" fill-rule="evenodd">
        <g id="icon_reading" transform="translate(-1093.000000, -192.000000)" fill="#FFFFFF">
            <g id="icon_reader_selection_menu_share" transform="translate(1093.000000, 192.000000)">
                <rect id="Rectangle-25" x="25" y="44" width="12" height="3"></rect>
                <rect id="Rectangle-25" x="25" y="35" width="21" height="3"></rect>
                <path d="M27,20 L27,23 L17.997152,23 C18.0000643,23 18,23.0000644 18,23.0036812 L18,57.9963188 C18,57.9958238 18.0041714,58 18.0036812,58 L53.9963188,58 C53.9958238,58 54,57.9958286 54,57.9963188 L54,23.0036812 C54,23.0027185 53.9972906,23 54.002848,23 L45,23 L45,20 L54.002848,20 C55.6581293,20 57,21.3498463 57,23.0036812 L57,57.9963188 C57,59.6552061 55.6501537,61 53.9963188,61 L18.0036812,61 C16.3447939,61 15,59.6501537 15,57.9963188 L15,23.0036812 C15,21.3447939 16.3416228,20 17.997152,20 L27,20 L27,20 Z" id="Rectangle-106"></path>
                <path d="M34,9.54700855 L34,29 L37,29 L37,9.54700855 L42.75,15.3461538 L45,13.0769231 L36,4 L35.5,4.5042735 L35,4 L26,13.0769231 L28.25,15.3461538 L34,9.54700855 Z" id="Fill-4"></path>
            </g>
        </g>
    </g>
</svg>