<?xml version="1.0" encoding="UTF-8" standalone="no"?>
<svg width="72px" height="72px" viewBox="0 0 72 72" version="1.1" xmlns="http://www.w3.org/2000/svg" xmlns:xlink="http://www.w3.org/1999/xlink">
    <!-- Generator: Sketch 3.7.2 (28276) - http://www.bohemiancoding.com/sketch -->
    <title>icon_review_praise_round</title>
    <desc>Created with Sketch.</desc>
    <defs></defs>
    <g id="slice" stroke="none" stroke-width="1" fill="none" fill-rule="evenodd">
        <g id="icon_general" transform="translate(-1650.000000, -60.000000)">
            <g id="icon_review_praise_round" transform="translate(1650.000000, 60.000000)">
                <rect id="icon" x="0" y="0" width="72" height="72"></rect>
                <circle id="Oval-252" fill="#FF6177" cx="36" cy="36" r="30"></circle>
                <path d="M41.90625,24 C39.519,24 37.391625,25.1115682 36,26.8455682 C34.608375,25.1115682 32.481,24 30.09375,24 C25.89975,24 22.5,27.4251136 22.5,31.65 C22.5,32.7360682 22.72725,33.7676591 23.13225,34.7030455 C25.794,41.6807727 34.94475,49.5 36,49.5 C37.05525,49.5 46.206,41.6807727 48.86775,34.7030455 C49.27275,33.7676591 49.5,32.7360682 49.5,31.65 C49.5,27.4251136 46.10025,24 41.90625,24" id="icon_review_praise_small_checked" fill="#FFFFFF"></path>
            </g>
        </g>
    </g>
</svg>