<?xml version="1.0" encoding="UTF-8" standalone="no"?>
<svg width="39px" height="39px" viewBox="0 0 39 39" version="1.1" xmlns="http://www.w3.org/2000/svg" xmlns:xlink="http://www.w3.org/1999/xlink">
    <!-- Generator: Sketch 3.7.1 (28215) - http://www.bohemiancoding.com/sketch -->
    <title>icon_switch</title>
    <desc>Created with Sketch.</desc>
    <defs></defs>
    <g id="好友推荐" stroke="none" stroke-width="1" fill="none" fill-rule="evenodd">
        <g id="1.0_discover" transform="translate(-741.000000, -1586.000000)" fill="#99A0AA">
            <g id="switch" transform="translate(736.000000, 1579.000000)">
                <g id="icon_switch" transform="translate(0.000000, 3.000000)">
                    <path d="M24.5,4 C18.4052835,4 12.9636244,6.79607096 9.5,11.1754364 L11.5219741,13.3096113 C14.5429697,9.46754701 19.2333216,7 24.5,7 C33.1070638,7 40.1748923,13.59025 40.9327355,22 L35,22 L44,29.5 L44,22 C43.1772282,11.9313284 34.7648446,4 24.5,4 Z M24.5,43 C30.5947165,43 36.0363756,40.203929 39.5,35.8245636 L37.4780259,33.6903887 C34.4570303,37.532453 29.7666784,40 24.5,40 C15.8929362,40 8.82510769,33.40975 8.06726452,25 L14,25 L5,17.5 L5,25 C5.82277175,35.0686716 14.2351554,43 24.5,43 Z"></path>
                </g>
            </g>
        </g>
    </g>
</svg>