<?xml version="1.0" encoding="UTF-8"?>
<svg width="72px" height="72px" viewBox="0 0 72 72" version="1.1" xmlns="http://www.w3.org/2000/svg" xmlns:xlink="http://www.w3.org/1999/xlink">
    <!-- Generator: Sketch 41 (35326) - http://www.bohemiancoding.com/sketch -->
    <title>icon_review_praise_large_selected</title>
    <desc>Created with Sketch.</desc>
    <defs></defs>
    <g id="Symbols" stroke="none" stroke-width="1" fill="none" fill-rule="evenodd">
        <g id="icon_review_praise_large_selected">
            <rect id="icon" x="0" y="0" width="72" height="72"></rect>
            <path d="M32.8954443,11.7273523 C32.8954443,11.7273523 35.2469807,13.3227321 36,14.2496 C36.7530193,13.3227321 37.6027908,12.4768148 38.5340927,11.7273523 C38.5340927,11.7273523 38.9557687,11.5457688 38.88034,11.4560274 C41.7200741,9.28958081 45.2700279,8 49.125,8 C58.44375,8 66,15.5226667 66,24.8 C66,27.1856 65.49375,29.4498667 64.595625,31.5032 C58.68,46.8304 38.34375,64 36,64 C33.65625,64 13.32,46.8304 7.404375,31.5032 C6.50625,29.4498667 6,27.1856 6,24.8 C6,15.5226667 13.55625,8 22.875,8 C26.7299721,8 30.2799259,9.28958081 33.11966,11.4560274 C33.0442313,11.5457688 32.9694894,11.6362124 32.8954443,11.7273523 Z" id="Shape" fill="#FF6177"></path>
        </g>
    </g>
</svg>