<?xml version="1.0" encoding="UTF-8"?>
<svg width="84px" height="36px" viewBox="0 0 84 36" version="1.1" xmlns="http://www.w3.org/2000/svg" xmlns:xlink="http://www.w3.org/1999/xlink">
    <!-- Generator: Sketch 39.1 (31720) - http://www.bohemiancoding.com/sketch -->
    <title>icon_remind_steam</title>
    <desc>Created with Sketch.</desc>
    <defs></defs>
    <g id="Symbols" stroke="none" stroke-width="1" fill="none" fill-rule="evenodd">
        <g id="icon_remind_steam">
            <rect id="icon" x="0" y="0" width="84" height="36"></rect>
            <g id="steam" transform="translate(15.000000, 6.000000)" fill="#C4C8D0">
                <path d="M2.20946161,0.599998474 C4.97861036,1.70285401 6.93580377,4.40807465 6.93580377,7.57042229 C6.93580377,9.83381469 5.9331887,11.8630338 4.34785916,13.238179 L2.38303701,10.9710763 C3.33423472,10.1459892 3.93580377,8.92845773 3.93580377,7.57042229 C3.93580377,5.67301371 2.76148772,4.04988133 1.09999847,3.388168 L2.20946161,0.599998474 Z" id="Combined-Shape"></path>
                <path d="M1.10946314,10.4000015 C3.87861188,11.5028571 5.83580529,14.2080777 5.83580529,17.3704253 C5.83580529,19.8529816 4.62962359,22.0538191 2.77132971,23.4188682 L0.997119944,20.9994911 C2.11209627,20.1804616 2.83580529,18.8599591 2.83580529,17.3704253 C2.83580529,15.4730168 1.66148925,13.8498844 -3.05311332e-15,13.1881711 L1.10946314,10.4000015 Z" id="Combined-Shape-Copy" transform="translate(2.917903, 16.909435) scale(-1, -1) translate(-2.917903, -16.909435) "></path>
            </g>
            <g id="steam" transform="translate(28.000000, 6.000000)" fill="#C4C8D0">
                <path d="M2.20946161,0.599998474 C4.97861036,1.70285401 6.93580377,4.40807465 6.93580377,7.57042229 C6.93580377,9.83381469 5.9331887,11.8630338 4.34785916,13.238179 L2.38303701,10.9710763 C3.33423472,10.1459892 3.93580377,8.92845773 3.93580377,7.57042229 C3.93580377,5.67301371 2.76148772,4.04988133 1.09999847,3.388168 L2.20946161,0.599998474 Z" id="Combined-Shape"></path>
                <path d="M1.10946314,10.4000015 C3.87861188,11.5028571 5.83580529,14.2080777 5.83580529,17.3704253 C5.83580529,19.8529816 4.62962359,22.0538191 2.77132971,23.4188682 L0.997119944,20.9994911 C2.11209627,20.1804616 2.83580529,18.8599591 2.83580529,17.3704253 C2.83580529,15.4730168 1.66148925,13.8498844 -3.05311332e-15,13.1881711 L1.10946314,10.4000015 Z" id="Combined-Shape-Copy" transform="translate(2.917903, 16.909435) scale(-1, -1) translate(-2.917903, -16.909435) "></path>
            </g>
            <g id="steam" transform="translate(41.000000, 6.000000)" fill="#C4C8D0">
                <path d="M2.20946161,0.599998474 C4.97861036,1.70285401 6.93580377,4.40807465 6.93580377,7.57042229 C6.93580377,9.83381469 5.9331887,11.8630338 4.34785916,13.238179 L2.38303701,10.9710763 C3.33423472,10.1459892 3.93580377,8.92845773 3.93580377,7.57042229 C3.93580377,5.67301371 2.76148772,4.04988133 1.09999847,3.388168 L2.20946161,0.599998474 Z" id="Combined-Shape"></path>
                <path d="M1.10946314,10.4000015 C3.87861188,11.5028571 5.83580529,14.2080777 5.83580529,17.3704253 C5.83580529,19.8529816 4.62962359,22.0538191 2.77132971,23.4188682 L0.997119944,20.9994911 C2.11209627,20.1804616 2.83580529,18.8599591 2.83580529,17.3704253 C2.83580529,15.4730168 1.66148925,13.8498844 -3.05311332e-15,13.1881711 L1.10946314,10.4000015 Z" id="Combined-Shape-Copy" transform="translate(2.917903, 16.909435) scale(-1, -1) translate(-2.917903, -16.909435) "></path>
            </g>
        </g>
    </g>
</svg>