<?xml version="1.0" encoding="UTF-8" standalone="no"?>
<svg width="72px" height="72px" viewBox="0 0 72 72" version="1.1" xmlns="http://www.w3.org/2000/svg" xmlns:xlink="http://www.w3.org/1999/xlink">
    <!-- Generator: Sketch 3.7.1 (28215) - http://www.bohemiancoding.com/sketch -->
    <title>icon_review_detail_repost</title>
    <desc>Created with Sketch.</desc>
    <defs></defs>
    <g id="slice" stroke="none" stroke-width="1" fill="none" fill-rule="evenodd">
        <g id="icon_general" transform="translate(-456.000000, -60.000000)" fill="#99A0AA">
            <g id="icon_review_detail_repost" transform="translate(456.000000, 60.000000)">
                <path d="M38.7947,9 C37.7087,9 36.9997,10.078 36.9997,12.099 L36.9997,23.105 C36.9997,23.105 7.9997,24.837 7.9997,63.105 C7.9997,63.105 15.2597,46.093 36.9997,45.105 L36.9997,57.111 C36.9997,59.148 37.7357,60.244 38.8587,60.244 C39.5547,60.244 40.3997,59.823 41.3107,58.943 L61.6897,39.267 C64.0637,36.975 64.0977,33.203 61.7517,30.857 L41.2477,10.353 C40.3337,9.439 39.4877,9 38.7947,9 Z M40.9997,15.762 L58.9237,33.685 C59.4237,34.185 59.4937,34.756 59.4907,35.052 C59.4887,35.345 59.4097,35.908 58.9117,36.389 L40.9997,53.683 L40.9997,45.105 L40.9997,40.919 L36.8187,41.109 C26.1537,41.594 18.6137,45.533 13.4977,49.827 C18.7977,28.676 36.3807,27.158 37.2387,27.098 L40.9997,26.873 L40.9997,23.105 L40.9997,15.762 Z" id="Fill-1"></path>
            </g>
        </g>
    </g>
</svg>