<?xml version="1.0" encoding="UTF-8" standalone="no"?>
<svg width="48px" height="48px" viewBox="0 0 48 48" version="1.1" xmlns="http://www.w3.org/2000/svg" xmlns:xlink="http://www.w3.org/1999/xlink">
    <!-- Generator: Sketch 3.8.3 (29802) - http://www.bohemiancoding.com/sketch -->
    <title>icon_search</title>
    <desc>Created with Sketch.</desc>
    <defs></defs>
    <g id="Symbols" stroke="none" stroke-width="1" fill="none" fill-rule="evenodd">
        <g id="icon_search">
            <rect id="icon" x="0" y="0" width="48" height="48"></rect>
            <polygon id="Rectangle-387" fill="#99A0AA" points="44 41.1764706 41.1764706 44 28 30.8235294 30.8235294 28"></polygon>
            <path d="M19.5,34.5 C11.2157288,34.5 4.5,27.7842712 4.5,19.5 C4.5,11.2157288 11.2157288,4.5 19.5,4.5 C27.7842712,4.5 34.5,11.2157288 34.5,19.5 C34.5,27.7842712 27.7842712,34.5 19.5,34.5 Z M19.5,31.5 C26.127417,31.5 31.5,26.127417 31.5,19.5 C31.5,12.872583 26.127417,7.5 19.5,7.5 C12.872583,7.5 7.5,12.872583 7.5,19.5 C7.5,26.127417 12.872583,31.5 19.5,31.5 Z" id="Oval-132" fill="#99A0AA"></path>
        </g>
    </g>
</svg>