<?xml version="1.0" encoding="UTF-8"?>
<svg width="216px" height="216px" viewBox="0 0 216 216" version="1.1" xmlns="http://www.w3.org/2000/svg" xmlns:xlink="http://www.w3.org/1999/xlink">
    <!-- Generator: Sketch 41 (35326) - http://www.bohemiancoding.com/sketch -->
    <title>icon_article_bookcover_style0</title>
    <desc>Created with Sketch.</desc>
    <defs></defs>
    <g id="Symbols" stroke="none" stroke-width="1" fill="none" fill-rule="evenodd">
        <g id="icon_article_bookcover_style0">
            <path d="M206.993748,0 C211.967764,0 216,4.02722298 216,9.00625169 L216,206.993748 C216,211.967764 211.972777,216 206.993748,216 L9.00625169,216 C4.03223623,216 0,211.972777 0,206.993748 L0,9.00625169 L0,9.00625169 C0,4.03223623 4.02722298,0 9.00625169,0 L206.993748,0 Z" id="background" fill="#FFFFFF"></path>
            <path d="M24,219 L24,156 L24,156 L216,156 L216,210.007113 C216,214.973747 211.967686,219 206.996964,219 L24,219 Z" id="image" fill="#F2F9FF"></path>
            <path d="M34.9921875,109.863281 L35.15625,109.863281 L37.3710938,111.421875 L37.3710938,111.585938 L36.3046875,112.242188 L35.15625,114.210938 L34.7460938,114.867188 L41.0625,114.867188 L42.375,113.390625 L42.6210938,113.390625 L43.2773438,114.046875 L44.34375,114.867188 L44.34375,115.523438 L37.2890625,115.523438 L37.2890625,119.707031 L40.2421875,119.707031 L41.3085938,118.394531 L41.5546875,118.394531 L43.03125,119.707031 L43.03125,120.28125 L37.2890625,120.28125 L37.2890625,124.300781 L40.8984375,124.300781 L41.9648438,122.988281 L42.2109375,122.988281 L43.6875,124.300781 L43.6875,124.875 L37.2890625,124.875 L37.2890625,129.878906 L35.6484375,129.878906 L35.8125,117.738281 L35.8125,115.523438 L34.4179688,115.523438 L33.6796875,116.671875 L32.3671875,118.640625 L31.21875,119.953125 L30.1523438,121.019531 L29.90625,121.019531 L30.3984375,120.117188 L31.7109375,118.148438 L32.53125,116.425781 L34.3359375,112.488281 L34.9921875,109.863281 Z M29.25,110.109375 L29.4960938,110.109375 L31.7109375,111.175781 L31.7109375,111.421875 L31.0546875,111.832031 L30.5625,112.488281 L29.0859375,115.523438 L28.4296875,116.753906 L29.90625,117.492188 L29.90625,117.738281 L29.4140625,118.394531 L29.4140625,129.632812 L27.7734375,129.632812 L27.9375,120.117188 L27.9375,117.574219 L27.7734375,117.984375 L26.625,119.460938 L25.5585938,120.773438 L24.4921875,121.921875 L24.2460938,121.921875 L24.65625,121.265625 L25.3125,120.117188 L26.4609375,118.148438 L27.5273438,116.015625 L28.1835938,114.210938 L28.8398438,112.242188 L29.25,110.109375 Z M55.03125,109.863281 L56.1796875,110.273438 L57.2460938,110.765625 L57.2460938,110.929688 L56.7539062,111.585938 L56.7539062,113.554688 L57.2460938,113.554688 L58.3125,112.242188 L58.5585938,112.242188 L60.1171875,113.554688 L60.1171875,114.210938 L56.7539062,114.210938 L56.7539062,117.738281 L57.2460938,117.738281 L57.4921875,117.492188 L58.8046875,116.015625 L60.5273438,114.046875 L61.8398438,112.242188 L62.7421875,110.929688 L62.90625,110.929688 L64.875,112.488281 L64.875,112.734375 L64.0546875,112.898438 L62.25,114.457031 L60.5273438,116.425781 L59.2148438,117.738281 L63.8085938,117.738281 L65.1210938,116.179688 L65.3671875,116.179688 L66.0234375,116.835938 L67.0898438,117.738281 L67.0898438,118.3125 L58.5585938,118.3125 L56.8359375,119.953125 L55.2773438,121.019531 L54.9492188,121.265625 L61.1835938,121.265625 L62.0859375,120.363281 L62.25,120.363281 L63.8085938,121.675781 L62.90625,122.578125 L63.1523438,129.632812 L61.59375,130.042969 L61.4296875,130.042969 L61.4296875,128.484375 L54.1289062,128.484375 L54.1289062,129.632812 L52.2421875,129.632812 L52.40625,123.070312 L52.2421875,123.234375 L50.6835938,124.054688 L49.125,124.957031 L47.4023438,125.613281 L46.9921875,125.613281 L48.46875,124.546875 L49.78125,123.890625 L51.75,122.332031 L52.40625,121.757812 L52.40625,120.609375 L53.390625,120.9375 L55.5234375,119.296875 L56.5898438,118.3125 L48.46875,118.3125 L48.3046875,118.394531 L48.0585938,118.394531 L47.4023438,117.738281 L55.03125,117.738281 L55.03125,114.210938 L50.0273438,114.210938 L49.3710938,113.554688 L55.03125,113.554688 L55.03125,109.863281 Z M61.4296875,124.546875 L61.4296875,121.675781 L54.375,121.675781 L54.1289062,121.839844 L54.1289062,124.546875 L61.4296875,124.546875 Z M61.4296875,127.910156 L61.4296875,125.121094 L54.1289062,125.121094 L54.1289062,127.910156 L61.4296875,127.910156 Z" id="作者" fill="#49505A"></path>
            <rect id="separator" fill="#ADB4BE" x="24" y="88" width="78" height="1"></rect>
            <path d="M35.953125,40.15625 L36.1875,40.15625 L37.828125,40.7421875 L39.3515625,41.6796875 L40.2890625,42.6171875 L40.640625,43.5546875 L40.640625,43.90625 L40.2890625,44.4921875 L39.703125,45.4296875 L39,45.78125 L38.765625,45.78125 L38.0625,45.4296875 L37.828125,43.90625 L37.4765625,42.265625 L36.5390625,41.09375 L35.953125,40.15625 Z M49.6640625,44.140625 L50.015625,44.140625 L50.953125,45.078125 L52.4765625,46.3671875 L52.4765625,47.1875 L46.1484375,47.1875 L44.9765625,51.640625 L44.0390625,54.21875 L42.75,56.6796875 L41.578125,58.90625 L40.5234375,60.1953125 L41.2265625,60.78125 L43.1015625,61.953125 L45.9140625,63.2421875 L48.7265625,64.1796875 L51.1875,64.765625 L53.765625,65 L53.765625,65.234375 L51.890625,65.8203125 L51.1875,66.5234375 L50.953125,67.4609375 L50.6015625,67.4609375 L47.4375,66.5234375 L44.9765625,65.234375 L42.515625,64.1796875 L40.640625,62.890625 L39.1171875,61.8359375 L39,61.953125 L37.828125,62.890625 L35.6015625,64.1796875 L32.7890625,65.5859375 L29.9765625,66.7578125 L27.1640625,67.6953125 L24,68.3984375 L24,68.046875 L25.640625,67.4609375 L28.453125,66.5234375 L31.265625,65 L33.375,63.828125 L35.6015625,62.3046875 L37.4765625,60.78125 L37.828125,60.3125 L36.890625,59.140625 L34.3125,54.21875 L33.375,51.40625 L32.7890625,48.828125 L32.5546875,47.1875 L26.578125,47.1875 L26.2265625,47.3046875 L25.875,47.3046875 L24.9375,46.3671875 L47.7890625,46.3671875 L49.6640625,44.140625 Z M42.75,50.703125 L43.6875,47.1875 L33.4921875,47.1875 L34.078125,50.1171875 L35.015625,52.34375 L36.890625,56.09375 L38.0625,57.96875 L39,58.90625 L41.578125,54.453125 L42.75,50.703125 Z M66.140625,39.8046875 L66.375,39.8046875 L68.953125,41.328125 L68.953125,41.6796875 L67.3125,42.265625 L66.140625,44.140625 L65.3203125,45.078125 L80.7890625,45.078125 L82.3125,43.203125 L82.6640625,43.203125 L84.890625,45.078125 L84.890625,46.015625 L74.2265625,46.015625 L74.2265625,48.59375 L78.5625,48.59375 L79.8515625,46.953125 L80.203125,46.953125 L82.078125,48.59375 L82.078125,49.4140625 L74.2265625,49.4140625 L74.2265625,52.34375 L78.5625,52.34375 L79.8515625,50.703125 L80.203125,50.703125 L82.078125,52.34375 L82.078125,53.1640625 L74.2265625,53.1640625 L74.2265625,55.7421875 L81.375,55.7421875 L82.6640625,54.21875 L83.015625,54.21875 L84.890625,55.7421875 L84.890625,56.5625 L70.828125,56.5625 L72,57.265625 L73.2890625,57.96875 L73.2890625,58.203125 L72.9375,58.90625 L72.9375,59.84375 L82.3125,59.84375 L83.953125,57.96875 L84.1875,57.96875 L86.4140625,59.84375 L86.4140625,60.6640625 L74.8125,60.6640625 L76.1015625,61.953125 L77.625,63.2421875 L79.8515625,64.1796875 L82.078125,64.765625 L83.953125,65 L86.4140625,65.234375 L86.4140625,65.5859375 L85.125,65.8203125 L84.5390625,66.5234375 L84.1875,67.4609375 L83.6015625,67.4609375 L82.3125,67.109375 L80.4375,66.5234375 L78.328125,65.234375 L76.453125,64.1796875 L75.1640625,62.890625 L73.875,61.015625 L73.640625,60.6640625 L72.9375,60.6640625 L72.9375,67.6953125 L71.765625,68.3984375 L70.828125,68.6328125 L70.828125,60.6640625 L70.359375,60.6640625 L69.890625,61.3671875 L68.015625,63.2421875 L65.7890625,64.765625 L63.5625,65.8203125 L61.453125,66.7578125 L59.2265625,67.4609375 L57.3515625,67.6953125 L57,67.6953125 L58.2890625,67.109375 L60.515625,66.171875 L62.625,65 L64.8515625,63.59375 L67.078125,61.71875 L67.78125,60.6640625 L59.578125,60.6640625 L59.2265625,60.78125 L58.875,60.78125 L57.9375,59.84375 L70.828125,59.84375 L70.828125,56.5625 L65.671875,56.5625 L65.671875,57.6171875 L64.5,58.203125 L63.5625,58.5546875 L63.5625,47.0703125 L62.0390625,48.828125 L59.578125,51.0546875 L57.9375,51.9921875 L57.703125,51.9921875 L59.578125,50.1171875 L61.453125,47.890625 L62.9765625,45.78125 L64.5,42.96875 L66.140625,39.8046875 Z M70.125,40.15625 L70.4765625,40.15625 L73.2890625,40.7421875 L74.578125,41.328125 L75.1640625,42.265625 L75.1640625,43.203125 L74.578125,44.140625 L73.875,44.4921875 L73.640625,44.4921875 L72.9375,43.5546875 L71.765625,41.6796875 L70.125,40.15625 Z M71.765625,48.59375 L71.765625,46.015625 L65.671875,46.015625 L65.671875,48.59375 L71.765625,48.59375 Z M71.765625,52.34375 L71.765625,49.4140625 L65.671875,49.4140625 L65.671875,52.34375 L71.765625,52.34375 Z M71.765625,55.7421875 L71.765625,53.1640625 L65.671875,53.1640625 L65.671875,55.7421875 L71.765625,55.7421875 Z M102.890625,40.15625 L103.125,40.15625 L105.9375,41.6796875 L105.9375,42.03125 L104.765625,42.6171875 L103.125,44.84375 L112.734375,44.84375 L112.851562,44.4921875 L114.140625,43.203125 L114.375,43.203125 L116.953125,45.4296875 L115.3125,46.015625 L114.140625,47.65625 L112.265625,49.765625 L110.390625,51.640625 L108.164062,53.515625 L105.351562,55.7421875 L103.007812,57.265625 L113.789062,57.265625 L115.078125,55.7421875 L115.3125,55.7421875 L117.539062,57.8515625 L117.539062,57.96875 L116.601562,58.90625 L116.953125,67.109375 L114.375,67.109375 L114.375,65.8203125 L103.125,65.8203125 L103.125,67.4609375 L100.3125,67.4609375 L100.664062,60.4296875 L100.664062,58.5546875 L100.078125,58.90625 L96.9140625,60.4296875 L94.453125,61.3671875 L91.640625,62.3046875 L91.2890625,62.3046875 L94.6875,60.4296875 L97.8515625,58.90625 L100.664062,57.03125 L100.664062,55.7421875 L101.015625,55.7421875 L101.71875,56.328125 L107.578125,51.640625 L110.039062,49.1796875 L111.5625,47.3046875 L112.382812,45.6640625 L102.421875,45.6640625 L101.015625,47.7734375 L101.601562,47.890625 L102.890625,48.2421875 L104.414062,49.53125 L105.351562,50.1171875 L105.703125,51.0546875 L105.703125,51.640625 L105.351562,52.578125 L104.765625,52.9296875 L104.0625,52.9296875 L103.476562,51.640625 L102.539062,50.1171875 L101.25,48.59375 L100.78125,48.125 L99.375,49.765625 L96.328125,52.9296875 L94.453125,54.453125 L93.515625,55.15625 L93.1640625,55.15625 L95.390625,52.578125 L99.140625,47.65625 L100.664062,45.078125 L101.953125,42.6171875 L102.890625,40.15625 Z M114.375,65 L114.375,57.8515625 L103.125,57.8515625 L103.125,65 L114.375,65 Z M140.578125,40.390625 L141.164062,40.390625 L143.625,41.6796875 L143.625,42.03125 L142.453125,42.96875 L141.164062,45.78125 L140.34375,47.3046875 L148.664062,47.3046875 L149.601562,46.015625 L149.953125,46.015625 L152.414062,48.2421875 L152.414062,48.59375 L150.1875,49.1796875 L148.3125,50.703125 L147.726562,51.640625 L147.375,51.640625 L148.078125,50.1171875 L149.015625,48.125 L139.992188,48.125 L138.351562,50.46875 L136.828125,52.578125 L135.890625,53.515625 L135.539062,53.515625 L136.476562,51.9921875 L138,48.828125 L139.289062,45.78125 L140.226562,42.6171875 L140.578125,40.390625 Z M132.726562,42.6171875 L134.953125,41.6796875 L135.1875,41.6796875 L136.828125,43.5546875 L136.828125,43.90625 L134.015625,44.140625 L132.023438,44.375 L132.023438,49.765625 L133.078125,49.765625 L134.25,48.2421875 L134.601562,48.2421875 L136.476562,49.765625 L136.476562,50.703125 L132.023438,50.703125 L132.023438,53.8671875 L133.3125,54.21875 L134.601562,54.453125 L135.539062,55.15625 L135.890625,56.09375 L135.890625,56.328125 L135.539062,57.03125 L134.953125,57.96875 L134.601562,57.96875 L133.664062,56.09375 L132.726562,55.15625 L132.023438,54.6875 L132.023438,68.046875 L129.5625,68.046875 L129.796875,55.15625 L128.039062,58.203125 L126.75,60.078125 L125.226562,61.953125 L123.9375,63.2421875 L123.703125,63.2421875 L124.289062,62.3046875 L125.8125,59.4921875 L127.453125,56.6796875 L128.625,53.515625 L129.5625,50.703125 L124.875,50.703125 L123.9375,49.765625 L129.914062,49.765625 L129.914062,44.7265625 L129.328125,44.84375 L125.578125,45.4296875 L123.9375,45.4296875 L123.9375,45.078125 L127.453125,44.140625 L130.265625,43.203125 L132.726562,42.6171875 Z M142.6875,49.1796875 L143.976562,49.765625 L145.5,50.46875 L145.5,50.703125 L144.796875,51.640625 L144.796875,57.96875 L144.914062,66.5234375 L143.625,67.6953125 L142.6875,68.3984375 L141.75,68.6328125 L141.515625,68.6328125 L141.164062,67.6953125 L140.578125,66.7578125 L139.640625,66.171875 L138.351562,65.8203125 L138.351562,65.5859375 L140.226562,65.8203125 L141.164062,65.8203125 L142.101562,65.5859375 L142.453125,65.234375 L142.6875,66.5234375 L142.6875,49.1796875 Z M138.703125,53.515625 L138.9375,53.515625 L141.515625,55.390625 L141.515625,55.7421875 L140.578125,56.09375 L138.9375,59.140625 L137.0625,62.3046875 L135.1875,64.53125 L133.664062,65.8203125 L133.3125,65.8203125 L134.015625,65 L135.539062,62.65625 L136.828125,60.078125 L137.765625,57.96875 L138.351562,55.7421875 L138.703125,53.515625 Z M146.203125,54.8046875 L146.4375,54.8046875 L147.726562,55.7421875 L149.601562,57.96875 L150.890625,59.4921875 L151.828125,61.015625 L152.414062,62.3046875 L152.414062,62.890625 L152.0625,63.828125 L151.125,64.53125 L150.539062,64.53125 L149.953125,62.890625 L149.25,60.78125 L148.3125,58.5546875 L147.140625,56.328125 L146.203125,54.8046875 Z" id="文集名称" fill="#49505A"></path>
        </g>
    </g>
</svg>