<?xml version="1.0" encoding="UTF-8" standalone="no"?>
<svg width="72px" height="72px" viewBox="0 0 72 72" version="1.1" xmlns="http://www.w3.org/2000/svg" xmlns:xlink="http://www.w3.org/1999/xlink" xmlns:sketch="http://www.bohemiancoding.com/sketch/ns">
    <!-- Generator: Sketch 3.4.4 (17249) - http://www.bohemiancoding.com/sketch -->
    <title>icon_topbar_write_review</title>
    <desc>Created with Sketch.</desc>
    <defs></defs>
    <g id="slice" stroke="none" stroke-width="1" fill="none" fill-rule="evenodd" sketch:type="MSPage">
        <g id="icon_bar" sketch:type="MSArtboardGroup" transform="translate(-324.000000, -62.000000)" fill="#1B88EE">
            <g id="icon_topbar_write_review" sketch:type="MSLayerGroup" transform="translate(324.000000, 62.000000)">
                <path d="M58.0613441,6 C53.0073441,6 39.3833441,7.102 29.0593441,18.091 C16.1423441,31.839 10.4123441,50.376 8.05934413,63.091 C7.89234413,64.784 8.11334413,65.075 8.28434413,65.075 C8.37434413,65.075 8.45034413,64.995 8.45034413,64.995 C8.75634413,65.203 9.09034413,65.302 9.41734413,65.302 C10.0383441,65.302 10.6323441,64.944 10.9533441,64.301 L12.0593441,62.091 C12.5203441,61.681 15.6413441,57.627 19.0593441,54.091 C20.7523441,51.889 23.5943441,50.557 27.0593441,50.091 C45.0943441,49.122 54.3873441,29.043 55.0593441,28.091 C51.7863441,27.949 50.3573441,28.035 48.0593441,27.591 C52.0593441,24.591 57.0593441,23.091 57.0593441,23.091 L62.9313441,10.613 C64.0923441,8.145 62.8513441,6.069 60.1563441,6.069 C60.1243441,6.069 60.0923441,6.069 60.0603441,6.07 C60.0603441,6.07 59.3303441,6 58.0613441,6 M58.0613441,10 C58.3373441,10 58.5833441,10.004 58.7943441,10.009 L54.1553441,19.867 C52.1223441,20.634 48.6713441,22.131 45.6593441,24.391 L38.4383441,29.806 L47.3003441,31.518 C47.6223441,31.58 47.9313441,31.634 48.2303441,31.68 C42.1703441,40.606 34.7093441,45.674 26.8443441,46.096 L26.6843441,46.105 L26.5253441,46.126 C21.9653441,46.74 18.3463441,48.583 16.0393441,51.46 C15.5403441,51.979 15.0493441,52.507 14.5723441,53.031 C17.5103441,43.043 22.7513441,30.645 31.9743441,20.83 C41.1573441,11.055 53.2773441,10 58.0613441,10" id="Fill-3" sketch:type="MSShapeGroup"></path>
            </g>
        </g>
    </g>
</svg>