<?xml version="1.0" encoding="UTF-8"?>
<svg width="168px" height="168px" viewBox="0 0 168 168" version="1.1" xmlns="http://www.w3.org/2000/svg" xmlns:xlink="http://www.w3.org/1999/xlink">
    <!-- Generator: Sketch 42 (36781) - http://www.bohemiancoding.com/sketch -->
    <title>icon_more_operation_discover</title>
    <desc>Created with Sketch.</desc>
    <defs></defs>
    <g id="Symbols" stroke="none" stroke-width="1" fill="none" fill-rule="evenodd">
        <g id="icon_more_operation_discover">
            <rect id="icon" x="0" y="0" width="168" height="168"></rect>
            <path d="M4,36.0015487 L4,36.0015487 L4,131.998451 C4,149.678727 18.3239929,164 36.0015487,164 L131.998451,164 C149.678727,164 164,149.676007 164,131.998451 L164,36.0015487 C164,18.3212732 149.676007,4 131.998451,4 L36.0015487,4 C18.3212732,4 4,18.3239929 4,36.0015487 L4,36.0015487 Z M0,36.0015487 C0,16.1184424 16.1085463,0 36.0015487,0 L131.998451,0 C151.881558,0 168,16.1085463 168,36.0015487 L168,131.998451 C168,151.881558 151.891454,168 131.998451,168 L36.0015487,168 C16.1184424,168 0,151.891454 0,131.998451 L0,36.0015487 L0,36.0015487 Z" id="background" fill="#C1C8D2" fill-rule="nonzero"></path>
            <path d="M84.5,131 C58.8187591,131 38,110.181241 38,84.5 C38,58.8187591 58.8187591,38 84.5,38 C110.181241,38 131,58.8187591 131,84.5 C131,110.181241 110.181241,131 84.5,131 Z M84.5,127 C107.972102,127 127,107.972102 127,84.5 C127,61.0278981 107.972102,42 84.5,42 C61.0278981,42 42,61.0278981 42,84.5 C42,107.972102 61.0278981,127 84.5,127 Z" id="Combined-Shape" fill="#858C96" fill-rule="nonzero"></path>
            <path d="M78.9615385,78.9615385 L108.5,60.5 L90.0384615,90.0384615 L60.5,108.5 L78.9615385,78.9615385 Z M81.8643019,81.8643019 L73.0786415,95.9213585 L87.1356981,87.1356981 L95.9213585,73.0786415 L81.8643019,81.8643019 Z" id="Rectangle-40" fill="#858C96" fill-rule="nonzero"></path>
        </g>
    </g>
</svg>