<?xml version="1.0" encoding="UTF-8" standalone="no"?>
<svg width="36px" height="36px" viewBox="0 0 36 36" version="1.1" xmlns="http://www.w3.org/2000/svg" xmlns:xlink="http://www.w3.org/1999/xlink">
    <!-- Generator: Sketch 3.8.3 (29802) - http://www.bohemiancoding.com/sketch -->
    <title>icon_follow_add</title>
    <desc>Created with Sketch.</desc>
    <defs></defs>
    <g id="Symbols" stroke="none" stroke-width="1" fill="none" fill-rule="evenodd">
        <g id="icon_follow_add">
            <rect id="icon" x="0" y="0" width="36" height="36"></rect>
            <path d="M3.00684547,16 C2.45078007,16 2,16.4433532 2,17.0093689 L2,18.9906311 C2,19.5480902 2.44994876,20 3.00684547,20 L16,20 L16,32.9931545 C16,33.5492199 16.4433532,34 17.0093689,34 L18.9906311,34 C19.5480902,34 20,33.5500512 20,32.9931545 L20,20 L32.9931545,20 C33.5492199,20 34,19.5566468 34,18.9906311 L34,17.0093689 C34,16.4519098 33.5500512,16 32.9931545,16 L20,16 L20,3.00684547 C20,2.45078007 19.5566468,2 18.9906311,2 L17.0093689,2 C16.4519098,2 16,2.44994876 16,3.00684547 L16,16 L3.00684547,16 Z" id="add" fill="#1B88EE"></path>
        </g>
    </g>
</svg>