<?xml version="1.0" encoding="UTF-8"?>
<svg width="42px" height="42px" viewBox="0 0 42 42" version="1.1" xmlns="http://www.w3.org/2000/svg" xmlns:xlink="http://www.w3.org/1999/xlink">
    <!-- Generator: Sketch 42 (36781) - http://www.bohemiancoding.com/sketch -->
    <title>icon_article_praise_small</title>
    <desc>Created with Sketch.</desc>
    <defs></defs>
    <g id="Symbols" stroke="none" stroke-width="1" fill="none" fill-rule="evenodd">
        <g id="icon_article_praise_small">
            <g>
                <rect id="icon" x="0" y="0" width="42" height="42"></rect>
                <path d="M28.7188,6 C33.8438,6 37.9998,10.03 37.9998,15 C37.9998,16.278 37.7218,17.491 37.2278,18.591 C33.9738,26.802 22.7888,36 21.4998,36 C20.2108,36 9.0258,26.802 5.7728,18.591 C5.2788,17.491 4.9998,16.278 4.9998,15 C4.9998,10.03 9.1558,6 14.2808,6 C16.4018,6 18.3538,6.691 19.9158,7.851 C19.8748,7.9 19.8328,7.948 19.7928,7.997 C19.7928,7.997 21.0858,8.851 21.4998,9.348 C21.9138,8.851 22.3818,8.398 22.8938,7.997 C22.8938,7.997 23.1258,7.9 23.0838,7.851 C24.6458,6.691 26.5988,6 28.7188,6 Z M28.7188,9 C27.4158,9 26.1788,9.374 25.1228,10.083 C24.9648,10.232 24.7788,10.375 24.5628,10.506 C24.2878,10.739 24.0328,10.995 23.8038,11.27 L21.4998,14.032 L19.2348,11.316 C19.0478,11.14 18.5048,10.742 18.1388,10.5 L16.3948,9.347 C15.7248,9.118 15.0128,9 14.2808,9 C10.8178,9 7.9998,11.692 7.9998,15 C7.9998,15.815 8.1718,16.61 8.5088,17.362 L8.5368,17.423 L8.5618,17.486 C10.9378,23.484 18.5438,30.498 21.4998,32.606 C24.4558,30.498 32.0618,23.484 34.4388,17.486 L34.4638,17.423 L34.4908,17.362 C34.8288,16.61 34.9998,15.815 34.9998,15 C34.9998,11.692 32.1828,9 28.7188,9 Z" id="Fill-1" fill="#858C96"></path>
            </g>
        </g>
    </g>
</svg>