<?xml version="1.0" encoding="UTF-8" standalone="no"?>
<svg width="192px" height="144px" viewBox="0 0 192 144" version="1.1" xmlns="http://www.w3.org/2000/svg" xmlns:xlink="http://www.w3.org/1999/xlink">
    <!-- Generator: Sketch 3.8.3 (29802) - http://www.bohemiancoding.com/sketch -->
    <title>icon_sharelayout_d</title>
    <desc>Created with Sketch.</desc>
    <defs>
        <rect id="path-1" x="0.996495216" y="0" width="96.0035048" height="6"></rect>
        <polygon id="path-3" points="0.996495216 0 97 0 97 6 0.996495216 6"></polygon>
        <polygon id="path-5" points="0.996495216 0 97 0 97 6 0.996495216 6"></polygon>
        <rect id="path-7" x="0" y="0" width="52" height="51"></rect>
    </defs>
    <g id="Symbols" stroke="none" stroke-width="1" fill="none" fill-rule="evenodd">
        <g id="icon_sharelayout_d">
            <rect id="icon" x="0" y="0" width="192" height="144"></rect>
            <path d="M76,96 L172,96 L172,99 L76,99 L76,96 Z M76,63 L172,63 L172,66 L76,66 L76,63 Z M76,30 L172,30 L172,33 L76,33 L76,30 Z" id="content" fill="#5D646E"></path>
            <g id="curve" transform="translate(75.000000, 45.000000)">
                <mask id="mask-2" fill="white">
                    <use xlink:href="#path-1"></use>
                </mask>
                <g id="Mask"></g>
                <path d="M-2,6.11900826 C0.787349541,6.11900826 2.20628743,5.43347458 4.67087019,3.44894506 C6.97425107,1.59421839 8.20418186,1 10.7145697,1 C13.2249575,1 14.4548883,1.59421839 16.7582692,3.44894506 C19.222852,5.43347458 20.6417899,6.11900826 23.4291394,6.11900826 C26.2144721,6.11900826 27.632617,5.43328083 30.0947992,3.44879944 C30.0951226,3.44853872 30.0951226,3.44853872 30.0954461,3.44827801 C32.3959438,1.59411188 33.6245306,1 36.1316328,1 C38.6397965,1 39.8688309,1.59428527 42.1697604,3.44879944 C42.1700839,3.44906015 42.1700839,3.44906015 42.1704073,3.44932087 C44.6321588,5.43345506 46.0498407,6.11900826 48.8341263,6.11900826 C51.619098,6.11900826 53.0371279,5.433473 55.4995187,3.44936235 C55.4998422,3.44910171 55.4998422,3.44910171 55.5001657,3.44884107 C57.8017496,1.5943032 59.0311549,1 61.5400701,1 C64.0486754,1 65.278004,1.59414781 67.5798105,3.44836154 C67.580134,3.44862211 67.580134,3.44862211 67.5804574,3.44888268 C70.0439185,5.43331681 71.4627593,6.11900826 74.2494642,6.11900826 C77.035483,6.11900826 78.4539759,5.43329882 80.9167975,3.44884107 C80.917121,3.44858043 80.917121,3.44858043 80.9174445,3.44831979 C83.2185966,1.59412985 84.4475543,1 86.955408,1 C89.4657959,1 90.6957267,1.59421839 92.9991076,3.44894506 C95.4636903,5.43347458 96.8826282,6.11900826 99.6699777,6.11900826 C102.457327,6.11900826 103.876265,5.43347458 106.340848,3.44894506 C108.644229,1.59421839 109.87416,1 112.384547,1 C114.89165,1 116.120237,1.59411188 118.420734,3.44827801 C118.421058,3.44853872 118.421058,3.44853872 118.421381,3.44879944 C120.883563,5.43328083 122.301708,6.11900826 125.087041,6.11900826 C127.871327,6.11900826 129.289008,5.43345506 131.75076,3.44932087 C131.751083,3.44906015 131.751083,3.44906015 131.751407,3.44879944 C134.052336,1.59428527 135.281371,1 137.789534,1 C140.297668,1 141.526486,1.59416456 143.827903,3.44882026 C146.290568,5.43342076 147.708462,6.11900826 150.493753,6.11900826 L150.493753,5.11900826 C147.98562,5.11900826 146.756802,4.5248437 144.455384,2.67018801 C141.99272,0.685587505 140.574825,0 137.789534,0 C135.004202,0 133.586057,0.685727434 131.123875,2.67020882 C131.123551,2.67046954 131.123551,2.67046954 131.123228,2.67073025 C128.82273,4.52489638 127.594143,5.11900826 125.087041,5.11900826 C122.578877,5.11900826 121.349843,4.52472299 119.048913,2.67020882 C119.04859,2.66994811 119.04859,2.66994811 119.048266,2.6696874 C116.586515,0.685553207 115.168833,0 112.384547,0 C109.597198,0 108.17826,0.685533681 105.713677,2.67006321 C103.410296,4.52478988 102.180366,5.11900826 99.6699777,5.11900826 C97.1595899,5.11900826 95.9296591,4.52478988 93.6262782,2.67006321 C91.1616955,0.685533681 89.7427576,0 86.955408,0 C84.1704363,0 82.7524065,0.685535263 80.2900156,2.66964591 C80.2896921,2.66990655 80.2896921,2.66990655 80.2893686,2.67016719 C77.9877847,4.52470507 76.7583794,5.11900826 74.2494642,5.11900826 C71.7397975,5.11900826 70.5100213,4.52468716 68.207783,2.67012558 C68.2074595,2.66986501 68.2074595,2.66986501 68.2071361,2.66960444 C65.7441057,0.685517328 64.3257279,0 61.5400701,0 C58.7540513,0 57.3355584,0.685709442 54.8727368,2.67016719 C54.8724133,2.67042784 54.8724133,2.67042784 54.8720899,2.67068848 C52.5709378,4.52487841 51.34198,5.11900826 48.8341263,5.11900826 C46.3270241,5.11900826 45.0984372,4.52489638 42.7979395,2.67073025 C42.7976161,2.67046954 42.7976161,2.67046954 42.7972926,2.67020882 C40.3351104,0.685727434 38.9169655,0 36.1316328,0 C33.3473472,0 31.9296653,0.685553207 29.4679139,2.6696874 C29.4675904,2.66994811 29.4675904,2.66994811 29.467267,2.67020882 C27.1663375,4.52472299 25.937303,5.11900826 23.4291394,5.11900826 C20.9187516,5.11900826 19.6888208,4.52478988 17.3854399,2.67006321 C14.9208571,0.685533681 13.5019192,0 10.7145697,0 C7.92722016,0 6.50828226,0.685533681 4.04369951,2.67006321 C1.74031863,4.52478988 0.510387833,5.11900826 -2,5.11900826 L-2,6.11900826 L-2,6.11900826 Z" fill="#99A0AA" mask="url(#mask-2)"></path>
            </g>
            <g id="curve2" transform="translate(75.000000, 78.000000)">
                <mask id="mask-4" fill="white">
                    <use xlink:href="#path-3"></use>
                </mask>
                <g id="Mask"></g>
                <path d="M-2,6.11900826 C0.787349541,6.11900826 2.20628743,5.43347458 4.67087019,3.44894506 C6.97425107,1.59421839 8.20418186,1 10.7145697,1 C13.2249575,1 14.4548883,1.59421839 16.7582692,3.44894506 C19.222852,5.43347458 20.6417899,6.11900826 23.4291394,6.11900826 C26.2144721,6.11900826 27.632617,5.43328083 30.0947992,3.44879944 C30.0951226,3.44853872 30.0951226,3.44853872 30.0954461,3.44827801 C32.3959438,1.59411188 33.6245306,1 36.1316328,1 C38.6397965,1 39.8688309,1.59428527 42.1697604,3.44879944 C42.1700839,3.44906015 42.1700839,3.44906015 42.1704073,3.44932087 C44.6321588,5.43345506 46.0498407,6.11900826 48.8341263,6.11900826 C51.619098,6.11900826 53.0371279,5.433473 55.4995187,3.44936235 C55.4998422,3.44910171 55.4998422,3.44910171 55.5001657,3.44884107 C57.8017496,1.5943032 59.0311549,1 61.5400701,1 C64.0486754,1 65.278004,1.59414781 67.5798105,3.44836154 C67.580134,3.44862211 67.580134,3.44862211 67.5804574,3.44888268 C70.0439185,5.43331681 71.4627593,6.11900826 74.2494642,6.11900826 C77.035483,6.11900826 78.4539759,5.43329882 80.9167975,3.44884107 C80.917121,3.44858043 80.917121,3.44858043 80.9174445,3.44831979 C83.2185966,1.59412985 84.4475543,1 86.955408,1 C89.4657959,1 90.6957267,1.59421839 92.9991076,3.44894506 C95.4636903,5.43347458 96.8826282,6.11900826 99.6699777,6.11900826 C102.457327,6.11900826 103.876265,5.43347458 106.340848,3.44894506 C108.644229,1.59421839 109.87416,1 112.384547,1 C114.89165,1 116.120237,1.59411188 118.420734,3.44827801 C118.421058,3.44853872 118.421058,3.44853872 118.421381,3.44879944 C120.883563,5.43328083 122.301708,6.11900826 125.087041,6.11900826 C127.871327,6.11900826 129.289008,5.43345506 131.75076,3.44932087 C131.751083,3.44906015 131.751083,3.44906015 131.751407,3.44879944 C134.052336,1.59428527 135.281371,1 137.789534,1 C140.297668,1 141.526486,1.59416456 143.827903,3.44882026 C146.290568,5.43342076 147.708462,6.11900826 150.493753,6.11900826 L150.493753,5.11900826 C147.98562,5.11900826 146.756802,4.5248437 144.455384,2.67018801 C141.99272,0.685587505 140.574825,0 137.789534,0 C135.004202,0 133.586057,0.685727434 131.123875,2.67020882 C131.123551,2.67046954 131.123551,2.67046954 131.123228,2.67073025 C128.82273,4.52489638 127.594143,5.11900826 125.087041,5.11900826 C122.578877,5.11900826 121.349843,4.52472299 119.048913,2.67020882 C119.04859,2.66994811 119.04859,2.66994811 119.048266,2.6696874 C116.586515,0.685553207 115.168833,0 112.384547,0 C109.597198,0 108.17826,0.685533681 105.713677,2.67006321 C103.410296,4.52478988 102.180366,5.11900826 99.6699777,5.11900826 C97.1595899,5.11900826 95.9296591,4.52478988 93.6262782,2.67006321 C91.1616955,0.685533681 89.7427576,0 86.955408,0 C84.1704363,0 82.7524065,0.685535263 80.2900156,2.66964591 C80.2896921,2.66990655 80.2896921,2.66990655 80.2893686,2.67016719 C77.9877847,4.52470507 76.7583794,5.11900826 74.2494642,5.11900826 C71.7397975,5.11900826 70.5100213,4.52468716 68.207783,2.67012558 C68.2074595,2.66986501 68.2074595,2.66986501 68.2071361,2.66960444 C65.7441057,0.685517328 64.3257279,0 61.5400701,0 C58.7540513,0 57.3355584,0.685709442 54.8727368,2.67016719 C54.8724133,2.67042784 54.8724133,2.67042784 54.8720899,2.67068848 C52.5709378,4.52487841 51.34198,5.11900826 48.8341263,5.11900826 C46.3270241,5.11900826 45.0984372,4.52489638 42.7979395,2.67073025 C42.7976161,2.67046954 42.7976161,2.67046954 42.7972926,2.67020882 C40.3351104,0.685727434 38.9169655,0 36.1316328,0 C33.3473472,0 31.9296653,0.685553207 29.4679139,2.6696874 C29.4675904,2.66994811 29.4675904,2.66994811 29.467267,2.67020882 C27.1663375,4.52472299 25.937303,5.11900826 23.4291394,5.11900826 C20.9187516,5.11900826 19.6888208,4.52478988 17.3854399,2.67006321 C14.9208571,0.685533681 13.5019192,0 10.7145697,0 C7.92722016,0 6.50828226,0.685533681 4.04369951,2.67006321 C1.74031863,4.52478988 0.510387833,5.11900826 -2,5.11900826 L-2,6.11900826 L-2,6.11900826 Z" id="curve" fill="#99A0AA" mask="url(#mask-4)"></path>
            </g>
            <g id="curve3" transform="translate(75.000000, 111.000000)">
                <mask id="mask-6" fill="white">
                    <use xlink:href="#path-5"></use>
                </mask>
                <g id="Mask"></g>
                <path d="M-2,6.11900826 C0.787349541,6.11900826 2.20628743,5.43347458 4.67087019,3.44894506 C6.97425107,1.59421839 8.20418186,1 10.7145697,1 C13.2249575,1 14.4548883,1.59421839 16.7582692,3.44894506 C19.222852,5.43347458 20.6417899,6.11900826 23.4291394,6.11900826 C26.2144721,6.11900826 27.632617,5.43328083 30.0947992,3.44879944 C30.0951226,3.44853872 30.0951226,3.44853872 30.0954461,3.44827801 C32.3959438,1.59411188 33.6245306,1 36.1316328,1 C38.6397965,1 39.8688309,1.59428527 42.1697604,3.44879944 C42.1700839,3.44906015 42.1700839,3.44906015 42.1704073,3.44932087 C44.6321588,5.43345506 46.0498407,6.11900826 48.8341263,6.11900826 C51.619098,6.11900826 53.0371279,5.433473 55.4995187,3.44936235 C55.4998422,3.44910171 55.4998422,3.44910171 55.5001657,3.44884107 C57.8017496,1.5943032 59.0311549,1 61.5400701,1 C64.0486754,1 65.278004,1.59414781 67.5798105,3.44836154 C67.580134,3.44862211 67.580134,3.44862211 67.5804574,3.44888268 C70.0439185,5.43331681 71.4627593,6.11900826 74.2494642,6.11900826 C77.035483,6.11900826 78.4539759,5.43329882 80.9167975,3.44884107 C80.917121,3.44858043 80.917121,3.44858043 80.9174445,3.44831979 C83.2185966,1.59412985 84.4475543,1 86.955408,1 C89.4657959,1 90.6957267,1.59421839 92.9991076,3.44894506 C95.4636903,5.43347458 96.8826282,6.11900826 99.6699777,6.11900826 C102.457327,6.11900826 103.876265,5.43347458 106.340848,3.44894506 C108.644229,1.59421839 109.87416,1 112.384547,1 C114.89165,1 116.120237,1.59411188 118.420734,3.44827801 C118.421058,3.44853872 118.421058,3.44853872 118.421381,3.44879944 C120.883563,5.43328083 122.301708,6.11900826 125.087041,6.11900826 C127.871327,6.11900826 129.289008,5.43345506 131.75076,3.44932087 C131.751083,3.44906015 131.751083,3.44906015 131.751407,3.44879944 C134.052336,1.59428527 135.281371,1 137.789534,1 C140.297668,1 141.526486,1.59416456 143.827903,3.44882026 C146.290568,5.43342076 147.708462,6.11900826 150.493753,6.11900826 L150.493753,5.11900826 C147.98562,5.11900826 146.756802,4.5248437 144.455384,2.67018801 C141.99272,0.685587505 140.574825,0 137.789534,0 C135.004202,0 133.586057,0.685727434 131.123875,2.67020882 C131.123551,2.67046954 131.123551,2.67046954 131.123228,2.67073025 C128.82273,4.52489638 127.594143,5.11900826 125.087041,5.11900826 C122.578877,5.11900826 121.349843,4.52472299 119.048913,2.67020882 C119.04859,2.66994811 119.04859,2.66994811 119.048266,2.6696874 C116.586515,0.685553207 115.168833,0 112.384547,0 C109.597198,0 108.17826,0.685533681 105.713677,2.67006321 C103.410296,4.52478988 102.180366,5.11900826 99.6699777,5.11900826 C97.1595899,5.11900826 95.9296591,4.52478988 93.6262782,2.67006321 C91.1616955,0.685533681 89.7427576,0 86.955408,0 C84.1704363,0 82.7524065,0.685535263 80.2900156,2.66964591 C80.2896921,2.66990655 80.2896921,2.66990655 80.2893686,2.67016719 C77.9877847,4.52470507 76.7583794,5.11900826 74.2494642,5.11900826 C71.7397975,5.11900826 70.5100213,4.52468716 68.207783,2.67012558 C68.2074595,2.66986501 68.2074595,2.66986501 68.2071361,2.66960444 C65.7441057,0.685517328 64.3257279,0 61.5400701,0 C58.7540513,0 57.3355584,0.685709442 54.8727368,2.67016719 C54.8724133,2.67042784 54.8724133,2.67042784 54.8720899,2.67068848 C52.5709378,4.52487841 51.34198,5.11900826 48.8341263,5.11900826 C46.3270241,5.11900826 45.0984372,4.52489638 42.7979395,2.67073025 C42.7976161,2.67046954 42.7976161,2.67046954 42.7972926,2.67020882 C40.3351104,0.685727434 38.9169655,0 36.1316328,0 C33.3473472,0 31.9296653,0.685553207 29.4679139,2.6696874 C29.4675904,2.66994811 29.4675904,2.66994811 29.467267,2.67020882 C27.1663375,4.52472299 25.937303,5.11900826 23.4291394,5.11900826 C20.9187516,5.11900826 19.6888208,4.52478988 17.3854399,2.67006321 C14.9208571,0.685533681 13.5019192,0 10.7145697,0 C7.92722016,0 6.50828226,0.685533681 4.04369951,2.67006321 C1.74031863,4.52478988 0.510387833,5.11900826 -2,5.11900826 L-2,6.11900826 L-2,6.11900826 Z" id="curve" fill="#99A0AA" mask="url(#mask-6)"></path>
            </g>
            <g id="quote" transform="translate(0.000000, 27.000000)">
                <mask id="mask-8" fill="white">
                    <use xlink:href="#path-7"></use>
                </mask>
                <g id="Mask"></g>
                <path d="M47.1918892,0 C34.1117705,7.06086985 27.5717112,18.3582616 27.5717112,33.7156535 C27.5717112,45.0130453 31.702275,50.8382629 40.1355094,50.8382629 C43.0613254,50.8382629 45.470821,49.7791324 47.5361029,48.013915 C49.4292779,46.0721757 50.4619189,43.4243496 50.4619189,40.2469581 C50.4619189,37.0695667 49.4292779,34.5982622 47.5361029,32.8330448 C45.470821,30.8913056 43.0613254,30.0086968 39.9634026,30.0086968 C38.7586548,30.0086968 37.8981207,30.0086968 37.2096934,30.3617403 C37.8981207,21.0060878 42.7171118,13.4156527 51.6666667,7.59043508 L47.1918892,0 Z M13.1147379,0 C0.0346191889,7.06086985 -6.33333333,18.3582616 -6.33333333,33.7156535 C-6.33333333,45.0130453 -2.20276954,50.8382629 6.05835806,50.8382629 C8.98417409,50.8382629 11.5657765,49.7791324 13.6310584,48.013915 C15.5242334,46.0721757 16.5568744,43.4243496 16.5568744,40.2469581 C16.5568744,37.0695667 15.5242334,34.5982622 13.6310584,32.8330448 C11.5657765,30.8913056 8.98417409,30.0086968 6.05835806,30.0086968 C4.85361029,30.0086968 3.99307616,30.0086968 3.30464886,30.3617403 C3.82096934,21.0060878 8.63996044,13.4156527 17.7616222,7.59043508 L13.1147379,0 Z" id="“" fill="#DEE0E2" opacity="0.5" mask="url(#mask-8)"></path>
            </g>
        </g>
    </g>
</svg>