<?xml version="1.0" encoding="UTF-8"?>
<svg width="216px" height="216px" viewBox="0 0 216 216" version="1.1" xmlns="http://www.w3.org/2000/svg" xmlns:xlink="http://www.w3.org/1999/xlink">
    <!-- Generator: Sketch 41 (35326) - http://www.bohemiancoding.com/sketch -->
    <title>icon_article_bookcover_style2</title>
    <desc>Created with Sketch.</desc>
    <defs></defs>
    <g id="Symbols" stroke="none" stroke-width="1" fill="none" fill-rule="evenodd">
        <g id="icon_article_bookcover_style2">
            <path d="M206.993748,0 C211.967764,0 216,4.02722298 216,9.00625169 L216,206.993748 C216,211.967764 211.972777,216 206.993748,216 L9.00625169,216 C4.03223623,216 0,211.972777 0,206.993748 L0,9.00625169 L0,9.00625169 C0,4.03223623 4.02722298,0 9.00625169,0 L206.993748,0 Z" id="background" fill="#FFFFFF"></path>
            <rect id="image" fill="#F2F9FF" x="96" y="27" width="120" height="108"></rect>
            <path d="M159.492188,166.863281 L159.65625,166.863281 L161.871094,168.421875 L161.871094,168.585938 L160.804688,169.242188 L159.65625,171.210938 L159.246094,171.867188 L165.5625,171.867188 L166.875,170.390625 L167.121094,170.390625 L167.777344,171.046875 L168.84375,171.867188 L168.84375,172.523438 L161.789062,172.523438 L161.789062,176.707031 L164.742188,176.707031 L165.808594,175.394531 L166.054688,175.394531 L167.53125,176.707031 L167.53125,177.28125 L161.789062,177.28125 L161.789062,181.300781 L165.398438,181.300781 L166.464844,179.988281 L166.710938,179.988281 L168.1875,181.300781 L168.1875,181.875 L161.789062,181.875 L161.789062,186.878906 L160.148438,186.878906 L160.3125,174.738281 L160.3125,172.523438 L158.917969,172.523438 L158.179688,173.671875 L156.867188,175.640625 L155.71875,176.953125 L154.652344,178.019531 L154.40625,178.019531 L154.898438,177.117188 L156.210938,175.148438 L157.03125,173.425781 L158.835938,169.488281 L159.492188,166.863281 Z M153.75,167.109375 L153.996094,167.109375 L156.210938,168.175781 L156.210938,168.421875 L155.554688,168.832031 L155.0625,169.488281 L153.585938,172.523438 L152.929688,173.753906 L154.40625,174.492188 L154.40625,174.738281 L153.914062,175.394531 L153.914062,186.632812 L152.273438,186.632812 L152.4375,177.117188 L152.4375,174.574219 L152.273438,174.984375 L151.125,176.460938 L150.058594,177.773438 L148.992188,178.921875 L148.746094,178.921875 L149.15625,178.265625 L149.8125,177.117188 L150.960938,175.148438 L152.027344,173.015625 L152.683594,171.210938 L153.339844,169.242188 L153.75,167.109375 Z M179.53125,166.863281 L180.679688,167.273438 L181.746094,167.765625 L181.746094,167.929688 L181.253906,168.585938 L181.253906,170.554688 L181.746094,170.554688 L182.8125,169.242188 L183.058594,169.242188 L184.617188,170.554688 L184.617188,171.210938 L181.253906,171.210938 L181.253906,174.738281 L181.746094,174.738281 L181.992188,174.492188 L183.304688,173.015625 L185.027344,171.046875 L186.339844,169.242188 L187.242188,167.929688 L187.40625,167.929688 L189.375,169.488281 L189.375,169.734375 L188.554688,169.898438 L186.75,171.457031 L185.027344,173.425781 L183.714844,174.738281 L188.308594,174.738281 L189.621094,173.179688 L189.867188,173.179688 L190.523438,173.835938 L191.589844,174.738281 L191.589844,175.3125 L183.058594,175.3125 L181.335938,176.953125 L179.777344,178.019531 L179.449219,178.265625 L185.683594,178.265625 L186.585938,177.363281 L186.75,177.363281 L188.308594,178.675781 L187.40625,179.578125 L187.652344,186.632812 L186.09375,187.042969 L185.929688,187.042969 L185.929688,185.484375 L178.628906,185.484375 L178.628906,186.632812 L176.742188,186.632812 L176.90625,180.070312 L176.742188,180.234375 L175.183594,181.054688 L173.625,181.957031 L171.902344,182.613281 L171.492188,182.613281 L172.96875,181.546875 L174.28125,180.890625 L176.25,179.332031 L176.90625,178.757812 L176.90625,177.609375 L177.890625,177.9375 L180.023438,176.296875 L181.089844,175.3125 L172.96875,175.3125 L172.804688,175.394531 L172.558594,175.394531 L171.902344,174.738281 L179.53125,174.738281 L179.53125,171.210938 L174.527344,171.210938 L173.871094,170.554688 L179.53125,170.554688 L179.53125,166.863281 Z M185.929688,181.546875 L185.929688,178.675781 L178.875,178.675781 L178.628906,178.839844 L178.628906,181.546875 L185.929688,181.546875 Z M185.929688,184.910156 L185.929688,182.121094 L178.628906,182.121094 L178.628906,184.910156 L185.929688,184.910156 Z" id="作者" fill="#49505A"></path>
            <path d="M40.7578125,54.640625 L40.96875,54.640625 L42.4453125,55.1679688 L43.8164062,56.0117188 L44.6601562,56.8554688 L44.9765625,57.6992188 L44.9765625,58.015625 L44.6601562,58.5429688 L44.1328125,59.3867188 L43.5,59.703125 L43.2890625,59.703125 L42.65625,59.3867188 L42.4453125,58.015625 L42.1289062,56.5390625 L41.2851562,55.484375 L40.7578125,54.640625 Z M53.0976562,58.2265625 L53.4140625,58.2265625 L54.2578125,59.0703125 L55.6289062,60.2304688 L55.6289062,60.96875 L49.9335938,60.96875 L48.8789062,64.9765625 L48.0351562,67.296875 L46.875,69.5117188 L45.8203125,71.515625 L44.8710938,72.6757812 L45.5039062,73.203125 L47.1914062,74.2578125 L49.7226562,75.4179688 L52.2539062,76.2617188 L54.46875,76.7890625 L56.7890625,77 L56.7890625,77.2109375 L55.1015625,77.7382812 L54.46875,78.3710938 L54.2578125,79.2148438 L53.9414062,79.2148438 L51.09375,78.3710938 L48.8789062,77.2109375 L46.6640625,76.2617188 L44.9765625,75.1015625 L43.6054688,74.1523438 L43.5,74.2578125 L42.4453125,75.1015625 L40.4414062,76.2617188 L37.9101562,77.5273438 L35.3789062,78.5820312 L32.8476562,79.4257812 L30,80.0585938 L30,79.7421875 L31.4765625,79.2148438 L34.0078125,78.3710938 L36.5390625,77 L38.4375,75.9453125 L40.4414062,74.5742188 L42.1289062,73.203125 L42.4453125,72.78125 L41.6015625,71.7265625 L39.28125,67.296875 L38.4375,64.765625 L37.9101562,62.4453125 L37.6992188,60.96875 L32.3203125,60.96875 L32.0039062,61.0742188 L31.6875,61.0742188 L30.84375,60.2304688 L51.4101562,60.2304688 L53.0976562,58.2265625 Z M46.875,64.1328125 L47.71875,60.96875 L38.5429688,60.96875 L39.0703125,63.6054688 L39.9140625,65.609375 L41.6015625,68.984375 L42.65625,70.671875 L43.5,71.515625 L45.8203125,67.5078125 L46.875,64.1328125 Z M38.2265625,90.3242188 L38.4375,90.3242188 L40.7578125,91.6953125 L40.7578125,92.0117188 L39.28125,92.5390625 L38.2265625,94.2265625 L37.4882812,95.0703125 L51.4101562,95.0703125 L52.78125,93.3828125 L53.0976562,93.3828125 L55.1015625,95.0703125 L55.1015625,95.9140625 L45.5039062,95.9140625 L45.5039062,98.234375 L49.40625,98.234375 L50.5664062,96.7578125 L50.8828125,96.7578125 L52.5703125,98.234375 L52.5703125,98.9726562 L45.5039062,98.9726562 L45.5039062,101.609375 L49.40625,101.609375 L50.5664062,100.132812 L50.8828125,100.132812 L52.5703125,101.609375 L52.5703125,102.347656 L45.5039062,102.347656 L45.5039062,104.667969 L51.9375,104.667969 L53.0976562,103.296875 L53.4140625,103.296875 L55.1015625,104.667969 L55.1015625,105.40625 L42.4453125,105.40625 L43.5,106.039062 L44.6601562,106.671875 L44.6601562,106.882812 L44.34375,107.515625 L44.34375,108.359375 L52.78125,108.359375 L54.2578125,106.671875 L54.46875,106.671875 L56.4726562,108.359375 L56.4726562,109.097656 L46.03125,109.097656 L47.1914062,110.257812 L48.5625,111.417969 L50.5664062,112.261719 L52.5703125,112.789062 L54.2578125,113 L56.4726562,113.210938 L56.4726562,113.527344 L55.3125,113.738281 L54.7851562,114.371094 L54.46875,115.214844 L53.9414062,115.214844 L52.78125,114.898438 L51.09375,114.371094 L49.1953125,113.210938 L47.5078125,112.261719 L46.3476562,111.101562 L45.1875,109.414062 L44.9765625,109.097656 L44.34375,109.097656 L44.34375,115.425781 L43.2890625,116.058594 L42.4453125,116.269531 L42.4453125,109.097656 L42.0234375,109.097656 L41.6015625,109.730469 L39.9140625,111.417969 L37.9101562,112.789062 L35.90625,113.738281 L34.0078125,114.582031 L32.0039062,115.214844 L30.3164062,115.425781 L30,115.425781 L31.1601562,114.898438 L33.1640625,114.054688 L35.0625,113 L37.0664062,111.734375 L39.0703125,110.046875 L39.703125,109.097656 L32.3203125,109.097656 L32.0039062,109.203125 L31.6875,109.203125 L30.84375,108.359375 L42.4453125,108.359375 L42.4453125,105.40625 L37.8046875,105.40625 L37.8046875,106.355469 L36.75,106.882812 L35.90625,107.199219 L35.90625,96.8632812 L34.5351562,98.4453125 L32.3203125,100.449219 L30.84375,101.292969 L30.6328125,101.292969 L32.3203125,99.6054688 L34.0078125,97.6015625 L35.3789062,95.703125 L36.75,93.171875 L38.2265625,90.3242188 Z M41.8125,90.640625 L42.1289062,90.640625 L44.6601562,91.1679688 L45.8203125,91.6953125 L46.3476562,92.5390625 L46.3476562,93.3828125 L45.8203125,94.2265625 L45.1875,94.5429688 L44.9765625,94.5429688 L44.34375,93.6992188 L43.2890625,92.0117188 L41.8125,90.640625 Z M43.2890625,98.234375 L43.2890625,95.9140625 L37.8046875,95.9140625 L37.8046875,98.234375 L43.2890625,98.234375 Z M43.2890625,101.609375 L43.2890625,98.9726562 L37.8046875,98.9726562 L37.8046875,101.609375 L43.2890625,101.609375 Z M43.2890625,104.667969 L43.2890625,102.347656 L37.8046875,102.347656 L37.8046875,104.667969 L43.2890625,104.667969 Z M41.6015625,126.640625 L41.8125,126.640625 L44.34375,128.011719 L44.34375,128.328125 L43.2890625,128.855469 L41.8125,130.859375 L50.4609375,130.859375 L50.5664062,130.542969 L51.7265625,129.382812 L51.9375,129.382812 L54.2578125,131.386719 L52.78125,131.914062 L51.7265625,133.390625 L50.0390625,135.289062 L48.3515625,136.976562 L46.3476562,138.664062 L43.8164062,140.667969 L41.7070312,142.039062 L51.4101562,142.039062 L52.5703125,140.667969 L52.78125,140.667969 L54.7851562,142.566406 L54.7851562,142.671875 L53.9414062,143.515625 L54.2578125,150.898438 L51.9375,150.898438 L51.9375,149.738281 L41.8125,149.738281 L41.8125,151.214844 L39.28125,151.214844 L39.5976562,144.886719 L39.5976562,143.199219 L39.0703125,143.515625 L36.2226562,144.886719 L34.0078125,145.730469 L31.4765625,146.574219 L31.1601562,146.574219 L34.21875,144.886719 L37.0664062,143.515625 L39.5976562,141.828125 L39.5976562,140.667969 L39.9140625,140.667969 L40.546875,141.195312 L45.8203125,136.976562 L48.0351562,134.761719 L49.40625,133.074219 L50.1445312,131.597656 L41.1796875,131.597656 L39.9140625,133.496094 L40.4414062,133.601562 L41.6015625,133.917969 L42.9726562,135.078125 L43.8164062,135.605469 L44.1328125,136.449219 L44.1328125,136.976562 L43.8164062,137.820312 L43.2890625,138.136719 L42.65625,138.136719 L42.1289062,136.976562 L41.2851562,135.605469 L40.125,134.234375 L39.703125,133.8125 L38.4375,135.289062 L35.6953125,138.136719 L34.0078125,139.507812 L33.1640625,140.140625 L32.8476562,140.140625 L34.8515625,137.820312 L38.2265625,133.390625 L39.5976562,131.070312 L40.7578125,128.855469 L41.6015625,126.640625 Z M51.9375,149 L51.9375,142.566406 L41.8125,142.566406 L41.8125,149 L51.9375,149 Z M45.8203125,162.851562 L46.3476562,162.851562 L48.5625,164.011719 L48.5625,164.328125 L47.5078125,165.171875 L46.3476562,167.703125 L45.609375,169.074219 L53.0976562,169.074219 L53.9414062,167.914062 L54.2578125,167.914062 L56.4726562,169.917969 L56.4726562,170.234375 L54.46875,170.761719 L52.78125,172.132812 L52.2539062,172.976562 L51.9375,172.976562 L52.5703125,171.605469 L53.4140625,169.8125 L45.2929688,169.8125 L43.8164062,171.921875 L42.4453125,173.820312 L41.6015625,174.664062 L41.2851562,174.664062 L42.1289062,173.292969 L43.5,170.445312 L44.6601562,167.703125 L45.5039062,164.855469 L45.8203125,162.851562 Z M38.7539062,164.855469 L40.7578125,164.011719 L40.96875,164.011719 L42.4453125,165.699219 L42.4453125,166.015625 L39.9140625,166.226562 L38.1210938,166.4375 L38.1210938,171.289062 L39.0703125,171.289062 L40.125,169.917969 L40.4414062,169.917969 L42.1289062,171.289062 L42.1289062,172.132812 L38.1210938,172.132812 L38.1210938,174.980469 L39.28125,175.296875 L40.4414062,175.507812 L41.2851562,176.140625 L41.6015625,176.984375 L41.6015625,177.195312 L41.2851562,177.828125 L40.7578125,178.671875 L40.4414062,178.671875 L39.5976562,176.984375 L38.7539062,176.140625 L38.1210938,175.71875 L38.1210938,187.742188 L35.90625,187.742188 L36.1171875,176.140625 L34.5351562,178.882812 L33.375,180.570312 L32.0039062,182.257812 L30.84375,183.417969 L30.6328125,183.417969 L31.1601562,182.574219 L32.53125,180.042969 L34.0078125,177.511719 L35.0625,174.664062 L35.90625,172.132812 L31.6875,172.132812 L30.84375,171.289062 L36.2226562,171.289062 L36.2226562,166.753906 L35.6953125,166.859375 L32.3203125,167.386719 L30.84375,167.386719 L30.84375,167.070312 L34.0078125,166.226562 L36.5390625,165.382812 L38.7539062,164.855469 Z M47.71875,170.761719 L48.8789062,171.289062 L50.25,171.921875 L50.25,172.132812 L49.6171875,172.976562 L49.6171875,178.671875 L49.7226562,186.371094 L48.5625,187.425781 L47.71875,188.058594 L46.875,188.269531 L46.6640625,188.269531 L46.3476562,187.425781 L45.8203125,186.582031 L44.9765625,186.054688 L43.8164062,185.738281 L43.8164062,185.527344 L45.5039062,185.738281 L46.3476562,185.738281 L47.1914062,185.527344 L47.5078125,185.210938 L47.71875,186.371094 L47.71875,170.761719 Z M44.1328125,174.664062 L44.34375,174.664062 L46.6640625,176.351562 L46.6640625,176.667969 L45.8203125,176.984375 L44.34375,179.726562 L42.65625,182.574219 L40.96875,184.578125 L39.5976562,185.738281 L39.28125,185.738281 L39.9140625,185 L41.2851562,182.890625 L42.4453125,180.570312 L43.2890625,178.671875 L43.8164062,176.667969 L44.1328125,174.664062 Z M50.8828125,175.824219 L51.09375,175.824219 L52.2539062,176.667969 L53.9414062,178.671875 L55.1015625,180.042969 L55.9453125,181.414062 L56.4726562,182.574219 L56.4726562,183.101562 L56.15625,183.945312 L55.3125,184.578125 L54.7851562,184.578125 L54.2578125,183.101562 L53.625,181.203125 L52.78125,179.199219 L51.7265625,177.195312 L50.8828125,175.824219 Z" id="文-集-名-称" fill="#49505A"></path>
            <rect id="separator" fill="#49505A" x="31" y="27" width="24" height="6"></rect>
        </g>
    </g>
</svg>