<?xml version="1.0" encoding="UTF-8"?>
<svg width="168px" height="168px" viewBox="0 0 168 168" version="1.1" xmlns="http://www.w3.org/2000/svg" xmlns:xlink="http://www.w3.org/1999/xlink">
    <!-- Generator: Sketch 39.1 (31720) - http://www.bohemiancoding.com/sketch -->
    <title>icon_more_operation_progress</title>
    <desc>Created with Sketch.</desc>
    <defs></defs>
    <g id="Symbols" stroke="none" stroke-width="1" fill="none" fill-rule="evenodd">
        <g id="icon_more_operation_progress">
            <rect id="icon" x="0" y="0" width="168" height="168"></rect>
            <path d="M4,36.0015487 L4,36.0015487 L4,131.998451 C4,149.678727 18.3239929,164 36.0015487,164 L131.998451,164 C149.678727,164 164,149.676007 164,131.998451 L164,36.0015487 C164,18.3212732 149.676007,4 131.998451,4 L36.0015487,4 C18.3212732,4 4,18.3239929 4,36.0015487 L4,36.0015487 Z M0,36.0015487 C0,16.1184424 16.1085463,0 36.0015487,0 L131.998451,0 C151.881558,0 168,16.1085463 168,36.0015487 L168,131.998451 C168,151.881558 151.891454,168 131.998451,168 L36.0015487,168 C16.1184424,168 0,151.891454 0,131.998451 L0,36.0015487 L0,36.0015487 Z" id="background" fill="#C1C8D2"></path>
            <path d="M92,105.5 C92,98.0441559 98.0441559,92 105.5,92 C112.955844,92 119,98.0441559 119,105.5 C119,112.955844 112.955844,119 105.5,119 C98.0441559,119 92,112.955844 92,105.5 Z M114.5,105.5 C114.5,100.529437 110.470563,96.5 105.5,96.5 C100.529437,96.5 96.5,100.529437 96.5,105.5 C96.5,110.470563 100.529437,114.5 105.5,114.5 C110.470563,114.5 114.5,110.470563 114.5,105.5 Z" id="Oval-3" fill="#858C96"></path>
            <path d="M114.59099,57.5909903 C115.46967,56.7123106 115.46967,55.2876894 114.59099,54.4090097 C113.712311,53.5303301 112.287689,53.5303301 111.40901,54.4090097 L54.4090097,111.40901 C53.5303301,112.287689 53.5303301,113.712311 54.4090097,114.59099 C55.2876894,115.46967 56.7123106,115.46967 57.5909903,114.59099 L114.59099,57.5909903 Z" id="Line" fill="#858C96"></path>
            <path d="M50,63.5 C50,56.0441559 56.0441559,50 63.5,50 C70.9558441,50 77,56.0441559 77,63.5 C77,70.9558441 70.9558441,77 63.5,77 C56.0441559,77 50,70.9558441 50,63.5 Z M72.5,63.5 C72.5,58.5294373 68.4705627,54.5 63.5,54.5 C58.5294373,54.5 54.5,58.5294373 54.5,63.5 C54.5,68.4705627 58.5294373,72.5 63.5,72.5 C68.4705627,72.5 72.5,68.4705627 72.5,63.5 Z" id="Oval-3" fill="#858C96"></path>
        </g>
    </g>
</svg>