<?xml version="1.0" encoding="UTF-8" standalone="no"?>
<svg width="192px" height="144px" viewBox="0 0 192 144" version="1.1" xmlns="http://www.w3.org/2000/svg" xmlns:xlink="http://www.w3.org/1999/xlink">
    <!-- Generator: Sketch 3.8.3 (29802) - http://www.bohemiancoding.com/sketch -->
    <title>icon_sharelayout_b</title>
    <desc>Created with Sketch.</desc>
    <defs></defs>
    <g id="Symbols" stroke="none" stroke-width="1" fill="none" fill-rule="evenodd">
        <g id="icon_sharelayout_b-">
            <rect id="icon" x="0" y="0" width="192" height="144"></rect>
            <g id="Group" transform="translate(18.000000, 27.000000)">
                <path d="M87,72 L150,72 L150,75 L87,75 L87,72 Z M87,54 L150,54 L150,57 L87,57 L87,54 Z M87,36 L150,36 L150,39 L87,39 L87,36 Z M87,18 L150,18 L150,21 L87,21 L87,18 Z M87,0 L150,0 L150,3 L87,3 L87,0 Z M87,90 L150,90 L150,93 L87,93 L87,90 Z" id="content" fill="#5D646E"></path>
                <path d="M41.3868005,18.9772727 C35.1218589,22.3591944 31.5268606,27.7462048 31.5268606,34.7032084 C31.5268606,40.5129592 33.9677907,43.3271089 38.0070294,43.3271089 C39.4083979,43.3271089 40.5624661,42.8198207 41.5516674,41.9743403 C42.4584352,41.0443118 42.9530359,39.7760912 42.9530359,38.2542264 C42.9530359,36.7323616 42.4584352,35.548689 41.5516674,34.7032086 C40.5624661,33.7731802 39.4083979,33.3504399 37.9245959,33.3504399 C37.3475618,33.3504399 36.9353946,33.3504399 36.6056608,33.519536 C36.9353946,29.0384898 39.243531,25.402924 43.53007,22.6128386 L41.3868005,18.9772727 Z M26.814979,18.9772727 C20.5500374,22.3591944 17.5,27.7702691 17.5,35.1259488 C17.5,40.5370235 19.4784026,43.3271089 23.4352078,43.3271089 C24.8365763,43.3271089 26.073078,42.8198207 27.0622793,41.9743403 C27.9690471,41.0443118 28.4636478,39.7760912 28.4636478,38.2542264 C28.4636478,36.7323616 27.9690471,35.548689 27.0622793,34.7032086 C26.073078,33.7731802 24.8365763,33.3504399 23.4352078,33.3504399 C22.8581737,33.3504399 22.4460065,33.3504399 22.1162728,33.519536 C22.3635731,29.0384898 24.6717095,25.402924 29.0406819,22.6128386 L26.814979,18.9772727 Z" id="“" fill="#99A0AA"></path>
                <path d="M31.5,63 C14.1030304,63 0,48.8969696 0,31.5 C0,14.1030304 14.1030304,0 31.5,0 C48.8969696,0 63,14.1030304 63,31.5 C63,48.8969696 48.8969696,63 31.5,63 Z M31.5,62 C48.3446849,62 62,48.3446849 62,31.5 C62,14.6553151 48.3446849,1 31.5,1 C14.6553151,1 1,14.6553151 1,31.5 C1,48.3446849 14.6553151,62 31.5,62 Z" id="Oval-15" fill="#99A0AB"></path>
            </g>
        </g>
    </g>
</svg>