<?xml version="1.0" encoding="UTF-8" standalone="no"?>
<svg width="48px" height="48px" viewBox="0 0 48 48" version="1.1" xmlns="http://www.w3.org/2000/svg" xmlns:xlink="http://www.w3.org/1999/xlink">
    <!-- Generator: Sketch 3.8.3 (29802) - http://www.bohemiancoding.com/sketch -->
    <title>icon_search_suggest_category</title>
    <desc>Created with Sketch.</desc>
    <defs></defs>
    <g id="Symbols" stroke="none" stroke-width="1" fill="none" fill-rule="evenodd">
        <g id="icon_search_suggest_category">
            <rect id="icon" x="0" y="0" width="48" height="48"></rect>
            <path d="M6,9.00012623 C6,7.34320226 7.33396149,6 9.00012623,6 L19.9998738,6 C21.6567977,6 23,7.33396149 23,9.00012623 L23,19.9998738 C23,21.6567977 21.6660385,23 19.9998738,23 L9.00012623,23 C7.34320226,23 6,21.6660385 6,19.9998738 L6,9.00012623 Z M9,9.00012623 L9,19.9998738 C9,20.0045607 8.99542955,20 9.00012623,20 L19.9998738,20 C20.0045607,20 20,20.0045705 20,19.9998738 L20,9.00012623 C20,8.99543927 20.0045705,9 19.9998738,9 L9.00012623,9 C8.99543927,9 9,8.99542955 9,9.00012623 Z" id="Rectangle-311" fill="#99A0AA"></path>
            <path d="M26,9.00012623 C26,7.34320226 27.3339615,6 29.0001262,6 L39.9998738,6 C41.6567977,6 43,7.33396149 43,9.00012623 L43,19.9998738 C43,21.6567977 41.6660385,23 39.9998738,23 L29.0001262,23 C27.3432023,23 26,21.6660385 26,19.9998738 L26,9.00012623 Z M29,9.00012623 L29,19.9998738 C29,20.0045607 28.9954295,20 29.0001262,20 L39.9998738,20 C40.0045607,20 40,20.0045705 40,19.9998738 L40,9.00012623 C40,8.99543927 40.0045705,9 39.9998738,9 L29.0001262,9 C28.9954393,9 29,8.99542955 29,9.00012623 Z" id="Rectangle-312" fill="#99A0AA"></path>
            <path d="M6,29.0001262 C6,27.3432023 7.33396149,26 9.00012623,26 L19.9998738,26 C21.6567977,26 23,27.3339615 23,29.0001262 L23,39.9998738 C23,41.6567977 21.6660385,43 19.9998738,43 L9.00012623,43 C7.34320226,43 6,41.6660385 6,39.9998738 L6,29.0001262 Z M9,29.0001262 L9,39.9998738 C9,40.0045607 8.99542955,40 9.00012623,40 L19.9998738,40 C20.0045607,40 20,40.0045705 20,39.9998738 L20,29.0001262 C20,28.9954393 20.0045705,29 19.9998738,29 L9.00012623,29 C8.99543927,29 9,28.9954295 9,29.0001262 Z" id="Rectangle-313" fill="#99A0AA"></path>
            <path d="M26,29.0001262 C26,27.3432023 27.3339615,26 29.0001262,26 L39.9998738,26 C41.6567977,26 43,27.3339615 43,29.0001262 L43,39.9998738 C43,41.6567977 41.6660385,43 39.9998738,43 L29.0001262,43 C27.3432023,43 26,41.6660385 26,39.9998738 L26,29.0001262 Z M29,29.0001262 L29,39.9998738 C29,40.0045607 28.9954295,40 29.0001262,40 L39.9998738,40 C40.0045607,40 40,40.0045705 40,39.9998738 L40,29.0001262 C40,28.9954393 40.0045705,29 39.9998738,29 L29.0001262,29 C28.9954393,29 29,28.9954295 29,29.0001262 Z" id="Rectangle-314" fill="#99A0AA"></path>
        </g>
    </g>
</svg>