<?xml version="1.0" encoding="UTF-8"?>
<svg width="168px" height="168px" viewBox="0 0 168 168" version="1.1" xmlns="http://www.w3.org/2000/svg" xmlns:xlink="http://www.w3.org/1999/xlink">
    <!-- Generator: Sketch 39.1 (31720) - http://www.bohemiancoding.com/sketch -->
    <title>icon_more_operation_booklist</title>
    <desc>Created with Sketch.</desc>
    <defs></defs>
    <g id="Symbols" stroke="none" stroke-width="1" fill="none" fill-rule="evenodd">
        <g id="icon_more_operation_booklist">
            <rect id="icon" x="0" y="0" width="168" height="168"></rect>
            <path d="M4,36.0015487 L4,36.0015487 L4,131.998451 C4,149.678727 18.3239929,164 36.0015487,164 L131.998451,164 C149.678727,164 164,149.676007 164,131.998451 L164,36.0015487 C164,18.3212732 149.676007,4 131.998451,4 L36.0015487,4 C18.3212732,4 4,18.3239929 4,36.0015487 L4,36.0015487 Z M0,36.0015487 C0,16.1184424 16.1085463,0 36.0015487,0 L131.998451,0 C151.881558,0 168,16.1085463 168,36.0015487 L168,131.998451 C168,151.881558 151.891454,168 131.998451,168 L36.0015487,168 C16.1184424,168 0,151.891454 0,131.998451 L0,36.0015487 L0,36.0015487 Z" id="background" fill="#C1C8D2"></path>
            <path d="M56.0025927,45 L112.997407,45 C116.312548,45 119,47.6849366 119,50.991014 L119,117.008986 C119,120.317732 116.316295,123 112.997407,123 L56.0025927,123 C52.6874523,123 50,120.315063 50,117.008986 L50,50.991014 C50,47.6822683 52.6837047,45 56.0025927,45 Z M54,117.008986 C54,118.105391 54.8960621,119 56.0025927,119 L112.997407,119 C114.107204,119 115,118.108541 115,117.008986 L115,50.991014 C115,49.8946088 114.103938,49 112.997407,49 L56.0025927,49 C54.8927964,49 54,49.8914587 54,50.991014 L54,117.008986 Z" id="Rectangle" fill="#858C96"></path>
            <path d="M74,95 L104,95 L104,99 L74,99 L74,95 Z M65,95 L69,95 L69,99 L65,99 L65,95 Z" id="Combined-Shape" fill="#858C96"></path>
            <path d="M74,81 L104,81 L104,85 L74,85 L74,81 Z M65,81 L69,81 L69,85 L65,85 L65,81 Z" id="Combined-Shape" fill="#858C96"></path>
            <path d="M74,67 L104,67 L104,71 L74,71 L74,67 Z M65,67 L69,67 L69,71 L65,71 L65,67 Z" id="Combined-Shape" fill="#858C96"></path>
        </g>
    </g>
</svg>