<?xml version="1.0" encoding="UTF-8"?>
<svg width="48px" height="48px" viewBox="0 0 48 48" version="1.1" xmlns="http://www.w3.org/2000/svg" xmlns:xlink="http://www.w3.org/1999/xlink">
    <!-- Generator: Sketch 40.2 (33826) - http://www.bohemiancoding.com/sketch -->
    <title>icon_addBook_small</title>
    <desc>Created with Sketch.</desc>
    <defs></defs>
    <g id="Symbols" stroke="none" stroke-width="1" fill="none" fill-rule="evenodd">
        <g id="icon_addBook_small">
            <rect id="icon" x="0" y="0" width="48" height="48"></rect>
            <path d="M22,22 L2.49723053,22 C1.67104779,22 1,22.6715729 1,23.5 C1,24.3342028 1.67033294,25 2.49723053,25 L22,25 L22,44.5027695 C22,45.3289522 22.6715729,46 23.5,46 C24.3342028,46 25,45.3296671 25,44.5027695 L25,25 L44.5027695,25 C45.3289522,25 46,24.3284271 46,23.5 C46,22.6657972 45.3296671,22 44.5027695,22 L25,22 L25,2.49723053 C25,1.67104779 24.3284271,1 23.5,1 C22.6657972,1 22,1.67033294 22,2.49723053 L22,22 Z" id="add" fill="#C1C8D2"></path>
        </g>
    </g>
</svg>