<?xml version="1.0" encoding="UTF-8"?>
<svg width="42px" height="42px" viewBox="0 0 42 42" version="1.1" xmlns="http://www.w3.org/2000/svg" xmlns:xlink="http://www.w3.org/1999/xlink">
    <!-- Generator: Sketch 42 (36781) - http://www.bohemiancoding.com/sketch -->
    <title>icon_article_comment_small</title>
    <desc>Created with Sketch.</desc>
    <defs></defs>
    <g id="Symbols" stroke="none" stroke-width="1" fill="none" fill-rule="evenodd">
        <g id="icon_article_comment_small">
            <g>
                <rect id="icon" x="0" y="0" width="42" height="42"></rect>
                <path d="M8,8 L34,8 C35.0701061,8 37,9.88529252 37,11 L37,27 C37,30.0066266 35.0701061,31.8919191 34,32 L23,32 L15.4590828,37.278642 C14.1083829,38.2241319 13,37.6527109 13,35.9907455 L13,32 L8,32 C6.92989388,31.8919191 5,30.0066266 5,27 L5,11 C5,9.88529252 6.92989388,8 8,8 Z M8.21036922,11.2129226 C8.12933392,11.2932247 8.05736288,11.3742832 8,11.4469539 L8,27 C8,27.747128 8.20788826,28.3795207 8.5379272,28.8404666 C8.58086095,28.9004296 8.62348793,28.953868 8.66394094,29 L16,29 L16,33.2380333 L22.0543333,29 L33.3360591,29 C33.3765121,28.953868 33.4191391,28.9004296 33.4620728,28.8404666 C33.7921117,28.3795207 34,27.747128 34,27 L34,11.4469539 C33.9426371,11.3742832 33.8706661,11.2932247 33.7896308,11.2129226 C33.7070667,11.1311055 33.6232497,11.0581586 33.547947,11 L8.45205301,11 C8.37675031,11.0581586 8.29293326,11.1311055 8.21036922,11.2129226 Z" id="shape" fill="#858C96" fill-rule="nonzero"></path>
            </g>
        </g>
    </g>
</svg>