<?xml version="1.0" encoding="UTF-8" standalone="no"?>
<svg width="156px" height="75px" viewBox="0 0 156 75" version="1.1" xmlns="http://www.w3.org/2000/svg" xmlns:xlink="http://www.w3.org/1999/xlink" xmlns:sketch="http://www.bohemiancoding.com/sketch/ns">
    <!-- Generator: Sketch 3.4.4 (17249) - http://www.bohemiancoding.com/sketch -->
    <title>icon_bookshelf_top_presale</title>
    <desc>Created with Sketch.</desc>
    <defs></defs>
    <g id="slice" stroke="none" stroke-width="1" fill="none" fill-rule="evenodd" sketch:type="MSPage">
        <g id="other" sketch:type="MSArtboardGroup" transform="translate(-1748.000000, -60.000000)">
            <g id="icon_bookshelf_top_presale" sketch:type="MSLayerGroup" transform="translate(1748.000000, 60.000000)">
                <path d="M141,60 L156,60 L156,75 L141,60 Z" id="corner" fill="#C21313" sketch:type="MSShapeGroup" transform="translate(148.500000, 67.500000) scale(-1, 1) translate(-148.500000, -67.500000) "></path>
                <path d="M0,0 L111,0 L156,60 L0,60 L0,0 Z" id="expandBottom" fill-opacity="0.85" fill="#FA3A3A" sketch:type="MSShapeGroup" transform="translate(78.000000, 30.000000) scale(-1, 1) translate(-78.000000, -30.000000) "></path>
                <path d="M0,0 L156,0 L111,60 L0,60 L0,0 Z" id="expandTop" fill-opacity="0.85" fill="#FA3A3A" sketch:type="MSShapeGroup" transform="translate(78.000000, 30.000000) scale(-1, 1) translate(-78.000000, -30.000000) "></path>
                <path d="M59.394,26.256 L59.097,26.337 L57.288,26.337 L57.801,25.662 C57.207,25.149 56.316,24.555 55.371,23.88 C56.937,22.449 58.665,20.37 59.799,18.453 L58.584,17.616 L58.233,17.724 L49.701,17.724 L49.701,19.506 L56.937,19.506 C56.1,20.721 54.993,22.017 53.967,22.962 C53.13,22.368 52.293,21.828 51.564,21.369 L50.457,22.638 C52.104,23.718 54.183,25.203 55.668,26.337 L49.107,26.337 L49.107,28.146 L53.535,28.146 L53.535,38.676 C53.535,39 53.427,39.108 53.022,39.108 C52.671,39.135 51.429,39.135 50.052,39.108 C50.322,39.648 50.592,40.458 50.673,41.025 C52.536,41.025 53.724,40.998 54.507,40.647 C55.263,40.35 55.479,39.783 55.479,38.703 L55.479,28.146 L58.341,28.146 C57.855,29.604 57.315,31.089 56.856,32.088 L58.368,32.466 C59.097,31.035 59.907,28.686 60.636,26.607 L59.394,26.256 Z M67.953,25.689 L66.063,25.689 L66.063,31.035 C66.063,33.762 65.415,37.38 59.097,39.486 C59.556,39.864 60.069,40.512 60.339,40.944 C67.089,38.46 67.953,34.437 67.953,31.062 L67.953,25.689 Z M67.521,36.57 C69.222,37.92 71.409,39.837 72.435,41.025 L73.812,39.648 C72.732,38.487 70.518,36.624 68.844,35.355 L67.521,36.57 Z M60.528,17.616 L60.528,19.398 L66.225,19.398 C66.036,20.289 65.793,21.288 65.55,22.125 L61.5,22.125 L61.5,34.842 L63.363,34.842 L63.363,23.961 L70.788,23.961 L70.788,34.815 L72.732,34.815 L72.732,22.125 L67.467,22.125 C67.791,21.315 68.115,20.343 68.439,19.398 L73.812,19.398 L73.812,17.616 L60.528,17.616 Z M95.655,34.626 L95.655,38.163 L81.75,38.163 L81.75,34.626 L95.655,34.626 Z M79.752,41.133 L81.75,41.133 L81.75,39.837 L95.655,39.837 L95.655,41.133 L97.68,41.133 L97.68,32.979 L79.752,32.979 L79.752,41.133 Z M81.75,27.444 L88.662,27.444 L88.662,29.442 L81.75,29.442 L81.75,27.444 Z M88.662,22.746 L81.75,22.746 L81.75,20.91 L88.662,20.91 L88.662,22.746 Z M88.662,26.013 L81.75,26.013 L81.75,24.177 L88.662,24.177 L88.662,26.013 Z M90.606,29.442 L90.606,27.444 L97.437,27.444 L97.437,26.013 L90.606,26.013 L90.606,24.177 L97.356,24.177 L97.356,22.746 L90.606,22.746 L90.606,20.91 L98.652,20.91 L98.652,19.398 L91.011,19.398 C90.633,18.48 89.985,17.319 89.418,16.401 L87.582,16.914 C88.014,17.67 88.473,18.588 88.824,19.398 L82.425,19.398 C82.857,18.588 83.316,17.751 83.694,16.941 L81.804,16.347 C80.481,19.398 78.267,22.368 75.945,24.285 C76.377,24.636 77.079,25.419 77.376,25.77 C78.186,25.041 78.996,24.177 79.779,23.205 L79.779,32.088 L81.75,32.088 L81.75,31.008 L99.273,31.008 L99.273,29.442 L90.606,29.442 Z M116.472,30.333 L116.472,23.178 L124.221,23.178 L124.221,30.333 L116.472,30.333 Z M106.671,30.333 L106.671,23.178 L114.393,23.178 L114.393,30.333 L106.671,30.333 Z M116.472,21.207 L116.472,16.401 L114.393,16.401 L114.393,21.207 L104.7,21.207 L104.7,33.978 L106.671,33.978 L106.671,32.304 L114.393,32.304 L114.393,41.052 L116.472,41.052 L116.472,32.304 L124.221,32.304 L124.221,33.843 L126.273,33.843 L126.273,21.207 L116.472,21.207 Z" id="预售中" fill="#FFFFFF" sketch:type="MSShapeGroup"></path>
            </g>
        </g>
    </g>
</svg>