<?xml version="1.0" encoding="UTF-8" standalone="no"?>
<svg width="48px" height="48px" viewBox="0 0 48 48" version="1.1" xmlns="http://www.w3.org/2000/svg" xmlns:xlink="http://www.w3.org/1999/xlink">
    <!-- Generator: Sketch 3.8.3 (29802) - http://www.bohemiancoding.com/sketch -->
    <title>icon_bookdetail_price</title>
    <desc>Created with Sketch.</desc>
    <defs></defs>
    <g id="Symbols" stroke="none" stroke-width="1" fill="none" fill-rule="evenodd">
        <g id="icon_bookdetail_price">
            <rect id="icon" x="0" y="0" width="48" height="48"></rect>
            <ellipse id="Oval-294" fill="#99A0AA" cx="36.25" cy="41.22" rx="2.25" ry="2.28"></ellipse>
            <ellipse id="Oval-294" fill="#99A0AA" cx="15.25" cy="41.22" rx="2.25" ry="2.28"></ellipse>
            <path d="M3.51997766,6.92111877 L8.01997766,8.44111877 L7.00893669,7.18349378 L9.68217323,31.563411 C9.94617197,33.9710795 12.072461,35.88 14.4961329,35.88 L40,35.88 C40.8284271,35.88 41.5,35.2084271 41.5,34.38 C41.5,33.5515729 40.8284271,32.88 40,32.88 L14.4961329,32.88 C13.603787,32.88 12.7616131,32.1239207 12.6642998,31.2364234 L9.99106331,6.85650622 L9.88674827,5.9051531 L8.98002234,5.59888123 L4.48002234,4.07888123 C3.69516012,3.81377221 2.84399025,4.23511544 2.57888123,5.01997766 C2.31377221,5.80483988 2.73511544,6.65600975 3.51997766,6.92111877 L3.51997766,6.92111877 Z" id="Line" fill="#99A0AA"></path>
            <path d="M10,13.08 L39.9986425,13.08 C40.7701963,13.08 41.2883157,13.6512335 41.212689,14.4175841 L40.301813,23.6477944 C40.2088928,24.5893857 39.3071824,25.4945239 38.3625817,25.5902434 L11.3487744,28.3276425 L9.85641697,28.4788681 L10.1588681,31.463583 L11.6512256,31.3123575 L38.6650329,28.5749583 C41.0309247,28.3352146 43.0542393,26.3042086 43.287311,23.9424159 L44.198187,14.7122056 C44.4480286,12.180477 42.5428567,10.08 39.9986425,10.08 L10,10.08 L8.5,10.08 L8.5,13.08 L10,13.08 L10,13.08 Z" id="Line" fill="#99A0AA"></path>
        </g>
    </g>
</svg>