<?xml version="1.0" encoding="UTF-8"?>
<svg width="72px" height="72px" viewBox="0 0 72 72" version="1.1" xmlns="http://www.w3.org/2000/svg" xmlns:xlink="http://www.w3.org/1999/xlink">
    <!-- Generator: Sketch 40.2 (33826) - http://www.bohemiancoding.com/sketch -->
    <title>icon_topbar_collect</title>
    <desc>Created with Sketch.</desc>
    <defs></defs>
    <g id="Symbols" stroke="none" stroke-width="1" fill="none" fill-rule="evenodd">
        <g id="icon_topbar_collect">
            <g>
                <rect id="icon" x="0" y="0" width="72" height="72"></rect>
                <g id="Group-2" transform="translate(9.000000, 6.000000)" fill="#1B88EE">
                    <path d="M26.9998,0 C26.0498,0 25.0988,0.2 24.3748,0.601 L2.6258,12.625 C1.1778,13.426 -0.000199999999,15.421 -0.000199999999,17.078 L-0.000199999999,43.916 C-0.000199999999,45.569 1.1758,47.567 2.6258,48.369 L24.3748,60.393 C25.0988,60.794 26.0498,60.994 26.9998,60.994 C27.9508,60.994 28.9008,60.794 29.6258,60.393 L51.3748,48.369 C52.8228,47.569 53.9998,45.574 53.9998,43.916 L53.9998,17.078 C53.9998,15.425 52.8248,13.427 51.3748,12.625 L29.6258,0.601 C28.9018,0.2 27.9508,0 26.9998,0 M26.9998,4 L26.9998,4 C27.3878,4 27.6428,4.079 27.6908,4.102 L49.4178,16.113 C49.6478,16.27 49.9748,16.825 49.9998,17.078 L50.0008,43.892 C49.9748,44.169 49.6478,44.724 49.4388,44.869 L27.7008,56.887 C27.6428,56.915 27.3878,56.994 26.9998,56.994 C26.6118,56.994 26.3578,56.915 26.3098,56.893 L4.5828,44.881 C4.3528,44.724 4.0258,44.169 3.9998,43.916 L3.9988,17.102 C4.0248,16.825 4.3518,16.27 4.5608,16.126 L26.2988,4.107 C26.3578,4.079 26.6118,4 26.9998,4" id="Fill-1"></path>
                    <polygon id="Line" points="26 58 26 60 30 60 30 58 30 32 30 30 26 30 26 32"></polygon>
                    <polygon id="Line" points="25.5374824 32.7531571 26.5 33.2815982 27.4625176 32.7531571 52.9625176 18.7531571 51.0374824 15.2468429 25.5374824 29.2468429 27.4625176 29.2468429 1.96251762 15.2468429 0.0374823756 18.7531571"></polygon>
                </g>
            </g>
        </g>
    </g>
</svg>