<?xml version="1.0" encoding="UTF-8" standalone="no"?>
<svg width="72px" height="72px" viewBox="0 0 72 72" version="1.1" xmlns="http://www.w3.org/2000/svg" xmlns:xlink="http://www.w3.org/1999/xlink" xmlns:sketch="http://www.bohemiancoding.com/sketch/ns">
    <!-- Generator: Sketch 3.5.1 (25234) - http://www.bohemiancoding.com/sketch -->
    <title>icon_reader_selection_menu_copy</title>
    <desc>Created with Sketch.</desc>
    <defs></defs>
    <g id="slice" stroke="none" stroke-width="1" fill="none" fill-rule="evenodd" sketch:type="MSPage">
        <g id="icon_reading" sketch:type="MSArtboardGroup" transform="translate(-566.000000, -192.000000)" fill="#FFFFFF">
            <g id="icon_reader_selection_menu_copy" sketch:type="MSLayerGroup" transform="translate(566.000000, 192.000000)">
                <path d="M15,22 L45,22 L45,58 L15,58 L15,22 Z M45,19 L15,19 C13.3425,19 12,20.3425 12,22 L12,58 C12,59.6575 13.3425,61 15,61 L45,61 C46.6575,61 48,59.6575 48,58 L48,22 C48,20.3425 46.6575,19 45,19 Z M54,10 L24,10 C22.3425,10 21,11.3425 21,13 L21,16 L24,16 L24,13 L54,13 L54,49 L51,49 L51,52 L54,52 C55.6575,52 57,50.6575 57,49 L57,13 C57,11.3425 55.6575,10 54,10 Z M21,42 L33,42 L33,45 L21,45 L21,42 Z M21,34 L39,34 L39,37 L21,37 L21,34 Z" id="Fill-3" sketch:type="MSShapeGroup"></path>
            </g>
        </g>
    </g>
</svg>