<?xml version="1.0" encoding="UTF-8" standalone="no"?>
<svg width="72px" height="72px" viewBox="0 0 72 72" version="1.1" xmlns="http://www.w3.org/2000/svg" xmlns:xlink="http://www.w3.org/1999/xlink" xmlns:sketch="http://www.bohemiancoding.com/sketch/ns">
    <!-- Generator: Sketch 3.4 (15575) - http://www.bohemiancoding.com/sketch -->
    <title>icon_home_tab_personal_selected</title>
    <desc>Created with Sketch.</desc>
    <defs></defs>
    <g id="slice" stroke="none" stroke-width="1" fill="none" fill-rule="evenodd" sketch:type="MSPage">
        <g id="icon_bar" sketch:type="MSArtboardGroup" transform="translate(-1908.000000, -60.000000)" fill="#1B88EE">
            <g id="icon_home_tab_personal_selected" sketch:type="MSLayerGroup" transform="translate(1908.000000, 60.000000)">
                <path d="M37,3 C46.363,3 53.75,11.731 53.75,22.5 C53.75,28.573 51.397,34.607 47.713,38.938 C46.778,40.038 46.25,41.421 46.25,42.864 C46.25,45.101 47.486,47.155 49.464,48.201 L69.48,58.732 C70.954,59.512 72,61.042 72,62.709 L72,65.25 C72,67.321 70.071,69.5 68,70 L37,70 L37,3 Z M37,3 C27.637,3 20.25,11.731 20.25,22.5 C20.25,28.573 22.603,34.607 26.287,38.938 C27.222,40.038 27.75,41.421 27.75,42.864 C27.75,45.101 26.514,47.155 24.536,48.201 L4.52,58.732 C3.046,59.512 2,61.042 2,62.709 L2,65.25 C2,67.321 3.929,69.5 6,70 L37,70 L37,3 Z" id="Imported-Layers" sketch:type="MSShapeGroup"></path>
            </g>
        </g>
    </g>
</svg>