<?xml version="1.0" encoding="UTF-8" standalone="no"?>
<svg width="72px" height="72px" viewBox="0 0 72 72" version="1.1" xmlns="http://www.w3.org/2000/svg" xmlns:xlink="http://www.w3.org/1999/xlink" xmlns:sketch="http://www.bohemiancoding.com/sketch/ns">
    <!-- Generator: Sketch 3.4.2 (15855) - http://www.bohemiancoding.com/sketch -->
    <title>icon_topbar_search</title>
    <desc>Created with Sketch.</desc>
    <defs></defs>
    <g id="slice" stroke="none" stroke-width="1" fill="none" fill-rule="evenodd" sketch:type="MSPage">
        <g id="icon_bar" sketch:type="MSArtboardGroup" transform="translate(-852.000000, -60.000000)" fill="#1B88EE">
            <g id="icon_topbar_search" sketch:type="MSLayerGroup" transform="translate(852.000000, 60.000000)">
                <path d="M46.4204667,43.0920396 L63.4601551,60.131728 L60.631728,62.9601551 L43.6396003,45.9680274 C39.9701393,49.1053941 35.2063241,51 30,51 C18.4020203,51 9,41.5979797 9,30 C9,18.4020203 18.4020203,9 30,9 C41.5979797,9 51,18.4020203 51,30 C51,34.9510561 49.286626,39.5019322 46.4204667,43.0920396 Z M30,47 C39.3888407,47 47,39.3888407 47,30 C47,20.6111593 39.3888407,13 30,13 C20.6111593,13 13,20.6111593 13,30 C13,39.3888407 20.6111593,47 30,47 Z" id="Rectangle-316" sketch:type="MSShapeGroup"></path>
            </g>
        </g>
    </g>
</svg>