<?xml version="1.0" encoding="UTF-8" standalone="no"?>
<svg width="72px" height="72px" viewBox="0 0 72 72" version="1.1" xmlns="http://www.w3.org/2000/svg" xmlns:xlink="http://www.w3.org/1999/xlink">
    <!-- Generator: Sketch 3.8.3 (29802) - http://www.bohemiancoding.com/sketch -->
    <title>icon_write_review_book_select</title>
    <desc>Created with Sketch.</desc>
    <defs></defs>
    <g id="Symbols" stroke="none" stroke-width="1" fill="none" fill-rule="evenodd">
        <g id="icon_write_review_book_select">
            <rect id="icon" x="0" y="0" width="72" height="72"></rect>
            <path d="M34,14.9982596 C34,11.6855123 36.6887015,9 39.998845,9 L58.001155,9 C61.3142256,9 64,11.6778684 64,14.9982596 L64,57.0017404 C64,60.3144877 61.3112985,63 58.001155,63 L39.998845,63 C36.6857744,63 34,60.3221316 34,57.0017404 L34,14.9982596 Z M38,14.9982596 L38,57.0017404 C38,58.1094762 38.8913953,59 39.998845,59 L58.001155,59 C59.1035595,59 60,58.103949 60,57.0017404 L60,14.9982596 C60,13.8905238 59.1086047,13 58.001155,13 L39.998845,13 C38.8964405,13 38,13.896051 38,14.9982596 Z" id="Rectangle-334" fill="#858C96"></path>
            <path d="M8,14.9982596 C8,11.6855123 10.6887015,9 13.998845,9 L32.001155,9 C35.3142256,9 38,11.6778684 38,14.9982596 L38,57.0017404 C38,60.3144877 35.3112985,63 32.001155,63 L13.998845,63 C10.6857744,63 8,60.3221316 8,57.0017404 L8,14.9982596 Z M12,14.9982596 L12,57.0017404 C12,58.1094762 12.8913953,59 13.998845,59 L32.001155,59 C33.1035595,59 34,58.103949 34,57.0017404 L34,14.9982596 C34,13.8905238 33.1086047,13 32.001155,13 L13.998845,13 C12.8964405,13 12,13.896051 12,14.9982596 Z" id="Rectangle-334" fill="#858C96"></path>
        </g>
    </g>
</svg>