<?xml version="1.0" encoding="UTF-8" standalone="no"?>
<svg width="72px" height="72px" viewBox="0 0 72 72" version="1.1" xmlns="http://www.w3.org/2000/svg" xmlns:xlink="http://www.w3.org/1999/xlink" xmlns:sketch="http://www.bohemiancoding.com/sketch/ns">
    <!-- Generator: Sketch 3.5.1 (25234) - http://www.bohemiancoding.com/sketch -->
    <title>icon_reading_selected_menu_dict</title>
    <desc>Created with Sketch.</desc>
    <defs></defs>
    <g id="slice" stroke="none" stroke-width="1" fill="none" fill-rule="evenodd" sketch:type="MSPage">
        <g id="icon_reading" sketch:type="MSArtboardGroup" transform="translate(-1225.000000, -192.000000)" fill="#FFFFFF">
            <g id="icon_reading_selected_menu_dict" sketch:type="MSLayerGroup" transform="translate(1225.000000, 192.000000)">
                <path d="M21,10 C17.6865,10 15,12.6865 15,16 L15,55 C15,58.3135 17.6865,61 21,61 L57,61 L57,10 L21,10 L21,10 Z M54,58 L21,58 C19.3455,58 18,56.6545 18,55 C18,53.3455 19.3455,52 21,52 L54,52 L54,58 L54,58 Z M21,49 L18,49 L18,16 C18,14.3455 19.3455,13 21,13 L54,13 L54,49 L21,49 L21,49 Z" id="Fill-1" sketch:type="MSShapeGroup"></path>
                <path d="M43,13 L46,13 L46,37 L43,37 L43,13 Z" id="Fill-2" sketch:type="MSShapeGroup"></path>
            </g>
        </g>
    </g>
</svg>