<?xml version="1.0" encoding="UTF-8" standalone="no"?>
<svg width="72px" height="72px" viewBox="0 0 72 72" version="1.1" xmlns="http://www.w3.org/2000/svg" xmlns:xlink="http://www.w3.org/1999/xlink">
    <!-- Generator: Sketch 3.8.3 (29802) - http://www.bohemiancoding.com/sketch -->
    <title>icon_reader_footer_bright_selected</title>
    <desc>Created with Sketch.</desc>
    <defs></defs>
    <g id="Symbols" stroke="none" stroke-width="1" fill="none" fill-rule="evenodd">
        <g id="icon_reader_footer_bright_selected">
            <rect id="icon" x="0" y="0" width="72" height="72"></rect>
            <circle id="Oval-7" fill="#1B88EE" cx="36" cy="36" r="18"></circle>
            <path d="M3,36 C3,34.8954305 3.89585781,34 4.9973917,34 L10.0026083,34 C11.1057373,34 12,34.8877296 12,36 C12,37.1045695 11.1041422,38 10.0026083,38 L4.9973917,38 C3.89426273,38 3,37.1122704 3,36 Z M60,36 C60,34.8954305 60.8958578,34 61.9973917,34 L67.0026083,34 C68.1057373,34 69,34.8877296 69,36 C69,37.1045695 68.1041422,38 67.0026083,38 L61.9973917,38 C60.8942627,38 60,37.1122704 60,36 Z" id="Rectangle-43" fill="#1B88EE"></path>
            <path d="M3,36 C3,34.8954305 3.89585781,34 4.9973917,34 L10.0026083,34 C11.1057373,34 12,34.8877296 12,36 C12,37.1045695 11.1041422,38 10.0026083,38 L4.9973917,38 C3.89426273,38 3,37.1122704 3,36 Z M60,36 C60,34.8954305 60.8958578,34 61.9973917,34 L67.0026083,34 C68.1057373,34 69,34.8877296 69,36 C69,37.1045695 68.1041422,38 67.0026083,38 L61.9973917,38 C60.8942627,38 60,37.1122704 60,36 Z" id="Rectangle-43" fill="#1B88EE" transform="translate(36.000000, 36.000000) rotate(-315.000000) translate(-36.000000, -36.000000) "></path>
            <path d="M3,36 C3,34.8954305 3.89585781,34 4.9973917,34 L10.0026083,34 C11.1057373,34 12,34.8877296 12,36 C12,37.1045695 11.1041422,38 10.0026083,38 L4.9973917,38 C3.89426273,38 3,37.1122704 3,36 Z M60,36 C60,34.8954305 60.8958578,34 61.9973917,34 L67.0026083,34 C68.1057373,34 69,34.8877296 69,36 C69,37.1045695 68.1041422,38 67.0026083,38 L61.9973917,38 C60.8942627,38 60,37.1122704 60,36 Z" id="Rectangle-43" fill="#1B88EE" transform="translate(36.000000, 36.000000) rotate(-270.000000) translate(-36.000000, -36.000000) "></path>
            <path d="M3,36 C3,34.8954305 3.89585781,34 4.9973917,34 L10.0026083,34 C11.1057373,34 12,34.8877296 12,36 C12,37.1045695 11.1041422,38 10.0026083,38 L4.9973917,38 C3.89426273,38 3,37.1122704 3,36 Z M60,36 C60,34.8954305 60.8958578,34 61.9973917,34 L67.0026083,34 C68.1057373,34 69,34.8877296 69,36 C69,37.1045695 68.1041422,38 67.0026083,38 L61.9973917,38 C60.8942627,38 60,37.1122704 60,36 Z" id="Rectangle-43" fill="#1B88EE" transform="translate(36.000000, 36.000000) rotate(-225.000000) translate(-36.000000, -36.000000) "></path>
        </g>
    </g>
</svg>