<?xml version="1.0" encoding="UTF-8" standalone="no"?>
<svg width="192px" height="144px" viewBox="0 0 192 144" version="1.1" xmlns="http://www.w3.org/2000/svg" xmlns:xlink="http://www.w3.org/1999/xlink">
    <!-- Generator: Sketch 3.8.3 (29802) - http://www.bohemiancoding.com/sketch -->
    <title>icon_sharelayout_a</title>
    <desc>Created with Sketch.</desc>
    <defs></defs>
    <g id="Symbols" stroke="none" stroke-width="1" fill="none" fill-rule="evenodd">
        <g id="icon_sharelayout_a">
            <rect id="icon" x="0" y="0" width="192" height="144"></rect>
            <path d="M20,120.938182 C22.7873729,120.938182 24.2063189,120.252511 26.670907,118.267593 C28.9742826,116.412511 30.2042052,115.818182 32.7145697,115.818182 C35.2249342,115.818182 36.4548568,116.412511 38.7582324,118.267593 C41.2228205,120.252511 42.6417665,120.938182 45.4291394,120.938182 C48.2144954,120.938182 49.6326485,120.252317 52.094836,118.267447 C52.0951595,118.267187 52.0951595,118.267187 52.0954829,118.266926 C54.3959753,116.412405 55.624554,115.818182 58.1316328,115.818182 C60.6397731,115.818182 61.8687994,116.412578 64.1697236,118.267447 C64.170047,118.267708 64.170047,118.267708 64.1703705,118.267969 C66.6321272,120.252492 68.0498173,120.938182 70.8341263,120.938182 C73.6191213,120.938182 75.0371594,120.25251 77.4995556,118.26801 C77.4998791,118.26775 77.4998791,118.26775 77.5002025,118.267489 C79.8017811,116.412596 81.0311782,115.818182 83.5400701,115.818182 C86.048652,115.818182 87.2779725,116.412441 89.5797736,118.267009 C89.5800971,118.26727 89.5800971,118.26727 89.5804206,118.267531 C92.043887,120.252353 93.462736,120.938182 96.2494642,120.938182 C99.0355064,120.938182 100.454007,120.252335 102.916834,118.267489 C102.917158,118.267228 102.917158,118.267228 102.917481,118.266968 C105.218628,116.412423 106.447578,115.818182 108.955408,115.818182 C111.465773,115.818182 112.695695,116.412511 114.999071,118.267593 C117.463659,120.252511 118.882605,120.938182 121.669978,120.938182 C124.457351,120.938182 125.876297,120.252511 128.340885,118.267593 C130.64426,116.412511 131.874183,115.818182 134.384547,115.818182 C136.891626,115.818182 138.120205,116.412405 140.420697,118.266926 C140.421021,118.267187 140.421021,118.267187 140.421344,118.267447 C142.883532,120.252317 144.301685,120.938182 147.087041,120.938182 C149.87135,120.938182 151.28904,120.252492 153.750797,118.267969 C153.75112,118.267708 153.75112,118.267708 153.751444,118.267447 C156.052368,116.412578 157.281394,115.818182 159.789534,115.818182 C162.297644,115.818182 163.526454,116.412458 165.827867,118.267468 C168.290536,120.252457 169.708438,120.938182 172.493753,120.938182 L172.493753,119.938182 C169.985643,119.938182 168.756833,119.343906 166.455421,117.488895 C163.992751,115.503906 162.574849,114.818182 159.789534,114.818182 C157.004178,114.818182 155.586025,115.504046 153.123838,117.488916 C153.123514,117.489177 153.123514,117.489177 153.123191,117.489438 C150.822698,119.343959 149.59412,119.938182 147.087041,119.938182 C144.578901,119.938182 143.349874,119.343785 141.04895,117.488916 C141.048627,117.488655 141.048627,117.488655 141.048303,117.488395 C138.586546,115.503872 137.168856,114.818182 134.384547,114.818182 C131.597175,114.818182 130.178228,115.503852 127.71364,117.488771 C125.410265,119.343852 124.180342,119.938182 121.669978,119.938182 C119.159613,119.938182 117.929691,119.343852 115.626315,117.488771 C113.161727,115.503852 111.742781,114.818182 108.955408,114.818182 C106.170413,114.818182 104.752375,115.503854 102.289979,117.488353 C102.289655,117.488614 102.289655,117.488614 102.289332,117.488875 C99.9877532,119.343767 98.7583561,119.938182 96.2494642,119.938182 C93.7398209,119.938182 92.5100528,119.343749 90.2078199,117.488833 C90.2074964,117.488572 90.2074964,117.488572 90.2071729,117.488312 C87.7441373,115.503836 86.3257513,114.818182 83.5400701,114.818182 C80.754028,114.818182 79.3355269,115.504028 76.8727,117.488875 C76.8723765,117.489135 76.8723765,117.489135 76.872053,117.489396 C74.5709063,119.343941 73.3419567,119.938182 70.8341263,119.938182 C68.3270474,119.938182 67.0984687,119.343959 64.7979764,117.489438 C64.7976529,117.489177 64.7976529,117.489177 64.7973294,117.488916 C62.3351419,115.504046 60.9169888,114.818182 58.1316328,114.818182 C55.3473239,114.818182 53.9296338,115.503872 51.4678771,117.488395 C51.4675536,117.488655 51.4675536,117.488655 51.4672301,117.488916 C49.166306,119.343785 47.9372797,119.938182 45.4291394,119.938182 C42.9187749,119.938182 41.6888523,119.343852 39.3854767,117.488771 C36.9208886,115.503852 35.5019426,114.818182 32.7145697,114.818182 C29.9271968,114.818182 28.5082508,115.503852 26.0436627,117.488771 C23.7402871,119.343852 22.5103645,119.938182 20,119.938182 L20,120.938182 L20,120.938182 Z" id="curve" fill="#99A0AA"></path>
            <path d="M60,54 L132,54 L132,57 L60,57 L60,54 Z M60,72 L132,72 L132,75 L60,75 L60,72 Z M60,90 L132,90 L132,93 L60,93 L60,90 Z" id="content" fill="#5D646E"></path>
            <path d="M20,32.1190083 C22.7873495,32.1190083 24.2062874,31.4334746 26.6708702,29.4489451 C28.9742511,27.5942184 30.2041819,27 32.7145697,27 C35.2249575,27 36.4548883,27.5942184 38.7582692,29.4489451 C41.222852,31.4334746 42.6417899,32.1190083 45.4291394,32.1190083 C48.2144721,32.1190083 49.632617,31.4332808 52.0947992,29.4487994 C52.0951226,29.4485387 52.0951226,29.4485387 52.0954461,29.448278 C54.3959438,27.5941119 55.6245306,27 58.1316328,27 C60.6397965,27 61.8688309,27.5942853 64.1697604,29.4487994 C64.1700839,29.4490602 64.1700839,29.4490602 64.1704073,29.4493209 C66.6321588,31.4334551 68.0498407,32.1190083 70.8341263,32.1190083 C73.619098,32.1190083 75.0371279,31.433473 77.4995187,29.4493624 C77.4998422,29.4491017 77.4998422,29.4491017 77.5001657,29.4488411 C79.8017496,27.5943032 81.0311549,27 83.5400701,27 C86.0486754,27 87.278004,27.5941478 89.5798105,29.4483615 C89.580134,29.4486221 89.580134,29.4486221 89.5804574,29.4488827 C92.0439185,31.4333168 93.4627593,32.1190083 96.2494642,32.1190083 C99.035483,32.1190083 100.453976,31.4332988 102.916798,29.4488411 C102.917121,29.4485804 102.917121,29.4485804 102.917444,29.4483198 C105.218597,27.5941299 106.447554,27 108.955408,27 C111.465796,27 112.695727,27.5942184 114.999108,29.4489451 C117.46369,31.4334746 118.882628,32.1190083 121.669978,32.1190083 C124.457327,32.1190083 125.876265,31.4334746 128.340848,29.4489451 C130.644229,27.5942184 131.87416,27 134.384547,27 C136.89165,27 138.120237,27.5941119 140.420734,29.448278 C140.421058,29.4485387 140.421058,29.4485387 140.421381,29.4487994 C142.883563,31.4332808 144.301708,32.1190083 147.087041,32.1190083 C149.871327,32.1190083 151.289008,31.4334551 153.75076,29.4493209 C153.751083,29.4490602 153.751083,29.4490602 153.751407,29.4487994 C156.052336,27.5942853 157.281371,27 159.789534,27 C162.297668,27 163.526486,27.5941646 165.827903,29.4488203 C168.290568,31.4334208 169.708462,32.1190083 172.493753,32.1190083 L172.493753,31.1190083 C169.98562,31.1190083 168.756802,30.5248437 166.455384,28.670188 C163.99272,26.6855875 162.574825,26 159.789534,26 C157.004202,26 155.586057,26.6857274 153.123875,28.6702088 C153.123551,28.6704695 153.123551,28.6704695 153.123228,28.6707303 C150.82273,30.5248964 149.594143,31.1190083 147.087041,31.1190083 C144.578877,31.1190083 143.349843,30.524723 141.048913,28.6702088 C141.04859,28.6699481 141.04859,28.6699481 141.048266,28.6696874 C138.586515,26.6855532 137.168833,26 134.384547,26 C131.597198,26 130.17826,26.6855337 127.713677,28.6700632 C125.410296,30.5247899 124.180366,31.1190083 121.669978,31.1190083 C119.15959,31.1190083 117.929659,30.5247899 115.626278,28.6700632 C113.161695,26.6855337 111.742758,26 108.955408,26 C106.170436,26 104.752406,26.6855353 102.290016,28.6696459 C102.289692,28.6699066 102.289692,28.6699066 102.289369,28.6701672 C99.9877847,30.5247051 98.7583794,31.1190083 96.2494642,31.1190083 C93.7397975,31.1190083 92.5100213,30.5246872 90.207783,28.6701256 C90.2074595,28.669865 90.2074595,28.669865 90.2071361,28.6696044 C87.7441057,26.6855173 86.3257279,26 83.5400701,26 C80.7540513,26 79.3355584,26.6857094 76.8727368,28.6701672 C76.8724133,28.6704278 76.8724133,28.6704278 76.8720899,28.6706885 C74.5709378,30.5248784 73.34198,31.1190083 70.8341263,31.1190083 C68.3270241,31.1190083 67.0984372,30.5248964 64.7979395,28.6707303 C64.7976161,28.6704695 64.7976161,28.6704695 64.7972926,28.6702088 C62.3351104,26.6857274 60.9169655,26 58.1316328,26 C55.3473472,26 53.9296653,26.6855532 51.4679139,28.6696874 C51.4675904,28.6699481 51.4675904,28.6699481 51.467267,28.6702088 C49.1663375,30.524723 47.937303,31.1190083 45.4291394,31.1190083 C42.9187516,31.1190083 41.6888208,30.5247899 39.3854399,28.6700632 C36.9208571,26.6855337 35.5019192,26 32.7145697,26 C29.9272202,26 28.5082823,26.6855337 26.0436995,28.6700632 C23.7403186,30.5247899 22.5103878,31.1190083 20,31.1190083 L20,32.1190083 L20,32.1190083 Z" id="curve" fill="#99A0AA"></path>
        </g>
    </g>
</svg>