<?xml version="1.0" encoding="UTF-8"?>
<svg width="72px" height="72px" viewBox="0 0 72 72" version="1.1" xmlns="http://www.w3.org/2000/svg" xmlns:xlink="http://www.w3.org/1999/xlink">
    <!-- Generator: Sketch 41 (35326) - http://www.bohemiancoding.com/sketch -->
    <title>icon_account_follow_round</title>
    <desc>Created with Sketch.</desc>
    <defs></defs>
    <g id="Symbols" stroke="none" stroke-width="1" fill="none" fill-rule="evenodd">
        <g id="icon_account_follow_round">
            <rect id="icon" x="0" y="0" width="72" height="72"></rect>
            <ellipse id="Oval-39" fill="#9FD661" cx="36" cy="36" rx="36" ry="36"></ellipse>
            <path d="M36.7758621,52.5 C25.2681032,52.5 13.5,40.4 13.5,36.7857143 C13.5,31.6 25.2681032,19.5 36.7758621,19.5 C46.7318968,19.5 58.5,31.6 58.5,36.7857143 C58.5,40.4 46.7318968,52.5 36.7758621,52.5 Z M36.7758621,49.5 C40.4639444,49.5 45.1344668,47.2782035 49.4547943,43.6903032 C51.3138148,42.1464433 52.9604841,40.4599333 54.1244809,38.9410375 C54.6477877,38.2581759 55.0467896,37.6425095 55.2961408,37.1479732 C55.396173,36.9495801 55.4635762,36.7873202 55.4988167,36.6731316 C55.5054512,36.651634 55.5,36.6827643 55.5,36.7857143 C55.5,36.2369026 55.0029218,35.0319731 54.0196705,33.5763249 C52.8897379,31.9035234 51.2674266,30.0979777 49.3928812,28.4532728 C45.2084503,24.7819003 40.5084877,22.5 36.7758621,22.5 C32.2923299,22.5 27.1781301,24.7839317 22.7501272,28.4969826 C20.8093805,30.1243735 19.1450469,31.9200345 17.9895659,33.5983341 C16.9990335,35.0370508 16.5,36.2360707 16.5,36.7857143 C16.5,36.6821481 16.4943113,36.6497296 16.5004949,36.6696807 C16.5353818,36.7822424 16.6023844,36.9424907 16.702059,37.1384344 C16.9527522,37.6312552 17.3548192,38.2431692 17.8828151,38.91913 C19.073789,40.443861 20.7622692,42.1203019 22.6875615,43.6484003 C27.2555876,47.2740283 32.3427741,49.5 36.7758621,49.5 Z" id="Oval-289" fill="#FFFFFF"></path>
            <path d="M36,43.5 C31.8578644,43.5 28.5,40.1421356 28.5,36 C28.5,31.8578644 31.8578644,28.5 36,28.5 C40.1421356,28.5 43.5,31.8578644 43.5,36 C43.5,40.1421356 40.1421356,43.5 36,43.5 Z M36,40.5 C38.4852814,40.5 40.5,38.4852814 40.5,36 C40.5,33.5147186 38.4852814,31.5 36,31.5 C33.5147186,31.5 31.5,33.5147186 31.5,36 C31.5,38.4852814 33.5147186,40.5 36,40.5 Z" id="Oval" fill="#FFFFFF"></path>
        </g>
    </g>
</svg>