<?xml version="1.0" encoding="UTF-8" standalone="no"?>
<svg width="72px" height="72px" viewBox="0 0 72 72" version="1.1" xmlns="http://www.w3.org/2000/svg" xmlns:xlink="http://www.w3.org/1999/xlink">
    <!-- Generator: Sketch 39.1 (31720) - http://www.bohemiancoding.com/sketch -->
    <title>icon_write_review_style</title>
    <desc>Created with Sketch.</desc>
    <defs></defs>
    <g id="Symbols" stroke="none" stroke-width="1" fill="none" fill-rule="evenodd">
        <g id="icon_write_review_style">
            <rect id="icon" x="0" y="0" width="72" height="72"></rect>
            <path d="M33.8595205,53.8800247 L34.4,53.5 L37.6,53.5 L38.1404795,53.8800247 C38.0487647,54.2380837 38,54.613347 38,55 C38,57.4852814 40.0147186,59.5 42.5,59.5 C43.0259531,59.5 43.5308316,59.4097687 44,59.2439414 L44,61 L28,61 L28,59.2439414 C28.4691684,59.4097687 28.9740469,59.5 29.5,59.5 C31.9852814,59.5 34,57.4852814 34,55 C34,54.613347 33.9512353,54.2380837 33.8595205,53.8800247 Z" id="Combined-Shape" fill="#858C96"></path>
            <polygon id="Combined-Shape" fill="#858C96" points="34 22.2142857 34 11.5 38 11.5 38 22.2142857 38 58 34 58"></polygon>
            <path d="M60.4889759,20.366732 L62,21.5 L62,12.5 L50,12.5 L52.4696442,14.3522332 C53.1037608,14.1242369 53.7873718,14 54.5,14 C57.8137085,14 60.5,16.6862915 60.5,20 C60.5,20.1231457 60.4962901,20.2454249 60.4889759,20.366732 Z" id="Combined-Shape" fill="#858C96"></path>
            <path d="M19.5303558,14.3522332 L22,12.5 L10,12.5 L10,21.5 L11.5110241,20.366732 C11.5037099,20.2454249 11.5,20.1231457 11.5,20 C11.5,16.6862915 14.1862915,14 17.5,14 C18.2126282,14 18.8962392,14.1242369 19.5303558,14.3522332 Z" id="Combined-Shape" fill="#858C96"></path>
            <rect id="Rectangle-544" fill="#858C96" x="10" y="11" width="52" height="4" rx="2"></rect>
        </g>
    </g>
</svg>