<?xml version="1.0" encoding="UTF-8" standalone="no"?>
<svg width="48px" height="48px" viewBox="0 0 48 48" version="1.1" xmlns="http://www.w3.org/2000/svg" xmlns:xlink="http://www.w3.org/1999/xlink">
    <!-- Generator: Sketch 3.8.3 (29802) - http://www.bohemiancoding.com/sketch -->
    <title>icon_discover_reading</title>
    <desc>Created with Sketch.</desc>
    <defs></defs>
    <g id="Symbols" stroke="none" stroke-width="1" fill="none" fill-rule="evenodd">
        <g id="icon_discover_reading">
            <rect id="icon" x="0" y="0" width="48" height="48"></rect>
            <path d="M28,9.36832351 C28.6651339,9.12890391 29.3719056,9 30.1045514,9 C34.0394537,9 37.2280036,12.7183127 37.2280036,17.3061571 C37.2280036,19.8919502 36.2123023,22.4625417 34.6217892,24.3080166 C34.2185181,24.776226 33.9897972,25.3645281 33.9897972,25.9801931 C33.9897972,26.9318136 34.5239809,27.8074261 35.37717,28.2528331 L43.9662417,32.7388269 C44.6027479,33.0702219 45,33.7223707 45,34.4322857 L45,35.51464 C45,36.10226 44.677843,36.6162806 44.1983458,37 C43.1037246,36.2306291 41.6982249,35.3397673 40.1954659,34.4307655 L40.6527982,34.4307655 L36.5255602,32.2753166 C35.2567429,31.5481928 34.0386357,30.8656952 32.9949758,30.2876888 C31.7305805,29.2349894 30.9803117,27.6692739 30.9803117,25.9801931 C30.9803117,24.6409317 31.4678483,23.3381541 32.3511323,22.3120458 C33.5218222,20.9545424 34.2185181,19.0832248 34.2185181,17.3061571 C34.2185181,14.4026505 32.3737035,12.0403211 30.1045514,12.0403211 C29.9119246,12.0403211 29.7223556,12.0573445 29.5367135,12.0902773 C29.1213945,11.1119549 28.60394,10.1987606 28,9.36832351 Z" id="Fill-1" fill="#99A0AA"></path>
            <path d="M18.5,8 C13.614,8 9.652,12.523 9.652,18.103 C9.652,21.249 10.914,24.375 12.89,26.619 C13.391,27.189 13.674,27.905 13.674,28.653 C13.674,29.812 13.011,30.876 11.951,31.108 L1.284,36.088 C0.494,37.278 0,38.071 0,38.769 C0,38.769 0.849,42 1.916,42 C1.947,42 1.979,41.997 2.011,41.991 L34.989,41.991 C35.021,41.997 35.053,42 35.084,42 C36.151,42 37,38.769 37,38.769 C37,38.071 36.506,37.278 35.716,36.088 L25.049,31.108 C23.989,30.876 23.326,29.812 23.326,28.653 C23.326,27.905 23.609,27.189 24.11,26.619 C26.086,24.375 27.348,21.249 27.348,18.103 C27.348,12.523 23.386,8 18.5,8 Z M18.5,11 C21.725,11 24.348,14.186 24.348,18.103 C24.348,20.423 23.417,22.866 21.858,24.638 C20.87,25.761 20.326,27.187 20.326,28.653 C20.326,31.15 21.823,33.264 24.013,33.936 L33.67,38.443 C33.737,38.551 33.803,38.657 33.86,38.754 C33.831,38.835 33.801,38.914 33.77,38.991 L3.229,38.991 C3.199,38.915 3.169,38.836 3.14,38.755 C3.197,38.658 3.263,38.551 3.33,38.443 L12.987,33.936 C15.177,33.264 16.674,31.15 16.674,28.653 C16.674,27.187 16.13,25.761 15.142,24.637 C13.583,22.866 12.652,20.423 12.652,18.103 C12.652,14.186 15.275,11 18.5,11 Z" id="Page-1" fill="#99A0AA"></path>
        </g>
    </g>
</svg>