<?xml version="1.0" encoding="UTF-8"?>
<svg width="168px" height="168px" viewBox="0 0 168 168" version="1.1" xmlns="http://www.w3.org/2000/svg" xmlns:xlink="http://www.w3.org/1999/xlink">
    <!-- Generator: Sketch 42 (36781) - http://www.bohemiancoding.com/sketch -->
    <title>icon_more_operation_discover_remove</title>
    <desc>Created with Sketch.</desc>
    <defs></defs>
    <g id="Symbols" stroke="none" stroke-width="1" fill="none" fill-rule="evenodd">
        <g id="icon_more_operation_discover_remove">
            <rect id="icon" x="0" y="0" width="168" height="168"></rect>
            <path d="M4,36.0015487 L4,36.0015487 L4,131.998451 C4,149.678727 18.3239929,164 36.0015487,164 L131.998451,164 C149.678727,164 164,149.676007 164,131.998451 L164,36.0015487 C164,18.3212732 149.676007,4 131.998451,4 L36.0015487,4 C18.3212732,4 4,18.3239929 4,36.0015487 L4,36.0015487 Z M0,36.0015487 C0,16.1184424 16.1085463,0 36.0015487,0 L131.998451,0 C151.881558,0 168,16.1085463 168,36.0015487 L168,131.998451 C168,151.881558 151.891454,168 131.998451,168 L36.0015487,168 C16.1184424,168 0,151.891454 0,131.998451 L0,36.0015487 L0,36.0015487 Z" id="background" fill="#C1C8D2" fill-rule="nonzero"></path>
            <path d="M46.5385593,57.6386945 L49.7717155,60.8718508 C45.1827923,67.6035265 42.5,75.7384634 42.5,84.5 C42.5,107.695959 61.3040405,126.5 84.5,126.5 C93.2615366,126.5 101.396473,123.817208 108.128149,119.228284 L111.361305,122.461441 C103.775096,127.839161 94.5066749,131 84.5,131 C58.8187591,131 38,110.181241 38,84.5 C38,74.4933251 41.1608393,65.2249037 46.5385593,57.6386945 Z M49.3363095,54.0724837 C57.862584,44.2276944 70.454014,38 84.5,38 C110.181241,38 131,58.8187591 131,84.5 C131,98.545986 124.772306,111.137416 114.927516,119.663691 L111.736414,116.472588 C120.770901,108.768968 126.5,97.3035352 126.5,84.5 C126.5,61.3040405 107.695959,42.5 84.5,42.5 C71.6964648,42.5 60.2310322,48.2290986 52.527412,57.2635862 L49.3363095,54.0724837 Z M87.5398911,92.2760653 L84.2599807,88.9961549 L87.2200896,87.2200896 L95.3803582,73.6196418 L81.7799104,81.7799104 L80.0038451,84.7400193 L76.7239347,81.4601089 L78.5,78.5 L108.5,60.5 L90.5,90.5 L87.5398911,92.2760653 Z M83.5624155,94.6625507 L60.5,108.5 L74.3374493,85.4375845 L77.6173597,88.717495 L73.6196418,95.3803582 L80.282505,91.3826403 L83.5624155,94.6625507 Z" id="Combined-Shape" fill="#858C96" fill-rule="nonzero"></path>
            <polygon id="Rectangle-790" fill="#858C96" points="43 48.1794278 46.1794278 45 123 121.820572 119.820572 125"></polygon>
        </g>
    </g>
</svg>