<?xml version="1.0" encoding="UTF-8" standalone="no"?>
<svg width="168px" height="168px" viewBox="0 0 168 168" version="1.1" xmlns="http://www.w3.org/2000/svg" xmlns:xlink="http://www.w3.org/1999/xlink">
    <!-- Generator: Sketch 3.8.3 (29802) - http://www.bohemiancoding.com/sketch -->
    <title>icon_more_operation_share_qzone</title>
    <desc>Created with Sketch.</desc>
    <defs></defs>
    <g id="Symbols" stroke="none" stroke-width="1" fill="none" fill-rule="evenodd">
        <g id="icon_more_operation_share_qzone">
            <rect id="icon" x="0" y="0" width="168" height="168"></rect>
            <rect id="background" fill="#2989EF" x="0" y="0" width="168" height="168" rx="36"></rect>
            <path d="M112.606574,100.328128 L112.085335,96.319692 L134.897891,72.4235408 C136.035812,71.2315678 135.646482,70.0116881 134.01909,69.7085088 L101.328612,63.6183516 L85.3778508,34.8165049 C84.5743895,33.3657172 83.272898,33.3665277 82.4698856,34.8165049 L66.5191242,63.6183516 L33.8286467,69.7085088 C32.1926004,70.0133003 31.8078013,71.2272494 32.9498457,72.4235408 L55.7624009,96.319692 L51.5281557,128.881957 C51.3148711,130.522162 52.3557412,131.283019 53.852738,130.583424 L83.9238682,116.530232 L113.994998,130.583424 C115.4803,131.277553 116.532746,130.521246 116.319581,128.881957 L113.285533,105.549474 C114.949456,104.226427 117.044781,102.453946 118.804168,100.632297 C118.051934,100.816026 117.371754,100.979793 116.753405,101.126583 C108.43301,103.514212 98.540663,104.932481 82.3267775,104.932481 C63.7280326,104.932481 62.6791409,103.048403 62.6791409,103.048403 C62.6791409,103.048403 60.2534056,103.366912 64.4660536,100.011525 C68.6787015,96.6561372 91.3772775,81.1541185 91.3772775,81.1541185 C91.3772775,81.1541185 97.1598655,78.4851564 85.3873368,77.4036815 C73.6148082,76.3222066 51.8568173,75.7670729 51.8568173,75.7670729 C51.8568173,75.7670729 78.9424749,67.9642193 108.439617,74.3730636 C112.767276,76.2601233 103.075365,81.6154274 103.075365,81.6154274 L81.6230174,96.8050188 C81.6230174,96.8050188 78.1095947,99.0247643 81.6230174,100.011525 C84.6982018,100.875204 95.4320487,100.96534 112.606574,100.328128 Z" id="Star-1" fill="#FFFFFF"></path>
        </g>
    </g>
</svg>