<?xml version="1.0" encoding="UTF-8" standalone="no"?>
<svg width="36px" height="36px" viewBox="0 0 36 36" version="1.1" xmlns="http://www.w3.org/2000/svg" xmlns:xlink="http://www.w3.org/1999/xlink">
    <!-- Generator: Sketch 39.1 (31720) - http://www.bohemiancoding.com/sketch -->
    <title>icon_recommend_user_delete</title>
    <desc>Created with Sketch.</desc>
    <defs></defs>
    <g id="Symbols" stroke="none" stroke-width="1" fill="none" fill-rule="evenodd">
        <g id="icon_recommend_user_delete">
            <g id="close">
                <rect id="icon" x="0" y="0" width="36" height="36"></rect>
                <path d="M18,15.7378056 L2.72909665,0.466902247 C2.11147554,-0.150718862 1.09596931,-0.153406155 0.471281579,0.471281579 C-0.157761364,1.10032452 -0.155366849,2.10682755 0.466902247,2.72909665 L15.7378056,18 L0.466902247,33.2709034 C-0.155366849,33.8931724 -0.157761364,34.8996755 0.471281579,35.5287184 C1.09596931,36.1534062 2.11147554,36.1507189 2.72909665,35.5330978 L18,20.2621944 L33.2709034,35.5330978 C33.8885245,36.1507189 34.9040307,36.1534062 35.5287184,35.5287184 C36.1577614,34.8996755 36.1553668,33.8931724 35.5330978,33.2709034 L20.2621944,18 L35.5330978,2.72909665 C36.1553668,2.10682755 36.1577614,1.10032452 35.5287184,0.471281579 C34.9040307,-0.153406155 33.8885245,-0.150718862 33.2709034,0.466902247 L18,15.7378056 Z" fill="#858C96"></path>
            </g>
        </g>
    </g>
</svg>