<?xml version="1.0" encoding="UTF-8" standalone="no"?>
<svg width="168px" height="168px" viewBox="0 0 168 168" version="1.1" xmlns="http://www.w3.org/2000/svg" xmlns:xlink="http://www.w3.org/1999/xlink">
    <!-- Generator: Sketch 3.8.3 (29802) - http://www.bohemiancoding.com/sketch -->
    <title>icon_more_operation_share_weibo</title>
    <desc>Created with Sketch.</desc>
    <defs></defs>
    <g id="Symbols" stroke="none" stroke-width="1" fill="none" fill-rule="evenodd">
        <g id="icon_more_operation_share_weibo">
            <rect id="icon" x="0" y="0" width="168" height="168"></rect>
            <rect id="background" fill="#FDCA17" x="0" y="0" width="168" height="168" rx="36"></rect>
            <path d="M76.0592263,43.0283055 C56.7802715,50.2810098 41.9693007,63.2794695 33.8271115,82.1270037 C32.3822878,86.268371 31.5782015,90.819837 31.5,95.6426583 C31.5,112.51263 52.3372663,126.324462 83.7055241,126.188444 C112.537839,126.188444 136.424297,108.471525 136.5,94.8914817 C136.424297,81.4913034 126.197834,77.0209579 118.632364,74.971969 C119.411265,72.8608787 121.663113,69.9948648 121.663113,65.5913129 C121.663113,60.1333809 116.38548,55.4718304 109.446539,55.4718304 C102.507598,55.4718304 94.0257431,59.5535627 89.7789724,61.2540326 C91.2150677,54.866931 91.5683635,53.1916467 91.5683606,50.9767286 C91.5812777,46.9590463 86.8688187,39.2109999 76.0592263,43.0283055 Z M82.75951,119.876392 C103.092571,117.739302 118.455325,105.346488 117.073181,92.196268 C115.691037,79.0460481 98.0873854,70.1181431 77.7543245,72.2552339 C57.4212637,74.3923247 42.05851,86.7851386 43.4406538,99.9353584 C44.8227976,113.085578 62.4264491,122.013483 82.75951,119.876392 Z M78.3096276,115.467457 C89.0906897,114.334322 97.0202695,105.707216 96.0208398,96.1982771 C95.02141,86.6893382 85.4714345,79.8994079 74.6903724,81.0325432 C63.9093103,82.1656785 55.9797305,90.7927841 56.9791602,100.301723 C57.97859,109.810662 67.5285655,116.600592 78.3096276,115.467457 Z M72.0895281,107.796526 C75.3127829,106.932858 77.2337876,103.650288 76.3802122,100.464701 C75.5266368,97.2791145 72.2217129,95.3968278 68.9984581,96.2604963 C65.7752033,97.1241649 63.8541986,100.406735 64.707774,103.592322 C65.5613494,106.777908 68.8662733,108.660195 72.0895281,107.796526 Z M81,99 C82.6568542,99 84,97.6568542 84,96 C84,94.3431458 82.6568542,93 81,93 C79.3431458,93 78,94.3431458 78,96 C78,97.6568542 79.3431458,99 81,99 Z" id="weibo" fill="#FFFFFF"></path>
        </g>
    </g>
</svg>