<?xml version="1.0" encoding="UTF-8" standalone="no"?>
<svg width="72px" height="72px" viewBox="0 0 72 72" version="1.1" xmlns="http://www.w3.org/2000/svg" xmlns:xlink="http://www.w3.org/1999/xlink" xmlns:sketch="http://www.bohemiancoding.com/sketch/ns">
    <!-- Generator: Sketch 3.4.2 (15855) - http://www.bohemiancoding.com/sketch -->
    <title>icon_checkmark</title>
    <desc>Created with Sketch.</desc>
    <defs></defs>
    <g id="slice" stroke="none" stroke-width="1" fill="none" fill-rule="evenodd" sketch:type="MSPage">
        <g id="control" sketch:type="MSArtboardGroup" transform="translate(-718.000000, -60.000000)" fill="#1B88EE">
            <g id="icon_checkmark" sketch:type="MSLayerGroup" transform="translate(718.000000, 60.000000)">
                <path d="M29.8388348,46.9350288 L16.6854783,33.7816724 C15.9020603,32.9982544 14.634602,32.997126 13.8535534,33.7781746 C13.0670595,34.5646685 13.0740708,35.8271191 13.8570512,36.6100995 L27.9921912,50.7452396 C28.1407372,50.8937855 28.3066858,51.0142058 28.4834213,51.1065013 C28.4854729,51.1085702 28.4875299,51.1106359 28.4895924,51.1126984 C29.2706409,51.893747 30.5378405,51.8928773 31.3162462,51.1144717 L58.1898505,24.2408674 C58.9699197,23.4607982 58.9745711,22.2007075 58.1880772,21.4142136 C57.4070286,20.633165 56.139829,20.6340346 55.3614233,21.4124403 L29.8388348,46.9350288 L29.8388348,46.9350288 Z" id="checkmark" sketch:type="MSShapeGroup"></path>
            </g>
        </g>
    </g>
</svg>