<?xml version="1.0" encoding="UTF-8"?>
<svg width="78px" height="38px" viewBox="0 0 78 38" version="1.1" xmlns="http://www.w3.org/2000/svg" xmlns:xlink="http://www.w3.org/1999/xlink">
    <!-- Generator: Sketch 40.2 (33826) - http://www.bohemiancoding.com/sketch -->
    <title>icon_reading_separator_sign</title>
    <desc>Created with Sketch.</desc>
    <defs></defs>
    <g id="Symbols" stroke="none" stroke-width="1" fill="none" fill-rule="evenodd">
        <g id="icon_reading_separator_sign">
            <rect id="icon" x="0" y="0" width="78" height="36"></rect>
            <path d="M26.6704102,14.2924805 C26.6704102,16.0629971 26.993405,17.6181574 27.6394043,18.9580078 C28.2854036,20.2978583 29.1467231,21.5001167 30.2233887,22.5648193 C31.3000542,23.6295219 32.5322196,24.5985064 33.9199219,25.4718018 C35.3076241,26.3450971 36.7371753,27.1944539 38.2086182,28.0198975 C39.6800611,28.845341 41.1395191,29.6887164 42.5870361,30.5500488 C44.0345531,31.4113813 45.3564393,32.3684029 46.5527344,33.4211426 C47.3901409,32.344477 48.0241678,31.1003489 48.454834,29.6887207 C48.8855002,28.2770926 49.1008301,26.8894111 49.1008301,25.5256348 C49.1008301,23.779044 48.7718539,22.2358465 48.1138916,20.8959961 C47.4559293,19.5561456 46.5886284,18.3598685 45.5119629,17.3071289 C44.4352974,16.2543893 43.2031319,15.2913862 41.8154297,14.4180908 C40.4277274,13.5447954 38.9981763,12.6954387 37.5267334,11.8699951 C36.0552905,11.0445515 34.5958324,10.2011762 33.1483154,9.33984375 C31.7007984,8.47851132 30.3789122,7.52148964 29.1826172,6.46875 C28.3452107,7.56934144 27.7171652,8.80748824 27.2984619,10.1832275 C26.8797586,11.5589668 26.6704102,12.9287041 26.6704102,14.2924805 L26.6704102,14.2924805 Z M24.3017578,46.6999512 C24.3017578,46.2214332 24.3795158,45.7548851 24.5350342,45.300293 C24.6905525,44.8457009 24.9118638,44.444948 25.1989746,44.0980225 C25.4860854,43.7510969 25.8330058,43.4699718 26.2397461,43.2546387 C26.6464864,43.0393056 27.1010717,42.9316406 27.6035156,42.9316406 C28.1538113,42.9316406 28.614378,43.0333242 28.9852295,43.2366943 C29.356081,43.4400645 29.6611316,43.6972641 29.9003906,44.0083008 C30.1396496,44.3193375 30.3071284,44.6722392 30.402832,45.0670166 C30.4985356,45.461794 30.5463867,45.850584 30.5463867,46.2333984 C30.5463867,46.4965833 30.4746101,46.8554665 30.3310547,47.3100586 C30.1874993,47.7646507 29.9841322,48.1594222 29.7209473,48.4943848 C29.7687991,49.1164582 30.0020731,49.7086154 30.4207764,50.270874 C30.8394796,50.8331327 31.3837857,51.3415505 32.0537109,51.7961426 C32.7236362,52.2507347 33.4952349,52.6096178 34.3685303,52.8728027 C35.2418257,53.1359876 36.1569776,53.2675781 37.1140137,53.2675781 C38.7888267,53.2675781 40.2064151,53.0163599 41.3668213,52.513916 C42.5272275,52.0114721 43.4603236,51.3774452 44.1661377,50.6118164 C44.8719518,49.8461876 45.3803695,49.0087936 45.6914062,48.0996094 C46.002443,47.1904251 46.157959,46.3291056 46.157959,45.515625 C46.157959,44.1279227 45.7990759,42.8778132 45.0812988,41.7652588 C44.3635218,40.6527044 43.4124815,39.6179247 42.2281494,38.6608887 C41.0438173,37.7038526 39.6980056,36.7827193 38.1906738,35.8974609 C36.6833421,35.0122026 35.146126,34.1090134 33.5789795,33.1878662 C32.011833,32.266719 30.4746169,31.2857718 28.9672852,30.2449951 C27.4599534,29.2042184 26.1141417,28.0438296 24.9298096,26.7637939 C23.7454775,25.4837582 22.7944372,24.0482257 22.0766602,22.4571533 C21.3588831,20.8660809 21,19.0537211 21,17.0200195 C21,15.9912058 21.1435533,14.9325006 21.4306641,13.8438721 C21.7177749,12.7552436 22.1424532,11.690557 22.7047119,10.6497803 C23.2669706,9.60900359 23.9488485,8.59216805 24.7503662,7.59924316 C25.5518839,6.60631828 26.4670359,5.67920353 27.4958496,4.81787109 C26.5627395,3.74120555 25.8150663,2.49109599 25.2528076,1.06750488 C24.6905489,-0.356086219 24.4094238,-1.85741398 24.4094238,-3.43652344 C24.4094238,-4.27392997 24.505126,-5.18310056 24.6965332,-6.1640625 C24.8879404,-7.14502444 25.1989725,-8.11400889 25.6296387,-9.07104492 C26.0603049,-10.028081 26.6285365,-10.9551957 27.3343506,-11.852417 C28.0401647,-12.7496383 28.9074656,-13.5451625 29.9362793,-14.2390137 C30.965093,-14.9328648 32.1613701,-15.4831523 33.5251465,-15.8898926 C34.8889228,-16.2966329 36.4560458,-16.5 38.2265625,-16.5 C40.1884864,-16.5 41.9769206,-16.2308377 43.5919189,-15.6925049 C45.2069173,-15.1541721 46.5886173,-14.45435 47.7370605,-13.5930176 C48.8855038,-12.7316851 49.7767302,-11.7567193 50.4107666,-10.6680908 C51.044803,-9.57946233 51.3618164,-8.48486878 51.3618164,-7.38427734 C51.3618164,-6.92968523 51.2960212,-6.49902547 51.1644287,-6.09228516 C51.0328363,-5.68554484 50.8354505,-5.32666171 50.5722656,-5.015625 C50.3090807,-4.70458829 49.9920673,-4.4533701 49.6212158,-4.26196289 C49.2503644,-4.07055568 48.8137232,-3.97485352 48.3112793,-3.97485352 C47.6892059,-3.97485352 47.1867695,-4.07653707 46.8039551,-4.27990723 C46.4211407,-4.48327738 46.11609,-4.73449557 45.8887939,-5.03356934 C45.6614979,-5.3326431 45.4940191,-5.65563791 45.3863525,-6.00256348 C45.278686,-6.34948904 45.2248535,-6.67846524 45.2248535,-6.98950195 C45.2248535,-7.27661276 45.2906488,-7.68334698 45.4222412,-8.2097168 C45.5538337,-8.73608662 45.7871077,-9.1547836 46.1220703,-9.46582031 C45.8828113,-10.0639678 45.5239282,-10.6262181 45.0454102,-11.1525879 C44.5668921,-11.6789577 43.9986605,-12.1275616 43.3406982,-12.4984131 C42.682736,-12.8692645 41.9470256,-13.1623524 41.1335449,-13.3776855 C40.3200643,-13.5930187 39.446782,-13.7006836 38.5136719,-13.7006836 C36.8149329,-13.7006836 35.3913632,-13.4375026 34.2429199,-12.9111328 C33.0944767,-12.384763 32.1673619,-11.7208292 31.4615479,-10.9193115 C30.7557338,-10.1177938 30.247316,-9.25049295 29.9362793,-8.31738281 C29.6252426,-7.38427268 29.4697266,-6.5109904 29.4697266,-5.69750977 C29.4697266,-4.30980751 29.8286097,-3.05969795 30.5463867,-1.94714355 C31.2641637,-0.834589164 32.215204,0.200190527 33.3995361,1.15722656 C34.5838682,2.1142626 35.92968,3.03539596 37.4370117,3.9206543 C38.9443435,4.80591263 40.4875409,5.70910184 42.0666504,6.63024902 C43.6457598,7.55139621 45.1889573,8.53234343 46.6962891,9.57312012 C48.2036208,10.6138968 49.5494326,11.7742856 50.7337646,13.0543213 C51.9180967,14.334357 52.869137,15.7698895 53.5869141,17.3609619 C54.3046911,18.9520343 54.6635742,20.7643941 54.6635742,22.7980957 C54.6635742,23.8508353 54.520021,24.9215033 54.2329102,26.0101318 C53.9457993,27.0987603 53.521121,28.1694283 52.9588623,29.222168 C52.3966036,30.2749076 51.7147257,31.2977245 50.913208,32.2906494 C50.1116903,33.2835743 49.1965383,34.2106891 48.1677246,35.0720215 C49.0769088,36.148687 49.8126193,37.3509455 50.3748779,38.678833 C50.9371366,40.0067205 51.2182617,41.5319738 51.2182617,43.2546387 C51.2182617,44.0441934 51.1165782,44.9055129 50.913208,45.838623 C50.7098379,46.7717332 50.386843,47.7167921 49.9442139,48.6738281 C49.5015847,49.6308642 48.9273717,50.5519975 48.2215576,51.4372559 C47.5157435,52.3225142 46.6484426,53.1120571 45.6196289,53.8059082 C44.5908152,54.4997593 43.4005195,55.0560282 42.0487061,55.4747314 C40.6968927,55.8934347 39.1477138,56.1027832 37.401123,56.1027832 C35.247792,56.1027832 33.3516928,55.8216581 31.7127686,55.2593994 C30.0738443,54.6971407 28.7100885,53.9674117 27.62146,53.0701904 C26.5328315,52.1729691 25.7074003,51.1680964 25.1451416,50.055542 C24.5828829,48.9429876 24.3017578,47.8244685 24.3017578,46.6999512 L24.3017578,46.6999512 Z" id="ยง" fill="#5D646E" transform="translate(39.195557, 19.801392) rotate(90.000000) translate(-39.195557, -19.801392) "></path>
        </g>
    </g>
</svg>