<?xml version="1.0" encoding="UTF-8" standalone="no"?>
<svg width="168px" height="168px" viewBox="0 0 168 168" version="1.1" xmlns="http://www.w3.org/2000/svg" xmlns:xlink="http://www.w3.org/1999/xlink">
    <!-- Generator: Sketch 3.8.3 (29802) - http://www.bohemiancoding.com/sketch -->
    <title>icon_more_operation_bookmark_selected</title>
    <desc>Created with Sketch.</desc>
    <defs></defs>
    <g id="Symbols" stroke="none" stroke-width="1" fill="none" fill-rule="evenodd">
        <g id="icon_more_operation_bookmark_selected">
            <rect id="icon" x="0" y="0" width="168" height="168"></rect>
            <path d="M4,36.0015487 L4,36.0015487 L4,131.998451 C4,149.678727 18.3239929,164 36.0015487,164 L131.998451,164 C149.678727,164 164,149.676007 164,131.998451 L164,36.0015487 C164,18.3212732 149.676007,4 131.998451,4 L36.0015487,4 C18.3212732,4 4,18.3239929 4,36.0015487 L4,36.0015487 Z M0,36.0015487 C0,16.1184424 16.1085463,0 36.0015487,0 L131.998451,0 C151.881558,0 168,16.1085463 168,36.0015487 L168,131.998451 C168,151.881558 151.891454,168 131.998451,168 L36.0015487,168 C16.1184424,168 0,151.891454 0,131.998451 L0,36.0015487 L0,36.0015487 Z" id="background" fill="#C1C8D2"></path>
            <rect id="Combined-Shape" fill="#858C96" x="96" y="83" width="26" height="4" rx="2"></rect>
            <path d="M107,121.595 L87.85,103.154 C86.813,102.156 85.446,101.606 84,101.606 C82.554,101.606 81.187,102.156 80.15,103.154 L61,121.595 L61,48.997 C61,47.896 61.896,47 62.998,47 L105.002,47 C106.104,47 107,47.895 107,48.995 L107,76 L111,76 L111,48.995 C111,45.686 108.315,43 105.002,43 L62.998,43 C59.678,43 57,45.685 57,48.997 L57,125.003 C57,127.047 57.736,128.142 58.86,128.142 C59.559,128.142 60.408,127.718 61.323,126.837 L82.925,106.035 C83.222,105.749 83.611,105.606 84,105.606 C84.389,105.606 84.778,105.749 85.075,106.035 L106.677,126.837 C107.589,127.715 108.436,128.137 109.134,128.137 C110.26,128.137 111,127.041 111,124.994 L111,94 L107,94 L107,121.595 Z" id="Fill-1" fill="#858C96"></path>
        </g>
    </g>
</svg>