<?xml version="1.0" encoding="UTF-8" standalone="no"?>
<svg width="72px" height="72px" viewBox="0 0 72 72" version="1.1" xmlns="http://www.w3.org/2000/svg" xmlns:xlink="http://www.w3.org/1999/xlink">
    <!-- Generator: Sketch 3.7.2 (28276) - http://www.bohemiancoding.com/sketch -->
    <title>icon_home_tab_timeline_normal</title>
    <desc>Created with Sketch.</desc>
    <defs></defs>
    <g id="slice" stroke="none" stroke-width="1" fill="none" fill-rule="evenodd">
        <g id="icon_bar" transform="translate(-588.000000, -192.000000)" fill="#858C96">
            <g id="icon_home_tab_timeline_normal" transform="translate(588.000000, 192.000000)">
                <rect id="Rectangle-29" x="18" y="33" width="37" height="4" rx="1"></rect>
                <rect id="Rectangle-29" x="18" y="21" width="37" height="4" rx="1"></rect>
                <path d="M8.00259267,5 L64.9974073,5 C68.3125477,5 71,7.68672481 71,11.0083618 L71,47.9916382 C71,51.3099648 68.3112985,54 65.001155,54 L41,54 L25.9120165,68.2497622 C24.3037542,69.7686766 23,69.212833 23,66.9927643 L23,54 L8.00370086,54 C4.68794843,54 2,51.3132752 2,47.9916382 L2,11.0083618 C2,7.69003521 4.68370468,5 8.00259267,5 Z M6,47.9916382 C6,49.1033468 6.89629869,50 8.00370086,50 L23,50 L27,50 L27,62 L38.2535059,51.0919474 L39.4096855,50 L41,50 L65.001155,50 C66.102052,50 67,49.1009305 67,47.9916382 L67,11.0083618 C67,9.89648795 66.1040319,9 64.9974073,9 L8.00259267,9 C6.89538539,9 6,9.89663262 6,11.0083618 L6,47.9916382 Z" id="Path"></path>
            </g>
        </g>
    </g>
</svg>