<?xml version="1.0" encoding="UTF-8" standalone="no"?>
<svg width="48px" height="48px" viewBox="0 0 48 48" version="1.1" xmlns="http://www.w3.org/2000/svg" xmlns:xlink="http://www.w3.org/1999/xlink" xmlns:sketch="http://www.bohemiancoding.com/sketch/ns">
    <!-- Generator: Sketch 3.4.2 (15855) - http://www.bohemiancoding.com/sketch -->
    <title>icon_my_review_praise</title>
    <desc>Created with Sketch.</desc>
    <defs></defs>
    <g id="slice" stroke="none" stroke-width="1" fill="none" fill-rule="evenodd" sketch:type="MSPage">
        <g id="icon_general" sketch:type="MSArtboardGroup" transform="translate(-1800.000000, -60.000000)" fill="#99999B">
            <g id="icon_my_review_praise" sketch:type="MSLayerGroup" transform="translate(1800.000000, 60.000000)">
                <path d="M31.875,11 C35.803,11 39,14.096 39,17.9 C39,18.843 38.804,19.761 38.417,20.629 L38.389,20.691 L38.365,20.753 C35.687,27.567 27.16,35.418 24,37.627 C20.84,35.418 12.313,27.567 9.635,20.753 L9.611,20.691 L9.583,20.629 C9.196,19.761 9,18.843 9,17.9 C9,14.095 12.196,11 16.125,11 C18.297,11 20.324,11.946 21.688,13.595 L24,16.391 L26.312,13.595 C27.675,11.946 29.703,11 31.875,11 M31.875,8 C28.692,8 25.856,9.438 24,11.683 C22.144,9.438 19.308,8 16.125,8 C10.533,8 6,12.432 6,17.9 C6,19.305 6.304,20.64 6.843,21.851 C10.392,30.882 22.594,41 24,41 C25.406,41 37.608,30.882 41.157,21.851 C41.697,20.64 42,19.305 42,17.9 C42,12.432 37.467,8 31.875,8" id="Imported-Layers" sketch:type="MSShapeGroup"></path>
            </g>
        </g>
    </g>
</svg>