<?xml version="1.0" encoding="UTF-8" standalone="no"?>
<svg width="216px" height="216px" viewBox="0 0 216 216" version="1.1" xmlns="http://www.w3.org/2000/svg" xmlns:xlink="http://www.w3.org/1999/xlink" xmlns:sketch="http://www.bohemiancoding.com/sketch/ns">
    <!-- Generator: Sketch 3.4.4 (17249) - http://www.bohemiancoding.com/sketch -->
    <title>icon_read_time_exchange_success</title>
    <desc>Created with Sketch.</desc>
    <defs></defs>
    <g id="slice" stroke="none" stroke-width="1" fill="none" fill-rule="evenodd" sketch:type="MSPage">
        <g id="icon_general" sketch:type="MSArtboardGroup" transform="translate(-1587.000000, -481.000000)" fill-opacity="0.75" fill="#FFFFFF">
            <g id="icon_read_time_exchange_success" sketch:type="MSLayerGroup" transform="translate(1587.000000, 481.000000)">
                <path d="M94.5403679,123.887825 L78.840065,108.187522 C74.7316648,104.079122 68.0857864,104.081475 63.9852814,108.181981 C59.8838747,112.283387 59.8872572,118.933199 63.9908226,123.036764 L94.7444264,153.790368 L109.593669,138.941125 L109.38961,138.737067 L151.109972,97.0167049 C155.213981,92.9126961 155.210678,86.267767 151.110173,82.1672619 C147.008766,78.0658552 140.361346,78.0668466 136.26073,82.1674625 L94.5403679,123.887825 Z M108,216 C167.646753,216 216,167.646753 216,108 C216,48.353247 167.646753,0 108,0 C48.353247,0 0,48.353247 0,108 C0,167.646753 48.353247,216 108,216 Z" id="Oval-47" sketch:type="MSShapeGroup"></path>
            </g>
        </g>
    </g>
</svg>