<?xml version="1.0" encoding="UTF-8" standalone="no"?>
<svg width="72px" height="72px" viewBox="0 0 72 72" version="1.1" xmlns="http://www.w3.org/2000/svg" xmlns:xlink="http://www.w3.org/1999/xlink" xmlns:sketch="http://www.bohemiancoding.com/sketch/ns">
    <!-- Generator: Sketch 3.4.2 (15855) - http://www.bohemiancoding.com/sketch -->
    <title>icon_topbar_back</title>
    <desc>Created with Sketch.</desc>
    <defs></defs>
    <g id="slice" stroke="none" stroke-width="1" fill="none" fill-rule="evenodd" sketch:type="MSPage">
        <g id="icon_bar" sketch:type="MSArtboardGroup" transform="translate(-60.000000, -60.000000)" fill="#1B88EE">
            <g id="icon_topbar_back" sketch:type="MSLayerGroup" transform="translate(60.000000, 60.000000)">
                <path d="M12.3284271,34 L64.0036926,34 C65.1062227,34 66,34.8877296 66,36 C66,37.1045695 65.1052696,38 64.0036926,38 L12.3284271,38 L34.2877769,59.9593498 C35.0692703,60.7408432 35.0750761,62.0020883 34.2885822,62.7885822 C33.5075336,63.5696308 32.2465668,63.574994 31.4593498,62.7877769 L6.71222305,38.0406502 C6.34038588,37.668813 6.14415571,37.1883654 6.12532196,36.7021231 C6.04429308,36.4840873 6,36.2476074 6,36 C6,35.754363 6.04424799,35.5190688 6.12517883,35.301665 C6.14313778,34.8141306 6.33942031,34.3321526 6.71222305,33.9593498 L31.4593498,9.21222305 C32.2465668,8.42500604 33.5075336,8.43036918 34.2885822,9.21141777 C35.0750761,9.99791168 35.0692703,11.2591568 34.2877769,12.0406502 L12.3284271,34 L12.3284271,34 Z" id="Rectangle-457" sketch:type="MSShapeGroup"></path>
            </g>
        </g>
    </g>
</svg>