<?xml version="1.0" encoding="UTF-8"?>
<svg width="84px" height="85px" viewBox="0 0 84 85" version="1.1" xmlns="http://www.w3.org/2000/svg" xmlns:xlink="http://www.w3.org/1999/xlink">
    <!-- Generator: Sketch 42 (36781) - http://www.bohemiancoding.com/sketch -->
    <title>icon_reading_encourage_percent_80</title>
    <desc>Created with Sketch.</desc>
    <defs></defs>
    <g id="Symbols" stroke="none" stroke-width="1" fill="none" fill-rule="evenodd">
        <g id="icon_reading_encourage_percent_80">
            <g id="80%">
                <rect id="icon" x="0" y="0.50877193" width="84" height="84.4912281"></rect>
                <path d="M37.5929662,1.26891842 C39.7507614,0.0158293765 43.233494,0.00668606184 45.4070338,1.26891842 L75.0929662,18.5083286 C77.2507614,19.7614176 79,22.7906191 79,25.3150838 L79,59.7939042 C79,62.3000822 77.266506,65.338427 75.0929662,66.6006594 L45.4070338,83.8400696 C43.2492386,85.0931586 39.766506,85.1023019 37.5929662,83.8400696 L7.90703382,66.6006594 C5.74923863,65.3475704 4,62.3183689 4,59.7939042 L4,25.3150838 C4,22.8089057 5.73349401,19.7705609 7.90703382,18.5083286 L37.5929662,1.26891842 Z M9.40703382,21.1215982 C8.16793305,21.841177 7,23.8797127 7,25.3150838 L7,59.7939042 C7,61.2330617 8.17119314,63.2697042 9.40703382,63.9873898 L39.0929662,81.2267999 C40.332067,81.9463787 42.6711931,81.9444855 43.9070338,81.2267999 L73.5929662,63.9873898 C74.832067,63.267811 76,61.2292752 76,59.7939042 L76,25.3150838 C76,23.8759263 74.8288069,21.8392838 73.5929662,21.1215982 L43.9070338,3.88218806 C42.667933,3.16260929 40.3288069,3.16450251 39.0929662,3.88218806 L9.40703382,21.1215982 Z" id="Polygon" fill="#C4C8D0" fill-rule="nonzero"></path>
                <g id="80" transform="translate(16.000000, 21.631579)" fill="#99A0AA">
                    <g id="8" fill-rule="nonzero">
                        <path d="M10.1012178,16.3684211 C11.5817442,15.725248 13.2343336,15.3684211 15,15.3684211 C20.8512746,15.3684211 26,20.7410041 26,27.3684211 C26,33.9958381 20.8512746,39.3684211 15,39.3684211 L15,36.3684211 C19.1944204,36.3684211 23,32.3389838 23,27.3684211 C23,22.3978583 19.1944204,18.3684211 15,18.3684211 L15,16.3684211 L10.1012178,16.3684211 Z" id="Oval-8"></path>
                        <path d="M2.11111111,39.055495 C2.95284297,39.2601877 3.83008428,39.3684211 4.73155155,39.3684211 C11.0828262,39.3684211 16.2315516,33.9958381 16.2315516,27.3684211 C16.2315516,21.0867397 11.6060062,15.9323842 5.7151632,15.4117 L4.78230763,18.3729743 C9.35039466,18.5255738 13.0093293,22.4945674 13.0093293,27.3684211 C13.0093293,32.3389838 9.2037497,36.3684211 4.50932933,36.3684211 C3.75282108,36.3684211 3.01939556,36.2637786 2.32125933,36.0674184 L2.11111111,39.055495 Z" id="Oval-8" transform="translate(9.171331, 27.390061) scale(-1, 1) translate(-9.171331, -27.390061) "></path>
                        <path d="M16,0.368421053 C11.0294373,0.368421053 7,4.3978583 7,9.36842105 C7,14.3389838 11.0294373,18.3684211 16,18.3684211 L16,15.3684211 C12.6862915,15.3684211 10,12.6821296 10,9.36842105 C10,6.05471255 12.6862915,3.36842105 16,3.36842105 L16,0.368421053 Z" id="Oval-7"></path>
                        <path d="M23.3666161,18.3546951 L25,18.2979055 C24.629187,18.3444433 24.251356,18.3684211 23.8679248,18.3684211 C23.6997041,18.3684211 23.5325613,18.3638058 23.3666161,18.3546951 Z M22.9798225,18.3251567 C18.4261307,17.8791216 14.8679248,14.0393031 14.8679248,9.36842105 C14.8679248,4.3978583 18.897362,0.368421053 23.8679248,0.368421053 C24.1381218,0.368421053 24.4055379,0.380327835 24.6696769,0.403645327 L24.6696769,3.42152329 C24.4074068,3.38650073 24.1397772,3.36842105 23.8679248,3.36842105 C20.5542163,3.36842105 17.8679248,6.05471255 17.8679248,9.36842105 C17.8679248,12.5679672 20.3723109,15.1825826 23.527756,15.3589401 L22.9798225,18.3251567 Z" id="Oval-7" transform="translate(19.933962, 9.368421) scale(-1, 1) translate(-19.933962, -9.368421) "></path>
                    </g>
                    <path d="M32,43.3684211 C23.7157288,43.3684211 17,36.6526923 17,28.3684211 C17,20.0841498 23.7157288,13.3684211 32,13.3684211 C40.2842712,13.3684211 47,20.0841498 47,28.3684211 C47,36.6526923 40.2842712,43.3684211 32,43.3684211 Z M32,40.3684211 C38.627417,40.3684211 44,34.9958381 44,28.3684211 C44,21.7410041 38.627417,16.3684211 32,16.3684211 C25.372583,16.3684211 20,21.7410041 20,28.3684211 C20,34.9958381 25.372583,40.3684211 32,40.3684211 Z" id="Combined-Shape"></path>
                </g>
                <path d="M51,23 L54,23 L54,26 L51,26 L51,23 Z M59,29 L62,29 L62,32 L59,32 L59,29 Z M59.25,23 L62.35,23 L54.0134394,32.012368 L50.9134394,32.012368 L59.25,23 Z" id="Combined-Shape" fill="#99A0AA"></path>
            </g>
        </g>
    </g>
</svg>