<?xml version="1.0" encoding="UTF-8" standalone="no"?>
<svg width="72px" height="72px" viewBox="0 0 72 72" version="1.1" xmlns="http://www.w3.org/2000/svg" xmlns:xlink="http://www.w3.org/1999/xlink">
    <!-- Generator: Sketch 3.8.3 (29802) - http://www.bohemiancoding.com/sketch -->
    <title>icon_reader_footer_font_selected</title>
    <desc>Created with Sketch.</desc>
    <defs></defs>
    <g id="Symbols" stroke="none" stroke-width="1" fill="none" fill-rule="evenodd">
        <g id="icon_reader_footer_font_selected">
            <rect id="icon" x="0" y="0" width="72" height="72"></rect>
            <path d="M52.9306,55.8261 C48.2186,55.8261 45.4056,53.5621 45.4056,49.7701 C45.4056,45.8371 47.7286,43.9521 53.4506,43.2601 C54.7256,43.0711 56.0496,42.9621 57.3296,42.8571 C59.8456,42.6501 62.2606,42.4521 64.0486,41.6441 L64.0486,45.8001 C64.0486,45.9001 63.9216,55.8261 52.9306,55.8261 L52.9306,55.8261 Z M70.3746,54.9601 C69.7896,55.0361 69.5226,55.0711 69.2376,55.0711 C68.6016,55.0711 68.4036,54.8601 68.2596,54.4721 C68.0486,53.9001 68.0486,53.0391 68.0486,52.2051 L68.0486,33.4501 C68.0486,29.1391 65.9376,24.0001 55.8776,24.0001 C47.7186,24.0001 43.0386,28.1411 42.7006,35.6611 L42.6536,36.7061 L47.0426,36.7061 L47.0926,35.7581 C47.3596,30.6631 50.3736,28.0791 56.0496,28.0791 C62.7006,28.0791 64.0596,32.3141 64.0596,33.4491 C64.0596,38.0501 64.0596,38.5311 53.8146,39.1941 C50.3086,39.5231 40.9976,40.3971 40.9976,49.7651 C40.9976,56.2991 45.2016,59.8971 52.8356,59.8971 C57.6186,59.8971 61.6786,58.0951 64.1146,55.0361 C64.3306,56.9591 65.2606,59.1501 69.2456,59.1501 C70.4286,59.1501 72.0486,59.1501 72.0486,57.8981 L72.0486,54.7481 L70.3746,54.9601 Z" id="Fill-1" fill="#1B88EE"></path>
            <path d="M30.0059,37 L14.9889,37 L22.4979,18.71 L30.0059,37 Z M20.3299,11 L-0.0001,60 L5.1479,60 L13.1479,42 L31.8479,42 L39.8479,60 L44.9949,60 L24.6659,11 L20.3299,11 Z" id="Fill-3" fill="#1B88EE"></path>
        </g>
    </g>
</svg>