<?xml version="1.0" encoding="UTF-8" standalone="no"?>
<svg width="72px" height="72px" viewBox="0 0 72 72" version="1.1" xmlns="http://www.w3.org/2000/svg" xmlns:xlink="http://www.w3.org/1999/xlink" xmlns:sketch="http://www.bohemiancoding.com/sketch/ns">
    <!-- Generator: Sketch 3.4.4 (17249) - http://www.bohemiancoding.com/sketch -->
    <title>icon_reader_top_bookshelf_dark</title>
    <desc>Created with Sketch.</desc>
    <defs></defs>
    <g id="slice" stroke="none" stroke-width="1" fill="none" fill-rule="evenodd" sketch:type="MSPage">
        <g id="icon_reading" sketch:type="MSArtboardGroup" transform="translate(-60.000000, -60.000000)" fill="#1B88EE">
            <g id="icon_reader_top_bookshelf_dark" sketch:type="MSLayerGroup" transform="translate(60.000000, 60.000000)">
                <path d="M67,10 L15.01,10 C8.917,10 4,14.925 4,21 C4,27.076 8.929,32 15.01,32 L67,32 L67,30.221 C63.99,28.258 62,24.862 62,21 C62,17.138 63.99,13.742 67,11.779 L67,10 Z M59.727,14 C58.608,16.122 58,18.514 58,21 C58,23.486 58.608,25.878 59.727,28 L15.01,28 C11.145,28 8,24.86 8,21 C8,17.14 11.145,14 15.01,14 L59.727,14 L59.727,14 Z" id="Fill-1" sketch:type="MSShapeGroup"></path>
                <path d="M47,55 L27,55 L27,59 L47,59 L47,55 Z" id="Fill-3" sketch:type="MSShapeGroup"></path>
                <path d="M39,47 L35,47 L35,67 L39,67 L39,47 Z" id="Fill-5" sketch:type="MSShapeGroup"></path>
                <path d="M55.9902,37 L4.0002,37 L4.0002,38.779 C7.0102,40.742 9.0002,44.138 9.0002,48 C9.0002,51.862 7.0102,55.258 4.0002,57.221 L4.0002,59 L22.0002,59 L22.0002,55 L11.2732,55 C12.3922,52.878 13.0002,50.486 13.0002,48 C13.0002,45.514 12.3922,43.122 11.2732,41 L55.9902,41 C59.8552,41 63.0002,44.14 63.0002,48 C63.0002,51.86 59.8552,55 55.9902,55 L52.0002,55 L52.0002,59 L55.9902,59 C62.0712,59 67.0002,54.076 67.0002,48 C67.0002,41.925 62.0832,37 55.9902,37" id="Fill-6" sketch:type="MSShapeGroup"></path>
            </g>
        </g>
    </g>
</svg>