<?xml version="1.0" encoding="UTF-8" standalone="no"?>
<svg width="72px" height="72px" viewBox="0 0 72 72" version="1.1" xmlns="http://www.w3.org/2000/svg" xmlns:xlink="http://www.w3.org/1999/xlink">
    <!-- Generator: Sketch 3.8.3 (29802) - http://www.bohemiancoding.com/sketch -->
    <title>icon_reader_bright_large_dark</title>
    <desc>Created with Sketch.</desc>
    <defs></defs>
    <g id="Symbols" stroke="none" stroke-width="1" fill="none" fill-rule="evenodd">
        <g id="icon_reader_bright_large_dark">
            <rect id="icon" x="0" y="0" width="72" height="72"></rect>
            <path d="M36,54 C26.0588745,54 18,45.9411255 18,36 C18,26.0588745 26.0588745,18 36,18 C45.9411255,18 54,26.0588745 54,36 C54,45.9411255 45.9411255,54 36,54 Z M36,50 C43.7319865,50 50,43.7319865 50,36 C50,28.2680135 43.7319865,22 36,22 C28.2680135,22 22,28.2680135 22,36 C22,43.7319865 28.2680135,50 36,50 Z" id="Oval-7" fill="#1B88EE"></path>
            <path d="M3,36 C3,34.8954305 3.89585781,34 4.9973917,34 L10.0026083,34 C11.1057373,34 12,34.8877296 12,36 C12,37.1045695 11.1041422,38 10.0026083,38 L4.9973917,38 C3.89426273,38 3,37.1122704 3,36 Z M60,36 C60,34.8954305 60.8958578,34 61.9973917,34 L67.0026083,34 C68.1057373,34 69,34.8877296 69,36 C69,37.1045695 68.1041422,38 67.0026083,38 L61.9973917,38 C60.8942627,38 60,37.1122704 60,36 Z" id="Rectangle-43" fill="#1B88EE"></path>
            <path d="M3,36 C3,34.8954305 3.89585781,34 4.9973917,34 L10.0026083,34 C11.1057373,34 12,34.8877296 12,36 C12,37.1045695 11.1041422,38 10.0026083,38 L4.9973917,38 C3.89426273,38 3,37.1122704 3,36 Z M60,36 C60,34.8954305 60.8958578,34 61.9973917,34 L67.0026083,34 C68.1057373,34 69,34.8877296 69,36 C69,37.1045695 68.1041422,38 67.0026083,38 L61.9973917,38 C60.8942627,38 60,37.1122704 60,36 Z" id="Rectangle-43" fill="#1B88EE" transform="translate(36.000000, 36.000000) rotate(-315.000000) translate(-36.000000, -36.000000) "></path>
            <path d="M3,37 C3,35.8954305 3.89585781,35 4.9973917,35 L10.0026083,35 C11.1057373,35 12,35.8877296 12,37 C12,38.1045695 11.1041422,39 10.0026083,39 L4.9973917,39 C3.89426273,39 3,38.1122704 3,37 Z M60,37 C60,35.8954305 60.8958578,35 61.9973917,35 L67.0026083,35 C68.1057373,35 69,35.8877296 69,37 C69,38.1045695 68.1041422,39 67.0026083,39 L61.9973917,39 C60.8942627,39 60,38.1122704 60,37 Z" id="Rectangle-43" fill="#1B88EE" transform="translate(36.000000, 37.000000) rotate(-270.000000) translate(-36.000000, -37.000000) "></path>
            <path d="M3,36 C3,34.8954305 3.89585781,34 4.9973917,34 L10.0026083,34 C11.1057373,34 12,34.8877296 12,36 C12,37.1045695 11.1041422,38 10.0026083,38 L4.9973917,38 C3.89426273,38 3,37.1122704 3,36 Z M60,36 C60,34.8954305 60.8958578,34 61.9973917,34 L67.0026083,34 C68.1057373,34 69,34.8877296 69,36 C69,37.1045695 68.1041422,38 67.0026083,38 L61.9973917,38 C60.8942627,38 60,37.1122704 60,36 Z" id="Rectangle-43" fill="#1B88EE" transform="translate(36.000000, 36.000000) rotate(-225.000000) translate(-36.000000, -36.000000) "></path>
        </g>
    </g>
</svg>