<?xml version="1.0" encoding="UTF-8" standalone="no"?>
<svg width="168px" height="168px" viewBox="0 0 168 168" version="1.1" xmlns="http://www.w3.org/2000/svg" xmlns:xlink="http://www.w3.org/1999/xlink">
    <!-- Generator: Sketch 3.8.3 (29802) - http://www.bohemiancoding.com/sketch -->
    <title>icon_more_operation_rate</title>
    <desc>Created with Sketch.</desc>
    <defs></defs>
    <g id="Symbols" stroke="none" stroke-width="1" fill="none" fill-rule="evenodd">
        <g id="icon_more_operation_rate">
            <rect id="icon" x="0" y="0" width="168" height="168"></rect>
            <rect id="background" fill="#FCB929" x="0" y="0" width="168" height="168" rx="36"></rect>
            <path d="M111.055214,125.458759 C103.278971,130.543741 93.9847212,133.5 84,133.5 C56.6619049,133.5 34.5,111.338095 34.5,84 C34.5,56.6619049 56.6619049,34.5 84,34.5 C111.338095,34.5 133.5,56.6619049 133.5,84 C133.5,93.9847212 130.543741,103.278971 125.458759,111.055214 L129.747803,127.598669 C130.16323,129.20103 129.202467,130.163602 127.598669,129.747803 L111.055214,125.458759 Z M76.6363636,76.5 L60.0037162,76.5 C58.3448095,76.5 58.0013258,77.3857727 59.2518332,78.4919715 L72.2611364,90 L67.2572363,106.622708 C66.7788774,108.211792 67.5464606,108.815532 68.9704357,107.971936 L84,99.0680714 L99.0295643,107.971936 C100.454097,108.815862 101.223759,108.220551 100.742764,106.622708 L95.7388636,90 L108.748167,78.4919715 C109.99182,77.391836 109.650313,76.5 107.996284,76.5 L91.3636364,76.5 L85.1344306,61.2730525 C84.5079019,59.7415379 83.4938675,59.7372129 82.8655694,61.2730525 L76.6363636,76.5 Z" id="Combined-Shape" fill="#FFFFFF"></path>
        </g>
    </g>
</svg>