<?xml version="1.0" encoding="UTF-8" standalone="no"?>
<svg width="48px" height="48px" viewBox="0 0 48 48" version="1.1" xmlns="http://www.w3.org/2000/svg" xmlns:xlink="http://www.w3.org/1999/xlink">
    <!-- Generator: Sketch 3.8.3 (29802) - http://www.bohemiancoding.com/sketch -->
    <title>icon_bookdetail_copyright</title>
    <desc>Created with Sketch.</desc>
    <defs></defs>
    <g id="Symbols" stroke="none" stroke-width="1" fill="none" fill-rule="evenodd">
        <g id="icon_bookdetail_copyright">
            <rect id="icon" x="0" y="0" width="48" height="48"></rect>
            <path d="M24,42 L24,42 C33.9411255,42 42,33.9411255 42,24 C42,14.0588745 33.9411255,6 24,6 C14.0588745,6 6,14.0588745 6,24 C6,33.9411255 14.0588745,42 24,42 L24,42 Z M24,45 L24,45 C12.4020203,45 3,35.5979797 3,24 C3,12.4020203 12.4020203,3 24,3 C35.5979797,3 45,12.4020203 45,24 C45,35.5979797 35.5979797,45 24,45 L24,45 Z" id="Oval-1361" fill="#99A0AA"></path>
            <path d="M34.065182,27 C32.7743582,31.3372334 28.756531,34.5 24,34.5 C18.2010101,34.5 13.5,29.7989899 13.5,24 C13.5,18.2010101 18.2010101,13.5 24,13.5 C28.756531,13.5 32.7743582,16.6627666 34.065182,21 L30.8759345,21 C29.7185995,18.3511428 27.0754786,16.5 24,16.5 C19.8578644,16.5 16.5,19.8578644 16.5,24 C16.5,28.1421356 19.8578644,31.5 24,31.5 C27.0754786,31.5 29.7185995,29.6488572 30.8759345,27 L34.065182,27 Z" id="Oval-104" fill="#99A0AA"></path>
        </g>
    </g>
</svg>