<?xml version="1.0" encoding="UTF-8" standalone="no"?>
<svg width="48px" height="48px" viewBox="0 0 48 48" version="1.1" xmlns="http://www.w3.org/2000/svg" xmlns:xlink="http://www.w3.org/1999/xlink">
    <!-- Generator: Sketch 3.8.3 (29802) - http://www.bohemiancoding.com/sketch -->
    <title>icon_sendtip_gift</title>
    <desc>Created with Sketch.</desc>
    <defs></defs>
    <g id="Symbols" stroke="none" stroke-width="1" fill="none" fill-rule="evenodd">
        <g id="icon_sendtip_gift">
            <rect id="icon" x="0" y="0" width="48" height="48"></rect>
            <path d="M40,43.8 C40,44.4618 39.2902632,45 38.4210526,45 L25,45 L25,30 L40,30 L40,43.8 Z M7,43.8 C7,44.46 7.77463158,45 8.73684211,45 L22,45 L22,30 L7,30 L7,43.8 Z M25,18 L25,27 L41.4492308,27 C42.3037046,27 43,26.32575 43,25.5 L43,19.5 C43,18.6765 42.3068062,18 41.4492308,18 L25,18 Z M5.55076923,18 C4.69629538,18 4,18.67425 4,19.5 L4,25.5 C4,26.3235 4.69319385,27 5.55076923,27 L22,27 L22,18 L5.55076923,18 Z" id="Imported-Layers" fill="#F35757"></path>
            <path d="M20.6215364,8.27142857 C21.6914846,9.41742857 28,15 28,15 L16.0673575,15 C11.0598108,15 7,12.2871429 7,8.976 C7,5.664 8.89389502,3 13.0459563,3 C17.1980176,3 19.1171435,6.66171429 20.6215364,8.27142857 Z M16.5629215,11.976375 C14.6841142,11.976375 12.9778881,11.4649341 11.8252384,10.649909 C11.0401896,10.0948102 10.75,9.61107397 10.75,9.33531349 C10.75,7.46551757 11.3689128,6.75 13.2599335,6.75 C14.3656192,6.75 15.2346274,7.3088167 16.406167,8.74281912 C16.6448964,9.03503161 18.0786744,10.9590856 18.5464343,11.4908264 C18.6633956,11.6239197 18.8152119,11.7878877 19,11.9809389 C17.0240193,12.0263438 16.5629215,11.976375 16.5629215,11.976375 Z" id="Path" fill="#F35757"></path>
            <path d="M32.6215364,8.27142857 C33.6914846,9.41742857 40,15 40,15 L28.0673575,15 C23.0598108,15 19,12.2871429 19,8.976 C19,5.664 20.893895,3 25.0459563,3 C29.1980176,3 31.1171435,6.66171429 32.6215364,8.27142857 Z M28.5629215,11.976375 C26.6841142,11.976375 24.9778881,11.4649341 23.8252384,10.649909 C23.0401896,10.0948102 22.75,9.61107397 22.75,9.33531349 C22.75,7.46551757 23.3689128,6.75 25.2599335,6.75 C26.3656192,6.75 27.2346274,7.3088167 28.406167,8.74281912 C28.6448964,9.03503161 30.0786744,10.9590856 30.5464343,11.4908264 C30.6633956,11.6239197 30.8152119,11.7878877 31,11.9809389 C29.0240193,12.0263438 28.5629215,11.976375 28.5629215,11.976375 Z" id="Path" fill="#F35757" transform="translate(29.500000, 9.000000) scale(-1, 1) translate(-29.500000, -9.000000) "></path>
        </g>
    </g>
</svg>