<?xml version="1.0" encoding="UTF-8" standalone="no"?>
<svg width="48px" height="48px" viewBox="0 0 48 48" version="1.1" xmlns="http://www.w3.org/2000/svg" xmlns:xlink="http://www.w3.org/1999/xlink">
    <!-- Generator: Sketch 3.8.3 (29802) - http://www.bohemiancoding.com/sketch -->
    <title>icon_search_suggest_author</title>
    <desc>Created with Sketch.</desc>
    <defs></defs>
    <g id="Symbols" stroke="none" stroke-width="1" fill="none" fill-rule="evenodd">
        <g id="icon_search_suggest_author">
            <rect id="icon" x="0" y="0" width="48" height="48"></rect>
            <path d="M23.8935,6 C18.3735,6 13.9005,10.319 13.9005,16.841 C13.9005,20.517 15.3255,24.172 17.5565,26.794 C18.1225,27.461 18.4425,28.297 18.4425,29.172 C18.4425,30.526 17.6945,30.438 16.4975,31.071 L4.4505,37.389 C3.5585,37.862 3.0005,40.181 3.0005,41.19 L3.0005,42.729 C3.0005,43.983 4.0175,45 5.2715,45 L42.5145,45 C43.7685,45 44.7855,43.983 44.7855,42.729 L44.7855,41.19 C44.7855,40.181 44.2275,37.922 43.3345,37.449 L31.2885,31.071 C30.0915,30.438 29.3425,30.526 29.3425,29.172 C29.3425,28.297 29.6625,27.461 30.2295,26.794 C32.4595,24.172 33.8855,20.517 33.8855,16.841 C33.8855,10.319 29.4115,6 23.8935,6 M23.8935,9 C28.0105,9 30.8855,12.224 30.8855,16.841 C30.8855,19.692 29.7855,22.686 27.9455,24.85 C26.9115,26.063 26.3425,27.598 26.3425,29.172 C26.3425,32.195 28.4555,33.096 29.3565,33.48 C29.5515,33.563 29.7195,33.635 29.8845,33.722 L41.4755,39.859 C41.6305,40.248 41.7815,40.903 41.7855,41.19 L41.7855,42 L6.0005,42 L6.0005,41.192 C6.0035,40.889 6.1605,40.203 6.3205,39.796 L17.8995,33.723 C18.0655,33.635 18.2335,33.563 18.4285,33.48 C19.3305,33.096 21.4425,32.195 21.4425,29.172 C21.4425,27.598 20.8735,26.063 19.8415,24.851 C17.9995,22.686 16.9005,19.692 16.9005,16.841 C16.9005,12.224 19.7765,9 23.8935,9" id="Fill-1" fill="#99A0AA"></path>
        </g>
    </g>
</svg>