<?xml version="1.0" encoding="UTF-8"?>
<svg width="48px" height="48px" viewBox="0 0 48 48" version="1.1" xmlns="http://www.w3.org/2000/svg" xmlns:xlink="http://www.w3.org/1999/xlink">
    <!-- Generator: Sketch 40.2 (33826) - http://www.bohemiancoding.com/sketch -->
    <title>icon_collect_small_yellow</title>
    <desc>Created with Sketch.</desc>
    <defs></defs>
    <g id="Symbols" stroke="none" stroke-width="1" fill="none" fill-rule="evenodd">
        <g id="icon_collect_small_yellow">
            <rect id="icon" x="0" y="0" width="48" height="48"></rect>
            <path d="M42,15.177051 L42,33.0089096 C42,34.6608432 40.8122756,36.6186064 39.3378696,37.3865262 L27.3821304,43.6134738 C26.8484647,43.8914247 26.1915498,44.0733859 25.5,44.1582047 L25.5,25.5 L25.5,24 L24.354102,24 L24.6708204,23.8416408 L42,15.177051 Z M41.1110878,12.2980101 C40.6402909,11.5797494 40.0189488,10.9682025 39.3378696,10.6134738 L27.3821304,4.38652624 C25.9077244,3.61860645 23.5102482,3.58161143 22.0179438,4.29906549 L8.70205622,10.7009345 C8.01743923,11.0300773 7.39088399,11.6147053 6.91385281,12.3109246 L24,21.1583592 L41.1110878,12.2980101 Z M6,15.177051 L6,33.0089096 C6,34.6582294 7.20975178,36.5816114 8.70205622,37.2990655 L22.0179438,43.7009345 C22.1697391,43.773913 22.3310799,43.8390609 22.5,43.8964038 L22.5,25.5 L22.5,24 L23.645898,24 L23.3291796,23.8416408 L6,15.177051 Z" id="Combined-Shape" fill="#FFBA1A"></path>
        </g>
    </g>
</svg>