<?xml version="1.0" encoding="UTF-8" standalone="no"?>
<svg width="168px" height="168px" viewBox="0 0 168 168" version="1.1" xmlns="http://www.w3.org/2000/svg" xmlns:xlink="http://www.w3.org/1999/xlink">
    <!-- Generator: Sketch 3.8.3 (29802) - http://www.bohemiancoding.com/sketch -->
    <title>icon_more_operation_voice</title>
    <desc>Created with Sketch.</desc>
    <defs></defs>
    <g id="Symbols" stroke="none" stroke-width="1" fill="none" fill-rule="evenodd">
        <g id="icon_more_operation_voice">
            <rect id="icon" x="0" y="0" width="168" height="168"></rect>
            <path d="M4,36.0015487 L4,36.0015487 L4,131.998451 C4,149.678727 18.3239929,164 36.0015487,164 L131.998451,164 C149.678727,164 164,149.676007 164,131.998451 L164,36.0015487 C164,18.3212732 149.676007,4 131.998451,4 L36.0015487,4 C18.3212732,4 4,18.3239929 4,36.0015487 L4,36.0015487 Z M0,36.0015487 C0,16.1184424 16.1085463,0 36.0015487,0 L131.998451,0 C151.881558,0 168,16.1085463 168,36.0015487 L168,131.998451 C168,151.881558 151.891454,168 131.998451,168 L36.0015487,168 C16.1184424,168 0,151.891454 0,131.998451 L0,36.0015487 L0,36.0015487 Z" id="background" fill="#C1C8D2"></path>
            <path d="M110.9561,41 L61.9561,41 C54.3511,41 48.0931,47.24 47.9561,55 L47.9561,74 L33.9561,83 C32.6811,83.458 32.6811,84.542 33.9561,85 L47.9561,94 L47.9561,113 C48.0931,120.745 54.3461,127 61.9561,127 L110.9561,127 C118.6991,127 124.9561,120.76 124.9561,113 L124.9561,55 C124.9561,47.255 118.7051,41 110.9561,41 M110.9561,45 C116.4701,45 120.9561,49.486 120.9561,55 L120.9561,113 C120.9561,118.514 116.4701,123 110.9561,123 L61.9561,123 C56.5511,123 52.0711,118.5 51.9561,112.962 L51.9561,94 L51.9561,91.816 L50.1191,90.635 L39.7971,84 L50.1191,77.365 L51.9561,76.184 L51.9561,74 L51.9561,55.038 C52.0711,49.5 56.5501,45 61.9561,45 L110.9561,45" id="Fill-1" fill="#858C96"></path>
            <path d="M96.0542461,103.438864 C99.5362455,97.7824489 101.544187,91.1252322 101.544187,84 C101.544187,76.9115225 99.5569076,70.2862446 96.1080129,64.6487501 L92.1326592,67.0731372 C95.1483774,72.0047579 96.8859595,77.7998792 96.8859595,84 C96.8859595,90.2368755 95.1277153,96.0639356 92.0788924,101.014477 L96.0542461,103.438864 Z M86.1158588,97.3778943 C88.5149188,93.4861655 89.8986177,88.9043406 89.8986177,84 C89.8986177,79.1324142 88.5355808,74.5825281 86.1696256,70.7097196 L82.1942664,73.13411 C84.1270482,76.3010417 85.2403899,80.0207708 85.2403899,84 C85.2403899,88.015984 84.1063861,91.7676518 82.1404996,94.9535039 L86.1158588,97.3778943 Z M76.1774485,91.3169108 C77.4935816,89.1898806 78.2530481,86.6834494 78.2530481,84 C78.2530481,81.3533054 77.5142437,78.878813 76.2312153,76.770703 L72.2558254,79.1951121 C73.1056973,80.5973288 73.5948203,82.2416614 73.5948203,84 C73.5948203,85.7950934 73.0850351,87.471365 72.2020587,88.8925017 L76.1774485,91.3169108 Z" id="Combined-Shape" fill="#858C96"></path>
        </g>
    </g>
</svg>