<?xml version="1.0" encoding="UTF-8" standalone="no"?>
<svg width="48px" height="48px" viewBox="0 0 48 48" version="1.1" xmlns="http://www.w3.org/2000/svg" xmlns:xlink="http://www.w3.org/1999/xlink" xmlns:sketch="http://www.bohemiancoding.com/sketch/ns">
    <!-- Generator: Sketch 3.4.2 (15855) - http://www.bohemiancoding.com/sketch -->
    <title>icon_my_review_secret</title>
    <desc>Created with Sketch.</desc>
    <defs></defs>
    <g id="slice" stroke="none" stroke-width="1" fill="none" fill-rule="evenodd" sketch:type="MSPage">
        <g id="icon_general" sketch:type="MSArtboardGroup" transform="translate(-787.000000, -192.000000)" fill="#CCCCCE">
            <g id="icon_my_review_secret" sketch:type="MSLayerGroup" transform="translate(787.000000, 192.000000)">
                <path d="M35.449125,16.7117714 C35.377125,16.8633143 33.658125,20.4212286 31.36425,20.4212286 C29.248125,20.4212286 26.85525,19.0450857 26.754,18.9860286 L26.217375,18.6740286 L26.62575,18.1993429 C26.728125,18.0812286 29.15475,15.2899429 31.36425,15.2899429 C33.4455,15.2899429 35.1195,15.9819143 35.190375,16.012 L35.68425,16.2192571 L35.449125,16.7117714 L35.449125,16.7117714 Z M21.246,18.9860286 C21.145875,19.0450857 18.751875,20.4212286 16.63575,20.4212286 C14.341875,20.4212286 12.622875,16.8633143 12.550875,16.7117714 L12.31575,16.2192571 L12.81075,16.012 C12.8805,15.9819143 14.5545,15.2899429 16.63575,15.2899429 C18.84525,15.2899429 21.273,18.0812286 21.375375,18.1993429 L21.782625,18.6740286 L21.246,18.9860286 L21.246,18.9860286 Z M7.924875,27.6050286 C8.887875,36.6708571 18.475125,43 24,43 C29.524875,43 39.16275,36.6563714 40.01775,27.6050286 L42,4 C31.0875,8.57748571 16.9125,8.57748571 6,4 L7.924875,27.6050286 L7.924875,27.6050286 Z" id="privateIcon" sketch:type="MSShapeGroup"></path>
            </g>
        </g>
    </g>
</svg>