<?xml version="1.0" encoding="UTF-8" standalone="no"?>
<svg width="168px" height="168px" viewBox="0 0 168 168" version="1.1" xmlns="http://www.w3.org/2000/svg" xmlns:xlink="http://www.w3.org/1999/xlink">
    <!-- Generator: Sketch 3.8.3 (29802) - http://www.bohemiancoding.com/sketch -->
    <title>icon_more_operation_report</title>
    <desc>Created with Sketch.</desc>
    <defs></defs>
    <g id="Symbols" stroke="none" stroke-width="1" fill="none" fill-rule="evenodd">
        <g id="icon_more_operation_report">
            <rect id="icon" x="0" y="0" width="168" height="168"></rect>
            <path d="M0,36.0015487 C0,16.1184424 16.1085463,0 36.0015487,0 L131.998451,0 C151.881558,0 168,16.1085463 168,36.0015487 L168,131.998451 C168,151.881558 151.891454,168 131.998451,168 L36.0015487,168 C16.1184424,168 0,151.891454 0,131.998451 L0,36.0015487 Z M4,36.0015487 L4,131.998451 C4,149.678727 18.3239929,164 36.0015487,164 L131.998451,164 C149.678727,164 164,149.676007 164,131.998451 L164,36.0015487 C164,18.3212732 149.676007,4 131.998451,4 L36.0015487,4 C18.3212732,4 4,18.3239929 4,36.0015487 Z" id="background" fill="#C1C8D2"></path>
            <path d="M83.5468572,45.821382 L83.5468572,45.821382 L83.5468572,45.821382 L47.7625548,112.94222 C46.8444885,114.664243 47.0458598,115 48.9934203,115 L119.50658,115 C121.450128,115 121.653684,114.660815 120.737445,112.94222 L84.9531428,45.821382 C84.6363383,45.2271498 84.3259224,44.8426796 84.0805204,44.6560047 C84.0374096,44.6232107 84.1121039,44.6503342 84.2501963,44.6503167 C84.3881787,44.6502992 84.4626522,44.6232385 84.4193701,44.6561704 C84.1739171,44.8429274 83.8635416,45.2273751 83.5468572,45.821382 L83.5468572,45.821382 Z M80.0171512,43.9395808 C82.354889,39.5546714 86.1442835,39.5531193 88.4828488,43.9395808 L124.267151,111.060419 C126.604889,115.445329 124.46737,119 119.50658,119 L48.9934203,119 C44.0264914,119 41.8942835,115.446881 44.2328488,111.060419 L80.0171512,43.9395808 L80.0171512,43.9395808 Z" id="Rectangle-740" fill="#858C96"></path>
            <rect id="Rectangle-741" fill="#858C96" x="82" y="100" width="4" height="4" rx="2"></rect>
            <rect id="Rectangle-741" fill="#858C96" x="82" y="69" width="4" height="27" rx="2"></rect>
        </g>
    </g>
</svg>