<?xml version="1.0" encoding="UTF-8" standalone="no"?>
<svg width="36px" height="36px" viewBox="0 0 36 36" version="1.1" xmlns="http://www.w3.org/2000/svg" xmlns:xlink="http://www.w3.org/1999/xlink">
    <!-- Generator: Sketch 3.8.3 (29802) - http://www.bohemiancoding.com/sketch -->
    <title>icon_follow_mutual</title>
    <desc>Created with Sketch.</desc>
    <defs></defs>
    <g id="Symbols" stroke="none" stroke-width="1" fill="none" fill-rule="evenodd">
        <g id="icon_follow_mutual">
            <rect id="icon" x="0" y="0" width="36" height="36"></rect>
            <path d="M7.65072112,25 L32.6291636,25 C33.4449323,25 34.1213203,25.6715729 34.1213203,26.5 C34.1213203,27.3342028 33.453259,28 32.6291636,28 L7.74264069,28 L12.2426407,32.5 L10.1213203,34.6213203 L2,26.5 L10.1213203,18.3786797 L12.2426407,20.5 L7.65072112,25 Z M28.4705992,9 L3.49215675,9 C2.67638809,9 2,9.67157288 2,10.5 C2,11.3342028 2.66806133,12 3.49215675,12 L28.3786797,12 L23.8786797,16.5 L26,18.6213203 L34.1213203,10.5 L26,2.37867966 L23.8786797,4.5 L28.4705992,9 Z" id="Rectangle-379" fill="#FFFFFF"></path>
        </g>
    </g>
</svg>