<?xml version="1.0" encoding="UTF-8" standalone="no"?>
<svg width="72px" height="72px" viewBox="0 0 72 72" version="1.1" xmlns="http://www.w3.org/2000/svg" xmlns:xlink="http://www.w3.org/1999/xlink" xmlns:sketch="http://www.bohemiancoding.com/sketch/ns">
    <!-- Generator: Sketch 3.4.2 (15855) - http://www.bohemiancoding.com/sketch -->
    <title>icon_weixin_small</title>
    <desc>Created with Sketch.</desc>
    <defs></defs>
    <g id="slice" stroke="none" stroke-width="1" fill="none" fill-rule="evenodd" sketch:type="MSPage">
        <g id="icon_general" sketch:type="MSArtboardGroup" transform="translate(-1844.000000, -192.000000)" fill="#38C738">
            <g id="icon_weixin_small" sketch:type="MSLayerGroup" transform="translate(1844.000000, 192.000000)">
                <path d="M55.6376825,58.5333944 C53.1138719,59.6109489 50.2650424,60.2173913 47.25,60.2173913 C36.8946609,60.2173913 28.5,53.0636802 28.5,44.2391304 C28.5,35.4145806 36.8946609,28.2608696 47.25,28.2608696 C57.6053391,28.2608696 66,35.4145806 66,44.2391304 C66,49.1276332 63.4238581,53.5033913 59.365354,56.4343143 L61.483871,61.7391304 L55.6376825,58.5333944 Z M40.8387097,41.8394649 C42.2639606,41.8394649 43.4193548,40.6515471 43.4193548,39.1861761 C43.4193548,37.7208052 42.2639606,36.5328874 40.8387097,36.5328874 C39.4134587,36.5328874 38.2580645,37.7208052 38.2580645,39.1861761 C38.2580645,40.6515471 39.4134587,41.8394649 40.8387097,41.8394649 Z M53.7419355,41.8394649 C55.1671865,41.8394649 56.3225806,40.6515471 56.3225806,39.1861761 C56.3225806,37.7208052 55.1671865,36.5328874 53.7419355,36.5328874 C52.3166845,36.5328874 51.1612903,37.7208052 51.1612903,39.1861761 C51.1612903,40.6515471 52.3166845,41.8394649 53.7419355,41.8394649 Z" id="Oval-1644" sketch:type="MSShapeGroup"></path>
                <path d="M27.5965681,48.4726814 C24.8131441,48.470849 22.1528389,48.0007112 19.7097388,47.1460087 L12.4516129,51.1259755 L14.9636641,44.8357405 C9.53337207,41.3414635 6,35.656162 6,29.2363434 C6,18.6124043 15.6764264,10 27.6129032,10 C38.6251253,10 47.7137431,17.3303044 49.0552021,26.8077182 C48.4604798,26.7623152 47.8583729,26.7391304 47.25,26.7391304 C36.0662338,26.7391304 27,34.5741473 27,44.2391304 C27,45.6989606 27.2068376,47.1170419 27.5965681,48.4726814 Z M20.1935484,25.9197324 C21.6187994,25.9197324 22.7741935,24.7318146 22.7741935,23.2664437 C22.7741935,21.8010728 21.6187994,20.613155 20.1935484,20.613155 C18.7682974,20.613155 17.6129032,21.8010728 17.6129032,23.2664437 C17.6129032,24.7318146 18.7682974,25.9197324 20.1935484,25.9197324 Z M35.6774194,25.9197324 C37.1026703,25.9197324 38.2580645,24.7318146 38.2580645,23.2664437 C38.2580645,21.8010728 37.1026703,20.613155 35.6774194,20.613155 C34.2521684,20.613155 33.0967742,21.8010728 33.0967742,23.2664437 C33.0967742,24.7318146 34.2521684,25.9197324 35.6774194,25.9197324 Z" id="Oval-1644" sketch:type="MSShapeGroup"></path>
            </g>
        </g>
    </g>
</svg>