<?xml version="1.0" encoding="UTF-8"?>
<svg width="72px" height="72px" viewBox="0 0 72 72" version="1.1" xmlns="http://www.w3.org/2000/svg" xmlns:xlink="http://www.w3.org/1999/xlink">
    <!-- Generator: Sketch 41 (35326) - http://www.bohemiancoding.com/sketch -->
    <title>icon_topbar_collected</title>
    <desc>Created with Sketch.</desc>
    <defs></defs>
    <g id="Symbols" stroke="none" stroke-width="1" fill="none" fill-rule="evenodd">
        <g id="icon_topbar_collected">
            <rect id="icon" x="0" y="0" width="72" height="72"></rect>
            <g id="Group-3" transform="translate(9.000000, 5.000000)" fill="#1B88EE">
                <path d="M0,21.9942819 C0,20.3405857 1.17227025,19.6564713 2.61642726,20.4651993 L22.3835727,31.5348007 C23.8285856,32.3440079 25,34.3405687 25,35.9942819 L25,59.0057181 C25,60.6594143 23.8277297,61.3435287 22.3835727,60.5348007 L2.61642726,49.4651993 C1.17141439,48.6559921 0,46.6594313 0,45.0057181 L0,21.9942819 Z" id="Rectangle-26"></path>
                <path d="M24.3865938,1.46369634 C25.8299382,0.655319175 28.1775176,0.659494953 29.6134062,1.46369634 L51.3865938,13.6582549 C52.8299382,14.466632 52.8224824,15.7814462 51.3865938,16.5856476 L29.6134062,28.7802061 C28.1700618,29.5885833 25.8224824,29.5844075 24.3865938,28.7802061 L2.61340621,16.5856476 C1.17006182,15.7772704 1.1775176,14.4624563 2.61340621,13.6582549 L24.3865938,1.46369634 Z" id="Rectangle"></path>
                <path d="M28,21.9942819 C28,20.3405857 29.1847274,19.6379302 30.636101,20.419439 L51.363899,31.580561 C52.8197774,32.3644955 54,34.3405687 54,35.9942819 L54,59.0057181 C54,60.6594143 52.8152726,61.3620698 51.363899,60.580561 L30.636101,49.419439 C29.1802226,48.6355045 28,46.6594313 28,45.0057181 L28,21.9942819 Z" id="Rectangle-26" transform="translate(41.000000, 40.500000) scale(-1, 1) translate(-41.000000, -40.500000) "></path>
            </g>
        </g>
    </g>
</svg>