<?xml version="1.0" encoding="UTF-8"?>
<svg width="72px" height="72px" viewBox="0 0 72 72" version="1.1" xmlns="http://www.w3.org/2000/svg" xmlns:xlink="http://www.w3.org/1999/xlink">
    <!-- Generator: Sketch 40.2 (33826) - http://www.bohemiancoding.com/sketch -->
    <title>icon_style_add_note</title>
    <desc>Created with Sketch.</desc>
    <defs></defs>
    <g id="Symbols" stroke="none" stroke-width="1" fill="none" fill-rule="evenodd">
        <g id="icon_style_add_note">
            <rect id="icon" x="0" y="0" width="72" height="72"></rect>
            <path d="M13.9998806,8 L59.0001194,8 C60.6569077,8 62,9.35277618 62,11.0042888 L62,61.9957112 C62,63.6549341 60.6620883,65 59.0001194,65 L13.9998806,65 C12.3430923,65 11,63.6472238 11,61.9957112 L11,11.0042888 C11,9.34506593 12.3379117,8 13.9998806,8 Z M15,61.9957112 C15,61.4436433 14.5577916,61 13.9998806,61 L59.0001194,61 C58.4487729,61 58,61.4499692 58,61.9957112 L58,11.0042888 C58,11.5563567 58.4422084,12 59.0001194,12 L13.9998806,12 C14.5512271,12 15,11.5500308 15,11.0042888 L15,61.9957112 Z" id="Rectangle-2" fill="#858C96"></path>
            <rect id="Rectangle-3" fill="#858C96" x="23" y="39" width="21" height="4"></rect>
            <rect id="Rectangle-3" fill="#858C96" x="23" y="29" width="27" height="4"></rect>
        </g>
    </g>
</svg>