<?xml version="1.0" encoding="UTF-8" standalone="no"?>
<svg width="72px" height="72px" viewBox="0 0 72 72" version="1.1" xmlns="http://www.w3.org/2000/svg" xmlns:xlink="http://www.w3.org/1999/xlink" xmlns:sketch="http://www.bohemiancoding.com/sketch/ns">
    <!-- Generator: Sketch 3.5.1 (25234) - http://www.bohemiancoding.com/sketch -->
    <title>icon_reader_selection_menu_review</title>
    <desc>Created with Sketch.</desc>
    <defs></defs>
    <g id="slice" stroke="none" stroke-width="1" fill="none" fill-rule="evenodd" sketch:type="MSPage">
        <g id="icon_reading" sketch:type="MSArtboardGroup" transform="translate(-962.000000, -192.000000)" fill="#FFFFFF">
            <g id="icon_reader_selection_menu_review" sketch:type="MSLayerGroup" transform="translate(962.000000, 192.000000)">
                <path d="M57.4113455,12.0015 C56.4918455,14.7675 55.1673455,18.7845 53.8023455,23.0415 C52.7058455,23.748 49.6278455,25.065 47.1333455,25.479 L37.3083455,27.105 L46.3968455,31.176 C47.3343455,31.596 48.2628455,31.9185 49.2558455,32.1585 C46.2168455,37.2015 39.8133455,45.2535 29.6238455,45.9465 C26.0913455,46.1865 22.8828455,47.7645 20.5893455,50.3895 C19.7838455,51.312 18.9798455,52.272 18.2433455,53.1735 C21.2598455,42.102 26.9763455,29.295 34.6143455,21.5895 C42.6963455,13.437 52.2243455,12.06 57.4113455,12.0015 M57.7683455,9 C52.2348455,9 41.5338455,10.3485 32.4828455,19.4775 C21.7983455,30.2565 15.4788455,48.9585 13.5588455,60.4395 C13.1718455,62.76 14.8203455,63 14.8203455,63 L17.3448455,59.16 C17.3448455,59.16 20.1063455,55.5 22.8483455,52.3635 C24.6318455,50.3235 27.1458455,49.122 29.8278455,48.9405 C46.1748455,47.8275 53.5143455,30.612 53.9313455,29.718 C51.2133455,29.625 49.4433455,29.2545 47.6223455,28.4385 C51.1923455,27.8475 56.1243455,25.626 56.4543455,24.5985 C59.0343455,16.5285 61.5003455,9.237 61.5003455,9.237 C61.5003455,9.237 60.0873455,9 57.7683455,9" id="Imported-Layers" sketch:type="MSShapeGroup"></path>
            </g>
        </g>
    </g>
</svg>