<?xml version="1.0" encoding="UTF-8"?>
<svg width="72px" height="72px" viewBox="0 0 72 72" version="1.1" xmlns="http://www.w3.org/2000/svg" xmlns:xlink="http://www.w3.org/1999/xlink">
    <!-- Generator: Sketch 40.2 (33826) - http://www.bohemiancoding.com/sketch -->
    <title>icon_style_quote</title>
    <desc>Created with Sketch.</desc>
    <defs></defs>
    <g id="Symbols" stroke="none" stroke-width="1" fill="none" fill-rule="evenodd">
        <g id="icon_style_quote">
            <rect id="icon" x="0" y="0" width="72" height="72"></rect>
            <path d="M43.7394667,30.0798406 C43.7394667,35.601753 47.4496234,40.287012 54.6932628,40.287012 C54.6932628,46.3109163 49.2163647,54.8447809 43.7394667,59.6973705 L46.0362304,62.04 C54.1632404,57.6894024 65.6470588,45.976255 65.6470588,31.7531474 C65.6470588,25.0599203 61.5835538,20.04 54.6932628,20.04 C47.2729493,20.04 43.7394667,25.3945817 43.7394667,30.0798406 Z M28.2605333,41.9201594 C28.2605333,36.398247 24.5503766,31.712988 17.3067372,31.712988 C17.3067372,25.6890837 22.7836353,17.1552191 28.2605333,12.3026295 L25.9637696,9.96 C17.8367596,14.3105976 6.35294118,26.023745 6.35294118,40.2468526 C6.35294118,46.9400797 10.4164462,51.96 17.3067372,51.96 C24.7270507,51.96 28.2605333,46.6054183 28.2605333,41.9201594 Z" id="Combined-Shape" fill="#858C96"></path>
        </g>
    </g>
</svg>