<?xml version="1.0" encoding="UTF-8"?>
<svg width="84px" height="45px" viewBox="0 0 84 45" version="1.1" xmlns="http://www.w3.org/2000/svg" xmlns:xlink="http://www.w3.org/1999/xlink">
    <!-- Generator: Sketch 41.2 (35397) - http://www.bohemiancoding.com/sketch -->
    <title>icon_bookshelf_finished</title>
    <desc>Created with Sketch.</desc>
    <defs></defs>
    <g id="Symbols" stroke="none" stroke-width="1" fill="none" fill-rule="evenodd">
        <g id="icon_bookshelf_finished">
            <g id="icon_bookcover_finished">
                <rect id="icon" x="0" y="0" width="84" height="45"></rect>
                <polygon id="corner" fill="#D78200" transform="translate(81.500000, 42.000000) scale(-1, 1) translate(-81.500000, -42.000000) " points="79 39 84 39 84 45"></polygon>
                <rect id="Rectangle" fill="#FF9A00" x="0" y="0" width="84" height="39" rx="1.5"></rect>
                <path d="M18.207,25.639 C15.939,25.639 15.519,25.366 15.519,24.064 L15.519,19.003 L25.809,19.003 L25.809,20.011 L27.825,20.011 L27.825,10.141 L12.537,10.141 L12.537,12.052 L25.809,12.052 L25.809,17.092 L15.519,17.092 L15.519,13.921 L13.503,13.921 L13.503,24.043 C13.503,26.899 14.637,27.571 18.27,27.571 L25.704,27.571 C29.316,27.571 30.093,26.437 30.513,22.552 C29.946,22.447 29.064,22.111 28.518,21.775 C28.245,25.009 27.909,25.639 25.683,25.639 L18.207,25.639 Z M49.791,18.331 C50.274,17.281 50.799,15.643 51.198,14.194 L49.98,13.9 L49.665,13.963 L46.032,13.963 L46.032,12.325 L50.274,12.325 L50.274,10.687 L46.032,10.687 L46.032,8.902 L44.121,8.902 L44.121,10.687 L39.9,10.687 L39.9,12.325 L44.121,12.325 L44.121,13.963 L39.165,13.963 L39.165,15.622 L49.056,15.622 C48.804,16.483 48.531,17.344 48.279,17.974 L49.791,18.331 Z M44.604,18.142 C43.911,17.533 42.588,16.714 41.538,16.189 L40.677,17.155 C41.748,17.701 43.071,18.583 43.701,19.213 L44.604,18.142 Z M38.178,12.325 C37.464,11.464 35.952,10.183 34.818,9.28 L33.579,10.54 C34.713,11.506 36.183,12.871 36.855,13.753 L38.178,12.325 Z M51.303,22.72 L51.303,21.04 L46.347,21.04 C46.494,20.242 46.536,19.444 46.536,18.709 L46.536,16.315 L44.667,16.315 L44.667,18.667 C44.667,19.402 44.625,20.221 44.394,21.04 L42.357,21.04 L43.155,20.095 C42.483,19.423 41.139,18.562 40.047,17.995 L39.165,19.003 C40.173,19.549 41.391,20.41 42.105,21.04 L38.724,21.04 L38.724,22.678 L38.64,22.447 L37.023,23.77 L37.023,15.349 L32.403,15.349 L32.403,17.218 L35.238,17.218 L35.238,24.421 C35.238,25.471 34.65,26.206 34.251,26.521 C34.545,26.815 35.049,27.466 35.238,27.865 C35.553,27.403 36.099,26.878 39.396,24.106 C39.207,23.791 38.934,23.224 38.745,22.72 L43.722,22.72 C42.882,24.211 41.307,25.639 38.367,26.752 C38.766,27.13 39.333,27.823 39.522,28.285 C43.26,26.794 45.045,24.757 45.864,22.72 L51.303,22.72 Z M45.738,24.358 C47.418,25.471 49.455,27.151 50.421,28.243 L51.66,26.983 C50.652,25.87 48.552,24.295 46.893,23.245 L45.738,24.358 Z M56.175,13.039 L69.699,13.039 L69.699,16.042 L71.715,16.042 L71.715,11.17 L64.428,11.17 C64.134,10.393 63.651,9.427 63.189,8.671 L61.215,9.259 C61.53,9.826 61.866,10.54 62.097,11.17 L54.222,11.17 L54.222,16.042 L56.175,16.042 L56.175,13.039 Z M68.481,16.756 L68.481,14.971 L57.414,14.971 L57.414,16.756 L68.481,16.756 Z M67.347,26.059 C66.549,26.059 66.423,25.975 66.423,25.345 L66.423,20.641 L72.24,20.641 L72.24,18.814 L53.739,18.814 L53.739,20.641 L59.157,20.641 C58.926,24.064 58.149,25.681 53.466,26.521 C53.823,26.92 54.327,27.676 54.495,28.18 C59.808,27.088 60.858,24.841 61.152,20.641 L64.449,20.641 L64.449,25.345 C64.449,27.277 64.953,27.844 67.095,27.844 L70.056,27.844 C71.841,27.844 72.366,27.109 72.576,24.169 C72.072,24.043 71.253,23.728 70.812,23.392 C70.728,25.702 70.602,26.059 69.888,26.059 L67.347,26.059 Z" id="已读完" fill="#FFFFFF"></path>
            </g>
        </g>
    </g>
</svg>