<?xml version="1.0" encoding="UTF-8"?>
<svg width="216px" height="216px" viewBox="0 0 216 216" version="1.1" xmlns="http://www.w3.org/2000/svg" xmlns:xlink="http://www.w3.org/1999/xlink">
    <!-- Generator: Sketch 41 (35326) - http://www.bohemiancoding.com/sketch -->
    <title>icon_article_bookcover_style3</title>
    <desc>Created with Sketch.</desc>
    <defs></defs>
    <g id="Symbols" stroke="none" stroke-width="1" fill="none" fill-rule="evenodd">
        <g id="icon_article_bookcover_style3">
            <rect id="background" fill="#FFFFFF" x="0" y="0" width="216" height="216.496552" rx="9"></rect>
            <path d="M9.00625169,217 C4.03223623,217 0,212.97274 0,207.999943 L0,127 L0,127 L216,127 L216,207.999943 C216,212.970537 211.972777,217 206.993748,217 L9.00625169,217 Z" id="image" fill="#F2F9FF"></path>
            <path d="M155.664,81.4605172 L156.798,81.4605172 L156.798,96.2865172 L158.331,96.2865172 L158.331,91.3935172 L164.589,91.3935172 L164.589,89.9445172 L158.331,89.9445172 L158.331,86.3955172 L164.463,86.3955172 L164.463,84.9255172 L158.331,84.9255172 L158.331,81.4605172 L165.387,81.4605172 L165.387,79.9695172 L156.315,79.9695172 C156.651,79.1085172 156.987,78.1845172 157.323,77.2185172 L155.811,76.8825172 C154.635,80.4315172 153.102,83.3085172 151.254,85.4925172 L152.325,86.7735172 C153.585,85.2615172 154.698,83.4975172 155.664,81.4605172 Z M148.944,84.4845172 L148.944,96.2865172 L150.498,96.2865172 L150.498,82.2165172 C151.338,80.7885172 152.052,79.2555172 152.619,77.6175172 L151.191,76.9455172 C150.162,80.1375172 148.503,82.9515172 146.235,85.4085172 L146.739,87.0045172 C147.537,86.2065172 148.272,85.3665172 148.944,84.4845172 Z M171.066,79.1925172 L171.066,80.5995172 L176.82,80.5995172 L176.82,83.0985172 L169.197,83.0985172 L169.197,84.5265172 L178.752,84.5265172 C175.77,86.2485172 172.494,87.5505172 168.903,88.3905172 L169.533,89.7975172 C170.751,89.3985172 171.927,88.9995172 173.061,88.5795172 L173.061,96.3075172 L174.594,96.3075172 L174.594,95.3625172 L183.687,95.3625172 L183.687,96.3075172 L185.199,96.3075172 L185.199,86.8575172 L177.261,86.8575172 C178.479,86.2905172 179.592,85.7235172 180.558,85.1355172 C180.873,84.9255172 181.188,84.7365172 181.503,84.5265172 L187.908,84.5265172 L187.908,83.0985172 L183.414,83.0985172 C184.821,81.9645172 186.144,80.6415172 187.383,79.1715172 L186.228,78.3315172 C184.737,80.0955172 182.994,81.6915172 181.02,83.0985172 L178.374,83.0985172 L178.374,80.5995172 L183.33,80.5995172 L183.33,79.1925172 L178.374,79.1925172 L178.374,76.9665172 L176.82,76.9665172 L176.82,79.1925172 L171.066,79.1925172 Z M174.594,91.7295172 L183.687,91.7295172 L183.687,94.0185172 L174.594,94.0185172 L174.594,91.7295172 Z M183.687,90.3855172 L174.594,90.3855172 L174.594,88.1805172 L183.687,88.1805172 L183.687,90.3855172 Z" id="作者" fill="#5D646E" opacity="0.900000036"></path>
            <path d="M62.07,36.8851724 L62.07,38.5051724 L66.72,38.5051724 C68.1,43.3051724 70.59,47.4151724 74.16,50.8951724 C70.86,53.9551724 66.6,56.2051724 61.44,57.6451724 L62.28,59.0851724 C67.5,57.5851724 71.85,55.1851724 75.27,51.9151724 C78.57,54.8251724 82.71,57.2251724 87.75,59.0851724 L88.65,57.7051724 C83.76,55.9051724 79.68,53.5651724 76.41,50.7451724 C79.47,47.5051724 81.72,43.4251724 83.16,38.5051724 L87.93,38.5051724 L87.93,36.8851724 L76.47,36.8851724 C75.51,34.7851724 74.43,32.9551724 73.26,31.4551724 L71.64,32.0551724 C72.9,33.5551724 73.92,35.1451724 74.73,36.8851724 L62.07,36.8851724 Z M68.31,38.5051724 L81.51,38.5051724 C80.22,42.9451724 78.15,46.6951724 75.3,49.7551724 C72,46.6051724 69.66,42.8551724 68.31,38.5051724 Z M104.94,51.5551724 C103.17,53.5651724 99.81,55.3651724 94.83,56.9251724 L95.7,58.3351724 C101.01,56.4451724 104.61,54.1951724 106.47,51.5551724 L107.28,51.5551724 L107.28,59.0251724 L108.9,59.0251724 L108.9,51.5551724 L109.65,51.5551724 C111.75,54.3151724 115.35,56.5351724 120.48,58.2151724 L121.2,56.7451724 C116.64,55.4851724 113.31,53.7451724 111.24,51.5551724 L120.84,51.5551724 L120.84,50.0251724 L108.9,50.0251724 L108.9,48.2251724 L107.28,48.2251724 L107.28,50.0251724 L95.16,50.0251724 L95.16,51.5551724 L104.94,51.5551724 Z M98.22,38.5051724 L98.22,47.2651724 L119.97,47.2651724 L119.97,45.8551724 L109.68,45.8551724 L109.68,43.3051724 L118.38,43.3051724 L118.38,41.9851724 L109.68,41.9851724 L109.68,39.6451724 L118.38,39.6451724 L118.38,38.3251724 L109.68,38.3251724 L109.68,35.9251724 L119.43,35.9251724 L119.43,34.4851724 L109.53,34.4851724 C109.14,33.3751724 108.72,32.3551724 108.3,31.4551724 L106.68,31.7551724 C107.13,32.5651724 107.55,33.4651724 107.97,34.4851724 L100.95,34.4851724 C101.37,33.6751724 101.76,32.8351724 102.09,31.9651724 L100.59,31.5751724 C99.21,34.9051724 97.17,37.7851724 94.41,40.2451724 L95.25,41.5351724 C96.33,40.5751724 97.32,39.5551724 98.22,38.5051724 Z M108.09,45.8551724 L99.75,45.8551724 L99.75,43.3051724 L108.09,43.3051724 L108.09,45.8551724 Z M108.09,41.9851724 L99.75,41.9851724 L99.75,39.6451724 L108.09,39.6451724 L108.09,41.9851724 Z M108.09,38.3251724 L99.75,38.3251724 L99.75,36.4951724 C99.87,36.3151724 99.99,36.1051724 100.11,35.9251724 L108.09,35.9251724 L108.09,38.3251724 Z M136.35,57.0151724 L150.36,57.0151724 L150.36,58.8751724 L152.01,58.8751724 L152.01,46.5451724 L138.69,46.5451724 C144.72,43.8751724 148.89,40.3651724 151.23,36.0151724 L151.23,34.5451724 L139.14,34.5451724 C139.86,33.6451724 140.46,32.7451724 140.97,31.7851724 L139.23,31.5751724 C137.4,34.8151724 133.92,37.5751724 128.76,39.8251724 L129.81,41.2351724 C133.05,39.7351724 135.66,38.0251724 137.67,36.1051724 L149.37,36.1051724 C147.87,38.7451724 145.47,41.0851724 142.17,43.0651724 C140.85,41.8951724 138.99,40.5751724 136.53,39.1051724 L135.12,39.9751724 C137.52,41.3551724 139.44,42.6451724 140.82,43.8451724 C137.34,45.7051724 132.93,47.2051724 127.59,48.3751724 L128.4,49.9051724 C130.62,49.3651724 132.75,48.7351724 134.73,48.0751724 L134.73,58.8751724 L136.35,58.8751724 L136.35,57.0151724 Z M150.36,55.4251724 L136.35,55.4251724 L136.35,48.0751724 L150.36,48.0751724 L150.36,55.4251724 Z M160.83,40.0351724 L160.83,41.5651724 L165.18,41.5651724 C164.22,45.2851724 162.51,48.5851724 160.11,51.4951724 L160.83,53.2651724 C162.78,50.6851724 164.31,47.7451724 165.39,44.4451724 L165.39,58.9051724 L166.92,58.9051724 L166.92,44.9551724 C167.97,46.0651724 169.23,47.5951724 170.67,49.5451724 L171.6,48.1651724 C170.04,46.4251724 168.48,44.8351724 166.92,43.4551724 L166.92,41.5651724 L170.91,41.5651724 L170.91,40.0351724 L166.92,40.0351724 L166.92,34.9351724 C168.51,34.6351724 169.98,34.2751724 171.36,33.8551724 L170.79,32.3251724 C167.97,33.2251724 164.67,33.8551724 160.95,34.1851724 L161.28,35.7451724 C162.69,35.5951724 164.07,35.4151724 165.39,35.2051724 L165.39,40.0351724 L160.83,40.0351724 Z M177.78,58.8151724 C179.28,58.8151724 180.06,57.9751724 180.06,56.2951724 L180.06,40.3051724 L178.44,40.3051724 L178.44,55.9051724 C178.44,56.8651724 178.02,57.3751724 177.21,57.3751724 C176.37,57.3751724 175.47,57.3151724 174.54,57.2551724 L174.9,58.8151724 L177.78,58.8151724 Z M174.24,44.6551724 C173.46,48.3151724 172.26,51.5551724 170.61,54.4351724 L172.02,55.3351724 C173.64,52.4251724 174.87,48.9751724 175.77,44.9851724 L174.24,44.6551724 Z M183.96,44.5351724 L182.52,45.0151724 C183.81,48.1051724 185.01,51.6751724 186.12,55.6951724 L187.59,55.0051724 C186.57,51.2851724 185.37,47.8051724 183.96,44.5351724 Z M175.86,37.4851724 L184.98,37.4851724 C184.59,39.3451724 184.11,41.0551724 183.51,42.5851724 L185.1,43.0351724 C185.73,41.0551724 186.21,39.0451724 186.57,36.9751724 L186.57,35.9251724 L176.49,35.9251724 C176.97,34.6051724 177.33,33.1951724 177.63,31.6651724 L176.01,31.4851724 C175.26,35.3851724 173.82,38.7151724 171.72,41.4151724 L172.71,42.7051724 C173.97,41.1751724 175.02,39.4351724 175.86,37.4851724 Z" id="文集名称" fill="#212832" opacity="0.900000036"></path>
        </g>
    </g>
</svg>