<?xml version="1.0" encoding="UTF-8" standalone="no"?>
<svg width="72px" height="72px" viewBox="0 0 72 72" version="1.1" xmlns="http://www.w3.org/2000/svg" xmlns:xlink="http://www.w3.org/1999/xlink">
    <!-- Generator: Sketch 3.6.1 (26313) - http://www.bohemiancoding.com/sketch -->
    <title>icon_reader_eview_on_black</title>
    <desc>Created with Sketch.</desc>
    <defs></defs>
    <g id="slice" stroke="none" stroke-width="1" fill="none" fill-rule="evenodd">
        <g id="temp" transform="translate(-1132.000000, -386.000000)" fill="#3E6E9C">
            <g id="icon_reader_review_on_black" transform="translate(1132.000000, 386.000000)">
                <path d="M11,13.0069809 L11,13.0069809 L11,50.9930191 C11,50.4508285 10.5505284,50 9.99420208,50 L27,50 L28.7814496,50 L29.9731766,51.3241411 L36.9646029,59.0923925 C36.4863584,58.5610097 35.5130704,58.5616444 35.0353971,59.0923925 L42.0268234,51.3241411 L43.2185504,50 L45,50 L62.0057979,50 C61.4452534,50 61,50.446869 61,50.9930191 L61,13.0069809 C61,13.5497665 61.4491776,14 62.0038017,14 L9.99619829,14 C10.5568807,14 11,13.5559891 11,13.0069809 L11,13.0069809 Z M7,13.0069809 C7,11.3462712 8.34831184,10 9.99619829,10 L62.0038017,10 C63.6585563,10 65,11.3408574 65,13.0069809 L65,50.9930191 C65,52.6537288 63.656688,54 62.0057979,54 L45,54 L38.0085737,61.7682515 C36.8992691,63.0008121 35.1041422,63.0046024 33.9914263,61.7682515 L27,54 L9.99420208,54 C8.34054993,54 7,52.6591426 7,50.9930191 L7,13.0069809 L7,13.0069809 Z" id="Shape"></path>
                <path d="M20,35 L52,35 L52,39 L20,39 L20,35 Z M20,25 L52,25 L52,29 L20,29 L20,25 Z" id="Rectangle-28"></path>
            </g>
        </g>
    </g>
</svg>