<?xml version="1.0" encoding="UTF-8" standalone="no"?>
<svg width="168px" height="168px" viewBox="0 0 168 168" version="1.1" xmlns="http://www.w3.org/2000/svg" xmlns:xlink="http://www.w3.org/1999/xlink">
    <!-- Generator: Sketch 3.8.3 (29802) - http://www.bohemiancoding.com/sketch -->
    <title>icon_more_operation_book_send</title>
    <desc>Created with Sketch.</desc>
    <defs></defs>
    <g id="Symbols" stroke="none" stroke-width="1" fill="none" fill-rule="evenodd">
        <g id="icon_more_operation_book_send">
            <rect id="icon" x="0" y="0" width="168" height="168"></rect>
            <rect id="background" fill="#EF2B5D" x="0" y="0" width="168" height="168" rx="36"></rect>
            <path d="M115,124 C115,125.63656 113.627842,127 112,127 L86,127 L86,89 L115,89 L115,124 Z M54,124 C54,125.632 55.3614737,127 57,127 L83,127 L83,89 L54,89 L54,124 Z M86,68 L86,86 L121,86 C122.63504,86 124,84.6515 124,83 L124,71 C124,69.353 122.64112,68 121,68 L86,68 Z M48,68 C46.36496,68 45,69.3485 45,71 L45,83 C45,84.647 46.35888,86 48,86 L83,86 L83,68 L48,68 Z" id="Imported-Layers" fill="#FFFFFF"></path>
            <path d="M101.4735,48 C106.3215,48 106.9755,50.277 106.9755,52.458 C106.9755,53.6115 103.107,57 95.7255,57 L89.6715,57 C90.3705,57 90.927,55.839 91.272,55.5 C91.9845,54.798 92.6385,54.0165 93.3315,53.214 C96.039,50.079 98.067,48 101.4735,48 M101.4735,42 C93.5745,42 89.9235,48.408 87.0615,51.225 C85.026,53.2305 73.0245,63 73.0245,63 L95.7255,63 C105.252,63 112.9755,58.2525 112.9755,52.458 C112.9755,46.662 109.3725,42 101.4735,42" id="Fill-2" fill="#FFFFFF"></path>
            <path d="M66.5265,48 C69.933,48 71.961,50.055 74.6685,53.19 C75.3615,53.9925 76.0155,54.798 76.728,55.5 C77.073,55.839 77.6295,57 78.3285,57 L72.2745,57 C64.893,57 61.0245,53.6115 61.0245,52.458 C61.0245,50.277 61.6785,48 66.5265,48 M66.5265,42 C58.6275,42 55.0245,46.662 55.0245,52.458 C55.0245,58.2525 62.748,63 72.2745,63 L94.9755,63 C94.9755,63 82.974,53.2305 80.9385,51.225 C78.0765,48.408 74.4255,42 66.5265,42" id="Fill-1" fill="#FFFFFF"></path>
        </g>
    </g>
</svg>