<?xml version="1.0" encoding="UTF-8" standalone="no"?>
<svg width="72px" height="72px" viewBox="0 0 72 72" version="1.1" xmlns="http://www.w3.org/2000/svg" xmlns:xlink="http://www.w3.org/1999/xlink">
    <!-- Generator: Sketch 3.8.3 (29802) - http://www.bohemiancoding.com/sketch -->
    <title>icon_reader_bright_small_dark</title>
    <desc>Created with Sketch.</desc>
    <defs></defs>
    <g id="Symbols" stroke="none" stroke-width="1" fill="none" fill-rule="evenodd">
        <g id="icon_reader_bright_small_dark">
            <rect id="icon" x="0" y="0" width="72" height="72"></rect>
            <path d="M36,54 C26.0588745,54 18,45.9411255 18,36 C18,26.0588745 26.0588745,18 36,18 C45.9411255,18 54,26.0588745 54,36 C54,45.9411255 45.9411255,54 36,54 Z M36,50 C43.7319865,50 50,43.7319865 50,36 C50,28.2680135 43.7319865,22 36,22 C28.2680135,22 22,28.2680135 22,36 C22,43.7319865 28.2680135,50 36,50 Z" id="Oval-7" fill="#1B88EE"></path>
            <path d="M6,36 C6,34.8954305 6.89826062,34 7.99791312,34 L10.0020869,34 C11.1055038,34 12,34.8877296 12,36 C12,37.1045695 11.1017394,38 10.0020869,38 L7.99791312,38 C6.89449617,38 6,37.1122704 6,36 Z M60,36 C60,34.8954305 60.8982606,34 61.9979131,34 L64.0020869,34 C65.1055038,34 66,34.8877296 66,36 C66,37.1045695 65.1017394,38 64.0020869,38 L61.9979131,38 C60.8944962,38 60,37.1122704 60,36 Z" id="Rectangle-43" fill="#1B88EE"></path>
            <path d="M6,36 C6,34.8954305 6.89826062,34 7.99791312,34 L10.0020869,34 C11.1055038,34 12,34.8877296 12,36 C12,37.1045695 11.1017394,38 10.0020869,38 L7.99791312,38 C6.89449617,38 6,37.1122704 6,36 Z M60,36 C60,34.8954305 60.8982606,34 61.9979131,34 L64.0020869,34 C65.1055038,34 66,34.8877296 66,36 C66,37.1045695 65.1017394,38 64.0020869,38 L61.9979131,38 C60.8944962,38 60,37.1122704 60,36 Z" id="Rectangle-43" fill="#1B88EE" transform="translate(36.000000, 36.000000) rotate(-270.000000) translate(-36.000000, -36.000000) "></path>
            <path d="M6,36 C6,34.8954305 6.89826062,34 7.99791312,34 L10.0020869,34 C11.1055038,34 12,34.8877296 12,36 C12,37.1045695 11.1017394,38 10.0020869,38 L7.99791312,38 C6.89449617,38 6,37.1122704 6,36 Z M60,36 C60,34.8954305 60.8982606,34 61.9979131,34 L64.0020869,34 C65.1055038,34 66,34.8877296 66,36 C66,37.1045695 65.1017394,38 64.0020869,38 L61.9979131,38 C60.8944962,38 60,37.1122704 60,36 Z" id="Rectangle-43" fill="#1B88EE" transform="translate(36.000000, 36.000000) rotate(45.000000) translate(-36.000000, -36.000000) "></path>
            <path d="M6,36 C6,34.8954305 6.89826062,34 7.99791312,34 L10.0020869,34 C11.1055038,34 12,34.8877296 12,36 C12,37.1045695 11.1017394,38 10.0020869,38 L7.99791312,38 C6.89449617,38 6,37.1122704 6,36 Z M60,36 C60,34.8954305 60.8982606,34 61.9979131,34 L64.0020869,34 C65.1055038,34 66,34.8877296 66,36 C66,37.1045695 65.1017394,38 64.0020869,38 L61.9979131,38 C60.8944962,38 60,37.1122704 60,36 Z" id="Rectangle-43" fill="#1B88EE" transform="translate(36.000000, 36.000000) rotate(-45.000000) translate(-36.000000, -36.000000) "></path>
        </g>
    </g>
</svg>