<?xml version="1.0" encoding="UTF-8" standalone="no"?>
<svg width="30px" height="30px" viewBox="0 0 30 30" version="1.1" xmlns="http://www.w3.org/2000/svg" xmlns:xlink="http://www.w3.org/1999/xlink" xmlns:sketch="http://www.bohemiancoding.com/sketch/ns">
    <!-- Generator: Sketch 3.4.2 (15855) - http://www.bohemiancoding.com/sketch -->
    <title>icon_user_verify_small</title>
    <desc>Created with Sketch.</desc>
    <defs></defs>
    <g id="slice" stroke="none" stroke-width="1" fill="none" fill-rule="evenodd" sketch:type="MSPage">
        <g id="icon_general" sketch:type="MSArtboardGroup" transform="translate(-1683.000000, -333.000000)">
            <g id="icon_user_verify_small" sketch:type="MSLayerGroup" transform="translate(1683.000000, 333.000000)">
                <rect id="icon32*32" sketch:type="MSShapeGroup" x="0" y="0" width="30" height="30"></rect>
                <circle id="dot" fill="#FFBA19" sketch:type="MSShapeGroup" cx="15" cy="15" r="15"></circle>
                <path d="M11.3757857,20.7507857 C10.7885492,20.1635492 10.7824039,19.2175961 11.377277,18.622723 L19.560223,10.439777 C20.1482831,9.85171689 21.1021023,9.85210229 21.6882857,10.4382857 L22.3742143,11.1242143 C22.9614508,11.7114508 22.9675961,12.6574039 22.372723,13.252277 L14.189777,21.435223 C13.6017169,22.0232831 12.6478977,22.0228977 12.0617143,21.4367143 L11.3757857,20.7507857 Z" id="Rectangle-689" fill-opacity="0.75" fill="#FFFFFF" sketch:type="MSShapeGroup"></path>
                <path d="M7.61687916,16.9918792 C7.03456163,16.4095616 7.03960229,15.4603977 7.62578566,14.8742143 L8.31171434,14.1882857 C8.8989508,13.6010492 9.84695882,13.5969588 10.4293792,14.1793792 L14.8831208,18.6331208 C15.4654384,19.2154384 15.4603977,20.1646023 14.8742143,20.7507857 L14.1882857,21.4367143 C13.6010492,22.0239508 12.6530412,22.0280412 12.0706208,21.4456208 L7.61687916,16.9918792 Z" id="Rectangle-689" fill-opacity="0.75" fill="#FFFFFF" sketch:type="MSShapeGroup"></path>
            </g>
        </g>
    </g>
</svg>