<?xml version="1.0" encoding="UTF-8"?>
<svg width="72px" height="73px" viewBox="0 0 72 73" version="1.1" xmlns="http://www.w3.org/2000/svg" xmlns:xlink="http://www.w3.org/1999/xlink">
    <!-- Generator: Sketch 40.2 (33826) - http://www.bohemiancoding.com/sketch -->
    <title>icon_style_header</title>
    <desc>Created with Sketch.</desc>
    <defs></defs>
    <g id="Symbols" stroke="none" stroke-width="1" fill="none" fill-rule="evenodd">
        <g id="icon_style_header">
            <rect id="icon" x="0" y="0.5" width="72" height="72"></rect>
            <path d="M50,38 L23,38 L23,55 C22.1457726,55.5146502 22.12992,56.5188243 23,58 C22.0665086,58.1924728 22.0083823,58.8828425 23,59 L27,59 L27,62 L12,62 L12,61 C13.2259537,59.8242676 14.1454051,59.6046045 15,59 C15.3713587,58.8096214 15.8046635,58.2656938 17,58 C16.3119546,56.8849338 16.4440597,56.0638123 17,55 C16.4651968,54.1600371 17,19 17,19 C16.470481,17.3389077 16.4863337,16.5073261 17,16 C16.5497451,14.9382806 16.6078713,14.2217606 17,14 L12,14 L12,11 L27,11 L27,13 C25.3903,13.1757324 24.4708485,13.4006256 24,14 C23.2448949,14.2165292 22.8115902,14.7656869 23,16 C22.304299,16.146447 22.1721939,16.9623384 23,19 C22.1510568,18.845193 23,34 23,34 L50,34 L50,19 C49.8859329,16.418401 49.9493434,14.8702994 50,14 L45,14 L45,11 L60,11 L60,13 C58.7951835,13.1757324 57.8810162,13.4006256 57,14 C56.6339255,14.2165292 56.1953365,14.7656869 56,16 C55.6880454,16.146447 55.5559403,16.9623384 56,19 C55.5348032,18.845193 56,55 56,55 C55.529519,56.644363 55.4661085,58.3389067 56,59 L60,59 L60,62 L45,62 L45,61 C46.6097,59.8242676 47.5344357,59.6046045 48,59 C48.7815264,58.8096214 49.2201153,58.2656938 50,58 C49.7274065,56.8849338 49.8595116,56.0638123 50,55 C49.8806487,54.1600371 50,38 50,38 Z" id="H" fill="#858C96"></path>
        </g>
    </g>
</svg>