<?xml version="1.0" encoding="UTF-8" standalone="no"?>
<svg width="72px" height="72px" viewBox="0 0 72 72" version="1.1" xmlns="http://www.w3.org/2000/svg" xmlns:xlink="http://www.w3.org/1999/xlink">
    <!-- Generator: Sketch 3.8.3 (29802) - http://www.bohemiancoding.com/sketch -->
    <title>icon_reader_footer_font_dark</title>
    <desc>Created with Sketch.</desc>
    <defs></defs>
    <g id="Symbols" stroke="none" stroke-width="1" fill="none" fill-rule="evenodd">
        <g id="icon_reader_footer_font_dark">
            <rect id="icon" x="0" y="0" width="72" height="72"></rect>
            <path d="M65.0508,40.811 L65.0508,45.8 C65.0508,45.906 64.7348,56.327 53.4328,56.327 C48.4078,56.327 45.4078,53.875 45.4078,49.77 C45.4078,45.523 47.8588,43.494 53.8788,42.766 C55.1698,42.574 56.5028,42.465 57.7908,42.359 C60.6248,42.126 63.3268,41.904 65.0508,40.811 L65.0508,40.811 Z M70.9308,55.457 C70.3478,55.534 70.0558,55.572 69.7398,55.572 C68.9658,55.572 68.5328,55.294 68.2928,54.646 C68.0508,53.99 68.0508,53.082 68.0508,52.203 L68.0508,33.451 C68.0508,27.595 64.0148,24.5 56.3798,24.5 C48.5298,24.5 44.0268,28.472 43.7028,35.684 L43.6788,36.207 L47.0708,36.207 L47.0948,35.733 C47.4488,28.994 52.4338,27.58 56.5518,27.58 C63.6168,27.58 65.0618,32.21 65.0618,33.45 C65.0618,38.261 65.0618,39 54.3628,39.692 C48.6078,40.233 41.9998,41.866 41.9998,49.765 C41.9998,56.067 45.9208,59.398 53.3378,59.398 C58.5588,59.398 62.8818,57.19 65.0508,53.528 C65.0618,56.026 65.4728,58.651 69.7478,58.651 C71.6838,58.651 72.0508,58.386 72.0508,57.899 L72.0508,55.315 L70.9308,55.457 Z" id="Fill-1" fill="#1B88EE"></path>
            <path d="M43,59 L23.5,12 L20.5,12 L1,59 L4,59 L12,40.5 L32,40.5 L40,59 L43,59 Z M22,16.077 L31,37.5 L13,37.5 L22,16.077 Z" id="Imported-Layers" stroke="#1B88EE" fill="#1B88EE"></path>
        </g>
    </g>
</svg>