<?xml version="1.0" encoding="UTF-8" standalone="no"?>
<svg width="108px" height="108px" viewBox="0 0 108 108" version="1.1" xmlns="http://www.w3.org/2000/svg" xmlns:xlink="http://www.w3.org/1999/xlink">
    <!-- Generator: Sketch 3.8.3 (29802) - http://www.bohemiancoding.com/sketch -->
    <title>icon_review_secret_cornermark</title>
    <desc>Created with Sketch.</desc>
    <defs></defs>
    <g id="Symbols" stroke="none" stroke-width="1" fill="none" fill-rule="evenodd">
        <g id="icon_review_secret_cornermark">
            <rect id="icon" x="0" y="0" width="108" height="108"></rect>
            <polygon id="Rectangle-506" fill="#1B88EE" points="0 0 108 108 0 108"></polygon>
            <path d="M42.2862909,62 L12.7137117,62 C11.7369853,62 10.9701487,62.7887125 11.0008931,63.7713513 L11.5365554,80.9196396 C12.0089551,92.3926273 21.2080387,97.1834348 27.5000013,97.4743243 C33.6743074,97.1834348 42.8727997,92.3926273 43.4634472,80.9196396 L43.9991095,63.7713513 C44.0298539,62.7928511 43.2606523,62 42.2862909,62 Z M38.0991407,73.4508374 C38.0991407,72.4422904 36.4711407,72.4422904 34.0991407,72.4422904 C32.4541407,72.4422904 30.0991407,74.4593845 30.0991407,75.4679315 C30.0991407,75.4679315 32.0991407,76.4764785 34.0991407,76.4764785 C36.0991407,76.4764785 38.0991407,73.4508374 38.0991407,73.4508374 Z M16.6831272,73.4508374 C16.6831272,72.4422904 18.3111272,72.4422904 20.6831272,72.4422904 C22.3281272,72.4422904 24.6831272,74.4593845 24.6831272,75.4679315 C24.6831272,75.4679315 22.6831272,76.4764785 20.6831272,76.4764785 C18.6831272,76.4764785 16.6831272,73.4508374 16.6831272,73.4508374 Z" id="Combined-Shape" fill="#FFFFFF"></path>
        </g>
    </g>
</svg>