<?xml version="1.0" encoding="UTF-8" standalone="no"?>
<svg width="72px" height="72px" viewBox="0 0 72 72" version="1.1" xmlns="http://www.w3.org/2000/svg" xmlns:xlink="http://www.w3.org/1999/xlink">
    <!-- Generator: Sketch 3.8.3 (29802) - http://www.bohemiancoding.com/sketch -->
    <title>icon_topbar_share</title>
    <desc>Created with Sketch.</desc>
    <defs></defs>
    <g id="Symbols" stroke="none" stroke-width="1" fill="none" fill-rule="evenodd">
        <g id="icon_topbar_share">
            <rect id="icon" x="0" y="0" width="72" height="72"></rect>
            <g id="Group" transform="translate(3.000000, 5.000000)" fill="#1B88EE">
                <polygon id="Line" points="17.4825414 36.2218531 39.4825414 49.2218531 41.5174586 45.7781469 19.5174586 32.7781469"></polygon>
                <polygon id="Line" points="19.5174586 28.2218531 41.5174586 15.2218531 39.4825414 11.7781469 17.4825414 24.7781469"></polygon>
                <path d="M49.5,61 C43.7010101,61 39,56.2989899 39,50.5 C39,44.7010101 43.7010101,40 49.5,40 C55.2989899,40 60,44.7010101 60,50.5 C60,56.2989899 55.2989899,61 49.5,61 Z M49.5,57 C53.0898509,57 56,54.0898509 56,50.5 C56,46.9101491 53.0898509,44 49.5,44 C45.9101491,44 43,46.9101491 43,50.5 C43,54.0898509 45.9101491,57 49.5,57 Z" id="Path"></path>
                <path d="M49.5,21 C43.7010101,21 39,16.2989899 39,10.5 C39,4.70101013 43.7010101,0 49.5,0 C55.2989899,0 60,4.70101013 60,10.5 C60,16.2989899 55.2989899,21 49.5,21 Z M49.5,17 C53.0898509,17 56,14.0898509 56,10.5 C56,6.91014913 53.0898509,4 49.5,4 C45.9101491,4 43,6.91014913 43,10.5 C43,14.0898509 45.9101491,17 49.5,17 Z" id="Oval-91"></path>
                <path d="M10.5,41 C4.70101013,41 0,36.2989899 0,30.5 C0,24.7010101 4.70101013,20 10.5,20 C16.2989899,20 21,24.7010101 21,30.5 C21,36.2989899 16.2989899,41 10.5,41 Z M10.5,37 C14.0898509,37 17,34.0898509 17,30.5 C17,26.9101491 14.0898509,24 10.5,24 C6.91014913,24 4,26.9101491 4,30.5 C4,34.0898509 6.91014913,37 10.5,37 Z" id="Oval-91"></path>
            </g>
        </g>
    </g>
</svg>