<?xml version="1.0" encoding="UTF-8" standalone="no"?>
<svg width="72px" height="72px" viewBox="0 0 72 72" version="1.1" xmlns="http://www.w3.org/2000/svg" xmlns:xlink="http://www.w3.org/1999/xlink" xmlns:sketch="http://www.bohemiancoding.com/sketch/ns">
    <!-- Generator: Sketch 3.4.2 (15855) - http://www.bohemiancoding.com/sketch -->
    <title>icon_account_setting</title>
    <desc>Created with Sketch.</desc>
    <defs></defs>
    <g id="slice" stroke="none" stroke-width="1" fill="none" fill-rule="evenodd" sketch:type="MSPage">
        <g id="icon_general" sketch:type="MSArtboardGroup" transform="translate(-984.000000, -60.000000)" fill="#1B88EE">
            <g id="icon_account_setting" sketch:type="MSLayerGroup" transform="translate(984.000000, 60.000000)">
                <path d="M24.7499276,19.0075041 L24.7499276,19.0075041 L24.7499276,19.0075041 L18.5678348,14.8304144 C18.7802177,14.9739164 18.8489284,14.9673054 19.0314511,14.7847827 L14.7847827,19.0314511 C14.9694017,18.8468321 14.9755405,18.7826215 14.8304144,18.5678348 L19.0075041,24.7499276 C20.9186156,27.5783725 19.3942971,31.2882401 16.0294885,31.9394934 L8.70444024,33.3572447 C8.95608887,33.3085385 9,33.255278 9,32.997152 L9,39.002848 C9,38.7417574 8.95893702,38.6920127 8.70444024,38.6427553 L16.0294885,40.0605066 C19.3808609,40.7091593 20.9262775,44.4102878 19.0075041,47.2500724 L14.8304144,53.4321652 C14.9739164,53.2197823 14.9673054,53.1510716 14.7847827,52.9685489 L19.0314511,57.2152173 C18.8468321,57.0305983 18.7826215,57.0244595 18.5678348,57.1695856 L24.7499276,52.9924959 C27.5783725,51.0813844 31.2882401,52.6057029 31.9394934,55.9705115 L33.3572447,63.2955598 C33.3085385,63.0439111 33.255278,63 32.997152,63 L39.002848,63 C38.7417574,63 38.6920127,63.041063 38.6427553,63.2955598 L40.0605066,55.9705115 C40.7091593,52.6191391 44.4102878,51.0737225 47.2500724,52.9924959 L53.4321652,57.1695856 C53.2197823,57.0260836 53.1510716,57.0326946 52.9685489,57.2152173 L57.2152173,52.9685489 C57.0305983,53.1531679 57.0244595,53.2173785 57.1695856,53.4321652 L52.9924959,47.2500724 C51.0813844,44.4216275 52.6057029,40.7117599 55.9705115,40.0605066 L63.2955598,38.6427553 C63.0439111,38.6914615 63,38.744722 63,39.002848 L63,32.997152 C63,33.2582426 63.041063,33.3079873 63.2955598,33.3572447 L55.9705115,31.9394934 C52.6191391,31.2908407 51.0737225,27.5897122 52.9924959,24.7499276 L57.1695856,18.5678348 C57.0260836,18.7802177 57.0326946,18.8489284 57.2152173,19.0314511 L52.9685489,14.7847827 C53.1531679,14.9694017 53.2173785,14.9755405 53.4321652,14.8304144 L47.2500724,19.0075041 C44.4216275,20.9186156 40.7117599,19.3942971 40.0605066,16.0294885 L38.6427553,8.70444024 C38.6914615,8.95608887 38.744722,9 39.002848,9 L32.997152,9 C33.2582426,9 33.3079873,8.95893702 33.3572447,8.70444024 L31.9394934,16.0294885 C31.2908407,19.3808609 27.5897122,20.9262775 24.7499276,19.0075041 L24.7499276,19.0075041 Z M28.6478228,11.9862491 L28.6478228,11.9862491 L29.4301253,7.94435262 C29.7448584,6.31823157 31.3416228,5 32.997152,5 L39.002848,5 C40.6581293,5 42.2539802,6.31223088 42.5698747,7.94435262 L43.3521772,11.9862491 L42.7712131,12.3787924 C42.9622178,12.2497352 43.1618953,12.1449394 43.3670537,12.0631106 L43.987626,15.2694009 C44.0930261,15.8139682 44.5555872,16.0006182 45.0106427,15.6931483 L47.716862,13.8646218 C47.8038877,14.0674632 47.8709017,14.2827873 47.9147454,14.5093132 L47.7815117,13.8209395 L51.1927356,11.5160585 C52.5651267,10.5887672 54.6263401,10.7857197 55.7969761,11.9563556 L60.0436444,16.2030239 C61.2141051,17.3734846 61.4146546,19.4298089 60.4839415,20.8072644 L58.1790605,24.2184883 L57.4906868,24.0852546 C57.7170047,24.1290581 57.9322999,24.1961497 58.1352304,24.2833568 L56.3068517,26.9893573 C55.9963136,27.4489537 56.1914122,27.9080153 56.7305991,28.012374 L59.9371486,28.6329965 C59.8552545,28.8379635 59.7503834,29.0376067 59.6212076,29.2287869 L60.0137509,28.6478228 L64.0556474,29.4301253 C65.6817684,29.7448584 67,31.3416228 67,32.997152 L67,39.002848 C67,40.6581293 65.6877691,42.2539802 64.0556474,42.5698747 L60.0137509,43.3521772 L59.6212076,42.7712131 C59.7502648,42.9622178 59.8550606,43.1618953 59.9368894,43.3670537 L56.7305991,43.987626 C56.1860318,44.0930261 55.9993818,44.5555872 56.3068517,45.0106427 L58.1353782,47.716862 C57.9325368,47.8038877 57.7172127,47.8709017 57.4906868,47.9147454 L58.1790605,47.7815117 L60.4839415,51.1927356 C61.4112328,52.5651267 61.2142803,54.6263401 60.0436444,55.7969761 L55.7969761,60.0436444 C54.6265154,61.2141051 52.5701911,61.4146546 51.1927356,60.4839415 L47.7815117,58.1790605 L47.9147454,57.4906868 C47.8709419,57.7170047 47.8038503,57.9322999 47.7166432,58.1352304 L45.0106427,56.3068517 C44.5510463,55.9963136 44.0919847,56.1914122 43.987626,56.7305991 L43.3670035,59.9371486 C43.1620365,59.8552545 42.9623933,59.7503834 42.7712131,59.6212076 L43.3521772,60.0137509 L42.5698747,64.0556474 C42.2551416,65.6817684 40.6583772,67 39.002848,67 L32.997152,67 C31.3418707,67 29.7460198,65.6877691 29.4301253,64.0556474 L28.6478228,60.0137509 L29.2287869,59.6212076 C29.0377822,59.7502648 28.8381047,59.8550606 28.6329463,59.9368894 L28.012374,56.7305991 C27.9069739,56.1860318 27.4444128,55.9993818 26.9893573,56.3068517 L24.283138,58.1353782 C24.1961123,57.9325368 24.1290983,57.7172127 24.0852546,57.4906868 L24.2184883,58.1790605 L20.8072644,60.4839415 C19.4348733,61.4112328 17.3736599,61.2142803 16.2030239,60.0436444 L11.9563556,55.7969761 C10.7858949,54.6265154 10.5853454,52.5701911 11.5160585,51.1927356 L13.8209395,47.7815117 L14.5093132,47.9147454 C14.2829953,47.8709419 14.0677001,47.8038503 13.8647696,47.7166432 L15.6931483,45.0106427 C16.0036864,44.5510463 15.8085878,44.0919847 15.2694009,43.987626 L12.0628514,43.3670035 C12.1447455,43.1620365 12.2496166,42.9623933 12.3787924,42.7712131 L11.9862491,43.3521772 L7.94435262,42.5698747 C6.31823157,42.2551416 5,40.6583772 5,39.002848 L5,32.997152 C5,31.3418707 6.31223088,29.7460198 7.94435262,29.4301253 L11.9862491,28.6478228 L12.3787924,29.2287869 C12.2497352,29.0377822 12.1449394,28.8381047 12.0631106,28.6329463 L15.2694009,28.012374 C15.8139682,27.9069739 16.0006182,27.4444128 15.6931483,26.9893573 L13.8646218,24.283138 C14.0674632,24.1961123 14.2827873,24.1290983 14.5093132,24.0852546 L13.8209395,24.2184883 L11.5160585,20.8072644 C10.5887672,19.4348733 10.7857197,17.3736599 11.9563556,16.2030239 L16.2030239,11.9563556 C17.3734846,10.7858949 19.4298089,10.5853454 20.8072644,11.5160585 L24.2184883,13.8209395 L24.0852546,14.5093132 C24.1290581,14.2829953 24.1961497,14.0677001 24.2833568,13.8647696 L26.9893573,15.6931483 C27.4489537,16.0036864 27.9080153,15.8085878 28.012374,15.2694009 L28.6329965,12.0628514 C28.8379635,12.1447455 29.0376067,12.2496166 29.2287869,12.3787924 L29.2287869,12.3787924 L28.6478228,11.9862491 Z" id="Shape" sketch:type="MSShapeGroup"></path>
                <path d="M36,42 L36,42 C39.3137085,42 42,39.3137085 42,36 C42,32.6862915 39.3137085,30 36,30 C32.6862915,30 30,32.6862915 30,36 C30,39.3137085 32.6862915,42 36,42 L36,42 Z M36,46 L36,46 C30.4771525,46 26,41.5228475 26,36 C26,30.4771525 30.4771525,26 36,26 C41.5228475,26 46,30.4771525 46,36 C46,41.5228475 41.5228475,46 36,46 L36,46 Z" id="Shape" sketch:type="MSShapeGroup"></path>
            </g>
        </g>
    </g>
</svg>