<?xml version="1.0" encoding="UTF-8"?>
<svg width="216px" height="216px" viewBox="0 0 216 216" version="1.1" xmlns="http://www.w3.org/2000/svg" xmlns:xlink="http://www.w3.org/1999/xlink">
    <!-- Generator: Sketch 41 (35326) - http://www.bohemiancoding.com/sketch -->
    <title>icon_article_bookcover_style1</title>
    <desc>Created with Sketch.</desc>
    <defs></defs>
    <g id="Symbols" stroke="none" stroke-width="1" fill="none" fill-rule="evenodd">
        <g id="icon_article_bookcover_style1">
            <path d="M206.993748,0 C211.967764,0 216,4.02722298 216,9.00625169 L216,206.993748 C216,211.967764 211.972777,216 206.993748,216 L9.00625169,216 C4.03223623,216 0,211.972777 0,206.993748 L0,9.00625169 L0,9.00625169 C0,4.03223623 4.02722298,0 9.00625169,0 L206.993748,0 Z" id="background" fill="#FFFFFF"></path>
            <path d="M96.414,165.295 L97.548,165.295 L97.548,180.121 L99.081,180.121 L99.081,175.228 L105.339,175.228 L105.339,173.779 L99.081,173.779 L99.081,170.23 L105.213,170.23 L105.213,168.76 L99.081,168.76 L99.081,165.295 L106.137,165.295 L106.137,163.804 L97.065,163.804 C97.401,162.943 97.737,162.019 98.073,161.053 L96.561,160.717 C95.385,164.266 93.852,167.143 92.004,169.327 L93.075,170.608 C94.335,169.096 95.448,167.332 96.414,165.295 Z M89.694,168.319 L89.694,180.121 L91.248,180.121 L91.248,166.051 C92.088,164.623 92.802,163.09 93.369,161.452 L91.941,160.78 C90.912,163.972 89.253,166.786 86.985,169.243 L87.489,170.839 C88.287,170.041 89.022,169.201 89.694,168.319 Z M111.816,163.027 L111.816,164.434 L117.57,164.434 L117.57,166.933 L109.947,166.933 L109.947,168.361 L119.502,168.361 C116.52,170.083 113.244,171.385 109.653,172.225 L110.283,173.632 C111.501,173.233 112.677,172.834 113.811,172.414 L113.811,180.142 L115.344,180.142 L115.344,179.197 L124.437,179.197 L124.437,180.142 L125.949,180.142 L125.949,170.692 L118.011,170.692 C119.229,170.125 120.342,169.558 121.308,168.97 C121.623,168.76 121.938,168.571 122.253,168.361 L128.658,168.361 L128.658,166.933 L124.164,166.933 C125.571,165.799 126.894,164.476 128.133,163.006 L126.978,162.166 C125.487,163.93 123.744,165.526 121.77,166.933 L119.124,166.933 L119.124,164.434 L124.08,164.434 L124.08,163.027 L119.124,163.027 L119.124,160.801 L117.57,160.801 L117.57,163.027 L111.816,163.027 Z M115.344,175.564 L124.437,175.564 L124.437,177.853 L115.344,177.853 L115.344,175.564 Z M124.437,174.22 L115.344,174.22 L115.344,172.015 L124.437,172.015 L124.437,174.22 Z" id="作者" fill="#5D646E" opacity="0.900000036"></path>
            <path d="M45.57,120.83 L45.57,122.45 L50.22,122.45 C51.6,127.25 54.09,131.36 57.66,134.84 C54.36,137.9 50.1,140.15 44.94,141.59 L45.78,143.03 C51,141.53 55.35,139.13 58.77,135.86 C62.07,138.77 66.21,141.17 71.25,143.03 L72.15,141.65 C67.26,139.85 63.18,137.51 59.91,134.69 C62.97,131.45 65.22,127.37 66.66,122.45 L71.43,122.45 L71.43,120.83 L59.97,120.83 C59.01,118.73 57.93,116.9 56.76,115.4 L55.14,116 C56.4,117.5 57.42,119.09 58.23,120.83 L45.57,120.83 Z M51.81,122.45 L65.01,122.45 C63.72,126.89 61.65,130.64 58.8,133.7 C55.5,130.55 53.16,126.8 51.81,122.45 Z M88.44,135.5 C86.67,137.51 83.31,139.31 78.33,140.87 L79.2,142.28 C84.51,140.39 88.11,138.14 89.97,135.5 L90.78,135.5 L90.78,142.97 L92.4,142.97 L92.4,135.5 L93.15,135.5 C95.25,138.26 98.85,140.48 103.98,142.16 L104.7,140.69 C100.14,139.43 96.81,137.69 94.74,135.5 L104.34,135.5 L104.34,133.97 L92.4,133.97 L92.4,132.17 L90.78,132.17 L90.78,133.97 L78.66,133.97 L78.66,135.5 L88.44,135.5 Z M81.72,122.45 L81.72,131.21 L103.47,131.21 L103.47,129.8 L93.18,129.8 L93.18,127.25 L101.88,127.25 L101.88,125.93 L93.18,125.93 L93.18,123.59 L101.88,123.59 L101.88,122.27 L93.18,122.27 L93.18,119.87 L102.93,119.87 L102.93,118.43 L93.03,118.43 C92.64,117.32 92.22,116.3 91.8,115.4 L90.18,115.7 C90.63,116.51 91.05,117.41 91.47,118.43 L84.45,118.43 C84.87,117.62 85.26,116.78 85.59,115.91 L84.09,115.52 C82.71,118.85 80.67,121.73 77.91,124.19 L78.75,125.48 C79.83,124.52 80.82,123.5 81.72,122.45 Z M91.59,129.8 L83.25,129.8 L83.25,127.25 L91.59,127.25 L91.59,129.8 Z M91.59,125.93 L83.25,125.93 L83.25,123.59 L91.59,123.59 L91.59,125.93 Z M91.59,122.27 L83.25,122.27 L83.25,120.44 C83.37,120.26 83.49,120.05 83.61,119.87 L91.59,119.87 L91.59,122.27 Z M119.85,140.96 L133.86,140.96 L133.86,142.82 L135.51,142.82 L135.51,130.49 L122.19,130.49 C128.22,127.82 132.39,124.31 134.73,119.96 L134.73,118.49 L122.64,118.49 C123.36,117.59 123.96,116.69 124.47,115.73 L122.73,115.52 C120.9,118.76 117.42,121.52 112.26,123.77 L113.31,125.18 C116.55,123.68 119.16,121.97 121.17,120.05 L132.87,120.05 C131.37,122.69 128.97,125.03 125.67,127.01 C124.35,125.84 122.49,124.52 120.03,123.05 L118.62,123.92 C121.02,125.3 122.94,126.59 124.32,127.79 C120.84,129.65 116.43,131.15 111.09,132.32 L111.9,133.85 C114.12,133.31 116.25,132.68 118.23,132.02 L118.23,142.82 L119.85,142.82 L119.85,140.96 Z M133.86,139.37 L119.85,139.37 L119.85,132.02 L133.86,132.02 L133.86,139.37 Z M144.33,123.98 L144.33,125.51 L148.68,125.51 C147.72,129.23 146.01,132.53 143.61,135.44 L144.33,137.21 C146.28,134.63 147.81,131.69 148.89,128.39 L148.89,142.85 L150.42,142.85 L150.42,128.9 C151.47,130.01 152.73,131.54 154.17,133.49 L155.1,132.11 C153.54,130.37 151.98,128.78 150.42,127.4 L150.42,125.51 L154.41,125.51 L154.41,123.98 L150.42,123.98 L150.42,118.88 C152.01,118.58 153.48,118.22 154.86,117.8 L154.29,116.27 C151.47,117.17 148.17,117.8 144.45,118.13 L144.78,119.69 C146.19,119.54 147.57,119.36 148.89,119.15 L148.89,123.98 L144.33,123.98 Z M161.28,142.76 C162.78,142.76 163.56,141.92 163.56,140.24 L163.56,124.25 L161.94,124.25 L161.94,139.85 C161.94,140.81 161.52,141.32 160.71,141.32 C159.87,141.32 158.97,141.26 158.04,141.2 L158.4,142.76 L161.28,142.76 Z M157.74,128.6 C156.96,132.26 155.76,135.5 154.11,138.38 L155.52,139.28 C157.14,136.37 158.37,132.92 159.27,128.93 L157.74,128.6 Z M167.46,128.48 L166.02,128.96 C167.31,132.05 168.51,135.62 169.62,139.64 L171.09,138.95 C170.07,135.23 168.87,131.75 167.46,128.48 Z M159.36,121.43 L168.48,121.43 C168.09,123.29 167.61,125 167.01,126.53 L168.6,126.98 C169.23,125 169.71,122.99 170.07,120.92 L170.07,119.87 L159.99,119.87 C160.47,118.55 160.83,117.14 161.13,115.61 L159.51,115.43 C158.76,119.33 157.32,122.66 155.22,125.36 L156.21,126.65 C157.47,125.12 158.52,123.38 159.36,121.43 Z" id="文集名称" fill="#212832" opacity="0.900000036"></path>
            <rect id="image" fill="#F2F9FF" x="18" y="0" width="180" height="90"></rect>
        </g>
    </g>
</svg>