<?xml version="1.0" encoding="UTF-8"?>
<svg width="720px" height="720px" viewBox="0 0 720 720" version="1.1" xmlns="http://www.w3.org/2000/svg" xmlns:xlink="http://www.w3.org/1999/xlink">
    <!-- Generator: Sketch 41 (35326) - http://www.bohemiancoding.com/sketch -->
    <title>illustration_lock</title>
    <desc>Created with Sketch.</desc>
    <defs></defs>
    <g id="Symbols" stroke="none" stroke-width="1" fill="none" fill-rule="evenodd">
        <g id="illustration_lock">
            <rect id="area" x="0" y="0" width="720" height="720"></rect>
            <g id="back" transform="translate(55.500000, 18.000000)" fill="#F4F5F7">
                <path d="M206.558441,442.058441 C206.558441,408.921356 233.415469,382.058441 266.561757,382.058441 L626.555126,382.058441 C659.694042,382.058441 686.558441,408.91407 686.558441,442.058441 L686.558441,442.058441 C686.558441,475.195526 659.701413,502.058441 626.555126,502.058441 L266.561757,502.058441 C233.422841,502.058441 206.558441,475.202812 206.558441,442.058441 L206.558441,442.058441 Z" id="Rectangle-21" transform="translate(446.558441, 442.058441) rotate(-45.000000) translate(-446.558441, -442.058441) "></path>
                <path d="M-5.36796564,435.632034 C-5.36796564,402.494949 21.4890626,375.632034 54.6353497,375.632034 L414.628719,375.632034 C447.767635,375.632034 474.632034,402.487663 474.632034,435.632034 L474.632034,435.632034 C474.632034,468.769119 447.775006,495.632034 414.628719,495.632034 L54.6353497,495.632034 C21.4964337,495.632034 -5.36796564,468.776405 -5.36796564,435.632034 L-5.36796564,435.632034 Z" id="Rectangle-21" transform="translate(234.632034, 435.632034) rotate(-45.000000) translate(-234.632034, -435.632034) "></path>
                <path d="M-27.4415588,212.558441 C-27.4415588,179.421356 -0.584530536,152.558441 32.5617565,152.558441 L392.555126,152.558441 C425.694042,152.558441 452.558441,179.41407 452.558441,212.558441 L452.558441,212.558441 C452.558441,245.695526 425.701413,272.558441 392.555126,272.558441 L32.5617565,272.558441 C-0.577159449,272.558441 -27.4415588,245.702812 -27.4415588,212.558441 L-27.4415588,212.558441 Z" id="Rectangle-21" transform="translate(212.558441, 212.558441) rotate(-45.000000) translate(-212.558441, -212.558441) "></path>
            </g>
            <g id="iMac" transform="translate(135.000000, 162.000000)">
                <polygon id="Rectangle-4" fill-opacity="0.1" fill="#0091FF" points="185 327 278 327 296 387 167 387"></polygon>
                <polygon id="Rectangle-4" fill="#CBE8FF" points="177 319 270 319 288 379 159 379"></polygon>
                <path d="M177,319 L270,319 L288,379 L159,379 L177,319 Z M267.767908,322 L179.232092,322 L163.032092,376 L283.967908,376 L267.767908,322 Z" id="Rectangle-4" fill="#008CFF"></path>
                <path d="M145.906143,391.332338 C148.083075,385.07366 155.211552,380 161.855985,380 L301.144015,380 C307.775938,380 314.91743,385.075113 317.093857,391.332338 L321.5,404 L141.5,404 L145.906143,391.332338 Z" id="Rectangle-5" fill-opacity="0.1" fill="#0091FF"></path>
                <path d="M137.906143,383.332338 C140.083075,377.07366 147.211552,372 153.855985,372 L293.144015,372 C299.775938,372 306.91743,377.075113 309.093857,383.332338 L313.5,396 L133.5,396 L137.906143,383.332338 Z" id="Rectangle-5" fill="#FFFFFF"></path>
                <path d="M137.906143,383.332338 C140.083075,377.07366 147.211552,372 153.855985,372 L293.144015,372 C299.775938,372 306.91743,377.075113 309.093857,383.332338 L313.5,396 L133.5,396 L137.906143,383.332338 Z M306.260366,384.3179 C304.503379,379.266561 298.498754,375 293.144015,375 L153.855985,375 C148.492795,375 142.49846,379.261275 140.739634,384.3179 L137.719773,393 L309.280227,393 L306.260366,384.3179 Z" id="Rectangle-5" fill="#008CFF"></path>
                <path d="M426.004838,0 C439.257,0 450,10.7403042 450,23.9953726 L450,303.004627 C450,316.256906 439.25139,327 426.004838,327 L23.9951621,327 C10.743,327 0,316.259696 0,303.004627 L0,23.9953726 L0,23.9953726 C0,10.7430942 10.7486095,0 23.9951621,0 L426.004838,0 Z" id="Rectangle" fill="#FFFFFF"></path>
                <path d="M426.004838,0 C439.257,0 450,10.7536435 450,24.0047136 L450,268.5 L0,268.5 L0,24.0047136 L0,24.0047136 C0,10.7472764 10.7486095,0 23.9951621,0 L426.004838,0 Z" id="Rectangle-3" fill="#CBE9FF"></path>
                <rect id="Rectangle-3" fill="#DFF2FF" x="30" y="30" width="390" height="214.5"></rect>
                <path d="M415.03352,4 L285,268.5 L318,268.5 L443.213009,13.8053576 C439.729544,7.93452552 433.327207,4 426.004838,4 L415.03352,4 Z M319.03352,4 L189,268.5 L258,268.5 L388.03352,4 L319.03352,4 Z" id="Combined-Shape" fill-opacity="0.25" fill="#FFFFFF"></path>
                <rect id="Rectangle-2" fill="#008CFF" x="3" y="268" width="444" height="3"></rect>
                <path d="M0,23.9953726 C0,10.7430942 10.7486095,0 23.9951621,0 L426.004838,0 C439.257,0 450,10.7403042 450,23.9953726 L450,303.004627 C450,316.256906 439.25139,327 426.004838,327 L23.9951621,327 C10.743,327 0,316.259696 0,303.004627 L0,23.9953726 Z M4,23.9953726 L4,303.004627 C4,314.049529 12.9511113,323 23.9951621,323 L426.004838,323 C437.044326,323 446,314.045693 446,303.004627 L446,23.9953726 C446,12.9504709 437.048889,4 426.004838,4 L23.9951621,4 C12.9556744,4 4,12.954307 4,23.9953726 Z" id="border" fill="#008CFF"></path>
            </g>
            <g id="cup" transform="translate(499.500000, 375.000000)">
                <path d="M122.875,51 L120.479167,74 L121.50663,74 C123.159823,74 124.369488,75.3424077 124.21034,76.9793612 L117.78966,143.020639 C117.629685,144.666095 116.156835,146 114.496627,146 L112.979167,146 L108.965369,184.532461 C108.708353,186.999815 106.477533,189 104.000659,189 L31.9993414,189 C29.5144237,189 27.2908187,186.99186 27.0346314,184.532461 L23.0208333,146 L21.5033731,146 C19.8446559,146 18.3694881,144.657592 18.2103399,143.020639 L11.7896601,76.9793612 C11.6296853,75.3339055 12.8477638,74 14.4933697,74 L15.5208333,74 L13.125,51 L10.002964,51 C7.51604564,51 5.5,48.9850321 5.5,46.5086969 L5.5,25.4913031 C5.5,23.0108249 7.51737735,21 10.002964,21 L13.8125,21 L17.6027743,8.87112214 C18.0982984,7.28544517 19.843165,6 21.5033731,6 L114.496627,6 C116.155344,6 117.903233,7.29034424 118.397226,8.87112214 L122.1875,21 L126.997036,21 C129.483954,21 131.5,23.0149679 131.5,25.4913031 L131.5,46.5086969 C131.5,48.9891751 129.482623,51 126.997036,51 L122.875,51 Z" id="Combined-Shape" fill-opacity="0.1" fill="#0091FF"></path>
                <path d="M7.5,39 L118.5,39 L103.965369,178.532461 C103.708353,180.999815 101.477533,183 99.0006586,183 L26.9993414,183 C24.5144237,183 22.2908187,180.99186 22.0346314,178.532461 L7.5,39 Z" id="Rectangle-9" fill="#FFFFFF"></path>
                <path d="M7.5,39 L118.5,39 L103.965369,178.532461 C103.708353,180.999815 101.477533,183 99.0006586,183 L26.9993414,183 C24.5144237,183 22.2908187,180.99186 22.0346314,178.532461 L7.5,39 Z M25.0184866,178.221643 C25.115739,179.155266 26.0534346,180 26.9993414,180 L99.0006586,180 C99.9454986,180 100.884155,179.156286 100.981513,178.221643 L115.171268,42 L10.8287321,42 L25.0184866,178.221643 Z" id="Rectangle-9" fill="#0091FF"></path>
                <path d="M6.78966012,70.9793612 C6.62968525,69.3339055 7.84776376,68 9.49336972,68 L116.50663,68 C118.159823,68 119.369488,69.3424077 119.21034,70.9793612 L112.78966,137.020639 C112.629685,138.666095 111.156835,140 109.496627,140 L16.5033731,140 C14.8446559,140 13.3694881,138.657592 13.2103399,137.020639 L6.78966012,70.9793612 Z" id="Rectangle-9" fill="#CBE9FF"></path>
                <path d="M6.78966012,70.9793612 C6.62968525,69.3339055 7.84776376,68 9.49336972,68 L116.50663,68 C118.159823,68 119.369488,69.3424077 119.21034,70.9793612 L112.78966,137.020639 C112.629685,138.666095 111.156835,140 109.496627,140 L16.5033731,140 C14.8446559,140 13.3694881,138.657592 13.2103399,137.020639 L6.78966012,70.9793612 Z M16.1962614,136.730341 C16.2061711,136.83227 16.3912279,137 16.5033731,137 L109.496627,137 C109.613658,137 109.793331,136.837391 109.803739,136.730341 L116.194188,71 L9.80581156,71 L16.1962614,136.730341 Z" id="Rectangle-9" fill="#0091FF"></path>
                <path d="M12.6027743,2.87112214 C13.0982984,1.28544517 14.843165,0 16.5033731,0 L109.496627,0 C111.155344,0 112.903233,1.29034424 113.397226,2.87112214 L120,24 L6,24 L12.6027743,2.87112214 Z" id="Rectangle-8" fill="#FFFFFF"></path>
                <path d="M12.6027743,2.87112214 C13.0982984,1.28544517 14.843165,0 16.5033731,0 L109.496627,0 C111.155344,0 112.903233,1.29034424 113.397226,2.87112214 L120,24 L6,24 L12.6027743,2.87112214 Z M110.533786,3.76594712 C110.430283,3.43473899 109.840198,3 109.496627,3 L16.5033731,3 C16.1566838,3 15.5707619,3.43139466 15.4662143,3.76594712 L10.0805727,21 L115.919427,21 L110.533786,3.76594712 Z" id="Rectangle-8" fill="#0091FF"></path>
                <rect id="Rectangle-8" fill="#FFFFFF" x="0.5" y="15" width="126" height="30" rx="4.5"></rect>
                <path d="M0.5,19.4913031 C0.5,17.0108249 2.51737735,15 5.00296396,15 L121.997036,15 C124.483954,15 126.5,17.0149679 126.5,19.4913031 L126.5,40.5086969 C126.5,42.9891751 124.482623,45 121.997036,45 L5.00296396,45 C2.51604564,45 0.5,42.9850321 0.5,40.5086969 L0.5,19.4913031 Z M3.5,19.4913031 L3.5,40.5086969 C3.5,41.3282937 4.17302143,42 5.00296396,42 L121.997036,42 C122.828104,42 123.5,41.3299808 123.5,40.5086969 L123.5,19.4913031 C123.5,18.6717063 122.826979,18 121.997036,18 L5.00296396,18 C4.17189604,18 3.5,18.6700192 3.5,19.4913031 Z" id="Rectangle-8" fill="#0091FF"></path>
            </g>
        </g>
    </g>
</svg>