<?xml version="1.0" encoding="UTF-8"?>
<svg width="810px" height="450px" viewBox="0 0 810 450" version="1.1" xmlns="http://www.w3.org/2000/svg" xmlns:xlink="http://www.w3.org/1999/xlink">
    <!-- Generator: Sketch 40.2 (33826) - http://www.bohemiancoding.com/sketch -->
    <title>invite_status_bg</title>
    <desc>Created with Sketch.</desc>
    <defs>
        <path d="M0,24 L0,23.995825 C0,10.7432968 10.7489418,0 24.0072096,0 L575.99279,0 C589.251606,0 600,10.7434658 600,23.995825 L600,24 C595.029437,24 591,28.0294373 591,33 C591,37.9705627 595.029437,42 600,42 L600,54 C595.029437,54 591,58.0294373 591,63 C591,67.9705627 595.029437,72 600,72 L600,84 C595.029437,84 591,88.0294373 591,93 C591,97.9705627 595.029437,102 600,102 L600,114 C580.117749,114 564,130.117749 564,150 C564,169.882251 580.117749,186 600,186 L600,198 C595.029437,198 591,202.029437 591,207 C591,211.970563 595.029437,216 600,216 L600,228 C595.029437,228 591,232.029437 591,237 C591,241.970563 595.029437,246 600,246 L600,258 C595.029437,258 591,262.029437 591,267 C591,271.970563 595.029437,276 600,276 C600,289.256703 589.251058,300 575.99279,300 L24.0072096,300 C10.7483938,300 0,289.256534 0,276.004175 C4.97056275,276 9,271.970563 9,267 C9,262.029437 4.97056275,258 0,258 L0,246 C4.97056275,246 9,241.970563 9,237 C9,232.029437 4.97056275,228 0,228 L0,216 C4.97056275,216 9,211.970563 9,207 C9,202.029437 4.97056275,198 0,198 L0,186 C19.882251,186 36,169.882251 36,150 C36,130.117749 19.882251,114 0,114 L0,102 C4.97056275,102 9,97.9705627 9,93 C9,88.0294373 4.97056275,84 0,84 L0,72 C4.97056275,72 9,67.9705627 9,63 C9,58.0294373 4.97056275,54 0,54 L0,42 C4.97056275,42 9,37.9705627 9,33 C9,28.0294373 4.97056275,24 0,24 Z" id="path-1"></path>
        <filter x="-50%" y="-50%" width="200%" height="200%" filterUnits="objectBoundingBox" id="filter-2">
            <feOffset dx="0" dy="3" in="SourceAlpha" result="shadowOffsetOuter1"></feOffset>
            <feGaussianBlur stdDeviation="36" in="shadowOffsetOuter1" result="shadowBlurOuter1"></feGaussianBlur>
            <feColorMatrix values="0 0 0 0 0   0 0 0 0 0   0 0 0 0 0  0 0 0 0.12 0" type="matrix" in="shadowBlurOuter1"></feColorMatrix>
        </filter>
        <rect id="path-3" x="60" y="30" width="480" height="240" rx="18"></rect>
        <mask id="mask-4" maskContentUnits="userSpaceOnUse" maskUnits="objectBoundingBox" x="0" y="0" width="480" height="240" fill="white">
            <use xlink:href="#path-3"></use>
        </mask>
    </defs>
    <g id="Symbols" stroke="none" stroke-width="1" fill="none" fill-rule="evenodd">
        <g id="invite_status_bg">
            <g>
                <rect id="icon" x="0" y="0" width="810" height="450"></rect>
                <g id="body" transform="translate(105.000000, 75.000000)">
                    <g id="Combined-Shape">
                        <use fill="black" fill-opacity="1" filter="url(#filter-2)" xlink:href="#path-1"></use>
                        <use fill="#FFFFFF" fill-rule="evenodd" xlink:href="#path-1"></use>
                    </g>
                    <use id="Rectangle" stroke="#DEE0E2" mask="url(#mask-4)" stroke-width="6" xlink:href="#path-3"></use>
                </g>
                <g id="label" transform="translate(273.000000, 153.000000)" fill="#1B88EE">
                    <g id="money" transform="translate(34.000000, 53.000000)">
                        <path d="M125.309684,44.44 C123.461684,42.886 119.765684,40.408 117.077684,38.812 L114.809684,41.416 C117.539684,43.18 121.151684,45.784 122.873684,47.422 L125.309684,44.44 Z M106.367684,48.682 L115.145684,48.682 L115.145684,56.158 L106.367684,56.158 L106.367684,48.682 Z M119.051684,56.158 L119.051684,44.944 L106.367684,44.944 L106.367684,37.888 L102.377684,37.888 L102.377684,44.944 L90.5336836,44.944 L90.5336836,48.682 L102.377684,48.682 L102.377684,56.158 L88.0136836,56.158 L88.0136836,59.854 L102.377684,59.854 L102.377684,76.192 L106.367684,76.192 L106.367684,59.854 L120.815684,59.854 C120.395684,65.272 119.891684,67.75 119.051684,68.464 C118.547684,68.842 118.085684,68.884 117.245684,68.884 C116.195684,68.884 113.549684,68.842 110.945684,68.59 C111.701684,69.64 112.163684,71.236 112.247684,72.328 C114.851684,72.454 117.371684,72.454 118.715684,72.37 C120.311684,72.244 121.361684,71.95 122.327684,70.942 C123.671684,69.598 124.301684,66.154 124.931684,57.838 C125.015684,57.25 125.099684,56.158 125.099684,56.158 L119.051684,56.158 Z M163.361684,50.53 L150.215684,50.53 L150.215684,44.062 C155.969684,43.642 161.513684,43.096 165.881684,42.424 L164.369684,38.812 C155.927684,40.198 142.067684,41.038 130.475684,41.248 C130.811684,42.172 131.273684,43.684 131.315684,44.776 C136.019684,44.734 141.143684,44.566 146.183684,44.314 L146.183684,50.53 L133.541684,50.53 L133.541684,71.572 L137.531684,71.572 L137.531684,54.352 L146.183684,54.352 L146.183684,76.276 L150.215684,76.276 L150.215684,54.352 L159.287684,54.352 L159.287684,66.616 C159.287684,67.162 159.077684,67.33 158.405684,67.372 C157.733684,67.414 155.423684,67.414 153.113684,67.33 C153.617684,68.38 154.247684,70.144 154.415684,71.236 C157.691684,71.278 159.959684,71.194 161.429684,70.522 C162.941684,69.934 163.361684,68.758 163.361684,66.7 L163.361684,50.53 Z M182.737793,58.0498047 C182.737793,57.3935514 182.932615,56.8466819 183.322266,56.4091797 C183.711916,55.9716775 184.296383,55.7529297 185.075684,55.7529297 C185.854984,55.7529297 186.446287,55.9716775 186.849609,56.4091797 C187.252932,56.8466819 187.45459,57.3935514 187.45459,58.0498047 C187.45459,58.692386 187.252932,59.2290018 186.849609,59.659668 C186.446287,60.0903342 185.854984,60.3056641 185.075684,60.3056641 C184.296383,60.3056641 183.711916,60.0903342 183.322266,59.659668 C182.932615,59.2290018 182.737793,58.692386 182.737793,58.0498047 L182.737793,58.0498047 Z" id="书币-·"></path>
                        <path d="M8.5390625,55.0498047 C8.5390625,54.3935514 8.73388477,53.8466819 9.12353516,53.4091797 C9.51318554,52.9716775 10.0976524,52.7529297 10.8769531,52.7529297 C11.6562539,52.7529297 12.2475566,52.9716775 12.6508789,53.4091797 C13.0542012,53.8466819 13.2558594,54.3935514 13.2558594,55.0498047 C13.2558594,55.692386 13.0542012,56.2290018 12.6508789,56.659668 C12.2475566,57.0903342 11.6562539,57.3056641 10.8769531,57.3056641 C10.0976524,57.3056641 9.51318554,57.0903342 9.12353516,56.659668 C8.73388477,56.2290018 8.5390625,55.692386 8.5390625,55.0498047 L8.5390625,55.0498047 Z" id="·"></path>
                    </g>
                    <path d="M12.672,18.464 L17.556,18.464 L17.556,20.147 L12.672,20.147 L12.672,18.464 Z M12.672,14.933 L17.556,14.933 L17.556,16.583 L12.672,16.583 L12.672,14.933 Z M27.423,17.903 C27.159,20.609 26.697,23.051 26.07,25.196 C25.311,24.074 24.585,22.985 23.859,21.962 L22.209,22.952 C22.935,21.467 23.595,19.784 24.123,17.903 L27.423,17.903 Z M17.523,29.915 C17.358,31.862 17.16,32.687 16.929,32.984 C16.764,33.215 16.533,33.248 16.203,33.248 C15.906,33.248 15.246,33.248 14.421,33.149 C14.718,33.677 14.949,34.568 14.982,35.195 C15.972,35.261 16.896,35.261 17.424,35.162 C18.117,35.129 18.612,34.931 19.041,34.469 C19.602,33.809 19.866,32.291 20.064,28.694 C20.097,28.364 20.13,27.737 20.13,27.737 L14.652,27.737 C14.718,27.242 14.784,26.714 14.817,26.186 L20.856,26.186 L20.856,24.041 L16.929,24.041 C16.632,23.414 16.203,22.721 15.741,22.127 L19.734,22.127 L19.602,22.325 C20.196,22.655 21.252,23.381 21.714,23.81 L21.978,23.381 C22.935,24.866 23.958,26.516 24.948,28.1 C23.76,30.608 22.209,32.555 19.965,34.106 C20.526,34.535 21.45,35.558 21.813,36.02 C23.76,34.568 25.245,32.786 26.466,30.74 C27.39,32.39 28.215,33.941 28.743,35.195 L30.987,33.743 C30.261,32.126 29.073,30.047 27.786,27.902 C28.875,25.097 29.601,21.764 30.03,17.903 L31.284,17.903 L31.284,15.296 L24.816,15.296 C25.146,13.844 25.377,12.326 25.608,10.808 L23.133,10.445 C22.605,14.537 21.648,18.629 20.097,21.5 L20.097,12.953 L16.104,12.953 C16.434,12.227 16.797,11.402 17.127,10.61 L14.124,10.346 C13.992,11.039 13.761,12.062 13.53,12.953 L10.23,12.953 L10.23,22.127 L15.114,22.127 L13.233,22.787 C13.497,23.15 13.794,23.579 14.025,24.041 L9.339,24.041 L9.339,26.186 L12.276,26.186 C12.045,29.321 11.418,31.928 9.174,33.479 C9.735,33.908 10.461,34.733 10.725,35.327 C12.672,34.007 13.695,32.192 14.256,29.915 L17.523,29.915 Z M9.009,17.408 C8.184,15.791 6.237,13.415 4.587,11.699 L2.145,13.052 C3.762,14.867 5.577,17.375 6.369,18.959 L9.009,17.408 Z M8.217,22.325 L1.716,22.325 L1.716,25.163 L5.28,25.163 L5.28,33.809 C4.092,34.436 2.706,35.69 1.32,37.34 L3.333,40.145 C4.455,38.099 5.775,36.053 6.666,36.053 C7.392,36.053 8.514,37.142 9.9,37.934 C12.243,39.353 15.081,39.683 19.272,39.683 C22.572,39.683 28.512,39.485 30.921,39.32 C30.987,38.495 31.449,37.043 31.812,36.251 C28.479,36.68 23.265,36.977 19.404,36.977 C15.609,36.977 12.672,36.746 10.494,35.426 C9.471,34.832 8.811,34.304 8.217,33.941 L8.217,22.325 Z M43.362,15.824 C42.306,14.471 40.029,12.392 38.28,10.94 L36.333,12.821 C38.082,14.372 40.26,16.55 41.283,17.936 L43.362,15.824 Z M41.91,33.974 L41.91,20.477 L34.452,20.477 L34.452,23.414 L38.973,23.414 L38.973,34.634 C38.973,36.086 38.049,37.109 37.356,37.538 C37.884,38.132 38.643,39.386 38.907,40.112 C39.435,39.419 40.392,38.594 46.068,34.205 C45.738,33.611 45.243,32.423 45.045,31.631 L41.91,33.974 Z M49.731,33.545 L49.731,31.235 L59.235,31.235 L59.235,33.545 L49.731,33.545 Z M59.235,27.011 L59.235,29.156 L49.731,29.156 L49.731,27.011 L59.235,27.011 Z M62.139,24.701 L46.893,24.701 L46.893,40.574 L49.731,40.574 L49.731,35.69 L59.235,35.69 L59.235,37.373 C59.235,37.769 59.103,37.901 58.641,37.934 C58.212,37.934 56.661,37.967 55.143,37.868 C55.473,38.594 55.869,39.749 56.001,40.508 C58.311,40.508 59.829,40.475 60.852,40.046 C61.842,39.617 62.139,38.825 62.139,37.439 L62.139,24.701 Z M56.001,20.807 L56.001,18.893 L62.634,18.893 L62.634,16.748 L56.001,16.748 L56.001,15.032 L63.624,15.032 L63.624,12.755 L56.001,12.755 L56.001,10.313 L52.965,10.313 L52.965,12.755 L45.606,12.755 L45.606,15.032 L52.965,15.032 L52.965,16.748 L46.431,16.748 L46.431,18.893 L52.965,18.893 L52.965,20.807 L44.583,20.807 L44.583,23.084 L64.614,23.084 L64.614,20.807 L56.001,20.807 Z M67.551,23.447 L67.551,26.813 L97.581,26.813 L97.581,23.447 L67.551,23.447 Z M122.1,15.065 C121.77,13.646 121.077,11.6 120.45,9.983 L117.546,10.709 C118.173,12.359 118.833,14.537 119.064,15.923 L122.1,15.065 Z M129.129,16.088 L111.144,16.088 L111.144,19.058 L129.129,19.058 L129.129,16.088 Z M118.338,34.172 C118.008,30.839 116.985,25.097 115.962,20.642 L113.223,21.269 C114.147,25.757 115.038,31.631 115.302,35.063 L118.338,34.172 Z M108.141,10.445 C106.392,15.263 103.455,20.081 100.32,23.15 C100.848,23.876 101.739,25.526 102.036,26.252 C102.96,25.295 103.884,24.206 104.742,22.985 L104.742,40.541 L107.844,40.541 L107.844,18.167 C109.065,15.956 110.187,13.646 111.045,11.336 L108.141,10.445 Z M124.113,36.317 C125.301,32.093 126.555,25.955 127.446,20.972 L124.245,20.444 C123.684,25.295 122.463,31.961 121.275,36.317 L109.824,36.317 L109.824,39.254 L130.35,39.254 L130.35,36.317 L124.113,36.317 Z M143.187,19.751 C142.725,23.513 141.834,26.747 140.646,29.486 C139.59,28.628 138.435,27.803 137.379,27.011 C137.973,24.833 138.567,22.358 139.128,19.751 L143.187,19.751 Z M144.507,16.814 L143.946,16.913 L139.689,16.913 C140.118,14.702 140.481,12.557 140.745,10.544 L137.676,10.346 C137.478,12.392 137.148,14.669 136.752,16.913 L133.452,16.913 L133.452,19.751 L136.158,19.751 C135.498,22.952 134.706,25.955 133.98,28.166 C135.663,29.387 137.511,30.806 139.194,32.258 C137.544,34.931 135.432,36.878 132.924,38.165 C133.584,38.693 134.409,39.848 134.838,40.607 C137.478,39.089 139.722,37.01 141.504,34.304 C142.824,35.558 143.946,36.812 144.738,37.868 L146.751,35.261 C145.893,34.139 144.573,32.819 143.055,31.466 C144.738,27.803 145.893,23.117 146.355,17.276 L144.507,16.814 Z M163.647,24.008 L156.684,24.008 L156.684,21.137 C159.027,19.058 161.271,16.286 162.855,13.877 L160.743,12.392 L160.05,12.557 L147.642,12.557 L147.642,15.362 L157.938,15.362 C156.717,17.177 155.1,19.157 153.549,20.51 L153.549,24.008 L146.256,24.008 L146.256,26.945 L153.549,26.945 L153.549,37.109 C153.549,37.604 153.351,37.736 152.823,37.736 C152.328,37.769 150.48,37.769 148.665,37.703 C149.094,38.528 149.556,39.782 149.721,40.64 C152.295,40.64 153.978,40.574 155.133,40.112 C156.321,39.65 156.684,38.825 156.684,37.142 L156.684,26.945 L163.647,26.945 L163.647,24.008 Z M188.463,25.394 C187.374,28.034 185.79,30.311 183.843,32.159 C181.665,30.311 179.949,28.001 178.728,25.394 L188.463,25.394 Z M190.443,22.292 L189.849,22.424 L177.639,22.424 C177.903,21.071 178.134,19.718 178.299,18.497 L195.69,18.497 L195.69,15.527 L178.695,15.527 C178.926,13.217 178.992,11.402 179.058,10.28 L175.89,10.28 C175.824,11.237 175.791,13.118 175.56,15.527 L167.376,15.527 L167.376,18.497 L175.164,18.497 C174.273,24.668 171.996,32.654 166.188,37.373 C167.211,37.934 168.234,38.726 168.828,39.485 C172.59,36.185 174.933,31.598 176.418,26.978 C177.771,29.717 179.454,32.093 181.5,34.073 C178.959,35.888 175.989,37.175 172.821,37.967 C173.415,38.627 174.174,39.782 174.57,40.607 C178.002,39.551 181.17,38.099 183.942,36.053 C186.846,38.165 190.377,39.617 194.568,40.541 C194.997,39.683 195.855,38.396 196.548,37.736 C192.522,37.043 189.156,35.789 186.351,34.04 C189.123,31.268 191.268,27.77 192.489,23.183 L190.443,22.292 Z M207.537,18.035 L210.573,18.035 L210.573,15.527 L218.592,15.527 L218.592,17.771 L221.628,17.771 L221.628,15.527 L228.987,15.527 L228.987,12.788 L221.628,12.788 L221.628,10.346 L218.592,10.346 L218.592,12.788 L210.573,12.788 L210.573,10.346 L207.537,10.346 L207.537,12.788 L200.145,12.788 L200.145,15.527 L207.537,15.527 L207.537,18.035 Z M221.463,19.817 C223.014,20.972 224.763,22.721 225.588,23.909 L227.766,22.292 C226.941,21.071 225.126,19.421 223.542,18.365 L221.463,19.817 Z M208.461,18.431 C207.867,19.091 207.108,19.817 206.283,20.51 C205.392,19.619 204.369,18.761 203.049,17.936 L201.036,19.52 C202.29,20.345 203.313,21.203 204.105,22.127 C202.62,23.084 200.97,24.008 199.353,24.701 C199.947,25.196 200.739,26.12 201.168,26.714 C202.653,26.054 204.171,25.196 205.623,24.272 C206.052,25.064 206.382,25.922 206.613,26.747 C205.029,28.958 201.894,31.367 199.287,32.456 C199.947,33.05 200.706,34.007 201.102,34.733 C203.082,33.611 205.326,31.829 207.075,30.014 L207.075,30.905 C207.075,34.106 206.811,36.317 206.085,37.208 C205.821,37.538 205.557,37.703 205.029,37.736 C204.369,37.835 203.115,37.835 201.597,37.736 C202.125,38.495 202.455,39.551 202.488,40.409 C203.94,40.475 205.161,40.475 206.283,40.211 C207.075,40.112 207.702,39.749 208.098,39.254 C209.517,37.703 209.913,34.766 209.913,31.103 C209.913,28.133 209.583,25.262 207.933,22.622 C209.088,21.698 210.111,20.774 210.969,19.784 L208.461,18.431 Z M228.921,26.879 L228.921,24.041 L220.704,24.041 L220.704,23.348 L220.704,18.398 L217.866,18.398 L217.866,23.315 L217.866,24.041 L210.606,24.041 L210.606,26.879 L217.635,26.879 C217.074,30.773 215.193,35.162 209.583,38.693 C210.342,39.221 211.332,40.046 211.86,40.706 C216.282,37.868 218.559,34.403 219.681,30.971 C221.298,35.294 223.74,38.627 227.469,40.541 C227.898,39.749 228.756,38.594 229.449,38.066 C225.06,36.152 222.387,32.027 221.001,26.879 L228.921,26.879 Z M257.268,15.758 L247.434,15.758 L247.434,13.547 L257.268,13.547 L257.268,15.758 Z M257.268,20.081 L247.434,20.081 L247.434,17.87 L257.268,17.87 L257.268,20.081 Z M260.37,11.303 L244.464,11.303 L244.464,22.358 L260.37,22.358 L260.37,11.303 Z M239.085,10.412 C237.699,12.656 234.795,15.329 232.221,16.979 C232.716,17.606 233.475,18.827 233.805,19.52 C236.775,17.573 240.009,14.471 242.055,11.567 L239.085,10.412 Z M239.811,17.573 C237.864,20.873 234.696,24.173 231.759,26.252 C232.254,27.011 233.046,28.661 233.31,29.354 C234.432,28.43 235.653,27.374 236.775,26.153 L236.775,40.574 L239.745,40.574 L239.745,22.754 C240.768,21.401 241.758,20.015 242.517,18.662 L239.811,17.573 Z M244.365,33.479 C245.817,34.898 247.533,36.878 248.292,38.132 L250.602,36.482 C249.777,35.228 247.995,33.347 246.543,32.027 L244.365,33.479 Z M262.317,29.189 L257.598,29.189 L257.598,26.78 L261.69,26.78 L261.69,24.239 L242.616,24.239 L242.616,26.78 L254.529,26.78 L254.529,29.189 L241.824,29.189 L241.824,31.829 L254.529,31.829 L254.529,37.34 C254.529,37.736 254.397,37.835 253.902,37.868 C253.44,37.901 251.856,37.901 250.206,37.835 C250.602,38.627 251.031,39.782 251.196,40.607 C253.539,40.607 255.123,40.574 256.212,40.112 C257.301,39.683 257.598,38.924 257.598,37.406 L257.598,31.829 L262.317,31.829 L262.317,29.189 Z" id="邀请一位好友获得"></path>
                </g>
            </g>
        </g>
    </g>
</svg>