<?xml version="1.0" encoding="UTF-8" standalone="no"?>
<svg width="144px" height="90px" viewBox="0 0 144 90" version="1.1" xmlns="http://www.w3.org/2000/svg" xmlns:xlink="http://www.w3.org/1999/xlink">
    <!-- Generator: Sketch 3.8.3 (29802) - http://www.bohemiancoding.com/sketch -->
    <title>loading_book_small</title>
    <desc>Created with Sketch.</desc>
    <defs></defs>
    <g id="Symbols" stroke="none" stroke-width="1" fill="none" fill-rule="evenodd">
        <g id="loading_book_small" fill="#DEE0E2">
            <path d="M6.0041678,0 L137.995832,0 C141.311843,0 144,2.6930647 144,6.00522995 L144,83.9947701 C144,87.311367 141.315185,90 137.995832,90 L6.0041678,90 C2.68815749,90 0,87.3069353 0,83.9947701 L0,6.00522995 C0,2.68863303 2.68481532,0 6.0041678,0 Z M3,83.9947701 C3,85.6520725 4.34700247,87 6.0041678,87 L137.995832,87 C139.656799,87 141,85.6560446 141,83.9947701 L141,6.00522995 C141,4.34792751 139.652998,3 137.995832,3 L6.0041678,3 C4.34320103,3 3,4.3439554 3,6.00522995 L3,83.9947701 Z" id="Rectangle-508"></path>
            <rect id="Rectangle-509" x="71" y="0" width="3" height="90"></rect>
        </g>
    </g>
</svg>