<?xml version="1.0" encoding="UTF-8" standalone="no"?>
<svg width="702px" height="363px" viewBox="0 0 702 363" version="1.1" xmlns="http://www.w3.org/2000/svg" xmlns:xlink="http://www.w3.org/1999/xlink">
    <!-- Generator: Sketch 39.1 (31720) - http://www.bohemiancoding.com/sketch -->
    <title>weixin_invite_desc</title>
    <desc>Created with Sketch.</desc>
    <defs></defs>
    <g id="Symbols" stroke="none" stroke-width="1" fill="none" fill-rule="evenodd">
        <g id="weixin_invite_desc">
            <g id="illustration" transform="translate(0.000000, 18.000000)">
                <path d="M339.490319,0.2 L362.509681,0.2 C530.431793,6.0447396 665.971404,139.281933 675.468243,306.251307 C673.362528,316.089057 665.228118,323.690636 655.112485,325.000001 L46.8888006,325 C36.7763346,323.690587 28.6382362,316.088484 26.5318173,306.250249 C36.0291682,139.28137 171.568562,6.04472726 339.490319,0.2 L339.490319,0.2 Z" id="Combined-Shape" fill="#F8FBFE"></path>
                <path d="M611,325 C611,181.405965 494.594035,65 351,65 C207.405965,65 91,181.405965 91,325 L611,325 Z" id="Oval" fill="#F1F7FD"></path>
                <path d="M520,325 C520,231.663877 444.336123,156 351,156 C257.663877,156 182,231.663877 182,325 L520,325 Z" id="Oval" fill="#EAF3FC"></path>
                <g id="ticket" transform="translate(128.000000, 38.500000)">
                    <g id="body">
                        <path d="M38,12.5 L428,12.5 C428,26.8594035 439.640597,38.5 454,38.5 L454,113.5 C442.40202,113.5 433,122.90202 433,134.5 C433,146.09798 442.40202,155.5 454,155.5 L454,230.5 C439.640597,230.5 428,242.140597 428,256.5 L38,256.5 C38,242.140597 26.3594035,230.5 12,230.5 L12,155.5 C23.5979797,155.5 33,146.09798 33,134.5 C33,122.90202 23.5979797,113.5 12,113.5 L12,87.5 L12,73.5 L12,38.5 C26.3594035,38.5 38,26.8594035 38,12.5 L38,12.5 Z" id="Combined-Shape" fill="#CBE6FF"></path>
                        <path d="M26,0.5 L26,2.5 C26,15.754834 15.254834,26.5 2,26.5 L0,26.5 L0,28.5 L0,63.5 L0,77.5 L1.15463195e-14,103.5 L1.26565425e-14,105.5 L2,105.5 C12.4934102,105.5 21,114.00659 21,124.5 C21,134.99341 12.4934102,143.5 2,143.5 L0,143.5 L0,145.5 L7.10542736e-15,220.5 L7.32747196e-15,222.5 L2,222.5 C15.254834,222.5 26,233.245166 26,246.5 L26,248.5 L28,248.5 L418,248.5 L420,248.5 L420,246.5 C420,233.245166 430.745166,222.5 444,222.5 L446,222.5 L446,220.5 L446,145.5 L446,143.5 L444,143.5 C433.50659,143.5 425,134.99341 425,124.5 C425,114.00659 433.50659,105.5 444,105.5 L446,105.5 L446,103.5 L446,28.5 L446,26.5 L444,26.5 C430.745166,26.5 420,15.754834 420,2.5 L420,0.5 L418,0.5 L28,0.5 L26,0.5 Z M416,4.4992288 C417.049443,18.3788234 428.144637,29.4656191 442,30.4316244 L442,101.582788 C430.252103,102.579848 421,112.459452 421,124.5 C421,136.548011 430.263576,146.432398 442,147.419056 C442,149.307487 442,216.711082 442,218.571359 C428.094374,219.55898 417.003268,230.680592 416,244.5 C414,244.500007 32,244.549339 30,244.5 C28.9822914,230.683718 17.9339449,219.597775 4,218.5 C4,216.277427 4,149.712287 4,147.5 C15.7888717,146.376339 25,136.513856 25,124.5 C25,112.482614 15.7834583,102.617866 4,101.5 C4,99.8781351 4,31.195406 4,30.5 C17.8803146,29.4411645 28.9488556,18.3644135 29.9293417,4.50464687 C31.0456963,4.5 415.537292,4.50464687 416,4.4992288 Z" id="Combined-Shape" fill="#1B88EE"></path>
                    </g>
                    <g id="number" transform="translate(49.400000, 39.000000)">
                        <g id="background">
                            <rect id="Combined-Shape" fill="#FFFFFF" x="12.6" y="12.5" width="342" height="166" rx="2"></rect>
                            <path d="M0.6,166.490671 C0.6,168.710006 2.39319464,170.5 4.60843677,170.5 L342.591563,170.5 C344.811273,170.5 346.6,168.706122 346.6,166.490671 L346.6,4.5093292 C346.6,2.28999385 344.806805,0.5 342.591563,0.5 L4.60843677,0.5 C2.38872704,0.5 0.6,2.29387768 0.6,4.5093292 L0.6,166.490671 Z M342.591563,4.5 C342.599265,4.5 342.6,166.490671 342.6,166.490671 C342.6,166.499554 4.60843677,166.5 4.60843677,166.5 C4.60073548,166.5 4.6,4.5093292 4.6,4.5093292 C4.6,4.5004461 342.591563,4.5 342.591563,4.5 Z" id="Combined-Shape" fill="#1B88EE"></path>
                        </g>
                        <g id="money" transform="translate(87.500000, 107.000000)" fill="#1B88EE">
                            <path d="M151.151,13.03 L138.005,13.03 L138.005,6.562 C143.759,6.142 149.303,5.596 153.671,4.924 L152.159,1.312 C143.717,2.698 129.857,3.538 118.265,3.748 C118.601,4.672 119.063,6.184 119.105,7.276 C123.809,7.234 128.933,7.066 133.973,6.814 L133.973,13.03 L121.331,13.03 L121.331,34.072 L125.321,34.072 L125.321,16.852 L133.973,16.852 L133.973,38.776 L138.005,38.776 L138.005,16.852 L147.077,16.852 L147.077,29.116 C147.077,29.662 146.867,29.83 146.195,29.872 C145.523,29.914 143.213,29.914 140.903,29.83 C141.407,30.88 142.037,32.644 142.205,33.736 C145.481,33.778 147.749,33.694 149.219,33.022 C150.731,32.434 151.151,31.258 151.151,29.2 L151.151,13.03 Z" id="币-"></path>
                            <path d="M178.115,23.152 C179.627,23.152 180.887,21.934 180.887,20.254 C180.887,18.49 179.627,17.272 178.115,17.272 C176.603,17.272 175.343,18.49 175.343,20.254 C175.343,21.934 176.603,23.152 178.115,23.152 L178.115,23.152 Z" id="Path"></path>
                            <path d="M106.841,18.658 L106.841,7.444 L94.157,7.444 L94.157,0.388 L90.167,0.388 L90.167,7.444 L78.323,7.444 L78.323,11.182 L90.167,11.182 L90.167,18.658 L75.803,18.658 L75.803,22.354 L90.167,22.354 L90.167,38.692 L94.157,38.692 L94.157,22.354 L108.605,22.354 C108.185,27.772 107.681,30.25 106.841,30.964 C106.337,31.342 105.875,31.384 105.035,31.384 C103.985,31.384 101.339,31.342 98.735,31.09 C99.491,32.14 99.953,33.736 100.037,34.828 C102.641,34.954 105.161,34.954 106.505,34.87 C108.101,34.744 109.151,34.45 110.117,33.442 C111.461,32.098 112.091,28.654 112.721,20.338 C112.805,19.75 112.889,18.658 112.889,18.658 L106.841,18.658 Z M94.157,11.182 L102.935,11.182 L102.935,18.658 L94.157,18.658 L94.157,11.182 Z M113.099,6.94 C111.251,5.386 107.555,2.908 104.867,1.312 L102.599,3.916 C105.329,5.68 108.941,8.284 110.663,9.922 L113.099,6.94 Z" id="Combined-Shape"></path>
                            <path d="M3.986,23.488 C5.834,23.488 7.262,22.018 7.262,20.128 C7.262,18.112 5.834,16.684 3.986,16.684 C2.222,16.684 0.794,18.112 0.794,20.128 C0.794,22.018 2.222,23.488 3.986,23.488 L3.986,23.488 Z" id="·"></path>
                        </g>
                        <g id="title" transform="translate(1.000000, 2.000000)">
                            <rect id="Rectangle-9" fill="#1B88EE" x="0.6" y="0.5" width="343" height="61"></rect>
                            <polygon id="一" fill="#FFFFFF" points="113.04 29.6 113.04 32.03 140.28 32.03 140.28 29.6"></polygon>
                            <path d="M163.98,41.42 C165.06,37.43 166.29,31.58 167.07,26.99 L164.76,26.57 C164.19,31.04 162.99,37.4 161.91,41.42 L151.44,41.42 L151.44,43.58 L170.1,43.58 L170.1,41.42 L163.98,41.42 Z M150.24,17.51 C148.59,22.07 145.8,26.54 142.86,29.42 C143.28,29.93 143.91,31.07 144.12,31.61 C145.14,30.53 146.16,29.33 147.09,27.98 L147.09,44.75 L149.31,44.75 L149.31,24.5 C150.48,22.46 151.53,20.33 152.34,18.14 L150.24,17.51 Z M158.88,39.41 C158.55,36.35 157.65,30.98 156.66,26.81 L154.65,27.26 C155.58,31.43 156.45,36.92 156.69,40.04 L158.88,39.41 Z M168.87,22.82 L152.7,22.82 L152.7,24.98 L168.87,24.98 L168.87,22.82 Z M162.27,21.83 C162,20.6 161.31,18.68 160.77,17.18 L158.67,17.72 C159.24,19.22 159.84,21.23 160.08,22.49 L162.27,21.83 Z" id="Combined-Shape" fill="#FFFFFF"></path>
                            <path d="M200.28,30.05 L193.68,30.05 L193.68,27.17 C195.78,25.34 197.91,22.82 199.38,20.6 L197.85,19.49 L197.34,19.61 L185.82,19.61 L185.82,21.68 L195.81,21.68 C194.58,23.42 192.96,25.37 191.43,26.63 L191.43,30.05 L184.5,30.05 L184.5,32.18 L191.43,32.18 L191.43,42.14 C191.43,42.56 191.25,42.71 190.77,42.71 C190.32,42.74 188.67,42.74 186.9,42.68 C187.23,43.31 187.59,44.18 187.74,44.81 C190.05,44.84 191.49,44.78 192.42,44.45 C193.35,44.09 193.68,43.46 193.68,42.14 L193.68,32.18 L200.28,32.18 L200.28,30.05 Z M183.06,23.45 L182.64,23.54 L178.29,23.54 C178.71,21.5 179.04,19.43 179.31,17.57 L177.12,17.42 C176.91,19.31 176.55,21.44 176.13,23.54 L172.98,23.54 L172.98,25.61 L175.74,25.61 C175.08,28.64 174.36,31.58 173.64,33.74 C175.2,34.79 176.91,36.05 178.47,37.37 C176.88,39.95 174.84,41.84 172.5,43.01 C173.01,43.4 173.61,44.21 173.91,44.78 C176.37,43.4 178.47,41.45 180.15,38.81 C181.41,39.98 182.49,41.12 183.24,42.08 L184.74,40.25 C183.93,39.2 182.7,38 181.26,36.77 C182.88,33.44 183.93,29.18 184.41,23.78 L183.06,23.45 Z M182.1,25.61 C181.65,29.45 180.75,32.69 179.52,35.36 C178.41,34.46 177.24,33.62 176.07,32.87 C176.7,30.74 177.33,28.22 177.87,25.61 L182.1,25.61 Z" id="Combined-Shape" fill="#FFFFFF"></path>
                            <path d="M224.79,28.4 L224.43,28.52 L212.67,28.52 C213,27.14 213.21,25.79 213.39,24.56 L229.5,24.56 L229.5,22.4 L213.66,22.4 C213.93,20.12 213.99,18.32 214.05,17.39 L211.77,17.39 C211.74,18.2 211.68,20.03 211.41,22.4 L203.79,22.4 L203.79,24.56 L211.14,24.56 C210.3,30.32 208.2,38 202.8,42.32 C203.49,42.74 204.27,43.28 204.72,43.85 C208.29,40.79 210.48,36.32 211.8,31.91 C213.09,34.7 214.8,37.13 216.93,39.05 C214.41,40.88 211.5,42.17 208.41,42.95 C208.89,43.37 209.4,44.24 209.67,44.81 C212.97,43.88 216.03,42.5 218.7,40.49 C221.46,42.53 224.79,43.97 228.84,44.78 C229.11,44.18 229.74,43.25 230.25,42.8 C226.38,42.08 223.11,40.85 220.41,39.05 C223.08,36.59 225.15,33.32 226.32,29.09 L224.79,28.4 L224.79,28.4 Z M223.38,30.65 C222.33,33.5 220.65,35.81 218.61,37.7 C216.33,35.78 214.59,33.41 213.39,30.65 L223.38,30.65 L223.38,30.65 Z" id="Combined-Shape" fill="#FFFFFF"></path>
                        </g>
                    </g>
                </g>
                <g id="star" transform="translate(0.300000, 4.400000)">
                    <path d="M675.7,15.6 C675.7,8.42029825 681.520298,2.6 688.7,2.6 C695.879702,2.6 701.7,8.42029825 701.7,15.6 C701.7,22.7797017 695.879702,28.6 688.7,28.6 C681.520298,28.6 675.7,22.7797017 675.7,15.6 Z M697.7,15.6 C697.7,10.6294373 693.670563,6.6 688.7,6.6 C683.729437,6.6 679.7,10.6294373 679.7,15.6 C679.7,20.5705627 683.729437,24.6 688.7,24.6 C693.670563,24.6 697.7,20.5705627 697.7,15.6 Z" id="Oval" fill="#CAE6FF"></path>
                    <path d="M666.7,123.6 C666.7,117.30101 671.40101,112.6 677.7,112.6 C682.99899,112.6 687.7,117.30101 687.7,123.6 C687.7,128.89899 682.99899,133.6 677.7,133.6 C671.40101,133.6 666.7,128.89899 666.7,123.6 Z M683.7,123.6 C683.7,119.510149 680.789851,116.6 677.7,116.6 C673.610149,116.6 670.7,119.510149 670.7,123.6 C670.7,126.689851 673.610149,129.6 677.7,129.6 C680.789851,129.6 683.7,126.689851 683.7,123.6 Z" id="Oval" fill="#7EC1FF"></path>
                    <path d="M0.7,16.6 C0.7,7.53958638 7.63958638,0.6 16.7,0.6 C24.7604136,0.6 31.7,7.53958638 31.7,16.6 C31.7,24.6604136 24.7604136,31.6 16.7,31.6 C7.63958638,31.6 0.7,24.6604136 0.7,16.6 Z M27.7,16.6 C27.7,9.8679789 22.6616669,4.6 16.7,4.6 C9.84872538,4.6 4.7,9.74872538 4.7,16.6 C4.7,22.5616669 9.9679789,27.6 16.7,27.6 C22.5512746,27.6 27.7,22.4512746 27.7,16.6 Z" id="Oval" fill="#C4E3FF"></path>
                    <path d="M627.751474,72.514456 L615.219044,76.3392954 C614.159185,76.6627594 613.841214,76.2059385 614.506669,75.3218344 L622.38689,64.8524066 L618.56266,52.319168 C618.239247,51.2592408 618.696043,50.9412339 619.580066,51.6067141 L630.048526,59.487231 L642.580956,55.6623916 C643.640815,55.3389276 643.958786,55.7957485 643.293331,56.6798526 L635.41311,67.1492805 L639.23734,79.682519 C639.560753,80.7424462 639.103957,81.0604532 638.219934,80.3949729 L627.751474,72.514456 Z" id="Star" fill="#D6EBFF"></path>
                    <path d="M77.8138024,72.4759405 L65.2813722,76.3007799 C64.2215134,76.6242439 63.9035416,76.167423 64.5689969,75.2833189 L72.4492185,64.8138911 L68.6249876,52.2806525 C68.3015751,51.2207253 68.7583712,50.9027184 69.6423936,51.5681986 L80.1108537,59.4487155 L92.6432838,55.6238761 C93.7031427,55.3004122 94.0211144,55.757233 93.3556591,56.6413372 L85.4754376,67.110765 L89.2996684,79.6440035 C89.623081,80.7039308 89.1662848,81.0219377 88.2822624,80.3564574 L77.8138024,72.4759405 Z" id="Star" fill="#7BBFFF" transform="translate(78.962328, 65.962328) rotate(45.000000) translate(-78.962328, -65.962328) "></path>
                </g>
            </g>
        </g>
    </g>
</svg>